# Alias OBJ Model File
# Exported from SketchUp, (c) 2000-2012 Trimble Navigation Limited
# File units = meters

mtllib appartement8.mtl

g Mesh1 Group1 Model

usemtl Color_002
v 4.3 2.1 -1.00318
vt -169.291 39.4953
vn 0 -1 -0
v 4.3 2.1 -1.85318
vt -169.291 72.9599
v 4.442 2.1 -1.85318
vt -174.882 72.9599
v 4.442 2.1 -1.00318
vt -174.882 39.4953
f 1/1/1 2/2/1 3/3/1 4/4/1 

v 4.3 0 -5.8
vt -228.346 0
vn -1 0 -0
v 4.3 0 -1.85318
vt -72.9599 0
vt -72.9599 82.6772
vt -39.4953 82.6772
v 4.3 0 -1.00318
vt -39.4953 0
v 4.3 0 -0.2
vt -7.87402 0
v 4.3 2.4 -0.2
vt -7.87402 94.4882
v 4.3 2.4 -5.8
vt -228.346 94.4882
f 5/5/2 6/6/2 2/7/2 1/8/2 7/9/2 8/10/2 9/11/2 10/12/2 

v 0.2 0 -5.29963
vt -7.87402 208.647
v 1.12799e-017 0 -5.29963
vt -4.44089e-016 208.647
v 0 0 -6
vt 0 236.22
v 4.5 0 -6
vt -177.165 236.22
v 4.5 0 -1.85318
vt -177.165 72.9599
v 4.442 0 -1.85318
vt -169.291 228.346
v 0.2 0 -5.8
vt -7.87402 228.346
f 11/13/1 12/14/1 13/15/1 14/16/1 15/17/1 16/3/1 6/2/1 5/18/1 17/19/1 

vt 7.87402 0
vn 0 0 1
v 0.2 2.2 -5.29963
vt 7.87402 86.6142
v 1.12799e-017 2.2 -5.29963
vt 4.44089e-016 86.6142
vt 4.44089e-016 0
f 11/20/3 18/21/3 19/22/3 12/23/3 

v 0.2 0 -0.2
vn 1 0 -0
v 0.2 0 -3.69963
vt 145.655 0
v 0.2 2.2 -3.69963
vt 145.655 86.6142
vt 208.647 86.6142
vt 208.647 0
vt 228.346 0
v 0.2 2.4 -5.8
vt 228.346 94.4882
v 0.2 2.4 -0.2
vt 7.87402 94.4882
f 20/20/4 21/24/4 22/25/4 18/26/4 11/27/4 17/28/4 23/29/4 24/30/4 

v 0 0 -6.99352e-016
vt 0 2.75335e-014
v 1.12799e-017 0 -3.69963
vt -4.44089e-016 145.655
vt -7.87402 145.655
vt -7.87402 7.87402
vt -169.291 7.87402
v 4.442 0 -1.00318
v 4.5 0 -1.00318
vt -177.165 39.4953
v 4.5 0 -6.99352e-016
vt -177.165 2.75335e-014
f 25/31/1 26/32/1 21/33/1 20/34/1 8/35/1 7/1/1 27/4/1 28/36/1 29/37/1 

vt -236.22 2.24035e-034
vn -1 -2.21628e-018 -4.27931e-019
vt -208.647 -7.86341e-034
vt -208.647 86.6142
v 1.12799e-017 2.2 -3.69963
vt -145.655 86.6142
vt -145.655 -8.46084e-034
vt -2.75335e-014 2.61132e-050
v 0 2.4 -6.99352e-016
vt -2.75335e-014 94.4882
v 0 2.4 -6
vt -236.22 94.4882
f 13/38/5 12/39/5 19/40/5 30/41/5 26/42/5 25/43/5 31/44/5 32/45/5 

f 18/13/1 22/33/1 30/32/1 19/14/1 

vt -7.87402 86.6142
vn 0 0 -1
vt -4.44089e-016 0
vt -4.44089e-016 86.6142
f 22/46/6 21/10/6 26/47/6 30/48/6 

v 4.5 2.4 -6.99352e-016
vt 177.165 94.4882
vn 3.26761e-018 -5.47376e-017 1
v 2.82152 2.4 -2.52775e-016
vt 111.083 94.4882
v 2.82152 2.1 -0
vt 111.083 82.6772
v 2.82152 0.9 -0
vt 111.083 35.4331
v 1.47152 0.9 -0
vt 57.9338 35.4331
v 1.47152 2.1 -0
vt 57.9338 82.6772
v 1.47152 2.4 -3.49676e-016
vt 57.9338 94.4882
vt 8.99688e-032 94.4882
vt 8.99688e-032 -1.50712e-030
vt 177.165 -1.47543e-030
f 33/49/7 34/50/7 35/51/7 36/52/7 37/53/7 38/54/7 39/55/7 31/56/7 25/57/7 29/58/7 

vt 57.9338 1.37668e-014
vn 0 1 -0
vt 111.083 9.95177e-015
vt 177.165 2.75335e-014
vt 169.291 7.87402
v 2.82152 2.4 -0.2
vt 111.083 7.87402
v 1.47152 2.4 -0.2
vt 57.9338 7.87402
vt 7.87402 7.87402
f 39/59/8 34/60/8 33/61/8 9/62/8 40/63/8 41/64/8 24/65/8 31/31/8 

vn -3.58892e-017 1.00408e-015 1
f 38/54/9 35/51/9 34/50/9 39/55/9 

v 1.47152 2.1 -0.2
vt -57.9338 7.87402
v 2.82152 2.1 -0.2
vt -111.083 7.87402
vt -111.083 0
vt -57.9338 0
f 42/66/1 43/67/1 35/68/1 38/69/1 

vt -111.083 82.6772
vt -57.9338 82.6772
vt -57.9338 94.4882
vt -111.083 94.4882
f 43/70/6 42/71/6 41/72/6 40/73/6 

vn 9.71345e-018 -3.39442e-018 -1
v 1.47152 0.9 -0.2
vt -57.9338 35.4331
v 2.82152 0.9 -0.2
vt -111.083 35.4331
vt -169.291 94.4882
vt -169.291 2.67277e-017
vt -7.87402 2.67277e-017
f 24/11/10 41/72/10 42/71/10 44/74/10 45/75/10 43/70/10 40/73/10 9/76/10 8/77/10 20/78/10 

vt 7.87402 35.4331
vt 7.87402 82.6772
vt 0 82.6772
vt 0 35.4331
f 44/79/4 42/80/4 38/81/4 37/82/4 

vt 57.9338 0
vt 111.083 0
f 45/63/8 44/64/8 37/83/8 36/84/8 

vt -7.87402 82.6772
vt -7.87402 35.4331
f 43/85/2 45/86/2 36/82/2 35/81/2 

v 4.5 2.4 -6
vt 177.165 236.22
vt 169.291 228.346
f 33/61/8 46/87/8 10/88/8 9/62/8 

vt 2.75335e-014 0
vt 39.4953 0
v 4.5 2.1 -1.00318
vt 39.4953 82.6772
v 4.5 2.1 -1.85318
vt 72.9599 82.6772
vt 72.9599 0
vt 236.22 0
vt 236.22 94.4882
vt 2.75335e-014 94.4882
f 29/89/4 28/90/4 47/91/4 48/92/4 15/93/4 14/94/4 46/95/4 33/96/4 

vt -177.165 0
vt -174.882 0
vt -174.882 82.6772
vt -177.165 82.6772
f 28/97/6 27/98/6 4/99/6 47/100/6 

f 28/36/1 27/4/1 16/3/1 15/17/1 

vt 177.165 82.6772
vn 0 1.71884e-016 1
vt 174.882 82.6772
vt 174.882 1.25406e-014
vt 177.165 1.25406e-014
f 48/101/11 3/102/11 16/103/11 15/104/11 

f 47/36/1 4/4/1 3/3/1 48/17/1 

vt 169.291 82.6772
vt 169.291 1.25406e-014
f 2/105/11 6/106/11 16/103/11 3/102/11 

vt -169.291 0
vt -169.291 82.6772
f 7/107/6 1/108/6 4/99/6 27/98/6 

vt 0 0
vt 0 94.4882
vt -177.165 94.4882
f 14/97/6 13/109/6 32/110/6 46/111/6 

vt 7.87402 228.346
f 23/112/8 10/88/8 46/87/8 32/15/8 

vt 169.291 0
vt 169.291 94.4882
f 17/20/3 5/113/3 10/114/3 23/30/3 

f 24/65/8 23/112/8 32/15/8 31/31/8 

g Mesh2 Group2 Model

usemtl Wood__Floor
vt 1.04599 0.0466128
v 4.3 0 -5.8
vt 1.04599 2.63639
v 0.2 0 -5.8
vt -1.6443 2.63639
vt -1.6443 2.30806
v 0 0 -5.29963
vt -1.77553 2.30806
v 0 0 -3.69963
vt -1.77553 1.25819
vt -1.6443 1.25819
vt -1.6443 -1.03815
vt 1.04599 -1.03815
vt 1.04599 -0.51113
v 4.442 0 -1.00318
vt 1.13917 -0.51113
v 4.442 0 -1.85318
vt 1.13917 0.0466128
f 6/115/8 49/116/8 50/117/8 11/118/8 51/119/8 52/120/8 21/121/8 20/122/8 8/123/8 7/124/8 53/125/8 54/126/8 

g Mesh3 Group3 Model

usemtl Color_001
vt -33.4646 0
vt -33.4646 82.6772
f 16/127/2 27/109/2 4/81/2 3/128/2 

g Mesh4 Group4 Model

usemtl Color_005
v 4.3 1.03319 -2.04446
vt 4.72441 0
v 4.3 1.63419 -2.04446
vt 4.72441 23.6614
v 4.18 1.63419 -2.04446
vt 0 23.6614
v 4.18 1.03319 -2.04446
f 55/129/3 56/130/3 57/131/3 58/109/3 

v 4.3 1.03319 -2.46646
vt 16.6142 0
v 4.3 1.63419 -2.46646
vt 16.6142 23.6614
f 59/132/4 60/133/4 56/131/4 55/109/4 

vt -4.72441 23.6614
vt -4.72441 0
v 4.18 1.03319 -2.46646
v 4.18 1.63419 -2.46646
f 60/134/6 59/135/6 61/109/6 62/131/6 

vt -4.72441 16.6142
vt 0 16.6142
f 59/136/1 55/135/1 58/109/1 61/137/1 

vt -16.6142 23.6614
vt -16.6142 0
f 62/138/2 61/139/2 58/109/2 57/131/2 

vt 4.72441 16.6142
f 56/129/8 60/140/8 62/137/8 57/109/8 

g Mesh5 Group5 Model

usemtl Color_004
v 4.22665 1 -0.425572
vt 46.5354 39.3701
v 4.17393 1 -0.425572
vt 44.46 39.3701
v 4.17393 0.96 -0.425572
vt 44.46 37.7953
v 4.17393 2.16573e-015 -0.425572
vt 44.46 2.84646e-014
v 4.22665 2.16573e-015 -0.425572
vt 46.5354 2.84646e-014
f 63/141/3 64/142/3 65/143/3 66/144/3 67/145/3 

v 3.04465 1 -0.458758
vt 0 7.08661
v 3.04465 1 -0.425572
vt 0 5.78006
v 3.09952 1 -0.425572
vt 2.16032 5.78006
vt 44.46 5.78006
vt 46.5354 5.78006
v 4.22665 1 -0.458758
vt 46.5354 7.08661
f 68/146/8 69/147/8 70/148/8 64/149/8 63/150/8 71/151/8 

v 3.04465 1.44273e-015 -0.458758
vt -7.08661 0
v 3.04465 1.6243e-015 -0.425572
vt -5.78006 7.14827e-015
vt -5.78006 39.3701
vt -7.08661 39.3701
f 72/152/2 73/153/2 69/154/2 68/155/2 

v 4.22665 1.44273e-015 -0.278758
vt -46.5354 5.84468e-031
vn 2.08455e-016 -1 6.0251e-017
v 3.04465 1.44273e-015 -0.278758
v 3.04465 1.6243e-015 -0.315805
vt -1.49009e-030 1.45854
v 3.09952 1.6243e-015 -0.315805
vt -2.16032 1.45854
v 3.09952 1.6243e-015 -0.425572
vt -2.16032 5.78006
vt -1.49009e-030 5.78006
v 4.22665 1.44273e-015 -0.458758
vt -46.5354 7.08661
vt -46.5354 5.78006
vt -44.46 5.78006
v 4.17393 2.16573e-015 -0.315805
vt -44.46 1.45854
v 4.22665 2.16573e-015 -0.315805
vt -46.5354 1.45854
f 74/156/12 75/109/12 76/157/12 77/158/12 78/159/12 73/160/12 72/146/12 79/161/12 67/162/12 66/163/12 80/164/12 81/165/12 

vt 46.5354 0
v 4.22665 1 -0.278758
v 3.04465 1 -0.278758
vt 0 39.3701
f 75/109/3 74/166/3 82/141/3 83/167/3 

vt 1.45854 2.84646e-014
v 4.22665 1 -0.315805
vt 1.45854 39.3701
f 74/109/4 81/168/4 84/169/4 82/167/4 

v 4.17393 1 -0.315805
vt -44.46 39.3701
vt -46.5354 39.3701
vt -46.5354 2.84646e-014
vt -44.46 2.84646e-014
v 4.17393 0.96 -0.315805
vt -44.46 37.7953
f 85/170/6 84/171/6 81/172/6 80/173/6 86/174/6 

vt 46.5354 1.45854
vt 44.46 1.45854
v 3.09952 1 -0.315805
vt 2.16032 1.45854
v 3.04465 1 -0.315805
vt 0 1.45854
f 82/166/8 84/175/8 85/176/8 87/177/8 88/178/8 83/109/8 

vt -2.16032 39.3701
v 3.09952 0.96 -0.315805
vt -2.16032 37.7953
f 87/179/6 85/170/6 86/174/6 89/180/6 

v 3.09952 0.96 -0.425572
f 89/177/8 86/176/8 65/149/8 90/148/8 

vt 5.78006 2.84646e-014
vt 5.78006 37.7953
vt 1.45854 37.7953
f 66/181/4 65/182/4 86/183/4 80/168/4 

vt 2.16032 39.3701
vt 2.16032 37.7953
f 64/142/3 70/184/3 90/185/3 65/143/3 

vt 0 7.14827e-015
vt 2.16032 7.14827e-015
f 70/184/3 69/167/3 73/186/3 78/187/3 90/185/3 

vt -1.45854 7.14827e-015
vt -1.45854 37.7953
vt -5.78006 37.7953
f 77/188/2 89/189/2 90/190/2 78/153/2 

vt -2.16032 7.14827e-015
f 88/167/6 87/179/6 89/180/6 77/191/6 76/186/6 

vt -1.45854 39.3701
f 88/192/2 76/188/2 75/109/2 83/167/2 

vt -46.5354 0
f 79/193/6 72/109/6 68/167/6 71/171/6 

vt 5.78006 39.3701
vt 7.08661 0
vt 7.08661 39.3701
f 63/194/4 67/181/4 79/195/4 71/196/4 

