# Alias OBJ Model File
# Exported from SketchUp, (c) 2000-2012 Trimble Navigation Limited
# File units = meters

mtllib appartement6.mtl

g Mesh1 Group1 Model

usemtl Color_002
v 4.3 2.1 -1.00318
vt -169.291 39.4953
vn 0 -1 -0
v 4.3 2.1 -1.85318
vt -169.291 72.9599
v 4.442 2.1 -1.85318
vt -174.882 72.9599
v 4.442 2.1 -1.00318
vt -174.882 39.4953
f 1/1/1 2/2/1 3/3/1 4/4/1 

v 4.3 0 -5.8
vt -228.346 0
vn -1 0 -0
v 4.3 0 -1.85318
vt -72.9599 0
vt -72.9599 82.6772
vt -39.4953 82.6772
v 4.3 0 -1.00318
vt -39.4953 0
v 4.3 0 -0.2
vt -7.87402 0
v 4.3 2.4 -0.2
vt -7.87402 94.4882
v 4.3 2.4 -5.8
vt -228.346 94.4882
f 5/5/2 6/6/2 2/7/2 1/8/2 7/9/2 8/10/2 9/11/2 10/12/2 

v 0.2 0 -5.29963
vt -7.87402 208.647
v 1.12799e-017 0 -5.29963
vt -4.44089e-016 208.647
v 0 0 -6
vt 0 236.22
v 4.5 0 -6
vt -177.165 236.22
v 4.5 0 -1.85318
vt -177.165 72.9599
v 4.442 0 -1.85318
vt -169.291 228.346
v 0.2 0 -5.8
vt -7.87402 228.346
f 11/13/1 12/14/1 13/15/1 14/16/1 15/17/1 16/3/1 6/2/1 5/18/1 17/19/1 

vt 7.87402 0
vn 0 0 1
v 0.2 2.2 -5.29963
vt 7.87402 86.6142
v 1.12799e-017 2.2 -5.29963
vt 4.44089e-016 86.6142
vt 4.44089e-016 0
f 11/20/3 18/21/3 19/22/3 12/23/3 

v 0.2 0 -0.2
vn 1 0 -0
v 0.2 0 -3.69963
vt 145.655 0
v 0.2 2.2 -3.69963
vt 145.655 86.6142
vt 208.647 86.6142
vt 208.647 0
vt 228.346 0
v 0.2 2.4 -5.8
vt 228.346 94.4882
v 0.2 2.4 -0.2
vt 7.87402 94.4882
f 20/20/4 21/24/4 22/25/4 18/26/4 11/27/4 17/28/4 23/29/4 24/30/4 

v 0 0 -6.99352e-016
vt 0 2.75335e-014
v 1.12799e-017 0 -3.69963
vt -4.44089e-016 145.655
vt -7.87402 145.655
vt -7.87402 7.87402
vt -169.291 7.87402
v 4.442 0 -1.00318
v 4.5 0 -1.00318
vt -177.165 39.4953
v 4.5 0 -6.99352e-016
vt -177.165 2.75335e-014
f 25/31/1 26/32/1 21/33/1 20/34/1 8/35/1 7/1/1 27/4/1 28/36/1 29/37/1 

vt -236.22 2.24035e-034
vn -1 -2.21628e-018 -4.27931e-019
vt -208.647 -7.86341e-034
vt -208.647 86.6142
v 1.12799e-017 2.2 -3.69963
vt -145.655 86.6142
vt -145.655 -8.46084e-034
vt -2.75335e-014 2.61132e-050
v 0 2.4 -6.99352e-016
vt -2.75335e-014 94.4882
v 0 2.4 -6
vt -236.22 94.4882
f 13/38/5 12/39/5 19/40/5 30/41/5 26/42/5 25/43/5 31/44/5 32/45/5 

f 18/13/1 22/33/1 30/32/1 19/14/1 

vt -7.87402 86.6142
vn 0 0 -1
vt -4.44089e-016 0
vt -4.44089e-016 86.6142
f 22/46/6 21/10/6 26/47/6 30/48/6 

vt 0 0
v 1.47152 0.9 -0
vt 57.9338 35.4331
vt 0 94.4882
f 25/49/3 33/50/3 31/51/3

v 2.82152 0.9 -0
vt 111.083 35.4331
f 33/50/3 25/49/3 34/52/3

vt 177.165 0
f 29/53/3 34/52/3 25/49/3

v 4.5 2.4 -6.99352e-016
vt 177.165 94.4882
f 34/52/3 29/53/3 35/54/3

vt 2.75335e-014 0
vt 39.4953 0
v 4.5 2.1 -1.00318
vt 39.4953 82.6772
v 4.5 2.1 -1.85318
vt 72.9599 82.6772
vt 72.9599 0
vt 236.22 0
v 4.5 2.4 -6
vt 236.22 94.4882
vt 2.75335e-014 94.4882
f 29/55/4 28/56/4 36/57/4 37/58/4 15/59/4 14/60/4 38/61/4 35/62/4 

vt -177.165 0
vt -174.882 0
vt -174.882 82.6772
vt -177.165 82.6772
f 28/63/6 27/64/6 4/65/6 36/66/6 

f 28/36/1 27/4/1 16/3/1 15/17/1 

vt 177.165 82.6772
vn 0 1.71884e-016 1
vt 174.882 82.6772
vt 174.882 1.25406e-014
vt 177.165 1.25406e-014
f 37/67/7 3/68/7 16/69/7 15/70/7 

f 36/36/1 4/4/1 3/3/1 37/17/1 

vt 169.291 82.6772
vt 169.291 1.25406e-014
f 2/71/7 6/72/7 16/69/7 3/68/7 

vt -169.291 0
vt -169.291 82.6772
f 7/73/6 1/74/6 4/65/6 27/64/6 

vt -177.165 94.4882
f 14/63/6 13/49/6 32/51/6 38/75/6 

vn 0 1 -0
vt 7.87402 228.346
vt 177.165 236.22
f 32/15/8 23/76/8 38/77/8

vt 7.87402 7.87402
f 23/76/8 32/15/8 24/78/8

f 31/31/8 24/78/8 32/15/8

vt 177.165 2.75335e-014
f 24/78/8 31/31/8 35/79/8

v 1.47152 2.1 -0
vt 57.9338 82.6772
f 31/51/3 39/80/3 35/54/3

f 31/51/3 33/50/3 39/80/3

v 1.47152 0.9 -0.2
vt 7.87402 35.4331
v 1.47152 2.1 -0.2
vt 7.87402 82.6772
vt 0 82.6772
vt 0 35.4331
f 40/81/4 41/82/4 39/83/4 33/84/4 

vt -57.9338 35.4331
vn 1.10047e-017 0 -1
vt -57.9338 82.6772
f 40/85/9 24/11/9 41/86/9

f 40/85/9 20/10/9 24/11/9

f 20/10/9 40/85/9 8/73/9

v 2.82152 0.9 -0.2
vt -111.083 35.4331
f 42/87/9 8/73/9 40/85/9

vt -169.291 94.4882
f 8/73/9 42/87/9 9/88/9

v 2.82152 2.1 -0.2
vt -111.083 82.6772
f 9/88/9 42/87/9 43/89/9

vt -7.87402 82.6772
vt -7.87402 35.4331
v 2.82152 2.1 -0
f 43/90/2 42/91/2 34/84/2 44/83/2 

vt 111.083 7.87402
vt 57.9338 7.87402
vt 57.9338 0
vt 111.083 0
f 42/92/8 40/93/8 33/94/8 34/95/8 

vt 111.083 82.6772
f 34/52/3 35/54/3 44/96/3

f 44/96/3 35/54/3 39/80/3

vt -57.9338 7.87402
vt -111.083 7.87402
vt -111.083 0
vt -57.9338 0
f 41/97/1 43/98/1 44/99/1 39/100/1 

f 41/86/9 24/11/9 43/89/9

f 9/88/9 43/89/9 24/11/9

vt 169.291 7.87402
f 24/78/8 35/79/8 9/101/8

vt 169.291 228.346
f 9/101/8 35/79/8 10/102/8

f 38/77/8 10/102/8 35/79/8

f 38/77/8 23/76/8 10/102/8

vt 169.291 0
vt 169.291 94.4882
f 17/20/3 5/103/3 10/104/3 23/30/3 

g Mesh2 Group2 Model

usemtl Color_005
v 4.3 1.03319 -2.04446
vt 4.72441 0
v 4.3 1.63419 -2.04446
vt 4.72441 23.6614
v 4.18 1.63419 -2.04446
vt 0 23.6614
v 4.18 1.03319 -2.04446
f 45/105/3 46/106/3 47/107/3 48/49/3 

v 4.3 1.03319 -2.46646
vt 16.6142 0
v 4.3 1.63419 -2.46646
vt 16.6142 23.6614
f 49/108/4 50/109/4 46/107/4 45/49/4 

vt -4.72441 23.6614
vt -4.72441 0
v 4.18 1.03319 -2.46646
v 4.18 1.63419 -2.46646
f 50/110/6 49/111/6 51/49/6 52/107/6 

vt -4.72441 16.6142
vt 0 16.6142
f 49/112/1 45/111/1 48/49/1 51/113/1 

vt -16.6142 23.6614
vt -16.6142 0
f 52/114/2 51/115/2 48/49/2 47/107/2 

vt 4.72441 16.6142
f 46/105/8 50/116/8 52/113/8 47/49/8 

g Mesh3 Group3 Model

usemtl Color_004
v 4.22665 1 -0.425572
vt 46.5354 39.3701
v 4.17393 1 -0.425572
vt 44.46 39.3701
v 4.17393 0.96 -0.425572
vt 44.46 37.7953
v 4.17393 2.16573e-015 -0.425572
vt 44.46 2.84646e-014
v 4.22665 2.16573e-015 -0.425572
vt 46.5354 2.84646e-014
f 53/117/3 54/118/3 55/119/3 56/120/3 57/121/3 

v 3.04465 1 -0.458758
vt 0 7.08661
v 3.04465 1 -0.425572
vt 0 5.78006
v 3.09952 1 -0.425572
vt 2.16032 5.78006
vt 44.46 5.78006
vt 46.5354 5.78006
v 4.22665 1 -0.458758
vt 46.5354 7.08661
f 58/122/8 59/123/8 60/124/8 54/125/8 53/126/8 61/127/8 

v 3.04465 1.44273e-015 -0.458758
vt -7.08661 0
v 3.04465 1.6243e-015 -0.425572
vt -5.78006 7.14827e-015
vt -5.78006 39.3701
vt -7.08661 39.3701
f 62/128/2 63/129/2 59/130/2 58/131/2 

v 4.22665 1.44273e-015 -0.278758
vt -46.5354 5.84468e-031
vn 2.08455e-016 -1 6.0251e-017
v 3.04465 1.44273e-015 -0.278758
v 3.04465 1.6243e-015 -0.315805
vt -1.49009e-030 1.45854
v 3.09952 1.6243e-015 -0.315805
vt -2.16032 1.45854
v 3.09952 1.6243e-015 -0.425572
vt -2.16032 5.78006
vt -1.49009e-030 5.78006
v 4.22665 1.44273e-015 -0.458758
vt -46.5354 7.08661
vt -46.5354 5.78006
vt -44.46 5.78006
v 4.17393 2.16573e-015 -0.315805
vt -44.46 1.45854
v 4.22665 2.16573e-015 -0.315805
vt -46.5354 1.45854
f 64/132/10 65/49/10 66/133/10 67/134/10 68/135/10 63/136/10 62/122/10 69/137/10 57/138/10 56/139/10 70/140/10 71/141/10 

vt 46.5354 0
v 4.22665 1 -0.278758
v 3.04465 1 -0.278758
vt 0 39.3701
f 65/49/3 64/142/3 72/117/3 73/143/3 

vt 1.45854 2.84646e-014
v 4.22665 1 -0.315805
vt 1.45854 39.3701
f 64/49/4 71/144/4 74/145/4 72/143/4 

v 4.17393 1 -0.315805
vt -44.46 39.3701
vt -46.5354 39.3701
vt -46.5354 2.84646e-014
vt -44.46 2.84646e-014
v 4.17393 0.96 -0.315805
vt -44.46 37.7953
f 75/146/6 74/147/6 71/148/6 70/149/6 76/150/6 

vt 46.5354 1.45854
vt 44.46 1.45854
v 3.09952 1 -0.315805
vt 2.16032 1.45854
v 3.04465 1 -0.315805
vt 0 1.45854
f 72/142/8 74/151/8 75/152/8 77/153/8 78/154/8 73/49/8 

vt -2.16032 39.3701
v 3.09952 0.96 -0.315805
vt -2.16032 37.7953
f 77/155/6 75/146/6 76/150/6 79/156/6 

v 3.09952 0.96 -0.425572
f 79/153/8 76/152/8 55/125/8 80/124/8 

vt 5.78006 2.84646e-014
vt 5.78006 37.7953
vt 1.45854 37.7953
f 56/157/4 55/158/4 76/159/4 70/144/4 

vt 2.16032 39.3701
vt 2.16032 37.7953
f 54/118/3 60/160/3 80/161/3 55/119/3 

vt 0 7.14827e-015
vt 2.16032 7.14827e-015
f 60/160/3 59/143/3 63/162/3 68/163/3 80/161/3 

vt -1.45854 7.14827e-015
vt -1.45854 37.7953
vt -5.78006 37.7953
f 67/164/2 79/165/2 80/166/2 68/129/2 

vt -2.16032 7.14827e-015
f 78/143/6 77/155/6 79/156/6 67/167/6 66/162/6 

vt -1.45854 39.3701
f 78/168/2 66/164/2 65/49/2 73/143/2 

vt -46.5354 0
f 69/169/6 62/49/6 58/143/6 61/147/6 

vt 5.78006 39.3701
vt 7.08661 0
vt 7.08661 39.3701
f 53/170/4 57/157/4 69/171/4 61/172/4 

g Mesh4 Group4 Model

usemtl Wood__Floor
vt 1.04599 0.0466128
v 4.3 0 -5.8
vt 1.04599 2.63639
v 0.2 0 -5.8
vt -1.6443 2.63639
vt -1.6443 2.30806
v 0 0 -5.29963
vt -1.77553 2.30806
v 0 0 -3.69963
vt -1.77553 1.25819
vt -1.6443 1.25819
vt -1.6443 -1.03815
vt 1.04599 -1.03815
vt 1.04599 -0.51113
v 4.442 0 -1.00318
vt 1.13917 -0.51113
v 4.442 0 -1.85318
vt 1.13917 0.0466128
f 6/173/8 81/174/8 82/175/8 11/176/8 83/177/8 84/178/8 21/179/8 20/180/8 8/181/8 7/182/8 85/183/8 86/184/8 

g Mesh5 Group5 Model

usemtl Color_001
vt -33.4646 0
vt -33.4646 82.6772
f 16/185/2 27/49/2 4/83/2 3/186/2 

