# Alias OBJ Model File
# Exported from SketchUp, (c) 2000-2012 Trimble Navigation Limited
# File units = meters

mtllib chair.mtl

g Mesh1 Group1 lowPolyChair1 owPolyChair1 Model

usemtl FrontColor
v 0.20255 0.41275 -0.19776
vt 1 16.25
vn 0 0 1
v 0.20255 0.38735 -0.19776
vt 1 15.25
v 0.71055 0.38735 -0.19776
vt 21 15.25
v 0.71055 0.0254 -0.19776
vt 21 1
v 0.20255 0.0254 -0.19776
vt 1 1
v 0.20255 0 -0.19776
vt 1 0
v 0.73595 0 -0.19776
vt 22 0
v 0.73595 0.41275 -0.19776
vt 22 16.25
f 1/1/1 2/2/1 3/3/1 4/4/1 5/5/1 6/6/1 7/7/1 8/8/1 

vt -1 16.25
vn -1 0 -0
v 0.20255 0.41275 -0.62956
vt -18 16.25
v 0.20255 0.38735 -0.62956
vt -18 15.25
vt -1 15.25
f 1/9/2 9/10/2 10/11/2 2/12/2 

v 0.17715 0.41275 -0.17236
vt 0 0
vn 0 -1 -0
v 0.17715 0.41275 -0.65496
vt 0 19
v 0.73595 0.41275 -0.65496
vt -22 19
v 0.73595 0.41275 -0.62956
vt -22 18
vt -1 18
vt -1 1
vt -22 1
v 0.73595 0.41275 -0.17236
vt -22 0
f 11/13/3 12/14/3 13/15/3 14/16/3 9/17/3 1/18/3 8/19/3 15/20/3 

v 0.17715 0.38735 -0.65496
vt 19 15.25
vn 1 0 -0
vt 19 16.25
vt 0 16.25
v 0.17715 0.38735 -0.17236
vt 0 15.25
v 0.17715 0.38735 -0.19776
v 0.17715 0.38735 -0.62956
vt 18 15.25
f 16/21/4 12/22/4 11/23/4 17/24/4 18/2/4 19/25/4 

v 0.17715 0.0254 -0.65496
vt 0 1
v 0.17715 0 -0.65496
v 0.73595 0 -0.65496
v 0.71055 0.38735 -0.65496
v 0.71055 0.0254 -0.65496
f 20/26/1 21/13/1 22/7/1 13/8/1 12/23/1 16/24/1 23/3/1 24/4/1 

v 0.17715 0 -0.17236
vt 19 0
vt 19 1
v 0.17715 0.0254 -0.17236
f 25/13/4 21/27/4 20/28/4 26/26/4 

vn 0 1 -0
v 0.73595 0 -0.17236
vt 22 1
v 0.20255 0 -0.62956
vt 1 18
v 0.73595 0 -0.62956
vt 22 18
vt 22 19
f 21/14/5 25/13/5 27/7/5 7/29/5 6/5/5 28/30/5 29/31/5 22/32/5 

vt -22 16.25
vn 0 0 -1
v 0.71055 0.0254 -0.17236
vt -21 1
v 0.71055 0.38735 -0.17236
vt -21 15.25
f 15/33/6 27/20/6 25/13/6 26/26/6 30/34/6 31/35/6 17/24/6 11/23/6 

vt -1 0
f 27/13/2 15/23/2 8/9/2 7/36/2 

vt -21 19
v 0.71055 0.0254 -0.62956
vt -21 18
v 0.20255 0.0254 -0.62956
vt -21 0
f 20/14/3 24/37/3 32/38/3 33/17/3 5/18/3 4/34/3 30/39/3 26/13/3 

v 0.71055 0.38735 -0.62956
vt 18 1
f 34/25/4 32/40/4 24/28/4 23/21/4 

f 29/20/6 28/36/6 33/18/6 32/34/6 34/35/6 10/12/6 9/9/6 14/33/6 

vt -18 0
vt -18 1
f 28/41/2 6/36/2 5/18/2 33/42/2 

vt 0 18
vt 21 18
vt 21 19
f 16/14/5 19/43/5 10/30/5 34/44/5 23/45/5 

f 19/43/5 18/26/5 2/5/5 10/30/5 

vt 21 0
f 18/26/5 17/13/5 31/46/5 3/4/5 2/5/5 

f 31/24/4 30/26/4 4/5/4 3/2/4 

vt -19 0
vt -19 16.25
f 22/47/2 29/41/2 14/10/2 13/48/2 

g Mesh2 Group2 lowPolyChair1 owPolyChair1 Model

usemtl Color_007
v 0.747063 0.41275 -0.155469
vt 25.487 -0.665
vn -0.57735 0.57735 -0.57735
v 0.747063 0.41275 -0.671851
vt 25.487 19.665
vn -0.57735 0.57735 0.57735
v 0.17715 0.41275 -0.671851
vt 3.04954 19.665
vn 0.57735 0.57735 0.57735
v 0.17715 0.41275 -0.155469
vt 3.04954 -0.665
vn 0.57735 0.57735 -0.57735
f 35/49/7 36/50/8 37/51/9 38/52/10 

v 0.747063 0.43066 -0.155469
vt 0.665 0.705111
vn -0.81252 -0.336557 -0.475963
v 0.747063 0.43066 -0.671851
vt -19.665 0.705111
vn -0.81252 -0.336557 0.475963
vt -19.665 0
vt 0.665 0
f 39/53/11 40/54/12 36/55/8 35/56/7 

vt 0.665 -17.5235
v 0.720523 0.4572 -0.155469
vt 0.665 -16.0458
vn -0.336557 -0.81252 -0.475963
v 0.720523 0.4572 -0.671851
vt -19.665 -16.0458
vn -0.336557 -0.81252 0.475963
vt -19.665 -17.5235
f 39/57/11 41/58/13 42/59/14 40/60/12 

v 0.17715 0.4572 -0.155469
vt -3.04954 1.75
vn 0.707107 0 -0.707107
v 0.228301 0.4572 -0.155469
vt -5.06336 1.75
vn 0 -0.707107 -0.707107
vt -24.4422 1.75
vt -25.487 0.705111
vt -25.487 0
vt -3.04954 0
f 43/61/15 44/62/16 41/63/13 39/64/11 35/65/7 38/66/10 

v 0.180684 0.494875 -0.155469
vt 3.18865 3.23328
vn -0.892068 0.0643427 0.447296
vt 3.04954 1.75
vn -0.704017 0.0660287 0.707107
vt 5.06336 1.75
vn 0.704017 -0.0660287 0.707107
v 0.232536 0.502347 -0.155469
vt 5.23007 3.52745
vn 0.892068 -0.0643427 0.447296
v 0.234824 0.547635 -0.155469
vt 5.32017 5.31043
vn 0.89401 -0.0259147 0.447296
v 0.235163 0.592979 -0.155469
vt 5.3335 7.09563
vn 0.894298 0.0125613 0.447296
v 0.233551 0.638296 -0.155469
vt 5.27003 8.87975
vn 0.89293 0.051014 0.447296
v 0.229991 0.683501 -0.155469
vt 5.12989 10.6595
vn 0.889909 0.0893724 0.447296
v 0.22449 0.728512 -0.155469
vt 4.91333 12.4316
vn 0.885242 0.127565 0.447296
v 0.217059 0.773244 -0.155469
vt 4.62075 14.1927
vn 0.878936 0.165522 0.447296
v 0.20771 0.817615 -0.155469
vt 4.2527 15.9396
vn 0.871003 0.203173 0.447296
v 0.196462 0.861543 -0.155469
vt 3.80985 17.669
vn 0.861459 0.240447 0.447296
v 0.183335 0.904947 -0.155469
vt 3.29303 19.3778
vn 0.85032 0.277277 0.447296
v 0.168353 0.947746 -0.155469
vt 2.70318 21.0628
vn 0.837607 0.313593 0.447296
v 0.151544 0.98986 -0.155469
vt 2.04141 22.7209
vn 0.422085 0.730455 0.536916
v 0.0996919 0.982388 -0.155469
vt 0 22.4267
vn -0.673423 0.38913 0.628553
v 0.116501 0.940274 -0.155469
vt 0.66177 20.7686
vn -0.837607 -0.313593 0.447296
v 0.131483 0.897475 -0.155469
vt 1.25161 19.0837
vn -0.85032 -0.277277 0.447296
v 0.14461 0.854071 -0.155469
vt 1.76844 17.3748
vn -0.861459 -0.240447 0.447296
v 0.155859 0.810143 -0.155469
vt 2.21129 15.6454
vn -0.871003 -0.203173 0.447296
v 0.165207 0.765772 -0.155469
vt 2.57934 13.8985
vn -0.878936 -0.165522 0.447296
v 0.172639 0.72104 -0.155469
vt 2.87192 12.1374
vn -0.885242 -0.127565 0.447296
v 0.178139 0.676029 -0.155469
vt 3.08848 10.3653
vn -0.889909 -0.0893724 0.447296
v 0.181699 0.630824 -0.155469
vt 3.22862 8.58558
vn -0.89293 -0.051014 0.447296
v 0.183311 0.585507 -0.155469
vt 3.29209 6.80145
vn -0.894298 -0.0125613 0.447296
v 0.182972 0.540163 -0.155469
vt 3.27876 5.01625
vn -0.89401 0.0259147 0.447296
f 45/67/17 43/68/18 44/69/19 46/70/20 47/71/21 48/72/22 49/73/23 50/74/24 51/75/25 52/76/26 53/77/27 54/78/28 55/79/29 56/80/30 57/81/31 58/82/32 59/83/33 60/84/34 61/85/35 62/86/36 63/87/37 64/88/38 65/89/39 66/90/40 67/91/41 68/92/42 

v 0.180684 0.494875 -0.671851
vt -19.665 3.5169
vn -0.892068 0.0643427 -0.447296
v 0.17715 0.4572 -0.671851
vt -19.665 2.02712
vn -0.704017 0.0660287 -0.707107
vt 0.665 2.02712
vt 0.665 3.5169
f 69/93/43 70/94/44 43/95/18 45/96/17 

v 0.232536 0.502347 -0.671851
vt -5.23007 3.52745
vn 0.892068 -0.0643427 -0.447296
v 0.228301 0.4572 -0.671851
vn 0.704017 -0.0660287 -0.707107
vt -3.18865 3.23328
v 0.182972 0.540163 -0.671851
vt -3.27876 5.01625
vn -0.89401 0.0259147 -0.447296
v 0.183311 0.585507 -0.671851
vt -3.29209 6.80145
vn -0.894298 -0.0125613 -0.447296
v 0.181699 0.630824 -0.671851
vt -3.22862 8.58558
vn -0.89293 -0.051014 -0.447296
v 0.178139 0.676029 -0.671851
vt -3.08848 10.3653
vn -0.889909 -0.0893724 -0.447296
v 0.172639 0.72104 -0.671851
vt -2.87192 12.1374
vn -0.885242 -0.127565 -0.447296
v 0.165207 0.765772 -0.671851
vt -2.57934 13.8985
vn -0.878936 -0.165522 -0.447296
v 0.155859 0.810143 -0.671851
vt -2.21129 15.6454
vn -0.871003 -0.203173 -0.447296
v 0.14461 0.854071 -0.671851
vt -1.76844 17.3748
vn -0.861459 -0.240447 -0.447296
v 0.131483 0.897475 -0.671851
vt -1.25161 19.0837
vn -0.85032 -0.277277 -0.447296
v 0.116501 0.940274 -0.671851
vt -0.66177 20.7686
vn -0.837607 -0.313593 -0.447296
v 0.0996919 0.982388 -0.671851
vt 5.23037e-030 22.4267
vn -0.673423 0.38913 -0.628553
v 0.151544 0.98986 -0.671851
vt -2.04141 22.7209
vn 0.422085 0.730455 -0.536916
v 0.168353 0.947746 -0.671851
vt -2.70318 21.0628
vn 0.837607 0.313593 -0.447296
v 0.183335 0.904947 -0.671851
vt -3.29303 19.3778
vn 0.85032 0.277277 -0.447296
v 0.196462 0.861543 -0.671851
vt -3.80985 17.669
vn 0.861459 0.240447 -0.447296
v 0.20771 0.817615 -0.671851
vt -4.2527 15.9396
vn 0.871003 0.203173 -0.447296
v 0.217059 0.773244 -0.671851
vt -4.62075 14.1927
vn 0.878936 0.165522 -0.447296
v 0.22449 0.728512 -0.671851
vt -4.91333 12.4316
vn 0.885242 0.127565 -0.447296
v 0.229991 0.683501 -0.671851
vt -5.12989 10.6595
vn 0.889909 0.0893724 -0.447296
v 0.233551 0.638296 -0.671851
vt -5.27003 8.87975
vn 0.89293 0.051014 -0.447296
v 0.235163 0.592979 -0.671851
vt -5.3335 7.09563
vn 0.894298 0.0125613 -0.447296
v 0.234824 0.547635 -0.671851
vt -5.32017 5.31043
vn 0.89401 -0.0259147 -0.447296
f 71/97/45 72/62/46 70/61/44 69/98/43 73/99/47 74/100/48 75/101/49 76/102/50 77/103/51 78/104/52 79/105/53 80/106/54 81/107/55 82/108/56 83/109/57 84/110/58 85/111/59 86/112/60 87/113/61 88/114/62 89/115/63 90/116/64 91/117/65 92/118/66 93/119/67 94/120/68 

vt 19.665 2.21516
vt 19.665 4.00041
vt -0.665 4.00041
vt -0.665 2.21516
f 72/121/46 71/122/45 46/123/20 44/124/19 

vt 19.665 3.78691
vt 19.665 5.57216
vt -0.665 5.57216
vt -0.665 3.78691
f 71/125/45 94/126/68 47/127/21 46/128/20 

vt 19.665 5.35
vt 19.665 7.13525
vt -0.665 7.13525
vt -0.665 5.35
f 94/129/68 93/130/67 48/131/22 47/132/21 

vt 19.665 6.90154
vt 19.665 8.68679
vt -0.665 8.68679
vt -0.665 6.90154
f 93/133/67 92/134/66 49/135/23 48/136/22 

vt 19.665 8.43865
vt 19.665 10.2239
vt -0.665 10.2239
vt -0.665 8.43865
f 92/137/66 91/138/65 50/139/24 49/140/23 

vt 19.665 9.95849
vt 19.665 11.7437
vt -0.665 11.7437
vt -0.665 9.95849
f 91/141/65 90/142/64 51/143/25 50/144/24 

vt 19.665 11.4582
vt 19.665 13.2435
vt -0.665 13.2435
vt -0.665 11.4582
f 90/145/64 89/146/63 52/147/26 51/148/25 

vt 19.665 12.9351
vt 19.665 14.7204
vt -0.665 14.7204
vt -0.665 12.9351
f 89/149/63 88/150/62 53/151/27 52/152/26 

vt 19.665 14.3864
vt 19.665 16.1717
vt -0.665 16.1717
vt -0.665 14.3864
f 88/153/62 87/154/61 54/155/28 53/156/27 

vt 19.665 15.8095
vt 19.665 17.5947
vt -0.665 17.5947
vt -0.665 15.8095
f 87/157/61 86/158/60 55/159/29 54/160/28 

vt 19.665 17.2016
vt 19.665 18.9868
vt -0.665 18.9868
vt -0.665 17.2016
f 86/161/60 85/162/59 56/163/30 55/164/29 

vt 19.665 18.5602
vt 19.665 20.3455
vt -0.665 20.3455
vt -0.665 18.5602
f 85/165/59 84/166/58 57/167/31 56/168/30 

vt -19.665 5.2612
vt -19.665 3.1987
vt 0.665 3.1987
vt 0.665 5.2612
f 84/169/58 83/170/57 58/171/32 57/172/31 

vt -19.665 20.829
vt -19.665 19.0437
vt 0.665 19.0437
vt 0.665 20.829
f 83/173/57 82/174/56 59/175/33 58/176/32 

vt -19.665 19.3837
vt -19.665 17.5984
vt 0.665 17.5984
vt 0.665 19.3837
f 82/177/56 81/178/55 60/179/34 59/180/33 

vt -19.665 17.9041
vt -19.665 16.1189
vt 0.665 16.1189
vt 0.665 17.9041
f 81/181/55 80/182/54 61/183/35 60/184/34 

vt -19.665 16.3931
vt -19.665 14.6079
vt 0.665 14.6079
vt 0.665 16.3931
f 80/185/54 79/186/53 62/187/36 61/188/35 

vt -19.665 14.8534
vt -19.665 13.0682
vt 0.665 13.0682
vt 0.665 14.8534
f 79/189/53 78/190/52 63/191/37 62/192/36 

vt -19.665 13.2879
vt -19.665 11.5026
vt 0.665 11.5026
vt 0.665 13.2879
f 78/193/52 77/194/51 64/195/38 63/196/37 

vt -19.665 11.6994
vt -19.665 9.91412
vt 0.665 9.91412
vt 0.665 11.6994
f 77/197/51 76/198/50 65/199/39 64/200/38 

vt -19.665 10.0909
vt -19.665 8.30563
vt 0.665 8.30563
vt 0.665 10.0909
f 76/201/50 75/202/49 66/203/40 65/204/39 

vt -19.665 8.46537
vt -19.665 6.68012
vt 0.665 6.68012
vt 0.665 8.46537
f 75/205/49 74/206/48 67/207/41 66/208/40 

vt -19.665 6.82585
vt -19.665 5.0406
vt 0.665 5.0406
vt 0.665 6.82585
f 74/209/48 73/210/47 68/211/42 67/212/41 

vt -19.665 5.17534
vt -19.665 3.39009
vt 0.665 3.39009
vt 0.665 5.17534
f 73/213/47 69/214/43 45/215/17 68/216/42 

vt -5.06336 -0.665
vt -5.06336 19.665
vn 0 -0.707107 0.707107
vt -24.4422 19.665
vt -24.4422 -0.665
f 44/217/16 72/218/69 42/219/14 41/220/13 

vt -3.04954 -0.665
vt -3.04954 19.665
f 44/217/3 43/221/3 70/222/3 72/218/3 

vt -0.665 1.75
vt -0.665 0
vt 19.665 0
vt 19.665 1.75
vn 0.707107 0 0.707107
f 43/223/15 38/224/10 37/225/9 70/226/70 

vt 3.04954 0
vt 25.487 0
vt 25.487 0.705111
vt 24.4422 1.75
f 70/68/70 37/227/9 36/228/8 40/229/12 42/230/14 72/69/69 

