# Alias OBJ Model File
# Exported from SketchUp, (c) 2000-2012 Trimble Navigation Limited
# File units = meters

mtllib chair8.mtl

g Mesh1 Model

usemtl M_0136_Charcoal
v 0.310729 0.386666 -0.26893
vt 10.5878 15.2231
vn 1 8.53124e-016 -6.08694e-015
v 0.310729 0 -0.327864
vt 12.9081 -1.04366e-014
v 0.310729 5.89448e-017 -0.351996
vt 13.8581 -8.11596e-015
v 0.310729 0.386848 -0.302516
vt 11.9101 15.2303
f 1/1/1 2/2/1 3/3/1 4/4/1 

v 0.280729 1.43857e-017 -0.327864
vt 11.0523 -1.94496
vn 4.60127e-017 -0.150678 0.988583
vt 12.2334 -1.94496
vt 12.2334 13.4539
v 0.260729 0.386666 -0.26893
vt 10.2649 13.4539
f 5/5/2 2/6/2 1/7/2 6/8/2 

vt -12.2334 13.8581
vn 5.02889e-016 -1 -1.22132e-015
vt -12.2334 12.9081
vt -11.0523 12.9081
v 0.280729 1.43857e-017 -0.351996
vt -11.0523 13.8581
f 3/9/3 2/10/3 5/11/3 7/12/3 

vt -12.9101 -0.570365
vn -0.998667 -0.0516171 -0.000185354
vt -10.5897 14.673
v 0.260729 0.386848 -0.302516
vt -11.912 14.6802
vt -13.8602 -0.570356
f 5/13/4 6/14/4 8/15/4 7/16/4 

usemtl Color_B05
v 0.0107288 0.386666 -0.26893
vt -0.422392 10.6705
vn 0 -0.999985 -0.00544319
v 0.0107288 0.386848 -0.302516
vt -0.422392 11.9928
vt -10.2649 11.9928
vt -10.2649 10.6705
f 9/17/5 10/18/5 8/19/5 6/20/5 

v -0.239271 0.386666 -0.26893
vt 9.42013 10.6705
v -0.239271 0.386848 -0.302516
vt 9.42013 11.9928
f 10/18/5 9/17/5 11/21/5 12/22/5 

vt 0.422392 -6.97391
vn 0 -0.975431 0.220306
v 0.0107288 0.399884 -0.210404
vt 0.422392 -4.61171
v -0.289271 0.399884 -0.210404
vt -11.3886 -4.61171
v -0.289271 0.386666 -0.26893
vt -11.3886 -6.97391
vt -9.42013 -6.97391
f 9/23/6 13/24/6 14/25/6 15/26/6 11/27/6 

vt 10.2649 -6.97391
vt 12.2334 -6.97391
v 0.310729 0.399884 -0.210404
vt 12.2334 -4.61171
f 13/24/6 9/23/6 6/28/6 1/29/6 16/30/6 

vt -12.2334 11.9928
vn 4.85389e-016 -0.999985 -0.00544319
vt -12.2334 10.6705
f 4/31/7 1/32/7 6/20/7 8/19/7 

v 0.310729 0.399884 0.129596
vt -5.10221 15.7435
vn 1 2.86551e-016 -2.2719e-016
vt 8.28361 15.7435
v 0.310729 0.6335 -0.343297
vt 13.5156 24.9409
v 0.310729 0.816385 -0.394806
vt 15.5435 32.1411
v 0.310729 0.826945 -0.377821
vt 14.8748 32.5569
v 0.310729 0.83 -0.351996
vt 13.8581 32.6772
v 0.310729 0.83 -0.325276
vt 12.8061 32.6772
v 0.310729 0.7 -0.295276
vt 11.625 27.5591
v 0.310729 0.7 0.164724
vt -6.48519 27.5591
v 0.310729 0.399884 0.164724
vt -6.48519 15.7435
f 17/33/8 16/34/8 1/1/8 4/4/8 18/35/8 19/36/8 20/37/8 21/38/8 22/39/8 23/40/8 24/41/8 25/42/8 

v 0.0107288 0.399884 0.129596
vt -0.422392 -5.10221
vn 0 -1 -0
vt -0.422392 8.28361
vt -12.2334 8.28361
vt -12.2334 -5.10221
v 0.260729 0.399884 0.129596
vt -10.2649 -5.10221
f 26/43/9 13/44/9 16/45/9 17/46/9 27/47/9 

v -0.239271 0.399884 0.129596
vt 9.42013 -5.10221
v -0.289271 0.399884 0.129596
vt 11.3886 -5.10221
vt 11.3886 8.28361
f 13/44/9 26/43/9 28/48/9 29/49/9 14/50/9 

v 0.0107288 0.399884 0.164724
vt -0.422392 -6.48519
v -0.239271 0.399884 0.164724
vt 9.42013 -6.48519
f 26/43/9 30/51/9 31/52/9 28/48/9 

v 0.260729 0.399884 0.164724
vt -10.2649 -6.48519
f 30/51/9 26/43/9 27/47/9 32/53/9 

usemtl M_0136_Charcoal
v 0.280729 1.43857e-017 0.139228
vt 5.48144 -0.552086
vn -0.998752 -0.0499521 -0
v 0.280729 1.43857e-017 0.164724
vt 6.48519 -0.552086
vt 6.48519 15.2111
vt 5.10221 15.2111
f 33/54/10 34/55/10 32/56/10 27/57/10 

vt -11.0523 -5.48144
vn -4.79524e-016 -1 8.72189e-033
v 0.310729 0 0.139228
vt -12.2334 -5.48144
v 0.310729 0 0.164724
vt -12.2334 -6.48519
vt -11.0523 -6.48519
f 33/58/11 35/59/11 36/60/11 34/61/11 

vt -12.2334 15.616
vn 1.08763e-017 -0.0240805 -0.99971
vt -12.2334 -0.131996
vt -11.0523 -0.131996
vt -10.2649 15.616
f 17/62/12 35/63/12 33/64/12 27/65/12 

vn 1 9.50408e-017 1.20148e-015
vt -6.48519 -1.16267e-015
vt -5.48144 -1.16267e-015
f 25/42/13 36/66/13 35/67/13 17/33/13 

vt 10.2649 15.7435
vn -9.06289e-016 -2.17888e-017 1
vt 11.0523 7.07672e-016
vt 12.2334 1.41305e-016
vt 12.2334 15.7435
f 32/68/14 34/69/14 36/70/14 25/71/14 

usemtl Color_B05
f 25/60/9 32/53/9 27/47/9 17/46/9 

vn -8.33163e-017 -2.62379e-018 1
vt 12.2334 27.5591
v 0.240729 0.7 0.164724
vt 9.47751 27.5591
v 0.240729 0.489541 0.164724
vt 9.47751 19.2733
v 0.0107288 0.489541 0.164724
vt 0.422392 19.2733
vt 0.422392 15.7435
f 25/71/15 24/72/15 37/73/15 38/74/15 39/75/15 30/76/15 32/68/15 

vt 9.47751 -6.48519
vn 0 1 -0
vt 12.2334 -6.48519
vt 12.2334 11.625
v 0.240729 0.7 -0.295276
vt 9.47751 11.625
f 37/77/16 24/78/16 23/79/16 40/80/16 

v 0.0107288 0.470091 -0.24222
vt 0.422392 20.1779
vn 7.29999e-018 0.22486 0.974391
v 0.240729 0.470091 -0.24222
vt 9.47751 20.1779
vt 9.47751 29.4673
vt 12.2334 29.4673
vt 12.2334 34.7199
v 0.0107288 0.83 -0.325276
vt 0.422392 34.7199
f 41/81/17 42/82/17 40/83/17 23/84/17 22/85/17 43/86/17 

usemtl Color_B04
v 0.0107288 0.494602 0.104724
vt -0.422392 5.485
vn 1.48126e-031 0.997514 -0.0704719
v 0.240729 0.494602 0.104724
vt -9.47751 5.485
vt -9.47751 -8.20826
vt -0.422392 -8.20826
f 44/87/18 45/88/18 42/89/18 41/90/18 

vt 0.422392 -4.84225
vn 9.10477e-019 0.996461 0.0840537
vt 9.47751 -4.84225
vt 9.47751 -2.47166
vt 0.422392 -2.47166
f 39/91/19 38/92/19 45/93/19 44/94/19 

usemtl Color_B05
vt 4.12299 19.4725
vn -1 0 -0
vt 6.48519 19.2733
vt 6.48519 27.5591
vt -11.625 27.5591
vt -9.53623 18.5075
f 45/95/20 38/96/20 37/97/20 40/98/20 42/99/20 

usemtl Color_B04
v -0.219271 0.489541 0.164724
vt -8.63273 -4.84225
vn 0 0.996461 0.0840537
v -0.219271 0.494602 0.104724
vt -8.63273 -2.47166
f 46/100/21 39/91/21 44/94/21 47/101/21 

usemtl Color_B05
v -0.289271 0.7 0.164724
vt -11.3886 27.5591
vn 8.33163e-017 -2.62379e-018 1
v -0.289271 0.399884 0.164724
vt -11.3886 15.7435
vt -9.42013 15.7435
vt -8.63273 19.2733
v -0.219271 0.7 0.164724
vt -8.63273 27.5591
f 48/102/22 49/103/22 31/104/22 30/76/22 39/75/22 46/105/22 50/106/22 

vt -8.28361 15.7435
vn -1 2.86551e-016 -2.2719e-016
vt 5.10221 15.7435
vt 6.48519 15.7435
v -0.289271 0.7 -0.295276
v -0.289271 0.83 -0.325276
vt -12.8061 32.6772
v -0.289271 0.83 -0.351996
vt -13.8581 32.6772
v -0.289271 0.826945 -0.377821
vt -14.8748 32.5569
v -0.289271 0.816385 -0.394806
vt -15.5435 32.1411
v -0.289271 0.6335 -0.343297
vt -13.5156 24.9409
v -0.289271 0.386848 -0.302516
vt -11.9101 15.2303
vt -10.5878 15.2231
f 14/107/23 29/108/23 49/109/23 48/97/23 51/98/23 52/110/23 53/111/23 54/112/23 55/113/23 56/114/23 57/115/23 15/116/23 

vt 11.3886 -6.48519
f 31/52/9 49/117/9 29/49/9 28/48/9 

usemtl M_0136_Charcoal
v -0.259271 1.43857e-017 0.164724
vt -10.2075 7.07672e-016
vn 9.06289e-016 -2.17888e-017 1
v -0.289271 0 0.164724
vt -11.3886 1.41305e-016
f 58/118/24 31/104/24 49/103/24 59/119/24 

vt -6.48519 -0.509887
vn 0.998752 -0.0499521 -0
v -0.259271 1.43857e-017 0.139228
vt -5.48144 -0.509887
vt -5.10221 15.2533
vt -6.48519 15.2533
f 58/120/25 60/121/25 28/122/25 31/123/25 

v -0.289271 0 0.139228
vt 11.3886 -5.48144
vn 4.79524e-016 -1 8.72189e-033
vt 10.2075 -5.48144
vt 10.2075 -6.48519
f 61/124/26 60/125/26 58/126/26 59/117/26 

vt 11.3886 -0.131996
vn -1.08763e-017 -0.0240805 -0.99971
vt 11.3886 15.616
vt 9.42013 15.616
vt 10.2075 -0.131996
f 61/127/27 29/128/27 28/129/27 60/130/27 

vt 6.48519 -1.08238e-015
vn -1 9.50408e-017 1.20148e-015
vt 5.48144 -1.08238e-015
f 59/131/28 49/109/28 29/108/28 61/132/28 

usemtl Color_B05
vt -11.3886 -6.48519
vt -8.63273 -6.48519
v -0.219271 0.7 -0.295276
vt -8.63273 11.625
vt -11.3886 11.625
f 48/133/16 50/134/16 62/135/16 51/136/16 

vt -6.48519 19.2733
vn 1 0 -0
vt -4.12299 19.4725
v -0.219271 0.470091 -0.24222
vt 9.53623 18.5075
f 46/137/29 47/138/29 63/139/29 62/40/29 50/41/29 

usemtl Color_B04
vt 8.63273 5.485
vn 0 0.997514 -0.0704719
vt 8.63273 -8.20826
f 47/140/30 44/87/30 41/90/30 63/141/30 

usemtl Color_B05
vt -8.63273 20.1779
vn 0 0.22486 0.974391
vt -11.3886 34.7199
vt -11.3886 29.4673
vt -8.63273 29.4673
f 63/142/31 41/81/31 43/86/31 52/143/31 51/144/31 62/145/31 

vt -11.3886 13.8581
vt -11.3886 12.8061
vt 0.422392 12.8061
v 0.0107288 0.83 -0.351996
vt 0.422392 13.8581
f 53/146/16 52/147/16 43/148/16 64/149/16 

vt 12.2334 12.8061
vt 12.2334 13.8581
f 22/150/16 21/151/16 64/149/16 43/148/16 

v 0.0107288 0.826945 -0.377821
vt -0.422392 -10.9473
vn 2.47194e-016 0.993076 -0.117474
vt -0.422392 -9.92344
vt -12.2334 -9.92344
vt -12.2334 -10.9473
f 65/152/32 64/153/32 21/154/32 20/155/32 

vn -2.47194e-016 0.993076 -0.117474
vt 11.3886 -10.9473
vt 11.3886 -9.92344
f 64/153/33 65/152/33 54/156/33 53/157/33 

vt -0.422392 4.55842
vn -1.11192e-015 0.849233 -0.528018
v 0.0107288 0.816385 -0.394806
vt -0.422392 3.77102
vt 11.3886 3.77102
vt 11.3886 4.55842
f 65/158/34 66/159/34 55/160/34 54/161/34 

vn 1.11192e-015 0.849233 -0.528018
vt -12.2334 4.55842
vt -12.2334 3.77102
f 66/159/35 65/158/35 20/162/35 19/163/35 

v 0.0107288 0.6335 -0.343297
vt -0.422392 27.671
vn 2.02238e-015 -0.271096 -0.962552
vt -0.422392 35.1513
vt -12.2334 35.1513
vt -12.2334 27.671
f 67/164/36 66/165/36 19/166/36 18/167/36 

vn -2.0306e-015 -0.271096 -0.962552
vt 11.3886 27.671
vt 11.3886 35.1513
f 66/165/37 67/164/37 56/168/37 55/169/37 

vt -0.422392 26.8116
vn -1.72665e-015 -0.163125 -0.986605
vt -0.422392 16.9691
vt 9.42013 16.9691
vt 11.3886 16.9691
vt 11.3886 26.8116
f 67/170/38 10/171/38 12/172/38 57/173/38 56/174/38 

vn 1.73326e-015 -0.163125 -0.986605
vt -12.2334 26.8116
vt -12.2334 16.9691
vt -10.2649 16.9691
f 10/171/39 67/170/39 18/175/39 4/176/39 8/177/39 

usemtl M_0136_Charcoal
vt -12.2334 -1.7582
vn 1.45753e-014 0.126872 -0.991919
vt -11.0523 -1.7582
vt -10.2649 13.5961
vt -12.2334 13.5961
f 3/178/40 7/179/40 8/180/40 4/181/40 

usemtl Color_B05
vt 11.3886 10.6705
vn -4.85389e-016 -0.999985 -0.00544319
vt 11.3886 11.9928
f 15/182/41 57/183/41 12/22/41 11/21/41 

usemtl M_0136_Charcoal
v -0.289271 0 -0.327864
vt -12.9081 -9.71591e-015
vn -1 8.53124e-016 -6.08694e-015
v -0.289271 5.89448e-017 -0.351996
vt -13.8581 -7.39525e-015
f 68/184/42 15/116/42 57/115/42 69/185/42 

vt -11.3886 -1.94496
vn -4.60127e-017 -0.150678 0.988583
v -0.259271 1.43857e-017 -0.327864
vt -10.2075 -1.94496
vt -9.42013 13.4539
vt -11.3886 13.4539
f 68/186/43 70/187/43 11/188/43 15/189/43 

vt 11.3886 12.9081
vn -5.02889e-016 -1 -1.22132e-015
vt 11.3886 13.8581
v -0.259271 1.43857e-017 -0.351996
vt 10.2075 13.8581
vt 10.2075 12.9081
f 68/190/44 69/191/44 71/192/44 70/193/44 

vt 10.2075 -1.7582
vn -1.45753e-014 0.126872 -0.991919
vt 11.3886 -1.7582
vt 11.3886 13.5961
vt 9.42013 13.5961
f 71/194/45 69/195/45 57/196/45 12/197/45 

vt 10.5895 14.7166
vn 0.998667 -0.0516171 -0.000185354
vt 12.9099 -0.52676
vt 13.86 -0.526751
vt 11.9118 14.7238
f 11/198/46 70/199/46 71/200/46 12/201/46 

