# Alias OBJ Model File
# Exported from SketchUp, (c) 2000-2012 Trimble Navigation Limited
# File units = meters

mtllib chair13.mtl

g Mesh1 Model

usemtl Color_B17
v 0.154835 0.36 -0.233311
vt -6.09585 9.18549
vn 5.93677e-017 -1 1.12799e-015
v -0.225165 0.36 -0.233311
vt 8.86478 9.18549
v -0.225165 0.36 -0.253311
vt 8.86478 9.97289
v 0.154835 0.36 -0.253311
vt -6.09585 9.97289
f 1/1/1 2/2/1 3/3/1 4/4/1 

vt -8.86478 14.1732
vn 3.70239e-015 -1.07146e-031 1
vt 6.09585 14.1732
v 0.154835 0.4 -0.233311
vt 6.09585 15.748
v -0.225165 0.4 -0.233311
vt -8.86478 15.748
f 2/5/2 1/6/2 5/7/2 6/8/2 

usemtl Color_C21
vt -9.97289 14.1732
vn -1 -9.14504e-031 -2.07647e-013
vt -9.18549 14.1732
vt -9.18549 15.748
v 0.154835 0.4 -0.253311
vt -9.97289 15.748
f 4/9/3 1/10/3 5/11/3 7/12/3 

vn -1 -2.00885e-015 -1.17408e-013
v 0.154835 0.4 -0.263311
vt -10.3666 15.748
v 0.154835 0 -0.263311
vt -10.3666 -1.22457e-014
v 0.154835 0 -0.223311
vt -8.79179 -1.22457e-014
v 0.154835 0.4 -0.223311
vt -8.79179 15.748
f 5/11/4 1/10/4 4/9/4 7/12/4 8/13/4 9/14/4 10/15/4 11/16/4 

usemtl Color_B17
vt -6.09585 15.748
vn -6.15268e-016 1.12799e-014 -1
vt -6.09585 14.1732
vt 8.86478 14.1732
v -0.225165 0.4 -0.253311
vt 8.86478 15.748
f 7/17/5 4/18/5 3/19/5 12/20/5 

usemtl Color_C21
vt 9.97289 15.748
vn 1 4.51195e-015 9.71445e-017
vt 9.18549 15.748
vt 9.18549 14.1732
vt 9.97289 14.1732
f 12/21/6 6/22/6 2/23/6 3/24/6 

vn 1.18735e-016 -1 2.25597e-015
f 5/1/7 6/2/7 12/3/7 7/4/7 

vn 1.82663e-017 -1 -2.37602e-017
vt -6.09585 8.79179
v 0.164835 0.4 -0.223311
vt -6.48955 8.79179
v 0.164835 0.4 0.116689
vt -6.48955 -4.59404
v 0.154835 0.4 0.116689
vt -6.09585 -4.59404
v 0.154835 0.4 0.126689
vt -6.09585 -4.98774
v -0.225165 0.4 0.126689
vt 8.86478 -4.98774
v -0.225165 0.4 0.116689
vt 8.86478 -4.59404
v -0.245165 0.4 0.116689
vt 9.65218 -4.59404
v -0.245165 0.4 -0.223311
vt 9.65218 8.79179
v -0.225165 0.4 -0.223311
vt 8.86478 8.79179
f 6/2/8 5/1/8 11/25/8 13/26/8 14/27/8 15/28/8 16/29/8 17/30/8 18/31/8 19/32/8 20/33/8 21/34/8 

v 0.184835 0.36 -0.223311
vt 7.27696 14.1732
vn 1.97554e-014 -8.60937e-016 1
v 0.164835 0.36 -0.223311
vt 6.48955 14.1732
vt 6.48955 15.748
vt 6.09585 -7.56917e-015
v 0.194835 0 -0.223311
vt 7.67066 -7.56917e-015
v 0.194835 0.4 -0.223311
vt 7.67066 15.748
v 0.184835 0.4 -0.223311
vt 7.27696 15.748
f 22/35/9 23/36/9 13/37/9 11/7/9 10/38/9 24/39/9 25/40/9 26/41/9 

vn 8.92675e-015 0 1
f 26/41/10 13/37/10 23/36/10 22/35/10 

v 0.184835 0.4 0.116689
vt -7.27696 -4.59404
vn 0 -1 -0
vt -7.27696 8.79179
f 27/42/11 14/27/11 13/26/11 26/43/11 

vt -6.48955 15.748
vn 4.60909e-015 0 -1
vt -7.27696 15.748
v 0.184835 0.36 0.116689
vt -7.27696 14.1732
v 0.164835 0.36 0.116689
vt -6.48955 14.1732
f 14/44/12 27/45/12 28/46/12 29/47/12 

usemtl Color_B17
vt -4.59404 14.1732
vn 1 0 2.22041e-015
vt 8.79179 14.1732
vt 8.79179 15.748
vt -4.59404 15.748
f 28/48/13 22/49/13 26/50/13 27/51/13 

f 28/42/11 29/27/11 23/26/11 22/43/11 

usemtl Color_C21
v 0.194835 0 0.116689
vt -7.67066 -6.59196e-016
vn -8.05245e-016 -1.43489e-016 -1
v 0.154835 0 0.116689
vt -6.09585 -6.59196e-016
v 0.194835 0.4 0.116689
vt -7.67066 15.748
f 30/52/14 31/53/14 15/17/14 14/44/14 29/47/14 28/46/14 27/45/14 32/54/14 

vt -7.67066 -4.59404
v 0.194835 0 0.156689
vt -7.67066 -6.16884
v 0.154835 0 0.156689
vt -6.09585 -6.16884
f 30/55/11 33/56/11 34/57/11 31/28/11 

v 0.194835 0.44 -0.263311
vt 10.3666 17.3228
vn 1 -6.11099e-017 3.50892e-015
v 0.194835 0.44 0.156689
vt -6.16884 17.3228
vt -6.16884 4.68753e-016
vt -4.59404 4.68753e-016
vt 8.79179 4.68753e-016
v 0.194835 0 -0.263311
vt 10.3666 4.68753e-016
f 35/58/15 36/59/15 33/60/15 30/61/15 32/51/15 25/50/15 24/62/15 37/63/15 

v -0.225165 0.44 -0.263311
vt -8.86478 10.3666
vn -8.5851e-017 1 -1.07751e-031
vt 7.67066 -6.16884
vt 7.67066 10.3666
f 38/64/16 36/65/16 35/66/16

v -0.225165 0.44 0.156689
vt -8.86478 -6.16884
f 38/64/16 39/67/16 36/65/16

v -0.225165 0.44 -0.223311
vt -8.86478 8.79179
f 40/68/16 39/67/16 38/64/16

v -0.225165 0.44 0.116689
vt -8.86478 -4.59404
f 40/68/16 41/69/16 39/67/16

v -0.235165 0.44 -0.0533114
vt -9.25848 2.09887
f 40/68/16 42/70/16 41/69/16

v -0.235165 0.44 -0.148311
vt -9.25848 5.83903
f 40/68/16 43/71/16 42/70/16

v -0.255165 0.44 -0.148311
vt -10.0459 5.83903
f 40/68/16 44/72/16 43/71/16

v -0.265165 0.44 -0.223311
vt -10.4396 8.79179
f 45/73/16 44/72/16 40/68/16

v -0.265165 0.44 0.116689
vt -10.4396 -4.59404
f 44/72/16 45/73/16 46/74/16

vt -8.79179 17.3228
vn -1 -1.71382e-015 2.84891e-015
v -0.265165 0.4 0.116689
vt 4.59404 15.748
vt 4.59404 17.3228
f 45/75/17 47/76/17 46/77/17

v -0.265165 0.4 -0.223311
f 47/76/17 45/75/17 48/16/17

v -0.265165 0 -0.223311
vt -8.79179 1.78915e-014
f 48/16/17 45/75/17 49/78/17

v -0.265165 0 -0.263311
vt -10.3666 1.78915e-014
f 49/78/17 45/75/17 50/79/17

v -0.265165 0.96026 -0.263311
vt -10.3666 37.8055
f 45/75/17 51/80/17 50/79/17

v -0.265165 0.88026 -0.223311
vt -8.79179 34.6559
f 52/81/17 51/80/17 45/75/17

v -0.265165 0.88026 0.116689
vt 4.59404 34.6559
f 53/82/17 51/80/17 52/81/17

v -0.265165 0.96026 0.156689
vt 6.16884 37.8055
f 53/82/17 54/83/17 51/80/17

v -0.265165 0 0.156689
vt 6.16884 1.78915e-014
f 54/83/17 53/82/17 55/84/17

f 46/77/17 55/84/17 53/82/17

v -0.265165 0 0.116689
vt 4.59404 1.78915e-014
f 55/84/17 46/77/17 56/85/17

f 56/85/17 46/77/17 47/76/17

v -0.265165 0.36 0.116689
vt 4.59404 14.1732
f 56/85/17 47/76/17 57/86/17

vt 10.4396 15.748
vn 2.49128e-014 7.89591e-015 -1
vt 9.65218 15.748
v -0.245165 0.36 0.116689
vt 9.65218 14.1732
vt 10.4396 14.1732
f 47/87/18 19/88/18 58/89/18 57/90/18 

vt 10.4396 -4.59404
vt 10.4396 8.79179
f 20/33/11 19/32/11 47/91/11 48/92/11 

usemtl Color_B17
vn 1 0 -9.6449e-016
v -0.245165 0.36 -0.223311
f 58/48/19 59/49/19 20/50/19 19/51/19 

v -0.265165 0.36 -0.223311
f 59/33/11 58/32/11 57/91/11 60/92/11 

usemtl Color_C21
vn 5.52204e-015 -1.82589e-015 -1
v -0.225165 0 0.116689
vt 8.86478 -8.38823e-015
vt 10.4396 -8.38823e-015
f 57/90/20 58/89/20 19/88/20 18/20/20 61/93/20 56/94/20 

v -0.225165 0 0.156689
vt -6.16884 2.64294e-014
vn 1 2.98139e-015 1.63402e-014
vt -4.59404 2.64294e-014
vt -4.98774 15.748
v -0.225165 0.36 0.126689
vt -4.98774 14.1732
v -0.225165 0.36 0.146689
vt -5.77514 14.1732
v -0.225165 0.4 0.146689
vt -5.77514 15.748
v -0.225165 0.4 0.156689
vt -6.16884 15.748
f 62/95/21 61/96/21 18/51/21 17/97/21 63/98/21 64/99/21 65/100/21 66/101/21 

vt 8.86478 -6.16884
vt 10.4396 -6.16884
f 62/102/11 55/103/11 56/91/11 61/31/11 

vt -8.86478 5.85705e-015
vn 1.30071e-014 -9.49457e-016 1
vt -8.86478 17.3228
v -0.225165 0.96026 0.156689
vt -8.86478 37.8055
vt -10.4396 37.8055
vt -10.4396 5.85705e-015
f 62/104/22 66/8/22 39/105/22 67/106/22 54/107/22 55/108/22 

vt 7.67066 -5.20661e-015
vn 9.04918e-016 8.44018e-016 1
vt 7.67066 17.3228
v 0.154835 0.4 0.156689
vt 6.09585 -5.20661e-015
f 33/109/23 36/110/23 39/105/23 66/8/23 68/7/23 34/111/23 

vn 5.93677e-017 -1 1.12799e-014
vt 8.86478 -5.77514
v 0.154835 0.4 0.146689
vt -6.09585 -5.77514
f 68/57/24 66/102/24 65/112/24 69/113/24 

vn 2.76245e-030 -1 -2.25597e-015
f 65/112/25 17/30/25 16/29/25 69/113/25 

vn 1 7.83592e-028 6.32644e-014
f 64/99/26 63/98/26 17/97/26 65/100/26 

usemtl Color_B17
vn -5.93677e-017 -1 -1.12799e-015
v 0.154835 0.36 0.126689
v 0.154835 0.36 0.146689
f 64/112/27 63/30/27 70/29/27 71/113/27 

vn -2.04009e-015 -6.02694e-032 -1
f 70/18/28 63/19/28 17/20/28 16/17/28 

usemtl Color_C21
vt 5.77514 14.1732
vn -1 2.43932e-015 7.02892e-014
vt 4.98774 14.1732
vt 4.98774 15.748
vt 4.59404 1.48697e-014
vt 6.16884 1.48697e-014
vt 6.16884 15.748
vt 5.77514 15.748
f 71/114/29 70/115/29 16/116/29 15/76/29 31/117/29 34/118/29 68/119/29 69/120/29 

vn -1 0 6.30701e-014
f 69/120/30 16/116/30 70/115/30 71/114/30 

usemtl Color_B17
vn -2.82806e-015 1.24079e-014 1
f 64/5/31 71/6/31 69/7/31 65/8/31 

usemtl Color_C21
vt -4.59404 17.3228
vn 1 2.13129e-015 -1.74746e-018
v -0.225165 0.88026 0.116689
vt -4.59404 34.6559
v -0.225165 0.88026 -0.223311
vt 8.79179 34.6559
vt 8.79179 17.3228
v -0.225165 0.96026 -0.263311
vt 10.3666 37.8055
vt -6.16884 37.8055
f 41/121/32 72/122/32 73/123/32 40/124/32 38/58/32 74/125/32 67/126/32 39/59/32 

vt 10.4396 34.6559
vn 7.99305e-015 -1.02484e-016 -1
vt 8.86478 34.6559
vt 8.86478 17.3228
vt 10.4396 17.3228
f 53/127/33 72/128/33 41/129/33 46/130/33 

vn 4.51195e-015 -1 -4.35226e-030
v -0.255165 0.88026 0.0416886
vt 10.0459 -1.64128
f 53/91/34 75/131/34 72/31/34

v -0.255165 0.88026 -0.148311
vt 10.0459 5.83903
f 75/131/34 53/91/34 76/132/34

f 52/92/34 76/132/34 53/91/34

f 76/132/34 52/92/34 73/34/34

vt -10.4396 34.6559
vn 2.02066e-014 -2.04967e-016 1
vt -10.4396 17.3228
vt -8.86478 34.6559
f 52/133/35 45/134/35 40/105/35 73/135/35 

v -0.235165 0.88026 -0.148311
vt 9.25848 5.83903
f 76/132/34 73/34/34 77/136/34

v -0.235165 0.88026 -0.0633114
vt 9.25848 2.49258
f 77/136/34 73/34/34 78/137/34

f 72/31/34 78/137/34 73/34/34

v -0.235165 0.88026 -0.0433114
vt 9.25848 1.70517
f 72/31/34 79/138/34 78/137/34

v -0.235165 0.88026 0.0416886
vt 9.25848 -1.64128
f 72/31/34 80/139/34 79/138/34

f 72/31/34 75/131/34 80/139/34

v -0.235165 0.88026 0.0216886
vt -9.25848 -0.853881
vn 0 1 -0
v -0.255165 0.88026 0.0216886
vt -10.0459 -0.853881
vt -10.0459 -1.64128
vt -9.25848 -1.64128
f 81/140/36 82/141/36 75/142/36 80/143/36 

usemtl Color_B17
vt 9.25848 34.6559
vn 1.3633e-014 0 -1
v -0.235165 0.44 0.0216886
vt 9.25848 17.3228
v -0.255165 0.44 0.0216886
vt 10.0459 17.3228
vt 10.0459 34.6559
f 81/144/37 83/145/37 84/146/37 82/147/37 

v -0.235165 0.44 0.0416886
vt -1.64128 17.3228
vn 1 0 9.71445e-017
vt -0.853881 17.3228
vt -0.853881 34.6559
vt -1.64128 34.6559
f 85/148/38 83/149/38 81/150/38 80/151/38 

usemtl Color_C21
f 85/143/16 41/69/16 83/140/16

v -0.255165 0.44 0.0416886
f 86/142/16 41/69/16 85/143/16

f 86/142/16 46/74/16 41/69/16

f 46/74/16 86/142/16 44/72/16

v -0.255165 0.44 -0.128311
vt -10.0459 5.05163
f 44/72/16 86/142/16 87/152/16

v -0.255165 0.44 -0.0633114
vt -10.0459 2.49258
f 88/153/16 87/152/16 86/142/16

v -0.235165 0.44 -0.128311
vt -9.25848 5.05163
f 87/152/16 88/153/16 89/154/16

v -0.235165 0.44 -0.0633114
vt -9.25848 2.49258
f 89/154/16 88/153/16 90/155/16

usemtl Color_B17
vn -1.79506e-014 0 -1
v -0.255165 0.88026 -0.0633114
f 78/144/39 90/145/39 88/146/39 91/147/39 

v -0.235165 0.44 -0.0433114
vt 1.70517 17.3228
vn 1 2.118e-015 4.52166e-014
vt 2.09887 17.3228
vt 2.49258 17.3228
vt 2.49258 34.6559
vt 1.70517 34.6559
f 92/156/40 42/157/40 90/158/40 78/159/40 79/160/40 

usemtl Color_C21
vt -9.25848 1.70517
f 92/161/16 41/69/16 42/70/16

f 83/140/16 41/69/16 92/161/16

v -0.255165 0.44 -0.0433114
vt -10.0459 1.70517
f 93/162/16 83/140/16 92/161/16

f 93/162/16 84/141/16 83/140/16

f 88/153/16 84/141/16 93/162/16

f 84/141/16 88/153/16 86/142/16

usemtl Color_B17
vt 1.64128 34.6559
vn -1 0 -5.42405e-014
vt 0.853881 34.6559
vt 0.853881 17.3228
vt 1.64128 17.3228
f 75/163/41 82/164/41 84/165/41 86/166/41 

usemtl Color_C21
vt 10.0459 2.49258
vt 10.0459 -0.853881
f 91/167/34 82/168/34 75/131/34

v -0.255165 0.88026 -0.0433114
vt 10.0459 1.70517
f 82/168/34 91/167/34 94/169/34

f 78/155/36 91/153/36 94/162/36 79/161/36 

v -0.235165 0.88026 -0.128311
vt 9.25848 5.05163
f 91/167/34 95/170/34 78/137/34

v -0.255165 0.88026 -0.128311
vt 10.0459 5.05163
f 91/167/34 96/171/34 95/170/34

f 96/171/34 91/167/34 75/131/34

f 75/131/34 76/132/34 96/171/34

f 77/71/36 76/72/36 96/152/36 95/154/36 

usemtl Color_B17
f 77/144/39 43/145/39 44/146/39 76/147/39 

vt 5.05163 17.3228
vn 1 0 9.12104e-015
vt 5.83903 17.3228
vt 5.83903 34.6559
vt 5.05163 34.6559
f 89/172/42 43/173/42 77/174/42 95/175/42 

usemtl Color_C21
f 89/154/16 90/155/16 43/71/16

f 43/71/16 90/155/16 42/70/16

f 78/137/34 95/170/34 77/136/34

usemtl Color_B17
vt -9.25848 17.3228
vt -9.25848 34.6559
vt -10.0459 34.6559
vt -10.0459 17.3228
f 89/176/10 95/177/10 96/178/10 87/179/10 

vt -5.83903 17.3228
vn -1 0 8.92675e-015
vt -5.05163 17.3228
vt -5.05163 34.6559
vt -5.83903 34.6559
f 44/180/43 87/181/43 96/182/43 76/183/43 

vt -1.70517 34.6559
vt -2.49258 34.6559
vt -2.49258 17.3228
vt -1.70517 17.3228
f 94/184/30 91/185/30 88/186/30 93/187/30 

vn 5.85582e-014 0 1
f 92/176/44 79/177/44 94/178/44 93/179/44 

usemtl Color_C21
vt 9.25848 -0.853881
f 81/188/34 94/169/34 79/138/34

f 82/168/34 94/169/34 81/188/34

f 81/188/34 79/138/34 80/139/34

usemtl Color_B17
vn -3.16808e-014 0 1
f 85/176/45 80/177/45 75/178/45 86/179/45 

usemtl Color_C21
vt 8.86478 37.8055
vn -4.82832e-016 -7.7163e-016 -1
v -0.225165 0.4 -0.263311
v -0.225165 0 -0.263311
vt 8.86478 7.99917e-015
vt 10.4396 7.99917e-015
vt 10.4396 37.8055
f 74/189/46 38/129/46 97/20/46 98/190/46 50/191/46 51/192/46 

vn -2.80373e-015 1.92556e-016 -1
vt -7.67066 17.3228
vt -7.67066 -1.99615e-015
vt -6.09585 -1.99615e-015
f 38/129/47 35/193/47 37/194/47 9/195/47 8/17/47 97/20/47 

vt -7.67066 10.3666
vt -7.67066 8.79179
vt -6.09585 10.3666
f 37/196/11 24/197/11 10/25/11 9/198/11 

vt 8.86478 10.3666
vn 5.93677e-017 -1 -6.76792e-015
f 97/199/48 8/198/48 7/4/48 12/3/48 

vn 1 3.33214e-015 1.09258e-014
v -0.225165 0 -0.223311
vt 8.79179 2.95387e-014
vt 10.3666 2.95387e-014
vt 10.3666 15.748
f 3/24/49 2/23/49 6/22/49 21/50/49 99/200/49 98/201/49 97/202/49 12/21/49 

vt -8.86478 -1.13298e-014
vn 2.98748e-014 -1.28868e-015 1
vt -9.65218 15.748
vt -9.65218 14.1732
vt -10.4396 14.1732
vt -10.4396 -1.13298e-014
f 99/203/50 21/8/50 20/204/50 59/205/50 60/206/50 49/207/50 

vn -1.3633e-014 2.25597e-015 1
vt -10.4396 15.748
f 60/206/51 59/205/51 20/204/51 48/208/51 

vt -8.79179 14.1732
f 49/78/17 60/209/17 48/16/17

usemtl Color_B17
vn -1 -1.12799e-014 3.35317e-015
f 60/209/52 57/86/52 47/76/52 48/16/52 

usemtl Color_C21
vt 10.4396 10.3666
f 49/92/11 50/210/11 98/199/11 99/34/11 

vt -10.4396 -6.16884
vt -10.4396 10.3666
f 54/211/36 67/67/36 74/64/36 51/212/36 

f 25/197/11 32/55/11 27/42/11 26/43/11 

usemtl Color_B17
vn -1 0 4.33673e-016
f 23/209/53 29/86/53 14/76/53 13/16/53 

g Mesh2 Model

usemtl Color_C21
v -0.225165 0.32 -0.253311
vt -8.86478 9.97289
v -0.225165 0.32 -0.233311
vt -8.86478 9.18549
v 0.154835 0.32 -0.233311
vt 6.09585 9.18549
v 0.154835 0.32 -0.253311
vt 6.09585 9.97289
f 100/213/36 101/214/36 102/215/36 103/216/36 

usemtl Color_B17
vt -8.86478 12.5984
vn 2.75251e-015 0 1
v -0.225165 0.3 -0.233311
vt -8.86478 11.811
v 0.154835 0.3 -0.233311
vt 6.09585 11.811
vt 6.09585 12.5984
f 101/217/54 104/218/54 105/219/54 102/220/54 

v -0.225165 0.3 -0.253311
v 0.154835 0.3 -0.253311
f 104/2/11 106/3/11 107/4/11 105/1/11 

vt 8.86478 11.811
vn -1.32768e-015 0 -1
vt 8.86478 12.5984
vt -6.09585 12.5984
vt -6.09585 11.811
f 106/221/55 100/222/55 103/223/55 107/224/55 

g Mesh3 Model

usemtl Color_C21
v -0.255165 0.32 0.116689
vt -10.0459 -4.59404
v -0.235165 0.32 0.116689
vt -9.25848 -4.59404
v -0.235165 0.32 -0.223311
vt -9.25848 8.79179
v -0.255165 0.32 -0.223311
vt -10.0459 8.79179
f 108/225/36 109/226/36 110/227/36 111/228/36 

usemtl Color_B17
vt -4.59404 12.5984
vn 1 -3.42188e-030 4.8745e-015
v -0.235165 0.3 0.116689
vt -4.59404 11.811
v -0.235165 0.3 -0.223311
vt 8.79179 11.811
vt 8.79179 12.5984
f 109/229/56 112/230/56 113/231/56 110/232/56 

vt 9.25848 -4.59404
v -0.255165 0.3 0.116689
vt 10.0459 -4.59404
v -0.255165 0.3 -0.223311
vt 10.0459 8.79179
vt 9.25848 8.79179
f 112/233/11 114/234/11 115/235/11 113/236/11 

vt 4.59404 11.811
vn -1 -6.75387e-045 -2.75123e-015
vt 4.59404 12.5984
vt -8.79179 12.5984
vt -8.79179 11.811
f 114/237/57 108/238/57 111/239/57 115/240/57 

g Mesh4 Model

v -0.225165 0.32 0.146689
vn -2.70932e-015 0 1
v -0.225165 0.3 0.146689
v 0.154835 0.3 0.146689
v 0.154835 0.32 0.146689
f 116/217/58 117/218/58 118/219/58 119/220/58 

v -0.225165 0.3 0.126689
v 0.154835 0.3 0.126689
f 117/112/11 120/30/11 121/29/11 118/113/11 

vn -2.27756e-015 0 -1
v -0.225165 0.32 0.126689
v 0.154835 0.32 0.126689
f 120/221/59 122/222/59 123/223/59 121/224/59 

usemtl Color_C21
vt -8.86478 -4.98774
vt -8.86478 -5.77514
vt 6.09585 -5.77514
vt 6.09585 -4.98774
f 122/241/36 116/242/36 119/243/36 123/244/36 

