# Alias OBJ Model File
# Exported from SketchUp, (c) 2000-2012 Trimble Navigation Limited
# File units = meters

mtllib coffeeTable1.mtl

g Mesh1 Model

usemtl Color_008
v 0.418428 0.307311 -0.329029
vt -16.4735 12.9539
vn -4.77663e-017 -1 -1.58277e-015
v 0.418428 0.307311 -0.300522
vt -16.4735 11.8316
v -0.52616 0.307311 -0.300522
vt 20.715 11.8316
v -0.52616 0.307311 -0.329029
vt 20.715 12.9539
f 1/1/1 2/2/1 3/3/1 4/4/1 

v 0.418428 0.0789195 -0.300522
vt -11.8316 3.10707
vn -1 7.91242e-016 3.61998e-015
v 0.418428 0.0801713 -0.300522
vt -11.8316 3.15635
v 0.418428 0.105968 -0.300522
vt -11.8316 4.17196
vt -11.8316 12.0989
vt -12.9539 12.0989
v 0.418428 3.10274e-017 -0.329029
vt -12.9539 1.42561e-014
v 0.418428 0 -0.300522
vt -11.8316 1.30346e-014
f 5/5/2 6/6/2 7/7/2 2/8/2 1/9/2 8/10/2 9/11/2 

v 0.418428 0.0789195 0.193252
vt 7.60834 3.10707
vn -1 2.04571e-014 2.49582e-032
v 0.418428 0.0801713 0.193252
vt 7.60834 3.15635
v 0.418428 0.105968 0.193252
vt 7.60834 4.17196
f 10/12/3 11/13/3 12/14/3 7/7/3 6/6/3 5/5/3 

v 0.418428 0.307311 0.193252
vt 7.60834 12.0989
vn -1 9.97794e-016 -2.71259e-015
v 0.418428 0 0.193252
vt 7.60834 1.64372e-014
v 0.418428 3.10274e-017 0.220971
vt 8.69965 1.76588e-014
v 0.418428 0.307311 0.220971
vt 8.69965 12.0989
f 13/15/4 12/14/4 11/13/4 10/12/4 14/16/4 15/17/4 16/18/4 

v 0.445563 0.307311 0.193252
vt -17.5419 12.0989
vn 0 0 -1
v 0.445563 0.105968 0.193252
vt -17.5419 4.17196
vt -16.4735 4.17196
vt -16.4735 12.0989
f 17/19/5 18/20/5 12/21/5 13/22/5 

v 0.445563 0.0789195 0.193252
vt -7.60834 3.10707
vn 1 -1.62968e-016 -5.07893e-017
v 0.445563 0.0801713 0.193252
vt -7.60834 3.15635
vt -7.60834 4.17196
vt -7.60834 12.0989
v 0.445563 0.307311 -0.300522
vt 11.8316 12.0989
v 0.445563 0.307311 -0.329029
vt 12.9539 12.0989
v 0.445563 0.333678 -0.329029
vt 12.9539 13.1369
v 0.445563 0.333678 0.220971
vt -8.69965 13.1369
v 0.445563 3.10274e-017 0.220971
vt -8.69965 4.08032e-015
v 0.445563 3.10274e-017 0.193252
vt -7.60834 4.08032e-015
f 19/23/6 20/24/6 18/25/6 17/26/6 21/27/6 22/28/6 23/29/6 24/30/6 25/31/6 26/32/6 

vn 1 1.14343e-015 -0
v 0.445563 0.0789195 -0.300522
vt 11.8316 3.10707
v 0.445563 0.0801713 -0.300522
vt 11.8316 3.15635
f 19/23/7 27/33/7 28/34/7 20/24/7 

vt 17.5419 -7.60834
vn -1.14343e-015 1 -0
vt 17.5419 11.8316
vt 16.4735 11.8316
vt 16.4735 -7.60834
f 19/35/8 27/36/8 5/37/8 10/38/8 

v 0.445563 3.10274e-017 -0.300522
vt 17.5419 1.22155e-015
vn 0 0 1
vt 17.5419 3.10707
vt 16.4735 3.10707
vt 16.4735 0
f 29/39/9 27/40/9 5/41/9 9/42/9 

vn 1 4.838e-016 2.5643e-015
v 0.445563 0.105968 -0.300522
vt 11.8316 4.17196
vt 11.8316 -7.2652e-015
v 0.445563 3.10274e-017 -0.329029
vt 12.9539 -7.2652e-015
f 21/27/10 30/43/10 28/34/10 27/33/10 29/44/10 31/45/10 22/28/10 

vt 17.5419 4.17196
vt 17.5419 12.0989
vt 16.4735 12.0989
vt 16.4735 4.17196
f 30/46/9 21/47/9 2/48/9 7/49/9 

vt -17.5419 11.8316
vn 0 -1 -0
vt -17.5419 -7.60834
vt -16.4735 -7.60834
f 21/50/11 17/51/11 13/52/11 2/2/11 

vn -1 0 -0
v 0.418428 0.333678 0.193252
vt 7.60834 13.1369
v 0.418428 0.333678 -0.300522
vt -11.8316 13.1369
f 2/8/12 13/15/12 32/53/12 33/54/12 

vn 1.19416e-017 -7.42169e-033 -1
v -0.52616 0.307311 0.193252
vt 20.715 12.0989
v -0.52616 0.333678 0.193252
vt 20.715 13.1369
vt -16.4735 13.1369
f 13/22/13 34/55/13 35/56/13 32/57/13 

v -0.52616 0.307311 0.220971
vt 20.715 -8.69965
vn -4.77663e-017 -1 1.62773e-015
vt 20.715 -7.60834
vt -16.4735 -8.69965
f 36/58/14 34/59/14 13/52/14 16/60/14 

v -0.52616 3.10274e-017 0.220971
vt -8.69965 1.22155e-015
vn 1 0 -0
v -0.52616 3.10274e-017 0.193252
vt -7.60834 1.22155e-015
v -0.52616 0.0801713 0.193252
v -0.52616 0.105968 0.193252
vt -8.69965 12.0989
f 37/61/15 38/62/15 39/24/15 40/25/15 34/26/15 36/63/15 

v -0.554437 3.10274e-017 0.220971
vt 21.8282 -8.69965
v -0.554437 3.10274e-017 0.193252
vt 21.8282 -7.60834
f 41/64/11 42/65/11 38/59/11 37/58/11 

v -0.554437 0.333678 0.220971
vt 8.69965 13.1369
v -0.554437 0.333678 0.193252
v -0.554437 0.307311 0.193252
v -0.554437 0.105968 0.193252
v -0.554437 0.0801713 0.193252
vt 7.60834 1.22155e-015
vt 8.69965 1.22155e-015
f 43/66/12 44/53/12 45/15/12 46/14/12 47/13/12 42/67/12 41/68/12 

usemtl Color_B13
v -0.554437 0.36 -0.329029
vt -12.9539 14.1732
v -0.554437 0.333678 -0.329029
vt -12.9539 13.1369
v -0.554437 0.333678 -0.300522
v -0.554437 0.36 0.220971
vt 8.69965 14.1732
f 48/69/12 49/70/12 50/54/12 44/53/12 43/66/12 51/71/12 

v 0.445563 0.36 -0.329029
vt -17.5419 14.1732
vt -17.5419 13.1369
vt 21.8282 13.1369
vt 21.8282 14.1732
f 52/72/5 23/73/5 49/74/5 48/75/5 

v 0.445563 0.36 0.220971
vt -8.69965 14.1732
vt 12.9539 14.1732
f 53/76/15 24/30/15 23/29/15 52/77/15 

vt -21.8282 14.1732
vt -21.8282 13.1369
vt 17.5419 13.1369
vt 17.5419 14.1732
f 51/78/9 43/79/9 24/80/9 53/81/9 

usemtl Color_008
vn -2.25488e-017 -1 5.54828e-017
vt -17.5419 -8.69965
f 43/64/16 35/59/16 24/82/16

v -0.52616 0.333678 -0.300522
f 35/59/16 43/64/16 54/3/16

f 44/65/16 54/3/16 43/64/16

vt 21.8282 11.8316
f 50/83/16 54/3/16 44/65/16

vt -17.5419 12.9539
f 50/83/16 23/84/16 54/3/16

vt 21.8282 12.9539
f 23/84/16 50/83/16 49/85/16

v -0.554437 3.10274e-017 -0.300522
vt -11.8316 1.22155e-015
v -0.554437 0.0801713 -0.300522
v -0.554437 0.105968 -0.300522
v -0.554437 0.307311 -0.300522
v -0.554437 3.10274e-017 -0.329029
vt -12.9539 1.22155e-015
f 55/86/12 56/6/12 57/7/12 58/8/12 50/54/12 49/70/12 59/87/12 

v -0.52616 3.10274e-017 -0.300522
vt -20.715 -1.20958e-014
vn 0 -1.12558e-015 1
v -0.52616 0.0801713 -0.300522
vt -20.715 3.15635
vt -21.8282 3.15635
vt -21.8282 -1.20958e-014
f 60/88/17 61/89/17 56/90/17 55/91/17 

v -0.52616 0.105968 -0.300522
vt 11.8316 1.22155e-015
v -0.52616 3.10274e-017 -0.329029
vt 12.9539 1.22155e-015
f 62/43/15 61/34/15 60/92/15 63/93/15 4/28/15 3/27/15 

f 39/24/15 61/34/15 62/43/15 40/25/15 

vn 0 -1 -2.28442e-017
f 61/3/18 39/59/18 47/65/18 56/83/18 

vt 20.715 3.15635
vt 20.715 1.22155e-015
vt 21.8282 1.22155e-015
vt 21.8282 3.15635
f 39/94/5 38/95/5 42/96/5 47/97/5 

vt 21.8282 4.17196
vt 20.715 4.17196
f 47/97/5 46/98/5 40/99/5 39/94/5 

f 56/6/12 47/13/12 46/14/12 57/7/12 

vt -20.715 -7.60834
vn 0 1 4.56884e-017
vt -20.715 11.8316
vt -21.8282 11.8316
vt -21.8282 -7.60834
f 40/100/19 62/101/19 57/102/19 46/103/19 

vt -20.715 4.17196
vn 0 4.48184e-016 1
vt -20.715 12.0989
vt -21.8282 12.0989
vt -21.8282 4.17196
f 62/104/20 3/105/20 58/106/20 57/107/20 

f 58/83/11 3/3/11 34/59/11 45/65/11 

vn 1 -2.13902e-016 -1.78602e-048
vt 11.8316 13.1369
vt -7.60834 13.1369
f 34/26/21 3/27/21 54/108/21 35/109/21 

vn -9.55326e-017 -9.81082e-032 1
vt 16.4735 13.1369
vt -20.715 13.1369
f 3/105/22 2/48/22 33/110/22 54/111/22 

usemtl Color_B13
vn -9.55326e-017 -1 3.68993e-033
f 33/2/23 32/52/23 35/59/23 54/3/23 

usemtl Color_008
f 33/2/16 23/84/16 32/52/16

f 54/3/16 23/84/16 33/2/16

f 24/82/16 32/52/16 23/84/16

f 24/82/16 35/59/16 32/52/16

vt 21.8282 12.0989
f 34/55/5 40/99/5 46/98/5 45/112/5 

f 58/8/12 45/15/12 44/53/12 50/54/12 

f 57/107/9 56/90/9 61/89/9 62/104/9 

f 60/3/11 55/83/11 59/85/11 63/4/11 

vt -17.5419 1.22155e-015
vt -16.4735 1.22155e-015
f 59/96/5 49/74/5 23/73/5 22/19/5 31/113/5 8/114/5 1/22/5 4/55/5 63/95/5 

vn 5.71715e-016 -1 -2.71528e-016
f 29/50/24 9/2/24 8/1/24 31/84/24 

vt -21.8282 1.22155e-015
vt -20.715 1.22155e-015
vt 16.4735 1.22155e-015
f 25/39/9 24/80/9 43/79/9 41/115/9 37/116/9 36/105/9 16/48/9 15/117/9 

vn 5.71715e-016 -1 2.77911e-016
f 15/60/25 14/52/25 26/51/25 25/82/25 

vt -17.5419 3.10707
vt -16.4735 0
vt -16.4735 3.10707
f 19/118/5 26/113/5 14/119/5 10/120/5 

vt 17.5419 3.15635
vt 16.4735 3.15635
f 10/41/9 19/40/9 20/121/9 11/122/9 

vt -16.4735 3.15635
vn 7.79952e-035 -4.37265e-016 -1
vt -17.5419 3.15635
f 11/123/26 12/21/26 18/20/26 20/124/26 

vn 0 1 -0
f 18/35/27 30/36/27 7/37/27 12/38/27 

f 30/43/15 18/25/15 20/24/15 28/34/15 

vn 6.23962e-034 -3.49812e-015 1
f 7/49/28 6/122/28 28/121/28 30/46/28 

f 27/118/5 5/120/5 6/123/5 28/124/5 

usemtl Color_B13
vt -21.8282 12.9539
vt -21.8282 -8.69965
vt 17.5419 -8.69965
vt 17.5419 12.9539
f 48/125/27 51/126/27 53/127/27 52/128/27 

