# Alias OBJ Model File
# Exported from SketchUp, (c) 2000-2012 Trimble Navigation Limited
# File units = meters

mtllib coffeeTable4.mtl

g Mesh1 Model

usemtl Color_I23
v 0.616552 0.47625 0.317395
vt 24.2737 -12.4959
vn 0 1 -0
v 0.616552 0.47625 -0.292205
vt 24.2737 11.5041
v -0.602648 0.47625 -0.292205
vt -23.7263 11.5041
v -0.602648 0.47625 0.317395
vt -23.7263 -12.4959
f 1/1/1 2/2/1 3/3/1 4/4/1 

v 0.616552 0.4572 0.317395
vt -12.4959 18
vn 1 0 5.55112e-017
v 0.616552 0.4572 -0.292205
vt 11.5041 18
vt 11.5041 18.75
vt -12.4959 18.75
f 5/5/2 6/6/2 2/7/2 1/8/2 

vt -24.2737 -12.4959
vn 0 -1 -0
v 0.591152 0.4572 0.291995
vt -23.2737 -11.4959
vt -24.2737 11.5041
f 5/9/3 7/10/3 6/11/3

v 0.540352 0.4572 0.291995
vt -21.2737 -11.4959
f 5/9/3 8/12/3 7/10/3

v -0.526448 0.4572 0.291995
vt 20.7263 -11.4959
f 5/9/3 9/13/3 8/12/3

v -0.577248 0.4572 0.291995
vt 22.7263 -11.4959
f 5/9/3 10/14/3 9/13/3

v -0.602648 0.4572 0.317395
vt 23.7263 -12.4959
f 11/15/3 10/14/3 5/9/3

v -0.577248 0.4572 0.241195
vt 22.7263 -9.49586
f 10/14/3 11/15/3 12/16/3

v -0.564548 0.4572 -0.216005
vt 22.2263 8.50414
f 11/15/3 13/17/3 12/16/3

v -0.602648 0.4572 -0.292205
vt 23.7263 11.5041
f 14/18/3 13/17/3 11/15/3

v -0.526448 0.4572 -0.254105
vt 20.7263 10.0041
f 13/17/3 14/18/3 15/19/3

f 15/19/3 14/18/3 6/11/3

vt -24.2737 18
vn 5.55112e-017 0 -1
vt 23.7263 18
vt 23.7263 18.75
vt -24.2737 18.75
f 6/20/4 14/21/4 3/22/4 2/23/4 

vt -11.5041 18
vn -1 0 -5.55112e-017
vt 12.4959 18
vt 12.4959 18.75
vt -11.5041 18.75
f 14/24/5 11/25/5 4/26/5 3/27/5 

vt -23.7263 18
vn -5.55112e-017 0 1
vt 24.2737 18
vt 24.2737 18.75
vt -23.7263 18.75
f 11/28/6 5/29/6 1/30/6 4/31/6 

v 0.540352 0.4572 -0.254105
vt -21.2737 10.0041
f 15/19/3 6/11/3 16/32/3

v 0.553052 0.4572 -0.216005
vt -21.7737 8.50414
f 16/32/3 6/11/3 17/33/3

v 0.578452 0.4572 -0.216005
vt -22.7737 8.50414
f 17/33/3 6/11/3 18/34/3

v 0.591152 0.4572 0.241195
vt -23.2737 -9.49586
f 18/34/3 6/11/3 19/35/3

f 19/35/3 6/11/3 7/10/3

usemtl _Color_006_1
v 0.540352 0.4572 0.241195
vt -21.2737 -9.49586
vn 5.56509e-014 -1 -1.43102e-014
v 0.553052 0.4572 0.241195
vt -21.7737 -9.49586
v 0.578452 0.4572 0.241195
vt -22.7737 -9.49586
v 0.540352 0.4572 0.279295
vt -21.2737 -10.9959
v 0.540352 0.4572 0.253895
vt -21.2737 -9.99586
f 20/36/7 21/37/7 22/38/7 19/35/7 7/10/7 8/12/7 23/39/7 24/40/7 

usemtl Color_I23
v 0.540352 0.4572 -0.228705
vt -21.2737 9.00414
f 20/36/3 25/41/3 21/37/3

v -0.526448 0.4572 0.253895
vt 20.7263 -9.99586
f 26/42/3 25/41/3 20/36/3

v -0.526448 0.4572 0.241195
vt 20.7263 -9.49586
f 27/43/3 25/41/3 26/42/3

v -0.526448 0.4572 -0.228705
vt 20.7263 9.00414
f 27/43/3 28/44/3 25/41/3

v -0.539148 0.4572 -0.216005
vt 21.2263 8.50414
f 27/43/3 29/45/3 28/44/3

v -0.539148 0.4572 0.241195
vt 21.2263 -9.49586
f 29/45/3 27/43/3 30/46/3

vn -4.13407e-014 -1 4.13407e-014
v -0.526448 0.4572 0.279295
vt 20.7263 -10.9959
v -0.564548 0.4572 0.241195
vt 22.2263 -9.49586
f 27/43/8 26/42/8 31/47/8 9/13/8 10/14/8 12/16/8 32/48/8 30/46/8 

usemtl _Color_006_1
v -0.526448 0 0.291995
vt -11.4959 -1.7386e-014
vn 1 -8.38835e-016 2.8027e-014
v -0.526448 0 0.241195
vt -9.49586 -1.7386e-014
vt -9.49586 18
vt -9.99586 18
v -0.526448 0.3556 0.253895
vt -9.99586 14
v -0.526448 0.3556 0.279295
vt -10.9959 14
vt -10.9959 18
vt -11.4959 18
f 33/49/9 34/50/9 27/51/9 26/52/9 35/53/9 36/54/9 31/55/9 9/56/9 

v -0.577248 0 0.291995
v -0.577248 0 0.241195
f 34/43/3 33/13/3 37/14/3 38/16/3 

vt -22.7263 0
vt -20.7263 0
vt -20.7263 18
vt -22.7263 18
f 37/57/6 33/58/6 9/59/6 10/60/6 

vt 9.49586 0
vt 11.4959 0
vt 11.4959 18
vt 9.49586 18
f 38/61/5 37/62/5 10/63/5 12/64/5 

vt 20.7263 3.37361e-014
vn 2.84217e-014 3.55271e-015 -1
vt 22.7263 3.37361e-014
vt 22.7263 18
vt 22.2263 18
v -0.564548 0.3556 0.241195
vt 22.2263 14
v -0.539148 0.3556 0.241195
vt 21.2263 14
vt 21.2263 18
vt 20.7263 18
f 34/65/10 38/66/10 12/67/10 32/68/10 39/69/10 40/70/10 30/71/10 27/72/10 

usemtl Color_I23
f 12/16/3 13/17/3 32/48/3

usemtl _Color_001_3
vt -8.50414 18
vn -1 2.27818e-013 -2.56881e-013
v -0.564548 0.3556 -0.216005
vt -8.50414 14
vt 9.49586 14
f 13/73/11 41/74/11 39/75/11 32/64/11 

vt -22.2263 14
vn -2.57572e-013 5.87938e-026 1
v -0.539148 0.3556 -0.216005
vt -21.2263 14
vt -21.2263 18
vt -22.2263 18
f 41/76/12 42/77/12 29/78/12 13/79/12 

vn -2.28043e-013 -1 -7.84997e-030
f 41/17/13 42/45/13 40/46/13 39/48/13 

usemtl _Color_006_1
v -0.577248 0 -0.216005
vt -22.7263 -2.72754e-015
vn -2.54611e-014 -3.20731e-016 1
v -0.526448 0 -0.216005
vt -20.7263 -2.72754e-015
v -0.526448 0.4572 -0.216005
v -0.577248 0.4572 -0.216005
f 43/80/14 44/81/14 45/59/14 29/78/14 42/77/14 41/76/14 13/79/14 46/60/14 

vt 20.7263 8.50414
vt 22.7263 8.50414
v -0.577248 0 -0.266805
vt 22.7263 10.5041
v -0.526448 0 -0.266805
vt 20.7263 10.5041
f 44/82/3 43/83/3 47/84/3 48/85/3 

vt -10.5041 0
vn -1 0 3.33639e-015
vt -8.50414 0
v -0.577248 0.4572 -0.266805
vt -10.5041 18
f 47/86/15 43/87/15 46/73/15 49/88/15 

vt -21.2263 8.50414
vn 4.30798e-014 1 4.08935e-014
vt -20.7263 8.50414
vt -20.7263 9.00414
vt -20.7263 10.0041
v -0.526448 0.4572 -0.266805
vt -20.7263 10.5041
vt -22.7263 10.5041
vt -22.7263 8.50414
vt -22.2263 8.50414
f 29/89/16 45/90/16 28/91/16 15/92/16 50/93/16 49/94/16 46/95/16 13/96/16 

vt 8.50414 3.59787e-012
vn 1 1.7359e-013 2.36848e-014
vt 10.5041 3.59787e-012
vt 10.5041 18
vt 10.0041 18
v -0.526448 0.3556 -0.254105
vt 10.0041 14
v -0.526448 0.3556 -0.228705
vt 9.00414 14
vt 9.00414 18
vt 8.50414 18
f 44/97/17 48/98/17 50/99/17 15/100/17 51/101/17 52/102/17 28/103/17 45/104/17 

vt 20.7263 0
vn -3.33639e-015 0 -1
vt 22.7263 0
f 48/105/18 47/106/18 49/67/18 50/72/18 

usemtl _Color_001_3
vt -21.2737 18
vn 2.55584e-013 2.30926e-013 -1
v 0.540352 0.3556 -0.254105
vt -21.2737 14
vt 20.7263 14
f 16/107/19 53/108/19 51/109/19 15/72/19 

vt -9.00414 18
vn -1 5.82511e-026 -2.52243e-013
vt -10.0041 18
vt -10.0041 14
v 0.540352 0.3556 -0.228705
vt -9.00414 14
f 25/110/20 16/111/20 53/112/20 54/113/20 

usemtl Color_I23
f 21/37/3 25/41/3 16/32/3

vn 5.81131e-026 -1 -2.27374e-013
f 16/32/21 25/41/21 28/44/21 15/19/21 

usemtl _Color_006_1
vt 21.2737 9.00414
vn -5.739e-014 1 -1.47574e-014
v 0.540352 0.4572 -0.216005
vt 21.2737 8.50414
vt 21.7737 8.50414
vt 22.7737 8.50414
v 0.591152 0.4572 -0.216005
vt 23.2737 8.50414
v 0.591152 0.4572 -0.266805
vt 23.2737 10.5041
v 0.540352 0.4572 -0.266805
vt 21.2737 10.5041
vt 21.2737 10.0041
f 25/114/22 55/115/22 17/116/22 18/117/22 56/118/22 57/119/22 58/120/22 16/121/22 

v 0.540352 0 -0.266805
vt -10.5041 -3.55958e-012
vn -1 -1.67323e-013 -2.8027e-014
v 0.540352 0 -0.216005
vt -8.50414 -3.55958e-012
f 59/122/23 60/123/23 55/73/23 25/110/23 54/113/23 53/112/23 16/111/23 58/88/23 

vt -21.2737 8.50414
vt -21.2737 10.5041
v 0.591152 0 -0.266805
vt -23.2737 10.5041
v 0.591152 0 -0.216005
vt -23.2737 8.50414
f 60/124/3 59/125/3 61/126/3 62/127/3 

vt -23.2737 0
vn 1.77976e-016 0 -1
vt -21.2737 0
vt -23.2737 18
f 61/128/24 59/129/24 58/107/24 57/130/24 

vt 8.50414 0
vn 1 0 1.77976e-016
vt 10.5041 0
f 62/131/25 61/132/25 57/99/25 56/104/25 

vt 21.2737 2.97932e-014
vn -2.84217e-014 3.50337e-015 1
vt 23.2737 2.97932e-014
vt 23.2737 18
vt 22.7737 18
v 0.578452 0.3556 -0.216005
vt 22.7737 14
v 0.553052 0.3556 -0.216005
vt 21.7737 14
vt 21.7737 18
vt 21.2737 18
f 60/133/26 62/134/26 56/135/26 18/136/26 63/137/26 64/138/26 17/139/26 55/140/26 

usemtl _Color_001_3
vn -2.55795e-013 -5.81611e-026 1
f 64/138/27 63/137/27 18/136/27 17/139/27 

v 0.578452 0.3556 0.241195
vn 2.28043e-013 -1 3.57772e-029
v 0.553052 0.3556 0.241195
f 65/38/28 66/37/28 64/33/28 63/34/28 

vt -22.7737 14
vn 2.57572e-013 5.87938e-026 -1
vt -21.7737 14
vt -21.7737 18
vt -22.7737 18
f 65/141/29 66/142/29 21/143/29 22/144/29 

usemtl _Color_006_1
v 0.591152 0 0.241195
vt -23.2737 -3.98273e-015
vn 2.86191e-014 -4.19418e-016 -1
v 0.540352 0 0.241195
vt -21.2737 -3.98273e-015
f 67/145/30 68/146/30 20/107/30 21/143/30 66/142/30 65/141/30 22/144/30 19/130/30 

v 0.591152 0 0.291995
v 0.540352 0 0.291995
f 68/36/3 67/35/3 69/10/3 70/12/3 

vt -11.4959 0
vn 1 0 -0
vt -9.49586 0
f 69/147/31 67/148/31 19/51/31 7/56/31 

vt 21.2737 0
vn 0 0 1
vt 23.2737 0
f 70/149/32 69/150/32 7/135/32 8/140/32 

vt 9.49586 1.4696e-013
vn -1 6.90805e-015 -3.00007e-014
vt 11.4959 1.4696e-013
vt 10.9959 18
v 0.540352 0.3556 0.279295
vt 10.9959 14
v 0.540352 0.3556 0.253895
vt 9.99586 14
vt 9.99586 18
f 68/151/33 70/152/33 8/63/33 23/153/33 71/154/33 72/155/33 24/156/33 20/64/33 

usemtl Color_I23
f 9/13/3 23/39/3 8/12/3

f 23/39/3 9/13/3 31/47/3

usemtl _Color_001_3
vn -2.51312e-013 2.30482e-013 1
vt -20.7263 14
vt 21.2737 14
f 31/59/34 36/157/34 71/158/34 23/140/34 

vn 1 5.81935e-026 2.52243e-013
f 36/54/35 35/53/35 26/52/35 31/55/35 

vn 7.37723e-028 -1 2.28043e-013
f 36/47/36 35/42/36 72/40/36 71/39/36 

vn 2.51333e-013 -2.30704e-013 -1
f 35/109/37 26/72/37 24/107/37 72/108/37 

usemtl Color_I23
f 24/40/3 26/42/3 20/36/3

usemtl _Color_001_3
vt -20.7263 -9.99586
vn 5.71466e-026 1 -2.27374e-013
vt -20.7263 -10.9959
vt 21.2737 -10.9959
vt 21.2737 -9.99586
f 26/159/38 31/160/38 23/161/38 24/162/38 

vn -1 -6.22317e-026 -2.70006e-013
f 72/155/39 71/154/39 23/153/39 24/156/39 

vn -1 -2.27818e-013 -2.57078e-013
f 66/75/40 21/64/40 17/73/40 64/74/40 

usemtl Color_I23
f 16/32/3 17/33/3 21/37/3

vn 2.27374e-013 -1 5.84753e-026
f 22/38/41 21/37/41 17/33/41 18/34/41 

f 19/35/3 22/38/3 18/34/3

usemtl _Color_001_3
vn 1 2.27818e-013 2.57078e-013
vt -9.49586 14
vt 8.50414 14
f 22/51/42 65/163/42 63/164/42 18/104/42 

vn -2.55584e-013 -2.30926e-013 1
f 54/158/43 25/140/43 28/59/43 52/157/43 

vn 1 -5.5789e-026 2.41585e-013
f 15/100/44 28/103/44 52/102/44 51/101/44 

usemtl Color_I23
f 29/45/3 15/19/3 28/44/3

f 13/17/3 15/19/3 29/45/3

usemtl _Color_001_3
vn -2.27374e-013 -1 -5.84304e-026
f 13/17/45 29/45/45 30/46/45 32/48/45 

vn 1 -2.27818e-013 2.56881e-013
f 42/164/46 29/104/46 30/51/46 40/163/46 

vn 2.55795e-013 -5.81611e-026 -1
f 40/70/47 39/69/47 32/68/47 30/71/47 

vn -7.6565e-028 -1 -2.28043e-013
f 53/32/48 54/41/48 52/44/48 51/19/48 

