# Alias OBJ Model File
# Exported from SketchUp, (c) 2000-2012 Trimble Navigation Limited
# File units = meters

mtllib coffeeTable5.mtl

g Mesh1 Model

usemtl Color_C20
v 0.23156 0.6096 0.271832
vt -10.702 24
vn 1 0 5.55112e-017
v 0.23156 0.6096 -0.337768
vt 13.298 24
v 0.23156 0.62865 -0.337768
vt 13.298 24.75
v 0.23156 0.62865 0.271832
vt -10.702 24.75
f 1/1/1 2/2/1 3/3/1 4/4/1 

vt -9.11655 -10.702
vn 0 -1 -0
v 0.20616 0.6096 0.246432
vt -8.11655 -9.70203
vt -9.11655 13.298
f 1/5/2 5/6/2 2/7/2

v 0.15536 0.6096 0.246432
vt -6.11655 -9.70203
f 1/5/2 6/8/2 5/6/2

v -0.30184 0.6096 0.246432
vt 11.8835 -9.70203
f 1/5/2 7/9/2 6/8/2

v -0.35264 0.6096 0.246432
vt 13.8835 -9.70203
f 1/5/2 8/10/2 7/9/2

v -0.37804 0.6096 0.271832
vt 14.8835 -10.702
f 9/11/2 8/10/2 1/5/2

v -0.37804 0.6096 -0.337768
vt 14.8835 13.298
f 8/10/2 9/11/2 10/12/2

vt -13.298 24
vn -1 0 -5.55112e-017
vt 10.702 24
v -0.37804 0.62865 0.271832
vt 10.702 24.75
v -0.37804 0.62865 -0.337768
vt -13.298 24.75
f 10/13/3 9/14/3 11/15/3 12/16/3 

vt -14.8835 24
vn -5.55112e-017 0 1
vt 9.11655 24
vt 9.11655 24.75
vt -14.8835 24.75
f 9/17/4 1/18/4 4/19/4 11/20/4 

vt 9.11655 -10.702
vn 0 1 -0
vt 9.11655 13.298
vt -14.8835 13.298
vt -14.8835 -10.702
f 4/21/5 3/22/5 12/23/5 11/24/5 

vt -9.11655 24
vn 5.55112e-017 0 -1
vt 14.8835 24
vt 14.8835 24.75
vt -9.11655 24.75
f 2/25/6 10/26/6 12/27/6 3/28/6 

v -0.30184 0.6096 -0.299668
vt 11.8835 11.798
f 13/29/2 10/12/2 2/7/2

v -0.33994 0.6096 -0.261568
vt 13.3835 10.298
f 14/30/2 10/12/2 13/29/2

v -0.35264 0.6096 0.195632
vt 13.8835 -7.70203
f 10/12/2 14/30/2 15/31/2

v -0.33994 0.6096 0.195632
vt 13.3835 -7.70203
f 15/31/2 14/30/2 16/32/2

usemtl Color_D16
vt -10.298 24
vn -1 2.2804e-013 -2.56832e-013
v -0.33994 0.508 -0.261568
vt -10.298 20
v -0.33994 0.508 0.195632
vt 7.70203 20
vt 7.70203 24
f 14/33/7 17/34/7 18/35/7 16/36/7 

vt -13.3835 20
vn -2.57572e-013 5.87366e-026 1
v -0.31454 0.508 -0.261568
vt -12.3835 20
v -0.31454 0.6096 -0.261568
vt -12.3835 24
vt -13.3835 24
f 17/37/8 19/38/8 20/39/8 14/40/8 

vn -2.28043e-013 -1 -7.84997e-030
vt 12.3835 10.298
v -0.31454 0.508 0.195632
vt 12.3835 -7.70203
f 17/30/9 19/41/9 21/42/9 18/32/9 

usemtl Color_C20
v -0.35264 0 -0.261568
vt -13.8835 1.90551e-016
vn -2.54611e-014 1.85037e-017 1
v -0.30184 0 -0.261568
vt -11.8835 1.90551e-016
v -0.30184 0.6096 -0.261568
vt -11.8835 24
v -0.35264 0.6096 -0.261568
vt -13.8835 24
f 22/43/10 23/44/10 24/45/10 20/39/10 19/38/10 17/37/10 14/40/10 25/46/10 

vt 11.8835 10.298
vt 13.8835 10.298
v -0.35264 0 -0.312368
vt 13.8835 12.298
v -0.30184 0 -0.312368
vt 11.8835 12.298
f 23/47/2 22/48/2 26/49/2 27/50/2 

vt -12.298 0
vn -1 0 3.33639e-015
vt -10.298 0
v -0.35264 0.6096 -0.312368
vt -12.298 24
f 26/51/11 22/52/11 25/33/11 28/53/11 

vt -12.3835 10.298
vn 2.06703e-014 1 2.06703e-014
vt -11.8835 10.298
v -0.30184 0.6096 -0.274268
vt -11.8835 10.798
vt -11.8835 11.798
v -0.30184 0.6096 -0.312368
vt -11.8835 12.298
vt -13.8835 12.298
vt -13.8835 10.298
vt -13.3835 10.298
f 20/54/12 24/55/12 29/56/12 13/57/12 30/58/12 28/59/12 25/60/12 14/61/12 

vt 10.298 3.03446e-014
vn 1 2.55351e-015 2.4869e-014
vt 12.298 3.03446e-014
vt 12.298 24
vt 11.798 24
v -0.30184 0.508 -0.299668
vt 11.798 20
v -0.30184 0.508 -0.274268
vt 10.798 20
vt 10.798 24
vt 10.298 24
f 23/62/13 27/63/13 30/64/13 13/65/13 31/66/13 32/67/13 29/68/13 24/69/13 

vt 11.8835 0
vn -3.33639e-015 0 -1
vt 13.8835 0
vt 13.8835 24
vt 11.8835 24
f 27/70/14 26/71/14 28/72/14 30/73/14 

usemtl Color_D16
v 0.15536 0.6096 -0.299668
vt -6.11655 24
vn 2.53427e-013 2.28262e-013 -1
v 0.15536 0.508 -0.299668
vt -6.11655 20
vt 11.8835 20
f 33/74/15 34/75/15 31/76/15 13/73/15 

vt -11.798 20
vn -1 5.77239e-026 -2.53131e-013
v 0.15536 0.508 -0.274268
vt -10.798 20
v 0.15536 0.6096 -0.274268
vt -10.798 24
vt -11.798 24
f 34/77/16 35/78/16 36/79/16 33/80/16 

vt -6.11655 11.798
vn -7.6565e-028 -1 -2.28043e-013
vt -6.11655 10.798
vt 11.8835 10.798
f 34/81/17 35/82/17 32/83/17 31/29/17 

usemtl Color_C20
v 0.15536 0 -0.312368
vt -12.298 1.69768e-016
vn -1 2.77556e-017 -2.81256e-014
v 0.15536 0 -0.261568
vt -10.298 1.69768e-016
v 0.15536 0.6096 -0.261568
v 0.15536 0.6096 -0.312368
f 37/84/18 38/85/18 39/33/18 36/79/18 35/78/18 34/77/18 33/80/18 40/53/18 

vt -6.11655 10.298
vt -6.11655 12.298
v 0.20616 0 -0.312368
vt -8.11655 12.298
v 0.20616 0 -0.261568
vt -8.11655 10.298
f 38/86/2 37/87/2 41/88/2 42/89/2 

vt -8.11655 0
vn 1.77976e-016 0 -1
vt -6.11655 0
v 0.20616 0.6096 -0.312368
vt -8.11655 24
f 41/90/19 37/91/19 40/74/19 43/92/19 

vt 6.11655 10.798
vn -2.06703e-014 1 2.06703e-014
vt 6.11655 10.298
v 0.16806 0.6096 -0.261568
vt 6.61655 10.298
v 0.19346 0.6096 -0.261568
vt 7.61655 10.298
v 0.20616 0.6096 -0.261568
vt 8.11655 10.298
vt 8.11655 12.298
vt 6.11655 12.298
vt 6.11655 11.798
f 36/93/20 39/94/20 44/95/20 45/96/20 46/97/20 43/98/20 40/99/20 33/100/20 

vt 6.11655 2.74393e-014
vn -2.84217e-014 2.66454e-015 1
vt 8.11655 2.74393e-014
vt 8.11655 24
vt 7.61655 24
v 0.19346 0.508 -0.261568
vt 7.61655 20
v 0.16806 0.508 -0.261568
vt 6.61655 20
vt 6.61655 24
vt 6.11655 24
f 38/101/21 42/102/21 46/103/21 45/104/21 47/105/21 48/106/21 44/107/21 39/108/21 

vt 10.298 0
vn 1 0 1.77976e-016
vt 12.298 0
f 42/109/22 41/110/22 43/64/22 46/69/22 

usemtl Color_D16
v 0.19346 0.6096 0.195632
vt -7.70203 24
vn 1 2.2804e-013 2.5693e-013
v 0.19346 0.508 0.195632
vt -7.70203 20
vt 10.298 20
f 49/111/23 50/112/23 47/113/23 45/69/23 

vt -7.61655 20
vn 2.56684e-013 5.85341e-026 -1
v 0.16806 0.508 0.195632
vt -6.61655 20
v 0.16806 0.6096 0.195632
vt -6.61655 24
vt -7.61655 24
f 50/114/24 51/115/24 52/116/24 49/117/24 

vt -7.61655 -7.70203
vn 2.28043e-013 -1 3.57772e-029
vt -6.61655 -7.70203
vt -6.61655 10.298
vt -7.61655 10.298
f 50/118/25 51/119/25 48/120/25 47/121/25 

usemtl Color_C20
v 0.20616 0 0.195632
vt -8.11655 -7.12581e-017
vn 2.85204e-014 -9.25186e-018 -1
v 0.15536 0 0.195632
vt -6.11655 -7.12581e-017
v 0.15536 0.6096 0.195632
v 0.20616 0.6096 0.195632
f 53/122/26 54/123/26 55/74/26 52/116/26 51/115/26 50/114/26 49/117/26 56/92/26 

vt -6.11655 -7.70203
vt -8.11655 -7.70203
v 0.20616 0 0.246432
v 0.15536 0 0.246432
f 54/124/2 53/125/2 57/6/2 58/8/2 

vt -9.70203 0
vn 1 0 -0
vt -7.70203 0
vt -9.70203 24
f 57/126/27 53/127/27 56/111/27 5/128/27 

f 56/125/2 2/7/2 5/6/2

f 45/121/2 2/7/2 56/125/2

f 44/120/2 2/7/2 45/121/2

f 33/81/2 2/7/2 44/120/2

f 13/29/2 2/7/2 33/81/2

vn 5.76114e-026 -1 -2.27374e-013
f 33/81/28 36/82/28 29/83/28 13/29/28 

f 52/119/2 36/82/2 33/81/2

f 55/124/2 36/82/2 52/119/2

f 36/82/2 55/124/2 29/83/2

v 0.15536 0.6096 0.208332
vt -6.11655 -8.20203
f 59/129/2 29/83/2 55/124/2

v -0.30184 0.6096 0.208332
vt 11.8835 -8.20203
f 29/83/2 59/129/2 60/130/2

usemtl Color_D16
v -0.30184 0.508 0.208332
vn 2.53575e-013 -2.2804e-013 -1
v 0.15536 0.508 0.208332
f 61/76/29 60/73/29 59/74/29 62/75/29 

usemtl Color_C20
v -0.30184 0 0.246432
vt -9.70203 -6.81653e-015
vn 1 -5.73615e-016 2.82243e-014
v -0.30184 0 0.195632
vt -7.70203 -6.81653e-015
v -0.30184 0.6096 0.195632
vt -8.20203 24
vt -8.20203 20
v -0.30184 0.508 0.233732
vt -9.20203 20
v -0.30184 0.6096 0.233732
vt -9.20203 24
f 63/131/30 64/132/30 65/111/30 60/133/30 61/134/30 66/135/30 67/136/30 7/128/30 

vt 11.8835 -7.70203
v -0.35264 0 0.246432
v -0.35264 0 0.195632
f 64/137/2 63/9/2 68/10/2 69/31/2 

vt -13.8835 0
vt -11.8835 0
f 68/138/4 63/139/4 7/45/4 8/46/4 

vn -2.06703e-014 -1 2.06703e-014
vt 11.8835 -9.20203
v -0.31454 0.6096 0.195632
f 65/137/31 60/130/31 67/140/31 7/9/31 8/10/31 15/31/31 16/32/31 70/42/31 

f 65/137/2 13/29/2 60/130/2

f 20/41/2 13/29/2 65/137/2

f 14/30/2 13/29/2 20/41/2

usemtl Color_D16
vn -2.27374e-013 -1 -5.83967e-026
f 14/30/32 20/41/32 70/42/32 16/32/32 

usemtl Color_C20
f 65/137/2 70/42/2 20/41/2

vt 11.8835 2.02373e-014
vn 2.84217e-014 2.62753e-015 -1
vt 13.8835 2.02373e-014
vt 13.3835 24
vt 13.3835 20
vt 12.3835 20
vt 12.3835 24
f 64/141/33 69/142/33 15/72/33 16/143/33 18/144/33 21/145/33 70/146/33 65/73/33 

vt 7.70203 0
vt 9.70203 0
vt 9.70203 24
f 69/147/3 68/148/3 8/149/3 15/36/3 

f 8/10/2 10/12/2 15/31/2

usemtl Color_D16
vn 2.55795e-013 -5.82747e-026 -1
f 21/145/34 18/144/34 16/143/34 70/146/34 

vn 1 -2.27818e-013 2.56782e-013
f 19/113/35 20/69/35 70/111/35 21/112/35 

usemtl Color_C20
f 60/130/2 13/29/2 29/83/2

usemtl Color_D16
vn 1 -5.75774e-026 2.52243e-013
f 32/67/36 31/66/36 13/65/36 29/68/36 

vt 6.11655 20
vn -2.53378e-013 -2.2804e-013 1
vt -11.8835 20
f 35/150/37 36/108/37 29/45/37 32/151/37 

vt -11.8835 -8.20203
vn 5.76563e-026 1 -2.27374e-013
vt -11.8835 -9.20203
v 0.15536 0.6096 0.233732
vt 6.11655 -9.20203
vt 6.11655 -8.20203
f 60/152/38 67/153/38 71/154/38 59/155/38 

vn 1 5.79829e-026 2.54019e-013
f 66/135/39 61/134/39 60/133/39 67/136/39 

vn 7.37723e-028 -1 2.28043e-013
v 0.15536 0.508 0.233732
vt -6.11655 -9.20203
f 66/140/40 61/130/40 62/129/40 72/156/40 

usemtl Color_C20
vt 7.70203 1.85613e-014
vn -1 3.03461e-015 -2.8027e-014
vt 9.70203 1.85613e-014
vt 9.20203 24
vt 9.20203 20
vt 8.20203 20
vt 8.20203 24
f 54/157/41 58/158/41 6/149/41 71/159/41 72/160/41 62/161/41 59/162/41 55/36/41 

vt 6.11655 0
vn 0 0 1
vt 8.11655 0
f 58/163/42 57/164/42 5/103/42 6/108/42 

vn 2.06703e-014 -1 2.06703e-014
f 55/124/43 52/119/43 49/118/43 56/125/43 5/6/43 6/8/43 71/156/43 59/129/43 

vn 2.27374e-013 -1 5.84192e-026
f 49/118/44 52/119/44 44/120/44 45/121/44 

f 33/81/2 44/120/2 52/119/2

usemtl Color_D16
vn -1 -2.2804e-013 -2.5693e-013
f 51/35/45 52/36/45 44/33/45 48/34/45 

vn -2.55795e-013 -5.83315e-026 1
f 48/106/46 47/105/46 45/104/46 44/107/46 

usemtl Color_C20
f 56/125/2 49/118/2 45/121/2

f 7/9/2 71/156/2 6/8/2

f 71/156/2 7/9/2 67/140/2

usemtl Color_D16
vn -2.53526e-013 2.28262e-013 1
f 67/45/47 66/151/47 72/150/47 71/108/47 

vn -1 -5.75214e-026 -2.52243e-013
f 62/161/48 72/160/48 71/159/48 59/162/48 

