# Alias OBJ Model File
# Exported from SketchUp, (c) 2000-2012 Trimble Navigation Limited
# File units = meters

mtllib coffeeTable2.mtl

g Mesh1 Model

usemtl _Color_004_1
v -0.37766 0.235712 0.229006
vt 9.016 9.28
vn -1 0 -0
v -0.37766 0.235712 0.162712
vt 6.406 9.28
v -0.37766 0.298323 0.162712
vt 6.406 11.745
v -0.37766 0.298323 0.133248
vt 5.246 11.745
v -0.37766 0.235712 0.133248
vt 5.246 9.28
v -0.37766 0.235712 -0.205588
vt -8.094 9.28
v -0.37766 0.298323 -0.205588
vt -8.094 11.745
v -0.37766 0.298323 -0.235052
vt -9.254 11.745
v -0.37766 0.235712 -0.235052
vt -9.254 9.28
v -0.37766 0.235712 -0.301346
vt -11.864 9.28
v -0.37766 0 -0.301346
vt -11.864 0
v -0.37766 0 -0.271882
vt -10.704 0
v -0.37766 0.206248 -0.271882
vt -10.704 8.12
v -0.37766 0.206248 0.199542
vt 7.856 8.12
v -0.37766 0 0.199542
vt 7.856 0
v -0.37766 0 0.229006
vt 9.016 0
f 1/1/1 2/2/1 3/3/1 4/4/1 5/5/1 6/6/1 7/7/1 8/8/1 9/9/1 10/10/1 11/11/1 12/12/1 13/13/1 14/14/1 15/15/1 16/16/1 

v -0.348196 0.235712 0.229006
vt -13.7085 -9.016
vn 0 1 -0
v -0.348196 0.235712 0.162712
vt -13.7085 -6.406
vt -14.8685 -6.406
vt -14.8685 -9.016
f 17/17/2 18/18/2 2/19/2 1/20/2 

v -0.348196 0.235712 -0.235052
vt 9.254 9.28
vn 1 0 -0
v -0.348196 0.25781 -0.235052
vt 9.254 10.15
v -0.348196 0.25781 -0.205588
vt 8.094 10.15
v -0.348196 0.235712 -0.205588
vt 8.094 9.28
v -0.348196 0.235712 0.133248
vt -5.246 9.28
v -0.348196 0.25781 0.133248
vt -5.246 10.15
v -0.348196 0.25781 0.162712
vt -6.406 10.15
vt -6.406 9.28
vt -9.016 9.28
v -0.348196 0 0.229006
vt -9.016 0
v -0.348196 0 0.199542
vt -7.856 0
v -0.348196 0.206248 0.199542
vt -7.856 8.12
v -0.348196 0.206248 -0.271882
vt 10.704 8.12
v -0.348196 0 -0.271882
vt 10.704 0
v -0.348196 0 -0.301346
vt 11.864 0
v -0.348196 0.235712 -0.301346
vt 11.864 9.28
f 19/21/3 20/22/3 21/23/3 22/24/3 23/25/3 24/26/3 25/27/3 18/28/3 17/29/3 26/30/3 27/31/3 28/32/3 29/33/3 30/34/3 31/35/3 32/36/3 

vt 13.7085 9.28
vn 0 0 -1
vt 14.8685 9.28
vt 14.8685 11.745
v -0.34083 0.298323 -0.235052
vt 13.4185 11.745
v -0.34083 0.29464 -0.235052
vt 13.4185 11.6
v -0.370294 0.29464 -0.235052
vt 14.5785 11.6
v -0.370294 0.265176 -0.235052
vt 14.5785 10.44
v 0.491528 0.265176 -0.235052
vt -19.3515 10.44
v 0.491528 0.25781 -0.235052
vt -19.3515 10.15
vt 13.7085 10.15
f 19/37/4 9/38/4 8/39/4 33/40/4 34/41/4 35/42/4 36/43/4 37/44/4 38/45/4 20/46/4 

vt -14.8685 11.864
vt -14.8685 9.254
vt -13.7085 9.254
vt -13.7085 11.864
f 10/47/2 9/48/2 19/49/2 32/50/2 

vt 13.7085 0
vt 14.8685 0
f 10/38/4 32/37/4 31/51/4 11/52/4 

vt 14.8685 11.864
vn 0 -1 -0
vt 13.7085 11.864
vt 13.7085 10.704
vt 14.8685 10.704
f 11/53/5 31/54/5 30/55/5 12/56/5 

vt -14.8685 8.12
vn 0 0 1
vt -14.8685 0
vt -13.7085 0
vt -13.7085 8.12
f 13/57/6 12/58/6 30/59/6 29/60/6 

vt 13.7085 -7.856
vt 14.8685 -7.856
f 29/55/5 28/61/5 14/62/5 13/56/5 

vt 13.7085 8.12
vt 14.8685 8.12
f 28/63/4 27/51/4 15/52/4 14/64/4 

vt 13.7085 -9.016
vt 14.8685 -9.016
f 15/62/5 27/61/5 26/65/5 16/66/5 

vt -13.7085 9.28
vt -14.8685 9.28
f 16/58/6 26/59/6 17/67/6 1/68/6 

vt -14.8685 8.094
v -0.34083 0.298323 -0.205588
vt -13.4185 8.094
vt -13.4185 9.254
f 7/69/2 39/70/2 33/71/2 8/48/2 

vt -13.7085 10.15
v 0.491528 0.25781 -0.205588
vt 19.3515 10.15
v 0.491528 0.265176 -0.205588
vt 19.3515 10.44
v -0.370294 0.265176 -0.205588
vt -14.5785 10.44
v -0.370294 0.29464 -0.205588
vt -14.5785 11.6
v -0.34083 0.29464 -0.205588
vt -13.4185 11.6
vt -13.4185 11.745
vt -14.8685 11.745
f 6/68/6 22/67/6 21/72/6 40/73/6 41/74/6 42/75/6 43/76/6 44/77/6 39/78/6 7/79/6 

vt -14.8685 -5.246
vt -13.7085 -5.246
vt -13.7085 8.094
f 6/69/2 5/80/2 23/81/2 22/82/2 

vn 1.05495e-016 2.31431e-016 -1
v -0.34083 0.298323 0.133248
v -0.34083 0.29464 0.133248
v -0.370294 0.29464 0.133248
v -0.370294 0.265176 0.133248
v 0.491528 0.265176 0.133248
v 0.513626 0.265176 0.133248
vt -20.2215 10.44
v 0.513626 0.25781 0.133248
vt -20.2215 10.15
v 0.491528 0.25781 0.133248
f 23/37/7 5/38/7 4/39/7 45/40/7 46/41/7 47/42/7 48/43/7 49/44/7 50/83/7 51/84/7 52/45/7 24/46/7 

v -0.34083 0.298323 0.162712
vt -13.4185 -6.406
vt -13.4185 -5.246
f 3/19/2 53/85/2 45/86/2 4/80/2 

vn -4.23214e-016 2.99514e-017 1
v 0.491528 0.25781 0.162712
v 0.491528 0.265176 0.162712
v -0.370294 0.265176 0.162712
v -0.370294 0.29464 0.162712
v -0.34083 0.29464 0.162712
f 25/72/8 54/73/8 55/74/8 56/75/8 57/76/8 58/77/8 53/78/8 3/79/8 2/68/8 18/67/8 

vt 13.7085 -5.246
vt -19.3515 -5.246
vt -19.3515 -6.406
vt 13.7085 -6.406
f 24/87/5 52/88/5 54/89/5 25/90/5 

v 0.491528 0.235712 0.162712
vn -1 1.52991e-016 -8.1489e-016
vt 6.406 10.15
vt 5.246 10.15
v 0.491528 0.235712 0.133248
v 0.491528 0.235712 -0.205588
vt -8.094 10.15
vt -9.254 10.15
v 0.491528 0.235712 -0.235052
v 0.491528 0.235712 -0.301346
v 0.491528 0 -0.301346
vt -11.864 2.9606e-015
v 0.491528 0 -0.271882
vt -10.704 2.9606e-015
v 0.491528 0.206248 -0.271882
v 0.491528 0.206248 0.199542
v 0.491528 0 0.199542
vt 7.856 2.9606e-015
v 0.491528 0 0.229006
vt 9.016 2.9606e-015
v 0.491528 0.235712 0.229006
f 59/2/9 54/91/9 52/92/9 60/5/9 61/6/9 40/93/9 38/94/9 62/9/9 63/10/9 64/95/9 65/96/9 66/13/9 67/14/9 68/97/9 69/98/9 70/1/9 

v 0.513626 0.29464 0.162712
vt 20.2215 11.6
vn 3.39267e-015 -9.31471e-016 1
v 0.513626 0.265176 0.162712
vt 20.2215 10.44
v 0.513626 0.25781 0.162712
vt 20.2215 10.15
vt 19.3515 9.28
v 0.520992 0.235712 0.162712
vt 20.5115 9.28
v 0.520992 0.298323 0.162712
vt 20.5115 11.745
v 0.484162 0.298323 0.162712
vt 19.0615 11.745
v 0.484162 0.29464 0.162712
vt 19.0615 11.6
f 71/99/10 72/100/10 73/101/10 54/73/10 59/102/10 74/103/10 75/104/10 76/105/10 77/106/10 

usemtl Color_C10
v 0.513626 0.265176 0.229006
vt -9.016 10.44
vn 1 -2.04179e-015 -1.79616e-015
vt -6.406 10.44
vt -6.406 11.6
v 0.513626 0.29464 0.229006
vt -9.016 11.6
f 78/107/11 72/108/11 71/109/11 79/110/11 

v -0.370294 0.265176 0.229006
vt 14.5785 -9.016
vt 14.5785 -6.406
vt -20.2215 -6.406
vt -20.2215 -9.016
f 80/111/5 56/112/5 55/89/5 72/113/5 78/114/5 

v -0.370294 0.29464 0.229006
vt 9.016 11.6
vt 6.406 11.6
vt 6.406 10.44
vt 9.016 10.44
f 81/115/1 57/116/1 56/117/1 80/118/1 

vt -14.5785 -9.016
vt 20.2215 -9.016
vt 20.2215 -6.406
vt 19.0615 -6.406
v 0.484162 0.29464 0.133248
vt 19.0615 -5.246
v 0.513626 0.29464 0.133248
vt 20.2215 -5.246
v 0.513626 0.29464 -0.205588
vt 20.2215 8.094
v 0.484162 0.29464 -0.205588
vt 19.0615 8.094
v 0.484162 0.29464 -0.235052
vt 19.0615 9.254
v 0.493339 0.29464 -0.235052
vt 19.4228 9.254
v 0.513626 0.29464 -0.235052
vt 20.2215 9.254
v 0.513626 0.29464 -0.301346
vt 20.2215 11.864
v -0.370294 0.29464 -0.301346
vt -14.5785 11.864
vt -14.5785 9.254
vt -14.5785 8.094
vt -14.5785 -5.246
vt -14.5785 -6.406
f 81/119/2 79/120/2 71/121/2 77/122/2 82/123/2 83/124/2 84/125/2 85/126/2 86/127/2 87/128/2 88/129/2 89/130/2 90/131/2 35/132/2 34/71/2 44/70/2 43/133/2 47/134/2 46/86/2 58/85/2 57/135/2 

f 80/75/6 78/100/6 79/99/6 81/76/6 

usemtl _Color_004_1
f 71/121/2 83/124/2 82/123/2 77/122/2 

vn 1 -3.06268e-015 -3.06268e-015
vt -5.246 10.44
vt -5.246 11.6
f 71/109/12 72/108/12 50/136/12 83/137/12 

f 72/108/3 73/27/3 51/26/3 50/136/3 

vn 1.63343e-014 2.69541e-030 1
f 55/74/13 54/73/13 73/101/13 72/100/13 

vt -20.2215 -5.246
f 73/113/5 54/89/5 52/88/5 51/138/5 

v 0.513626 0.235712 0.133248
vt -20.2215 9.28
vt -19.3515 9.28
f 91/139/4 60/140/4 52/45/4 51/84/4 

v 0.520992 0.235712 0.133248
vt 20.5115 -5.246
v 0.520992 0.235712 -0.205588
vt 20.5115 8.094
vt 19.3515 8.094
vt 19.3515 -5.246
f 92/141/2 93/142/2 61/143/2 60/144/2 91/124/2 

v 0.520992 0.235712 -0.301346
vn 1 -2.07336e-016 6.11167e-016
v 0.520992 0.235712 -0.235052
v 0.520992 0.298323 -0.235052
vt 9.254 11.745
v 0.520992 0.298323 -0.205588
vt 8.094 11.745
v 0.520992 0.298323 0.133248
vt -5.246 11.745
vt -6.406 11.745
v 0.520992 0.235712 0.229006
v 0.520992 0 0.229006
vt -9.016 4.25278e-015
v 0.520992 0 0.199542
vt -7.856 4.25278e-015
v 0.520992 0.206248 0.199542
v 0.520992 0.206248 -0.271882
v 0.520992 0 -0.271882
vt 10.704 4.25278e-015
v 0.520992 0 -0.301346
vt 11.864 4.25278e-015
f 94/36/14 95/21/14 96/145/14 97/146/14 93/24/14 92/25/14 98/147/14 75/148/14 74/28/14 99/29/14 100/149/14 101/150/14 102/32/14 103/33/14 104/151/14 105/152/14 

vt 19.3515 11.864
vt 19.3515 9.254
vt 20.5115 9.254
vt 20.5115 11.864
f 63/153/2 62/154/2 95/155/2 94/156/2 

vt -20.5115 11.745
vt -20.5115 9.28
v 0.513626 0.265176 -0.235052
vt -20.2215 11.6
vt -19.4228 11.6
vt -19.0615 11.6
v 0.484162 0.298323 -0.235052
vt -19.0615 11.745
f 96/157/4 95/158/4 62/140/4 38/45/4 37/44/4 106/83/4 88/159/4 87/160/4 86/161/4 107/162/4 

vt 8.094 10.44
vt 9.254 10.44
f 41/163/3 40/23/3 38/22/3 37/164/3 

v 0.513626 0.265176 -0.205588
vn 9.64369e-016 3.96512e-016 1
v 0.484162 0.298323 -0.205588
f 108/100/15 41/74/15 40/73/15 61/102/15 93/103/15 97/104/15 109/105/15 85/106/15 84/99/15 

usemtl Color_C10
vt 14.5785 8.094
vt -19.3515 8.094
vt -20.2215 8.094
vt 14.5785 -5.246
f 42/165/5 41/166/5 108/167/5 50/138/5 49/88/5 48/168/5 

usemtl _Color_004_1
vt 14.5785 9.254
vt -19.3515 9.254
f 36/169/5 37/170/5 41/166/5 42/165/5 

usemtl Color_C10
v 0.513626 0.265176 -0.301346
vt -20.2215 11.864
vt -20.2215 9.254
v -0.370294 0.265176 -0.301346
vt 14.5785 11.864
f 110/171/5 106/172/5 37/170/5 36/169/5 111/173/5 

vt 11.864 11.6
vn 1 1.22507e-014 -2.72239e-015
vt 9.254 11.6
vt 11.864 10.44
f 89/174/16 88/175/16 106/164/16 110/176/16 

usemtl _Color_004_1
vt 8.094 11.6
vn 1 1.22507e-014 -3.06268e-015
f 84/177/17 108/163/17 106/164/17 88/175/17 

usemtl Color_C10
vn 1 8.16716e-015 1.12669e-015
f 50/136/18 108/163/18 84/177/18 83/137/18 

usemtl _Color_004_1
v 0.484162 0.298323 0.133248
f 112/162/4 98/157/4 92/158/4 91/139/4 51/84/4 50/83/4 83/159/4 82/161/4 

vt 20.5115 -6.406
f 98/141/2 112/123/2 76/122/2 75/178/2 

vn -1 0 3.06268e-015
vt 5.246 11.6
f 112/4/19 82/179/19 77/116/19 76/3/19 

f 37/170/5 106/172/5 108/167/5 41/166/5 

f 84/125/2 88/129/2 87/128/2 86/127/2 85/126/2 

vt -9.254 11.6
vt -8.094 11.6
f 107/8/1 86/180/1 85/181/1 109/7/1 

f 96/155/2 107/127/2 109/126/2 97/142/2 

usemtl Color_C10
f 110/83/4 111/43/4 90/42/4 89/159/4 

vt -11.864 10.44
vt -9.254 10.44
vt -11.864 11.6
f 111/182/1 36/183/1 35/180/1 90/184/1 

usemtl _Color_004_1
f 36/164/3 35/175/3 43/177/3 42/163/3 

f 35/132/2 43/133/2 44/70/2 34/71/2 

f 39/146/3 44/177/3 34/175/3 33/145/3 

usemtl Color_C10
vt -8.094 10.44
vt 5.246 10.44
f 42/185/1 48/186/1 47/179/1 43/181/1 

usemtl _Color_004_1
f 48/136/3 47/137/3 57/109/3 56/108/3 

f 47/134/2 57/135/2 58/85/2 46/86/2 

f 53/148/3 58/109/3 46/137/3 45/147/3 

vt 19.3515 -6.406
f 56/135/2 55/187/2 49/144/2 48/134/2 

f 50/124/2 49/144/2 55/187/2 72/121/2 

vt 13.7085 8.094
vt 13.7085 9.254
f 21/188/5 20/189/5 38/170/5 40/166/5 

vt -20.5115 0
vn 7.21645e-016 0 -1
vt -19.3515 0
f 105/190/20 64/191/20 63/140/20 94/158/20 

vt -20.5115 10.704
vt -19.3515 10.704
vt -19.3515 11.864
vt -20.5115 11.864
f 104/192/5 65/193/5 64/194/5 105/195/5 

vt 19.3515 8.12
vn -7.21645e-016 0 1
vt 19.3515 0
vt 20.5115 0
vt 20.5115 8.12
f 66/196/21 65/197/21 104/198/21 103/199/21 

vt -19.3515 -7.856
vt -20.5115 -7.856
f 67/200/5 66/193/5 103/192/5 102/201/5 

vt -20.5115 8.12
vt -19.3515 8.12
f 102/202/20 101/190/20 68/191/20 67/203/20 

vt -20.5115 -9.016
vt -19.3515 -9.016
f 100/204/5 69/205/5 68/200/5 101/201/5 

f 99/103/21 70/102/21 69/197/21 100/198/21 

vt 20.5115 -9.016
vt 19.3515 -9.016
f 99/206/2 74/178/2 59/187/2 70/207/2 

