# Alias OBJ Model File
# Exported from SketchUp, (c) 2000-2012 Trimble Navigation Limited
# File units = meters

mtllib shelf10.mtl

g Mesh1 Model

usemtl Color_A19
v 0.151435 0.1 0.265254
vt -5.96201 3.93701
vn 9.71445e-017 0 -1
v 0.151435 0 0.265254
vt -5.96201 0
v 0.131435 0 0.265254
vt -5.17461 0
v 0.131435 0.1 0.265254
vt -5.17461 3.93701
f 1/1/1 2/2/1 3/3/1 4/4/1 

v 0.151435 1.04 0.265254
vt -10.4431 40.9449
vn 1 -5.5351e-019 9.60908e-017
v 0.151435 1.06 0.265254
vt -10.4431 41.7323
v 0.151435 1.06 0.285254
vt -11.2305 41.7323
v 0.151435 0 0.285254
vt -11.2305 3.30003e-018
vt -10.4431 3.30003e-018
vt -10.4431 3.93701
v 0.151435 0.12 0.265254
vt -10.4431 4.72441
v 0.151435 0.423333 0.265254
vt -10.4431 16.6667
v 0.151435 0.443333 0.265254
vt -10.4431 17.4541
v 0.151435 0.726667 0.265254
vt -10.4431 28.6089
v 0.151435 0.746667 0.265254
vt -10.4431 29.3963
f 5/5/2 6/6/2 7/7/2 8/8/2 2/9/2 1/10/2 9/11/2 10/12/2 11/13/2 12/14/2 13/15/2 

v -0.108565 1.06 0.265254
vt -4.27421 41.7323
vn -6.46064e-017 -4.22995e-016 1
v -0.108565 1.04 0.265254
vt -4.27421 40.9449
vt 5.96201 40.9449
vt 5.96201 41.7323
f 14/16/3 15/17/3 5/18/3 6/19/3 

v -0.108565 1.06 -0.494746
vt -19.4782 41.7323
vn -1 1.60718e-031 2.59062e-016
v -0.108565 1.04 -0.494746
vt -19.4782 40.9449
vt 10.4431 40.9449
vt 10.4431 41.7323
f 16/20/4 17/21/4 15/22/4 14/23/4 

vt 4.27421 40.9449
vt 4.27421 41.7323
v 0.151435 1.06 -0.494746
vt -5.96201 41.7323
v 0.151435 1.04 -0.494746
vt -5.96201 40.9449
f 17/24/1 16/25/1 18/26/1 19/27/1 

vt -4.27421 19.4782
vn 0 1 -0
vt 5.96201 19.4782
v 0.151435 1.06 -0.514746
vt 5.96201 20.2656
v -0.128565 1.06 -0.514746
vt -5.06161 20.2656
v -0.128565 1.06 -0.494746
vt -5.06161 19.4782
f 16/28/5 18/29/5 20/30/5 21/31/5 22/32/5 

vt -4.27421 -10.4431
vt 5.96201 -10.4431
f 18/29/5 16/28/5 14/33/5 6/34/5 

v -0.128565 1.06 0.265254
vt -5.06161 -10.4431
f 23/35/5 14/33/5 16/28/5 22/32/5 

v -0.128565 1.06 0.285254
vt -5.06161 -11.2305
vt 5.96201 -11.2305
f 6/34/5 14/33/5 23/35/5 24/36/5 7/37/5 

vn -1 1.87998e-016 -9.71445e-017
v -0.128565 0.1 0.265254
vt 10.4431 3.93701
v -0.128565 0.1 0.285254
vt 11.2305 3.93701
vt 11.2305 41.7323
f 23/23/6 25/38/6 26/39/6 24/40/6 

vn -1 9.39989e-017 2.59062e-016
v -0.128565 0.1 -0.494746
vt -19.4782 3.93701
f 22/20/7 27/41/7 25/38/7 23/23/7 

vn -1 9.39989e-017 -1.3633e-014
vt -20.2656 41.7323
v -0.128565 0.1 -0.514746
vt -20.2656 3.93701
f 27/41/8 22/20/8 21/42/8 28/43/8 

v 0.151435 1.3848e-017 -0.514746
vt -5.96201 5.45199e-016
vn 9.71445e-017 -4.40148e-032 -1
v -0.0983887 1.3848e-017 -0.514746
vt 3.87357 5.45199e-016
v -0.0983887 0.08 -0.514746
vt 3.87357 3.14961
v -0.0990702 0.0851764 -0.514746
vt 3.9004 3.3534
v -0.101068 0.09 -0.514746
vt 3.97906 3.54331
v -0.104247 0.0941421 -0.514746
vt 4.10419 3.70638
v -0.108389 0.0973205 -0.514746
vt 4.26727 3.83152
v -0.113212 0.0993185 -0.514746
vt 4.45718 3.91018
v -0.118389 0.1 -0.514746
vt 4.66097 3.93701
vt 5.06161 3.93701
vt 5.06161 41.7323
f 29/44/9 30/45/9 31/46/9 32/47/9 33/48/9 34/49/9 35/50/9 36/51/9 37/52/9 28/53/9 21/54/9 20/26/9 

v 0.151435 1.3848e-017 -0.494746
vt -5.96201 19.4782
vn 0 -1 -0
v 0.131435 1.3848e-017 -0.494746
vt -5.17461 19.4782
v 0.111435 1.3848e-017 -0.494746
vt -4.3872 19.4782
v -0.0983887 1.3848e-017 -0.494746
vt 3.87357 19.4782
vt 3.87357 20.2656
vt -5.96201 20.2656
f 38/55/10 39/56/10 40/57/10 41/58/10 30/59/10 29/60/10 

vt 5.96201 5.45199e-016
vn -9.71445e-017 0 1
v 0.151435 0.1 -0.494746
vt 5.96201 3.93701
v 0.131435 0.1 -0.494746
vt 5.17461 3.93701
vt 5.17461 5.45199e-016
f 38/61/11 42/62/11 43/63/11 39/64/11 

vt 19.4782 41.7323
vn 1 5.02368e-017 8.15047e-015
vt 19.4782 40.9449
v 0.151435 0.746667 -0.494746
vt 19.4782 29.3963
v 0.151435 0.726667 -0.494746
vt 19.4782 28.6089
v 0.151435 0.443333 -0.494746
vt 19.4782 17.4541
v 0.151435 0.423333 -0.494746
vt 19.4782 16.6667
v 0.151435 0.12 -0.494746
vt 19.4782 4.72441
vt 19.4782 3.93701
vt 19.4782 2.45686e-016
vt 20.2656 2.45686e-016
vt 20.2656 41.7323
f 18/65/12 19/66/12 44/67/12 45/68/12 46/69/12 47/70/12 48/71/12 42/72/12 38/73/12 29/74/12 20/75/12 

vn 1 -1.07146e-031 -1.40326e-016
f 19/66/13 18/65/13 6/6/13 5/5/13 

vt 4.27421 19.4782
vn 3.27058e-032 -1 -2.37471e-016
vt -5.96201 -10.4431
vt 4.27421 -10.4431
f 17/76/14 19/55/14 5/77/14 15/78/14 

vt 5.96201 29.3963
v -0.108565 0.746667 -0.494746
vt -4.27421 29.3963
f 44/79/11 19/18/11 17/17/11 49/80/11 

usemtl Color_007
vn 1 -2.95868e-032 -2.59062e-016
v -0.108565 0.746667 0.265254
f 49/67/15 17/66/15 15/5/15 50/15/15 

usemtl Color_A19
vn 9.71445e-017 -5.76811e-017 -1
vt -5.96201 29.3963
vt 4.27421 29.3963
f 5/27/16 13/81/16 50/82/16 15/24/16 

vt 5.96201 28.6089
v -0.108565 0.726667 0.265254
vt -4.27421 28.6089
f 12/83/11 13/79/11 50/80/11 51/84/11 

vn 1 1.07146e-031 -1.40326e-016
f 45/68/17 44/67/17 13/15/17 12/14/17 

vt -5.96201 28.6089
v -0.108565 0.726667 -0.494746
vt 4.27421 28.6089
f 44/81/1 45/85/1 52/86/1 49/82/1 

vt 5.96201 17.4541
vn -9.71445e-017 1.27396e-015 1
v -0.108565 0.443333 -0.494746
vt -4.27421 17.4541
f 46/87/18 45/83/18 52/84/18 53/88/18 

vn -4.71566e-032 -1 3.56206e-016
f 52/76/19 45/55/19 12/77/19 51/78/19 

vn 9.71445e-017 6.36981e-016 -1
vt -5.96201 17.4541
v -0.108565 0.443333 0.265254
vt 4.27421 17.4541
f 12/85/20 11/89/20 54/90/20 51/86/20 

vt 5.96201 16.6667
v -0.108565 0.423333 0.265254
vt -4.27421 16.6667
f 10/91/11 11/87/11 54/88/11 55/92/11 

vn 1 -4.66083e-031 -1.40326e-016
f 47/70/21 46/69/21 11/13/21 10/12/21 

vt -5.96201 16.6667
v -0.108565 0.423333 -0.494746
vt 4.27421 16.6667
f 46/89/1 47/93/1 56/94/1 53/90/1 

vt 5.96201 4.72441
vn -9.71445e-017 -1.18996e-015 1
v -0.108565 0.12 -0.494746
vt -4.27421 4.72441
f 48/95/22 47/91/22 56/92/22 57/96/22 

vn -3.14378e-032 -1 2.37471e-016
f 56/76/23 47/55/23 10/77/23 55/78/23 

vn 9.71445e-017 -5.94982e-016 -1
vt -5.96201 4.72441
v -0.108565 0.12 0.265254
vt 4.27421 4.72441
f 10/93/24 9/97/24 58/98/24 55/94/24 

vn 2.60305e-016 1 2.96839e-017
f 48/29/25 57/28/25 58/33/25 9/34/25 

usemtl Color_007
vn 1 -5.94982e-016 -2.15909e-017
f 57/71/26 56/70/26 55/12/26 58/11/26 

usemtl Color_A19
vt 10.4431 16.6667
vn -1 -2.33042e-031 -2.1588e-016
vt 10.4431 17.4541
vt -19.4782 17.4541
vt -19.4782 16.6667
f 55/99/27 54/100/27 53/101/27 56/102/27 

vn 3.14378e-032 1 -2.37471e-016
f 46/29/28 53/28/28 54/33/28 11/34/28 

usemtl Color_007
vn 1 3.66238e-032 2.1588e-016
f 53/69/29 52/68/29 51/14/29 54/13/29 

usemtl Color_A19
vt -19.4782 29.3963
vn -1 -9.02389e-015 2.15909e-017
vt -19.4782 28.6089
vt 10.4431 28.6089
vt 10.4431 29.3963
f 49/103/30 52/104/30 51/105/30 50/106/30 

vn -1.63529e-032 1 1.18735e-016
f 44/29/31 49/28/31 50/33/31 13/34/31 

vn 1 1.50004e-031 -1.40326e-016
f 42/72/32 48/71/32 9/11/32 1/10/32 

vn 8.13841e-033 -1 -1.48419e-017
vt -5.17461 -10.4431
f 43/56/33 42/55/33 1/77/33 4/107/33 

vt 19.4782 5.45199e-016
vn 1 0 9.71445e-017
vt -10.4431 0
f 39/108/34 43/72/34 4/10/34 3/109/34 

vn 1.28309e-032 -1 -1.82211e-017
v 0.111435 0 0.265254
vt -4.3872 -10.4431
f 40/57/35 39/56/35 3/107/35 59/110/35 

vt -5.96201 -11.2305
v -0.0983887 0 0.285254
vt 3.87357 -11.2305
v -0.0983887 0 0.265254
vt 3.87357 -10.4431
f 3/107/10 2/77/10 8/111/10 60/112/10 61/113/10 59/110/10 

vt -3.87357 -1.87866e-016
vn -9.35505e-017 1.67283e-017 1
vt 5.96201 -1.87866e-016
vt -5.06161 41.7323
vt -5.06161 3.93701
v -0.118389 0.1 0.285254
vt -4.66097 3.93701
v -0.113212 0.0993185 0.285254
vt -4.45718 3.91018
v -0.108389 0.0973205 0.285254
vt -4.26727 3.83152
v -0.104247 0.0941421 0.285254
vt -4.10419 3.70638
v -0.101068 0.09 0.285254
vt -3.97906 3.54331
v -0.0990702 0.0851764 0.285254
vt -3.9004 3.3534
v -0.0983887 0.08 0.285254
vt -3.87357 3.14961
f 60/114/36 8/115/36 7/19/36 24/116/36 26/117/36 62/118/36 63/119/36 64/120/36 65/121/36 66/122/36 67/123/36 68/124/36 

vt 5.06161 -11.2305
vn 1.77351e-014 -1 1.72287e-030
vt 5.06161 -10.4431
v -0.118389 0.1 0.265254
vt 4.66097 -10.4431
vt 4.66097 -11.2305
f 26/125/37 25/126/37 69/127/37 62/128/37 

vt 5.06161 19.4782
vn -3.58673e-016 -1 -1.48419e-017
v -0.118389 0.1 -0.494746
vt 4.66097 19.4782
v 0.111435 0.1 -0.494746
v 0.111435 0.1 0.265254
f 27/129/38 70/130/38 71/57/38 72/110/38 69/127/38 25/126/38 

vn 1.77351e-014 -1 8.15144e-029
vt 5.06161 20.2656
vt 4.66097 20.2656
f 27/129/39 28/131/39 37/132/39 70/130/39 

v -0.113212 0.0993185 -0.494746
vt -19.4782 4.92943
vn -0.258819 -0.965926 -2.51429e-017
vt -19.4782 5.13498
vn -0.130526 -0.991445 -1.26799e-017
vt -20.2656 5.13498
vt -20.2656 4.92943
f 73/133/40 70/134/41 37/135/41 36/136/40 

vt -3.87357 5.45199e-016
vt 4.3872 5.45199e-016
vt 4.3872 3.93701
v -0.108389 0.0973205 -0.494746
v -0.104247 0.0941421 -0.494746
v -0.101068 0.09 -0.494746
v -0.0990702 0.0851764 -0.494746
v -0.0983887 0.08 -0.494746
f 41/137/11 40/138/11 71/139/11 70/118/11 73/119/11 74/120/11 75/121/11 76/122/11 77/123/11 78/124/11 

vn -1 -9.47167e-032 1.40326e-016
vt -19.4782 5.45199e-016
vt 10.4431 -4.15542e-031
f 71/41/42 40/140/42 59/141/42 72/38/42 

vt -4.3872 0
vt 3.87357 0
v -0.0983887 0.08 0.265254
v -0.0990702 0.0851764 0.265254
v -0.101068 0.09 0.265254
v -0.104247 0.0941421 0.265254
v -0.108389 0.0973205 0.265254
v -0.113212 0.0993185 0.265254
vt -4.3872 3.93701
f 59/142/1 61/143/1 79/46/1 80/47/1 81/48/1 82/49/1 83/50/1 84/51/1 69/52/1 72/144/1 

vt 10.4431 3.14961
vn -1 1.12799e-015 -9.71445e-017
vt 10.4431 -4.36934e-015
vt 11.2305 -4.36934e-015
vt 11.2305 3.14961
f 79/145/43 61/146/43 60/147/43 68/148/43 

vt 10.4431 3.83382
vn -0.965926 -0.258819 -9.38344e-017
vt 10.4431 3.62826
vn -0.991445 -0.130526 -9.63134e-017
vt 11.2305 3.62826
vt 11.2305 3.83382
f 80/149/44 79/150/45 68/151/45 67/152/44 

vt 10.4431 4.79631
vn -0.866025 -0.5 -8.41296e-017
vt 10.4431 4.59076
vt 11.2305 4.59076
vt 11.2305 4.79631
f 81/153/46 80/154/44 67/155/44 66/156/46 

vt 10.4431 5.43895
vn -0.707107 -0.707107 -6.86915e-017
vt 10.4431 5.23339
vt 11.2305 5.23339
vt 11.2305 5.43895
f 82/157/47 81/158/46 66/159/46 65/160/47 

vt 10.4431 5.71793
vn -0.5 -0.866025 -4.85723e-017
vt 10.4431 5.51238
vt 11.2305 5.51238
vt 11.2305 5.71793
f 83/161/48 82/162/47 65/163/47 64/164/48 

vt 10.4431 5.61425
vt 10.4431 5.4087
vt 11.2305 5.4087
vt 11.2305 5.61425
f 84/165/40 83/166/48 64/167/48 63/168/40 

vt 10.4431 5.13498
vt 10.4431 4.92943
vt 11.2305 4.92943
vt 11.2305 5.13498
f 69/169/41 84/170/40 63/171/40 62/172/41 

vt -19.4782 5.4087
vt -19.4782 5.61425
vt -20.2656 5.61425
vt -20.2656 5.4087
f 74/173/48 73/174/40 36/175/40 35/176/48 

vt -19.4782 5.51238
vt -19.4782 5.71793
vt -20.2656 5.71793
vt -20.2656 5.51238
f 75/177/47 74/178/48 35/179/48 34/180/47 

vt -19.4782 5.23339
vt -19.4782 5.43895
vt -20.2656 5.43895
vt -20.2656 5.23339
f 76/181/46 75/182/47 34/183/47 33/184/46 

vt -19.4782 4.59076
vt -19.4782 4.79631
vt -20.2656 4.79631
vt -20.2656 4.59076
f 77/185/44 76/186/46 33/187/46 32/188/44 

vt -19.4782 3.62826
vt -19.4782 3.83382
vt -20.2656 3.83382
vt -20.2656 3.62826
f 78/189/45 77/190/44 32/191/44 31/192/45 

vt -19.4782 -3.82414e-015
vt -19.4782 3.14961
vt -20.2656 3.14961
vt -20.2656 -3.82414e-015
f 41/193/43 78/194/43 31/195/43 30/196/43 

