# Alias OBJ Model File
# Exported from SketchUp, (c) 2000-2012 Trimble Navigation Limited
# File units = meters

mtllib shelf12.mtl

g Mesh1 Model

usemtl Color_A12
v -0.265165 0.41 -0.000287355
vt -10.4396 0.0113132
vn 0 1 -0
v -0.265165 0.41 0.329713
vt -10.4396 -12.9808
v 0.124835 0.41 0.329713
vt 4.91475 -12.9808
v 0.124835 0.41 -0.000287355
vt 4.91475 0.0113132
f 1/1/1 2/2/1 3/3/1 4/4/1 

v -0.265165 0.39 -0.350287
vt -13.7908 15.3543
vn -1 2.16267e-044 -9.71445e-017
v -0.265165 0.39 -0.0202874
vt -0.798715 15.3543
v -0.265165 0.39 -0.000287355
vt -0.0113132 15.3543
v -0.265165 0.39 0.329713
vt 12.9808 15.3543
vt 12.9808 16.1417
vt -0.0113132 16.1417
v -0.265165 0.41 -0.0202874
vt -0.798715 16.1417
v -0.265165 0.41 -0.350287
vt -13.7908 16.1417
f 5/5/2 6/6/2 7/7/2 8/8/2 2/9/2 1/10/2 9/11/2 10/12/2 

vt 10.4396 0.798715
vn 0 -1 -0
vt 10.4396 13.7908
v 0.124835 0.39 -0.350287
vt -4.91475 13.7908
v 0.124835 0.39 -0.0202874
vt -4.91475 0.798715
f 6/13/3 5/14/3 11/15/3 12/16/3 

vt -10.4396 15.3543
vn -9.71445e-017 0 1
v -0.265165 0.06 -0.350287
vt -10.4396 2.3622
v 0.124835 0.06 -0.350287
vt 4.91475 2.3622
vt 4.91475 15.3543
f 5/17/4 13/18/4 14/19/4 11/20/4 

v -0.265165 1.44 -0.410287
vt -16.153 56.6929
vn -1 -4.84946e-016 -1.5955e-015
v -0.265165 0.06 -0.410287
vt -16.153 2.3622
vt -13.7908 2.3622
v -0.265165 0.45 -0.350287
vt -13.7908 17.7165
v -0.265165 0.74 -0.350287
vt -13.7908 29.1339
v -0.265165 0.76 -0.350287
vt -13.7908 29.9213
v -0.265165 1.09 -0.350287
vt -13.7908 42.9134
v -0.265165 1.11 -0.350287
vt -13.7908 43.7008
v -0.265165 1.15 -0.350287
vt -13.7908 45.2756
v -0.265165 1.44 -0.350287
vt -13.7908 56.6929
f 15/21/5 16/22/5 13/23/5 5/5/5 10/12/5 17/24/5 18/25/5 19/26/5 20/27/5 21/28/5 22/29/5 23/30/5 

vt 10.4396 2.3622
vn 2.51399e-016 -1.30772e-016 -1
vt 10.4396 56.6929
v 0.124835 1.44 -0.410287
vt -4.91475 56.6929
v 0.124835 0.06 -0.410287
vt -4.91475 2.3622
f 16/31/6 15/32/6 24/33/6 25/34/6 

vn 9.71445e-017 0 -1
v -0.265165 1.5 -0.410287
vt 10.4396 59.0551
v 0.124835 1.5 -0.410287
vt -4.91475 59.0551
f 15/32/7 26/35/7 27/36/7 24/33/7 

vn -1 0 -9.71445e-017
v -0.265165 1.44 -0.0202874
vt -0.798715 56.6929
v -0.265165 1.44 -0.000287355
vt -0.0113132 56.6929
v -0.265165 1.44 0.329713
vt 12.9808 56.6929
v -0.265165 1.44 0.389713
vt 15.343 56.6929
v -0.265165 1.5 0.389713
vt 15.343 59.0551
vt -16.153 59.0551
f 15/21/8 23/30/8 28/37/8 29/38/8 30/39/8 31/40/8 32/41/8 26/42/8 

v 0.124835 1.44 -0.350287
v 0.124835 1.44 -0.0202874
f 28/13/3 23/14/3 33/15/3 34/16/3 

vt -10.4396 45.2756
vn -1.27251e-015 4.14325e-015 1
vt -10.4396 43.7008
v 0.124835 1.11 -0.350287
vt 4.91475 43.7008
vt 4.91475 56.6929
vt -10.4396 56.6929
f 22/43/9 21/44/9 35/45/9 33/46/9 23/47/9 

vt -10.4396 13.7908
v -0.265165 1.11 -0.0202874
vt -10.4396 0.798715
v 0.124835 1.11 -0.0202874
vt 4.91475 0.798715
vt 4.91475 13.7908
f 21/48/1 36/49/1 37/50/1 35/51/1 

v -0.265165 1.09 -0.0202874
vt -0.798715 42.9134
v -0.265165 1.09 -0.000287355
vt -0.0113132 42.9134
v -0.265165 1.09 0.329713
vt 12.9808 42.9134
v -0.265165 1.11 0.329713
vt 12.9808 43.7008
v -0.265165 1.11 -0.000287355
vt -0.0113132 43.7008
vt -0.798715 43.7008
f 20/27/8 38/52/8 39/53/8 40/54/8 41/55/8 42/56/8 36/57/8 21/28/8 

vn -1.06257e-031 -1 1.09381e-015
v 0.124835 1.09 -0.350287
v 0.124835 1.09 -0.0202874
f 38/13/10 20/14/10 43/15/10 44/16/10 

vt -10.4396 42.9134
vn 1.17546e-015 -3.69159e-015 1
vt -10.4396 29.9213
v 0.124835 0.76 -0.350287
vt 4.91475 29.9213
vt 4.91475 42.9134
f 20/58/11 19/59/11 45/60/11 43/61/11 

vn 1.00012e-029 1 8.47699e-015
v -0.265165 0.76 -0.0202874
v 0.124835 0.76 -0.0202874
f 19/48/12 46/49/12 47/50/12 45/51/12 

vn -1 7.89591e-015 3.66919e-016
v -0.265165 0.74 -0.0202874
vt -0.798715 29.1339
v -0.265165 0.74 -0.000287355
vt -0.0113132 29.1339
v -0.265165 0.74 0.329713
vt 12.9808 29.1339
v -0.265165 0.76 0.329713
vt 12.9808 29.9213
v -0.265165 0.76 -0.000287355
vt -0.0113132 29.9213
vt -0.798715 29.9213
f 18/25/13 48/62/13 49/63/13 50/64/13 51/65/13 52/66/13 46/67/13 19/26/13 

vn 8.09837e-016 -1 -9.5708e-016
v 0.124835 0.74 -0.350287
v 0.124835 0.74 -0.0202874
f 48/13/14 18/14/14 53/15/14 54/16/14 

vt -10.4396 17.7165
vn 9.52009e-016 -1.15714e-015 1
vt -10.4396 16.1417
v 0.124835 0.41 -0.350287
vt 4.91475 16.1417
vt 4.91475 29.1339
vt -10.4396 29.1339
f 17/68/15 10/69/15 55/70/15 53/71/15 18/72/15 

v 0.124835 0.41 -0.0202874
f 10/48/1 9/49/1 56/50/1 55/51/1 

vt 10.4396 16.1417
vt 10.4396 29.1339
vt -4.91475 29.1339
vt -4.91475 16.1417
f 9/73/7 48/74/7 54/75/7 56/76/7 

f 48/62/8 9/11/8 1/10/8 49/63/8 

v 0.124835 0.74 -0.000287355
f 49/72/4 1/69/4 4/70/4 57/71/4 

vt 0.0113132 29.1339
vn 1 0 9.71445e-017
vt 0.0113132 16.1417
vt 0.798715 16.1417
vt 0.798715 29.1339
f 57/77/16 4/78/16 56/79/16 54/80/16 

v 0.124835 0.39 0.329713
vt -12.9808 15.3543
v 0.124835 0.39 -0.000287355
vt 0.0113132 15.3543
vt 0.798715 15.3543
vt 13.7908 15.3543
vt 13.7908 16.1417
vt -12.9808 16.1417
f 58/81/16 59/82/16 12/83/16 11/84/16 55/85/16 56/79/16 4/78/16 3/86/16 

vt 10.4396 0.0113132
vt -4.91475 0.0113132
vt -4.91475 -12.9808
vt 10.4396 -12.9808
f 7/87/3 59/88/3 58/89/3 8/90/3 

vn -9.71445e-017 -2.73451e-016 1
v -0.265165 0.06 -0.000287355
v 0.124835 0.06 -0.000287355
f 7/17/17 60/18/17 61/19/17 59/20/17 

vt -0.0113132 2.3622
v -0.265165 0.06 -0.0202874
vt -0.798715 2.3622
f 60/91/8 7/7/8 6/6/8 62/92/8 

vn 9.71445e-017 2.73451e-016 -1
vt 10.4396 15.3543
vt -4.91475 15.3543
v 0.124835 0.06 -0.0202874
f 62/31/18 6/93/18 12/94/18 63/34/18 

vt 0.798715 2.3622
vt 0.0113132 2.3622
f 63/95/16 12/83/16 59/82/16 61/96/16 

v 0.124835 4.51195e-016 0.389713
vt -15.343 1.77636e-014
v 0.124835 0 -0.410287
vt 16.153 0
vt 16.153 2.3622
vt 13.7908 2.3622
v 0.124835 0.06 0.329713
vt -12.9808 2.3622
v 0.124835 0.06 0.389713
vt -15.343 2.3622
f 64/97/16 65/98/16 25/99/16 14/100/16 63/95/16 61/96/16 66/101/16 67/102/16 

v -0.265165 4.51195e-016 0.389713
vt 10.4396 -15.343
vn -5.47889e-032 -1 5.63993e-016
v -0.265165 0 -0.410287
vt 10.4396 16.153
vt -4.91475 16.153
vt -4.91475 -15.343
f 68/103/19 69/104/19 65/105/19 64/106/19 

vt -16.153 -7.32711e-014
vn -1 7.01858e-015 -9.71445e-017
vt 15.343 -5.55075e-014
v -0.265165 0.06 0.389713
vt 15.343 2.3622
v -0.265165 0.06 0.329713
vt 12.9808 2.3622
f 69/107/20 68/108/20 70/109/20 71/110/20 60/91/20 62/92/20 13/23/20 16/22/20 

vt -10.4396 1.77636e-014
vt 4.91475 1.77636e-014
f 70/18/4 68/111/4 64/112/4 67/19/4 

vn -1.74277e-016 -6.31704e-019 1
v 0.124835 1.44 0.389713
f 70/18/21 67/19/21 72/46/21 31/47/21 

v 0.124835 0.74 0.329713
vt -12.9808 29.1339
v 0.124835 0.76 0.329713
vt -12.9808 29.9213
v 0.124835 1.09 0.329713
vt -12.9808 42.9134
v 0.124835 1.11 0.329713
vt -12.9808 43.7008
v 0.124835 1.44 0.329713
vt -12.9808 56.6929
vt -15.343 56.6929
f 3/86/16 73/113/16 74/114/16 75/115/16 76/116/16 77/117/16 72/118/16 67/102/16 66/101/16 58/81/16 

vn 2.78785e-016 -3.10246e-016 -1
v -0.265165 0.471722 0.329713
vt 10.4396 18.5717
f 2/73/22 78/119/22 50/74/22 73/75/22 3/76/22 

vn -1 -4.85063e-016 -5.37092e-016
vt 12.9808 18.5717
v -0.265165 1.17172 0.329713
vt 12.9808 46.1308
f 51/65/23 50/64/23 78/120/23 2/9/23 8/8/23 71/110/23 70/109/23 31/40/23 30/39/23 79/121/23 41/55/23 40/54/23 

f 71/31/7 8/93/7 58/94/7 66/34/7 

f 60/1/1 71/2/1 66/3/1 61/4/1 

vt 10.4396 43.7008
vn 1.24254e-015 -3.80139e-015 -1
vt 10.4396 46.1308
vt -4.91475 43.7008
f 41/122/24 79/123/24 30/32/24 77/33/24 76/124/24 

v 0.124835 1.44 -0.000287355
f 30/90/3 29/87/3 80/88/3 77/89/3 

vn -9.71445e-017 4.64867e-015 1
v 0.124835 1.11 -0.000287355
f 29/47/25 42/44/25 81/45/25 80/46/25 

f 28/37/8 36/57/8 42/56/8 29/38/8 

vn 9.71445e-017 -4.64867e-015 -1
f 36/122/26 28/32/26 34/33/26 37/124/26 

vt 0.0113132 56.6929
vt 0.0113132 43.7008
vt 0.798715 43.7008
vt 0.798715 56.6929
f 80/125/16 81/126/16 37/127/16 34/128/16 

v 0.124835 1.09 -0.000287355
vt 0.0113132 42.9134
vt 0.798715 42.9134
vt 13.7908 42.9134
vt 13.7908 43.7008
f 75/115/16 82/129/16 44/130/16 43/131/16 35/132/16 37/127/16 81/126/16 76/116/16 

vn 1.06257e-031 -1 -1.09381e-015
f 39/87/27 82/88/27 75/89/27 40/90/27 

v 0.124835 0.76 -0.000287355
f 39/58/4 52/59/4 83/60/4 82/61/4 

f 52/66/8 39/53/8 38/52/8 46/67/8 

vt 10.4396 29.9213
vt 10.4396 42.9134
vt -4.91475 42.9134
vt -4.91475 29.9213
f 46/133/7 38/134/7 44/135/7 47/136/7 

vt 0.798715 29.9213
vt 0.0113132 29.9213
f 47/137/16 44/130/16 82/129/16 83/138/16 

vt 13.7908 29.1339
vt 13.7908 29.9213
f 73/113/16 57/77/16 54/80/16 53/139/16 45/140/16 47/137/16 83/138/16 74/114/16 

vn -4.46584e-031 -1 1.36726e-015
f 49/87/28 57/88/28 73/89/28 50/90/28 

vt 16.153 56.6929
vt 13.7908 56.6929
f 45/140/16 53/139/16 55/85/16 11/84/16 14/100/16 25/99/16 24/141/16 33/142/16 35/132/16 43/131/16 

vt 16.153 59.0551
v 0.124835 1.5 0.389713
vt -15.343 59.0551
f 33/142/16 24/141/16 27/143/16 84/144/16 72/118/16 77/117/16 80/125/16 34/128/16 

vt -10.4396 16.153
vt -10.4396 -15.343
vt 4.91475 -15.343
vt 4.91475 16.153
f 26/145/1 32/146/1 84/147/1 27/148/1 

vt -10.4396 59.0551
vt 4.91475 59.0551
f 32/149/4 31/47/4 72/46/4 84/150/4 

vn 2.74741e-030 1 -8.47699e-015
f 52/1/29 51/2/29 74/3/29 83/4/29 

vn 3.28526e-016 4.92212e-015 -1
f 51/133/30 40/134/30 75/135/30 74/136/30 

f 42/1/1 41/2/1 76/3/1 81/4/1 

f 13/48/1 62/49/1 63/50/1 14/51/1 

vt 10.4396 0
vt -4.91475 0
f 69/151/7 16/31/7 25/34/7 65/152/7 

