# Alias OBJ Model File
# Exported from SketchUp, (c) 2000-2012 Trimble Navigation Limited
# File units = meters

mtllib shelf8.mtl

g Mesh1 Group1 Model

usemtl Color_F25
v 0.130745 0.758825 -0.301294
vt -13.125 0
vn 1 -6.25689e-028 -4.02151e-013
v 0.130745 1.0922 -0.301294
vt 0 0
v 0.130745 1.0922 0.0924061
vt 0 15.5
v 0.130745 0.758825 0.0924061
vt -13.125 15.5
f 1/1/1 2/2/1 3/3/1 4/4/1 

vt 0 0.25
vn -4.02151e-013 -2.55546e-013 -1
vt -13.125 0.25
v 0.124395 0.758825 -0.301294
v 0.124395 1.0922 -0.301294
f 2/5/2 1/6/2 5/1/2 6/2/2 

vt 0.25 0
vn 1.02142e-025 -1 2.55546e-013
vt 0.25 15.5
v 0.124395 0.758825 0.0924061
f 1/7/3 4/8/3 7/3/3 5/2/3 

vt 13.125 0.25
vn 4.02151e-013 2.55546e-013 1
v 0.124395 1.0922 0.0924061
vt 13.125 0
f 4/9/4 3/5/4 8/2/4 7/10/4 

vt -0.25 15.5
vn -1.02142e-025 1 -2.55546e-013
vt -0.25 0
f 3/11/5 2/12/5 6/2/5 8/3/5 

vn -1 6.25689e-028 4.02151e-013
vt 13.125 15.5
f 6/2/6 5/10/6 7/13/6 8/3/6 

g Mesh2 Group2 Model

usemtl Color_E15
v -0.50708 0.06985 0.017118
vt 0 1
vn 0 1 -7.41898e-015
v -0.50708 0.06985 0.042518
v -0.48168 0.06985 0.042518
vt 1 0
v -0.48168 0.06985 0.017118
vt 1 1
f 9/14/7 10/2/7 11/15/7 12/16/7 

v -0.50708 1.80478e-016 0.017118
vt -2.75 1
vn -1 -0 -0
v -0.50708 3.72236e-016 0.042518
vt -2.75 0
f 13/17/8 14/18/8 10/2/8 9/14/8 

vn 0 -1 7.41898e-015
v -0.48168 1.80478e-016 0.017118
vt -1 1
v -0.48168 3.72236e-016 0.042518
vt -1 0
f 14/2/9 13/14/9 15/19/9 16/20/9 

vt 1 2.75
vn 0 -7.41898e-015 -1
vt 0 2.75
f 15/21/10 13/22/10 9/2/10 12/15/10 

vt 2.75 0
vn 1 0 -0
vt 2.75 1
f 16/23/11 15/24/11 12/14/11 11/2/11 

vn 0 7.41898e-015 1
vt -1 2.75
f 14/22/12 16/25/12 11/20/12 10/2/12 

g Mesh3 Group3 Model

v 0.370978 0.06985 0.017118
v 0.370978 0.06985 0.042518
v 0.396378 0.06985 0.042518
v 0.396378 0.06985 0.017118
f 17/14/7 18/2/7 19/15/7 20/16/7 

v 0.370978 0 0.017118
v 0.370978 1.91758e-016 0.042518
f 21/17/8 22/18/8 18/2/8 17/14/8 

v 0.396378 0 0.017118
v 0.396378 1.91758e-016 0.042518
f 22/2/9 21/14/9 23/19/9 24/20/9 

f 23/21/10 21/22/10 17/2/10 20/15/10 

f 24/23/11 23/24/11 20/14/11 19/2/11 

f 22/22/12 24/25/12 19/20/12 18/2/12 

g Mesh4 Group4 Model

v -0.207913 0.758825 -0.301294
v -0.207913 1.0922 -0.301294
v -0.207913 1.0922 0.0924061
v -0.207913 0.758825 0.0924061
f 25/1/1 26/2/1 27/3/1 28/4/1 

v -0.214263 0.758825 -0.301294
v -0.214263 1.0922 -0.301294
f 26/5/2 25/6/2 29/1/2 30/2/2 

v -0.214263 0.758825 0.0924061
f 25/7/3 28/8/3 31/3/3 29/2/3 

v -0.214263 1.0922 0.0924061
f 28/9/4 27/5/4 32/2/4 31/10/4 

f 27/11/5 26/12/5 30/2/5 32/3/5 

f 30/2/6 29/10/6 31/13/6 32/3/6 

g Mesh5 Group5 Model

v 0.370978 0.06985 -0.269981
v 0.370978 0.06985 -0.244581
v 0.396378 0.06985 -0.244581
v 0.396378 0.06985 -0.269981
f 33/14/7 34/2/7 35/15/7 36/16/7 

v 0.370978 0 -0.269981
v 0.370978 1.91758e-016 -0.244581
f 37/17/8 38/18/8 34/2/8 33/14/8 

v 0.396378 0 -0.269981
v 0.396378 1.91758e-016 -0.244581
f 38/2/9 37/14/9 39/19/9 40/20/9 

f 39/21/10 37/22/10 33/2/10 36/15/10 

f 40/23/11 39/24/11 36/14/11 35/2/11 

f 38/22/12 40/25/12 35/20/12 34/2/12 

g Mesh6 Group6 Model

v 0.130745 1.1049 -0.301294
v 0.130745 1.43828 -0.301294
v 0.130745 1.43828 0.0924061
v 0.130745 1.1049 0.0924061
f 41/1/1 42/2/1 43/3/1 44/4/1 

v 0.124395 1.1049 -0.301294
v 0.124395 1.43828 -0.301294
f 42/5/2 41/6/2 45/1/2 46/2/2 

v 0.124395 1.1049 0.0924061
f 41/7/3 44/8/3 47/3/3 45/2/3 

v 0.124395 1.43828 0.0924061
f 44/9/4 43/5/4 48/2/4 47/10/4 

f 43/11/5 42/12/5 46/2/5 48/3/5 

f 46/2/6 45/10/6 47/13/6 48/3/6 

g Mesh7 Group7 Model

v 0.466228 1.0922 0.0924061
vt -40 0
vn 0 -1 -0
v -0.549772 1.0922 0.0924061
v -0.549772 1.0922 -0.301294
v 0.466228 1.0922 -0.301294
vt -40 15.5
f 49/26/13 50/2/13 51/3/13 52/27/13 

vn 0 0 1
vt 40 0
v 0.466228 1.1049 0.0924061
vt 40 0.5
v -0.549772 1.1049 0.0924061
vt 0 0.5
f 50/2/14 49/28/14 53/29/14 54/30/14 

vt 15.5 0
v 0.466228 1.1049 -0.301294
vt 15.5 0.5
f 49/2/11 52/31/11 55/32/11 53/30/11 

vn 0 0 -1
v -0.549772 1.1049 -0.301294
vt -40 0.5
f 52/26/15 51/2/15 56/30/15 55/33/15 

vt -15.5 0
vn -1 0 -0
vt -15.5 0.5
f 51/34/16 50/2/16 54/30/16 56/35/16 

vn 0 1 -0
vt 40 15.5
f 54/2/17 53/28/17 55/36/17 56/3/17 

g Mesh8 Group8 Model

v 0.130745 0.422275 -0.301294
v 0.130745 0.75565 -0.301294
v 0.130745 0.75565 0.0924061
v 0.130745 0.422275 0.0924061
f 57/1/1 58/2/1 59/3/1 60/4/1 

v 0.124395 0.422275 -0.301294
v 0.124395 0.75565 -0.301294
f 58/5/2 57/6/2 61/1/2 62/2/2 

v 0.124395 0.422275 0.0924061
f 57/7/3 60/8/3 63/3/3 61/2/3 

v 0.124395 0.75565 0.0924061
f 60/9/4 59/5/4 64/2/4 63/10/4 

f 59/11/5 58/12/5 62/2/5 64/3/5 

f 62/2/6 61/10/6 63/13/6 64/3/6 

g Mesh9 Group9 Model

v 0.466228 1.76848 -0.301294
vn 0 -1 -1.02009e-012
v 0.466228 1.76848 0.0924061
v -0.549772 1.76848 0.0924061
v -0.549772 1.76848 -0.301294
f 65/27/18 66/26/18 67/2/18 68/3/18 

v 0.466228 1.77483 -0.301294
v 0.466228 1.77483 0.0924061
f 66/7/11 65/8/11 69/3/11 70/2/11 

vt 40 0.25
vn 0 1.02009e-012 -1
v -0.549772 1.77483 -0.301294
f 65/37/19 68/5/19 71/2/19 69/28/19 

v -0.549772 1.77483 0.0924061
f 68/11/16 67/12/16 72/2/16 71/3/16 

vn 0 -1.02009e-012 1
vt -40 0.25
f 67/5/20 66/38/20 70/26/20 72/2/20 

vn 0 1 1.02009e-012
f 70/28/21 69/36/21 71/3/21 72/2/21 

g Mesh10 Group10 Model

v 0.466228 1.43193 -0.301294
v 0.466228 1.43193 0.0924061
v -0.549772 1.43193 0.0924061
v -0.549772 1.43193 -0.301294
f 73/27/18 74/26/18 75/2/18 76/3/18 

v 0.466228 1.43828 -0.301294
v 0.466228 1.43828 0.0924061
f 74/7/11 73/8/11 77/3/11 78/2/11 

v -0.549772 1.43828 -0.301294
f 73/37/19 76/5/19 79/2/19 77/28/19 

v -0.549772 1.43828 0.0924061
f 76/11/16 75/12/16 80/2/16 79/3/16 

f 75/5/20 74/38/20 78/26/20 80/2/20 

f 78/28/21 77/36/21 79/3/21 80/2/21 

g Mesh11 Group11 Model

v 0.130745 0.0821317 -0.301294
v 0.130745 0.415507 -0.301294
v 0.130745 0.415507 0.0924061
v 0.130745 0.0821317 0.0924061
f 81/1/1 82/2/1 83/3/1 84/4/1 

v 0.124395 0.0821317 -0.301294
v 0.124395 0.415507 -0.301294
f 82/5/2 81/6/2 85/1/2 86/2/2 

v 0.124395 0.0821317 0.0924061
f 81/7/3 84/8/3 87/3/3 85/2/3 

v 0.124395 0.415507 0.0924061
f 84/9/4 83/5/4 88/2/4 87/10/4 

f 83/11/5 82/12/5 86/2/5 88/3/5 

f 86/2/6 85/10/6 87/13/6 88/3/6 

g Mesh12 Group12 Model

v -0.50708 0.06985 -0.269981
v -0.50708 0.06985 -0.244581
v -0.48168 0.06985 -0.244581
v -0.48168 0.06985 -0.269981
f 89/14/7 90/2/7 91/15/7 92/16/7 

v -0.50708 1.80478e-016 -0.269981
v -0.50708 3.72236e-016 -0.244581
f 93/17/8 94/18/8 90/2/8 89/14/8 

v -0.48168 1.80478e-016 -0.269981
v -0.48168 3.72236e-016 -0.244581
f 94/2/9 93/14/9 95/19/9 96/20/9 

f 95/21/10 93/22/10 89/2/10 92/15/10 

f 96/23/11 95/24/11 92/14/11 91/2/11 

f 94/22/12 96/25/12 91/20/12 90/2/12 

g Mesh13 Group13 Model

v 0.466228 0.752475 -0.301294
v 0.466228 0.752475 0.0924061
v -0.549772 0.752475 0.0924061
v -0.549772 0.752475 -0.301294
f 97/27/18 98/26/18 99/2/18 100/3/18 

v 0.466228 0.758825 -0.301294
v 0.466228 0.758825 0.0924061
f 98/7/11 97/8/11 101/3/11 102/2/11 

v -0.549772 0.758825 -0.301294
f 97/37/19 100/5/19 103/2/19 101/28/19 

v -0.549772 0.758825 0.0924061
f 100/11/16 99/12/16 104/2/16 103/3/16 

f 99/5/20 98/38/20 102/26/20 104/2/20 

f 102/28/21 101/36/21 103/3/21 104/2/21 

g Mesh14 Group14 Model

v 0.466228 0.415925 -0.301294
v 0.466228 0.415925 0.0924061
v -0.549772 0.415925 0.0924061
v -0.549772 0.415925 -0.301294
f 105/27/18 106/26/18 107/2/18 108/3/18 

v 0.466228 0.422275 -0.301294
v 0.466228 0.422275 0.0924061
f 106/7/11 105/8/11 109/3/11 110/2/11 

v -0.549772 0.422275 -0.301294
f 105/37/19 108/5/19 111/2/19 109/28/19 

v -0.549772 0.422275 0.0924061
f 108/11/16 107/12/16 112/2/16 111/3/16 

f 107/5/20 106/38/20 110/26/20 112/2/20 

f 110/28/21 109/36/21 111/3/21 112/2/21 

g Mesh15 Group15 Model

v -0.207913 0.422275 -0.301294
v -0.207913 0.75565 -0.301294
v -0.207913 0.75565 0.0924061
v -0.207913 0.422275 0.0924061
f 113/1/1 114/2/1 115/3/1 116/4/1 

v -0.214263 0.422275 -0.301294
v -0.214263 0.75565 -0.301294
f 114/5/2 113/6/2 117/1/2 118/2/2 

v -0.214263 0.422275 0.0924061
f 113/7/3 116/8/3 119/3/3 117/2/3 

v -0.214263 0.75565 0.0924061
f 116/9/4 115/5/4 120/2/4 119/10/4 

f 115/11/5 114/12/5 118/2/5 120/3/5 

f 118/2/6 117/10/6 119/13/6 120/3/6 

g Mesh16 Group16 Model

usemtl Color_F25
v -0.207913 1.1049 -0.301294
v -0.207913 1.43828 -0.301294
v -0.207913 1.43828 0.0924061
v -0.207913 1.1049 0.0924061
f 121/1/1 122/2/1 123/3/1 124/4/1 

v -0.214263 1.1049 -0.301294
v -0.214263 1.43828 -0.301294
f 122/5/2 121/6/2 125/1/2 126/2/2 

v -0.214263 1.1049 0.0924061
f 121/7/3 124/8/3 127/3/3 125/2/3 

v -0.214263 1.43828 0.0924061
f 124/9/4 123/5/4 128/2/4 127/10/4 

f 123/11/5 122/12/5 126/2/5 128/3/5 

f 126/2/6 125/10/6 127/13/6 128/3/6 

g Mesh17 Group17 Model

v -0.207913 0.0821317 -0.301294
v -0.207913 0.415507 -0.301294
v -0.207913 0.415507 0.0924061
v -0.207913 0.0821317 0.0924061
f 129/1/1 130/2/1 131/3/1 132/4/1 

v -0.214263 0.0821317 -0.301294
v -0.214263 0.415507 -0.301294
f 130/5/2 129/6/2 133/1/2 134/2/2 

v -0.214263 0.0821317 0.0924061
f 129/7/3 132/8/3 135/3/3 133/2/3 

v -0.214263 0.415507 0.0924061
f 132/9/4 131/5/4 136/2/4 135/10/4 

f 131/11/5 130/12/5 134/2/5 136/3/5 

f 134/2/6 133/10/6 135/13/6 136/3/6 

g Mesh18 Group18 Model

v -0.207867 1.77483 -0.301294
v -0.207867 2.1082 -0.301294
v -0.207867 2.1082 0.0924061
v -0.207867 1.77483 0.0924061
f 137/1/1 138/2/1 139/3/1 140/4/1 

v -0.214217 1.77483 -0.301294
v -0.214217 2.1082 -0.301294
f 138/5/2 137/6/2 141/1/2 142/2/2 

v -0.214217 1.77483 0.0924061
f 137/7/3 140/8/3 143/3/3 141/2/3 

v -0.214217 2.1082 0.0924061
f 140/9/4 139/5/4 144/2/4 143/10/4 

f 139/11/5 138/12/5 142/2/5 144/3/5 

f 142/2/6 141/10/6 143/13/6 144/3/6 

g Mesh19 Group19 Model

usemtl Color_E15
v 0.130745 1.43828 -0.301294
v 0.130745 1.77165 -0.301294
v 0.130745 1.77165 0.0924061
v 0.130745 1.43828 0.0924061
f 145/1/1 146/2/1 147/3/1 148/4/1 

v 0.124395 1.43828 -0.301294
v 0.124395 1.77165 -0.301294
f 146/5/2 145/6/2 149/1/2 150/2/2 

v 0.124395 1.43828 0.0924061
f 145/7/3 148/8/3 151/3/3 149/2/3 

v 0.124395 1.77165 0.0924061
f 148/9/4 147/5/4 152/2/4 151/10/4 

f 147/11/5 146/12/5 150/2/5 152/3/5 

f 150/2/6 149/10/6 151/13/6 152/3/6 

g Mesh20 Group20 Model

v -0.207913 1.43828 -0.301294
v -0.207913 1.77165 -0.301294
v -0.207913 1.77165 0.0924061
v -0.207913 1.43828 0.0924061
f 153/1/1 154/2/1 155/3/1 156/4/1 

v -0.214263 1.43828 -0.301294
v -0.214263 1.77165 -0.301294
f 154/5/2 153/6/2 157/1/2 158/2/2 

v -0.214263 1.43828 0.0924061
f 153/7/3 156/8/3 159/3/3 157/2/3 

v -0.214263 1.77165 0.0924061
f 156/9/4 155/5/4 160/2/4 159/10/4 

f 155/11/5 154/12/5 158/2/5 160/3/5 

f 158/2/6 157/10/6 159/13/6 160/3/6 

g Mesh21 Group21 Model

v 0.130745 1.77483 -0.301294
v 0.130745 2.1082 -0.301294
v 0.130745 2.1082 0.0924061
v 0.130745 1.77483 0.0924061
f 161/1/1 162/2/1 163/3/1 164/4/1 

v 0.124395 1.77483 -0.301294
v 0.124395 2.1082 -0.301294
f 162/5/2 161/6/2 165/1/2 166/2/2 

v 0.124395 1.77483 0.0924061
f 161/7/3 164/8/3 167/3/3 165/2/3 

v 0.124395 2.1082 0.0924061
f 164/9/4 163/5/4 168/2/4 167/10/4 

f 163/11/5 162/12/5 166/2/5 168/3/5 

f 166/2/6 165/10/6 167/13/6 168/3/6 

g Mesh22 Model

v 0.466228 0.0821317 0.0924061
vt 3.63804 3.23353
v 0.466228 2.10862 0.0924061
vt 3.63804 83.0165
v 0.466228 2.10862 -0.301294
vt -11.862 83.0165
v 0.466228 0.0821317 -0.301294
vt -11.862 3.23353
f 169/39/16 170/40/16 171/41/16 172/42/16 

vt 18.3554 3.23353
vn 0 3.59544e-012 1
v 0.478928 2.1209 0.0924061
vt 18.8554 83.5
vt 18.3554 83.0165
f 169/43/22 173/44/22 170/45/22

v 0.478928 0.06985 0.0924061
vt 18.8554 2.75
f 169/43/22 174/46/22 173/44/22

v -0.562472 0.06985 0.0924061
vt -22.1446 2.75
f 174/46/22 169/43/22 175/47/22

v -0.549772 0.0821317 0.0924061
vt -21.6446 3.23353
f 176/48/22 175/47/22 169/43/22

v -0.562472 2.1209 0.0924061
vt -22.1446 83.5
f 175/47/22 176/48/22 177/49/22

v -0.549772 2.10862 0.0924061
vt -21.6446 83.0165
f 177/49/22 176/48/22 178/50/22

vt -3.63804 83.0165
vt -3.63804 3.23353
v -0.549772 0.0821317 -0.301294
vt 11.862 3.23353
v -0.549772 2.10862 -0.301294
vt 11.862 83.0165
f 178/51/11 176/52/11 179/53/11 180/54/11 

vt -21.6446 -3.63804
vn 0 1 -3.59544e-012
vt 18.3554 -3.63804
vt 18.3554 11.862
vt -21.6446 11.862
f 176/55/23 169/56/23 172/57/23 179/58/23 

f 180/50/22 179/48/22 172/43/22 171/45/22 

vt -18.3554 -3.63804
vn 0 -1 3.59544e-012
vt 21.6446 -3.63804
vt 21.6446 11.862
vt -18.3554 11.862
f 170/59/24 178/60/24 180/61/24 171/62/24 

f 170/45/22 173/44/22 178/50/22

f 177/49/22 178/50/22 173/44/22

usemtl Color_E20
v 0.478928 2.1209 -0.307644
vt 18.8554 12.112
v -0.562472 2.1209 -0.307644
vt -22.1446 12.112
vt -22.1446 -3.63804
vt 18.8554 -3.63804
f 181/63/23 182/64/23 177/65/23 173/66/23 

usemtl Color_E15
vt 22.1446 83.5
vn 0 -3.59544e-012 -1
vt -18.8554 83.5
v 0.478928 0.06985 -0.307644
vt -18.8554 2.75
v -0.562472 0.06985 -0.307644
vt 22.1446 2.75
f 182/67/25 181/68/25 183/69/25 184/70/25 

usemtl Color_E20
vt 12.112 2.75
vt 12.112 83.5
vt -3.63804 83.5
vt -3.63804 2.75
f 183/71/11 181/72/11 173/73/11 174/74/11 

vt 22.1446 12.112
vt -18.8554 12.112
vt -18.8554 -3.63804
vt 22.1446 -3.63804
f 184/75/24 183/76/24 174/77/24 175/78/24 

vt -12.112 83.5
vt -12.112 2.75
vt 3.63804 2.75
vt 3.63804 83.5
f 182/79/16 184/80/16 175/81/16 177/82/16 

