# Alias OBJ Model File
# Exported from SketchUp, (c) 2000-2012 Trimble Navigation Limited
# File units = meters

mtllib shelf4.mtl

g Mesh1 Model

usemtl FrontColor
v -0.554871 0.446923 -0.134249
vt -21.8453 5.2854
vn 7.60557e-016 1 -5.05815e-032
v -1.14811 0.446923 -0.134249
vt -45.2013 5.2854
v -1.14811 0.446923 0.237042
vt -45.2013 -9.33235
v -0.554871 0.446923 0.237042
vt -21.8453 -9.33235
f 1/1/1 2/2/1 3/3/1 4/4/1 

usemtl Color_C14
vt -21.8453 17.5954
vn -1.72618e-016 1.88039e-016 1
v 0.697768 0.48 -0.134249
vt 27.4712 18.8976
vt -45.2013 17.5954
f 1/5/2 5/6/2 2/7/2

v -0.521794 0.446923 -0.134249
vt -20.5431 17.5954
f 6/8/2 5/6/2 1/5/2

v 0.0714481 0.446923 -0.134249
vt 2.81292 17.5954
f 7/9/2 5/6/2 6/8/2

v 0.104525 0.446923 -0.134249
vt 4.11518 17.5954
f 8/10/2 5/6/2 7/9/2

v 0.697768 0.446923 -0.134249
vt 27.4712 17.5954
f 5/6/2 8/10/2 9/11/2

usemtl FrontColor
vt 27.4712 5.2854
vn 7.60557e-016 1 -0
vt 4.11518 5.2854
v 0.104525 0.446923 0.237042
vt 4.11518 -9.33235
v 0.697768 0.446923 0.237042
vt 27.4712 -9.33235
f 9/12/3 8/13/3 10/14/3 11/15/3 

vt -5.2854 17.5954
vn -1 0 -0
v 0.104525 0.0330774 -0.134249
vt -5.2854 1.30226
v 0.104525 0.0330774 0.237042
vt 9.33235 1.30226
vt 9.33235 17.5954
f 8/16/4 12/17/4 13/18/4 10/19/4 

usemtl Color_C14
v 0.0714481 0.0330774 -0.134249
vt 2.81292 1.30226
vt 4.11518 1.30226
f 14/20/2 12/21/2 8/10/2

v 0.0714481 7.89591e-016 -0.134249
vt 2.81292 3.20801e-014
f 15/22/2 12/21/2 14/20/2

v 0.697768 0.0330774 -0.134249
vt 27.4712 1.30226
f 15/22/2 16/23/2 12/21/2

v 0.697768 4.06075e-016 -0.134249
vt 27.4712 1.69811e-014
f 16/23/2 15/22/2 17/24/2

usemtl FrontColor
vt 27.4712 1.45054e-014
vn 9.21662e-016 -2.80361e-016 1
v 1.32409 2.25597e-017 -0.134249
vt 52.1294 -5.93643e-016
v 1.34409 2.25597e-017 -0.134249
vt 52.9168 -5.93643e-016
v 1.34409 0.0330774 -0.134249
vt 52.9168 1.30226
v 1.32409 0.0330774 -0.134249
vt 52.1294 1.30226
v 0.730845 0.0330774 -0.134249
vt 28.7734 1.30226
v 0.730845 0.446923 -0.134249
vt 28.7734 17.5954
v 1.32409 0.446923 -0.134249
vt 52.1294 17.5954
v 1.34409 0.446923 -0.134249
vt 52.9168 17.5954
v 1.34409 0.48 -0.134249
vt 52.9168 18.8976
v 1.32409 0.48 -0.134249
vt 52.1294 18.8976
v 0.730845 0.48 -0.134249
vt 28.7734 18.8976
f 17/25/5 18/26/5 19/27/5 20/28/5 21/29/5 22/30/5 23/31/5 24/32/5 25/33/5 26/34/5 27/35/5 28/36/5 5/6/5 9/11/5 16/23/5 

v 1.32409 0 0.237042
vt -52.1294 -9.33235
vn 0 -1 -6.07603e-017
vt -52.1294 5.2854
vt -52.9168 5.2854
v 1.34409 0 0.237042
vt -52.9168 -9.33235
f 29/37/6 18/38/6 19/39/6 30/40/6 

usemtl Color_D20
v 1.34409 1.92 -0.134249
vt 5.2854 75.5906
vn 1 6.41642e-017 2.31784e-016
v 1.34409 1.92 0.237042
vt -9.33235 75.5906
vt -9.33235 -3.39536e-015
vt 5.2854 -2.50719e-015
vt 5.2854 1.30226
vt 5.2854 17.5954
vt 5.2854 18.8976
v 1.34409 0.926923 -0.134249
vt 5.2854 36.493
v 1.34409 0.96 -0.134249
vt 5.2854 37.7953
v 1.34409 1.40692 -0.134249
vt 5.2854 55.3907
v 1.34409 1.44 -0.134249
vt 5.2854 56.6929
v 1.34409 1.88692 -0.134249
vt 5.2854 74.2883
f 31/41/7 32/42/7 30/43/7 19/44/7 20/45/7 25/46/7 26/47/7 33/48/7 34/49/7 35/50/7 36/51/7 37/52/7 

usemtl FrontColor
vn -3.60195e-016 -1 -2.43041e-015
v -1.18119 1.92 0.237042
vt 46.5036 -9.33235
v -1.18119 1.92 -0.134249
vt 46.5036 5.2854
f 32/40/8 38/53/8 39/54/8 31/39/8 

usemtl Color_C14
vt -46.5036 75.5906
vn -8.86304e-016 -3.05784e-015 1
v -1.14811 1.88692 0.237042
vt -45.2013 74.2883
vt 52.9168 75.5906
f 38/55/9 40/56/9 32/57/9

v -1.14811 1.44 0.237042
vt -45.2013 56.6929
f 38/55/9 41/58/9 40/56/9

v -1.14811 1.40692 0.237042
vt -45.2013 55.3907
f 38/55/9 42/59/9 41/58/9

v -1.14811 0.96 0.237042
vt -45.2013 37.7953
f 38/55/9 43/60/9 42/59/9

v -1.14811 0.926923 0.237042
vt -45.2013 36.493
f 38/55/9 44/61/9 43/60/9

v -1.14811 0.48 0.237042
vt -45.2013 18.8976
f 38/55/9 45/62/9 44/61/9

f 38/55/9 3/7/9 45/62/9

v -1.14811 0.0330774 0.237042
vt -45.2013 1.30226
f 38/55/9 46/63/9 3/7/9

v -1.18119 0 0.237042
vt -46.5036 2.85368e-014
f 47/64/9 46/63/9 38/55/9

v 0.730845 0.0330774 0.237042
f 46/63/9 47/64/9 48/30/9

v 1.32409 0.0330774 0.237042
f 48/30/9 47/64/9 49/29/9

vt 52.1294 2.85368e-014
f 29/65/9 49/29/9 47/64/9

f 29/65/9 32/57/9 49/29/9

vt 52.9168 2.85368e-014
f 32/57/9 29/65/9 30/66/9

v 1.32409 0.446923 0.237042
f 49/29/9 32/57/9 50/32/9

v 1.32409 0.48 0.237042
f 50/32/9 32/57/9 51/35/9

v 1.32409 0.926923 0.237042
vt 52.1294 36.493
f 51/35/9 32/57/9 52/67/9

v 1.32409 0.96 0.237042
vt 52.1294 37.7953
f 52/67/9 32/57/9 53/68/9

v 1.32409 1.40692 0.237042
vt 52.1294 55.3907
f 53/68/9 32/57/9 54/69/9

v 1.32409 1.44 0.237042
vt 52.1294 56.6929
f 54/69/9 32/57/9 55/70/9

v 1.32409 1.88692 0.237042
vt 52.1294 74.2883
f 55/70/9 32/57/9 56/71/9

v 0.730845 1.88692 0.237042
vt 28.7734 74.2883
f 56/71/9 32/57/9 57/72/9

v 0.697768 1.88692 0.237042
vt 27.4712 74.2883
f 57/72/9 32/57/9 58/73/9

v 0.104525 1.88692 0.237042
vt 4.11518 74.2883
f 58/73/9 32/57/9 59/74/9

v 0.0714481 1.88692 0.237042
vt 2.81292 74.2883
f 59/74/9 32/57/9 60/75/9

v -0.521794 1.88692 0.237042
vt -20.5431 74.2883
f 60/75/9 32/57/9 61/76/9

v -0.554871 1.88692 0.237042
vt -21.8453 74.2883
f 61/76/9 32/57/9 62/77/9

f 62/77/9 32/57/9 40/56/9

usemtl FrontColor
v -0.554871 1.88692 -0.134249
vn 6.08446e-016 1 -4.04652e-032
v -1.14811 1.88692 -0.134249
f 63/1/10 64/2/10 40/3/10 62/4/10 

usemtl Color_C14
f 63/77/2 31/57/2 64/56/2

v -0.521794 1.88692 -0.134249
f 65/76/2 31/57/2 63/77/2

v 0.0714481 1.88692 -0.134249
f 66/75/2 31/57/2 65/76/2

v 0.104525 1.88692 -0.134249
f 67/74/2 31/57/2 66/75/2

v 0.697768 1.88692 -0.134249
f 68/73/2 31/57/2 67/74/2

v 0.730845 1.88692 -0.134249
f 69/72/2 31/57/2 68/73/2

v 1.32409 1.88692 -0.134249
f 70/71/2 31/57/2 69/72/2

vt 52.9168 74.2883
f 31/57/2 70/71/2 37/78/2

v 1.32409 1.44 -0.134249
vt -52.1294 56.6929
vn 0 0 -1
vt -52.1294 74.2883
vt -52.9168 74.2883
vt -52.9168 56.6929
f 71/79/11 70/80/11 37/81/11 36/82/11 

usemtl FrontColor
vn 1 0 -0
vt -9.33235 74.2883
vt -9.33235 56.6929
f 71/51/12 70/52/12 56/83/12 55/84/12 

vt 52.1294 5.2854
vn 6.08446e-016 1 2.331e-032
vt 28.7734 5.2854
vt 28.7734 -9.33235
vt 52.1294 -9.33235
f 70/85/13 69/86/13 57/87/13 56/88/13 

vt -5.2854 74.2883
v 0.730845 1.44 -0.134249
vt -5.2854 56.6929
v 0.730845 1.44 0.237042
vt 9.33235 56.6929
vt 9.33235 74.2883
f 69/89/4 72/90/4 73/91/4 57/92/4 

usemtl Color_C14
v 0.697768 1.44 -0.134249
vt 27.4712 56.6929
vt 28.7734 56.6929
f 69/72/2 74/93/2 72/94/2

f 74/93/2 69/72/2 68/73/2

usemtl FrontColor
vn 1 3.23059e-015 3.88866e-015
v 0.697768 1.44 0.237042
f 74/51/14 68/52/14 58/83/14 75/84/14 

f 68/12/10 67/13/10 59/14/10 58/15/10 

v 0.104525 1.44 -0.134249
v 0.104525 1.44 0.237042
f 67/89/4 76/90/4 77/91/4 59/92/4 

usemtl Color_C14
v 0.0714481 1.44 -0.134249
vt 2.81292 56.6929
vt 4.11518 56.6929
f 67/74/2 78/95/2 76/96/2

f 78/95/2 67/74/2 66/75/2

usemtl FrontColor
v 0.0714481 1.44 0.237042
f 78/51/12 66/52/12 60/83/12 79/84/12 

vt 2.81292 5.2854
vn 1.21689e-015 1 1.79366e-043
vt -20.5431 5.2854
vt -20.5431 -9.33235
vt 2.81292 -9.33235
f 66/97/15 65/98/15 61/99/15 60/100/15 

v -0.521794 1.44 -0.134249
v -0.521794 1.44 0.237042
f 65/89/4 80/90/4 81/91/4 61/92/4 

usemtl Color_C14
v -0.554871 1.44 -0.134249
vt -21.8453 56.6929
vt -20.5431 56.6929
f 65/76/2 82/101/2 80/102/2

f 82/101/2 65/76/2 63/77/2

usemtl FrontColor
v -0.554871 1.44 0.237042
f 82/51/12 63/52/12 62/83/12 83/84/12 

usemtl Color_C14
f 83/101/9 61/76/9 62/77/9

f 61/76/9 83/101/9 81/102/9

f 41/58/9 81/102/9 83/101/9

f 41/58/9 42/59/9 81/102/9

f 81/102/9 42/59/9 55/70/9

v -0.554871 1.40692 0.237042
vt -21.8453 55.3907
f 84/103/9 55/70/9 42/59/9

v -0.521794 1.40692 0.237042
vt -20.5431 55.3907
f 85/104/9 55/70/9 84/103/9

v 0.0714481 1.40692 0.237042
vt 2.81292 55.3907
f 86/105/9 55/70/9 85/104/9

v 0.104525 1.40692 0.237042
vt 4.11518 55.3907
f 87/106/9 55/70/9 86/105/9

v 0.697768 1.40692 0.237042
vt 27.4712 55.3907
f 88/107/9 55/70/9 87/106/9

v 0.730845 1.40692 0.237042
vt 28.7734 55.3907
f 89/108/9 55/70/9 88/107/9

f 54/69/9 55/70/9 89/108/9

usemtl FrontColor
v 1.32409 1.40692 -0.134249
vn 0 1 -0
v 0.730845 1.40692 -0.134249
f 90/85/16 91/86/16 89/87/16 54/88/16 

usemtl Color_C14
v 0.697768 0.96 -0.134249
vt 27.4712 37.7953
vn 1.06882e-015 6.376e-017 1
v 0.730845 0.96 -0.134249
vt 28.7734 37.7953
vt 52.9168 55.3907
vt 52.9168 56.6929
v 0.697768 1.40692 -0.134249
f 92/109/17 93/110/17 91/108/17 90/69/17 35/111/17 36/112/17 71/70/17 72/94/17 74/93/17 94/107/17 

usemtl FrontColor
v 0.730845 0.926923 -0.134249
vt 28.7734 36.493
v 1.32409 0.926923 -0.134249
vt 52.9168 36.493
vt 52.9168 37.7953
v 1.32409 0.96 -0.134249
v 0.697768 0.926923 -0.134249
vt 27.4712 36.493
f 5/6/17 28/36/17 95/113/17 96/67/17 33/114/17 34/115/17 97/68/17 93/110/17 92/109/17 98/116/17 

vt -5.2854 36.493
vt -5.2854 18.8976
v 0.730845 0.48 0.237042
vt 9.33235 18.8976
v 0.730845 0.926923 0.237042
vt 9.33235 36.493
f 95/117/4 28/118/4 99/119/4 100/120/4 

vt -28.7734 5.2854
vn -6.08446e-016 -1 -2.331e-032
vt -28.7734 -9.33235
f 28/121/18 27/38/18 51/37/18 99/122/18 

vt -9.33235 36.493
vt -9.33235 18.8976
f 52/123/12 51/124/12 27/47/12 96/48/12 

usemtl Color_C14
vt -52.1294 18.8976
vt -52.1294 36.493
vt -52.9168 36.493
vt -52.9168 18.8976
f 27/125/11 96/126/11 33/127/11 26/128/11 

usemtl FrontColor
f 96/85/13 95/86/13 100/87/13 52/88/13 

usemtl Color_C14
f 52/67/9 53/68/9 100/113/9

v 0.697768 0.926923 0.237042
f 100/113/9 53/68/9 101/116/9

v 0.104525 0.926923 0.237042
vt 4.11518 36.493
f 101/116/9 53/68/9 102/129/9

v 0.0714481 0.926923 0.237042
vt 2.81292 36.493
f 102/129/9 53/68/9 103/130/9

v -0.521794 0.926923 0.237042
vt -20.5431 36.493
f 103/130/9 53/68/9 104/131/9

v -0.554871 0.926923 0.237042
vt -21.8453 36.493
f 104/131/9 53/68/9 105/132/9

f 105/132/9 53/68/9 44/61/9

v 0.730845 0.96 0.237042
f 106/110/9 44/61/9 53/68/9

f 43/60/9 44/61/9 106/110/9

v 0.0714481 0.96 0.237042
vt 2.81292 37.7953
f 43/60/9 106/110/9 107/133/9

v 0.697768 0.96 0.237042
f 107/133/9 106/110/9 108/109/9

f 89/108/9 108/109/9 106/110/9

f 108/109/9 89/108/9 88/107/9

usemtl FrontColor
vt -9.33235 55.3907
vt -9.33235 37.7953
f 92/49/12 94/50/12 88/134/12 108/135/12 

v 0.104525 1.40692 -0.134249
f 94/12/16 109/13/16 87/14/16 88/15/16 

usemtl Color_C14
f 74/93/2 109/106/2 94/107/2

v 0.0714481 1.40692 -0.134249
f 109/106/2 74/93/2 110/105/2

v -0.521794 1.40692 -0.134249
f 110/105/2 74/93/2 111/104/2

v -0.554871 1.40692 -0.134249
f 111/104/2 74/93/2 112/103/2

v -1.14811 1.40692 -0.134249
f 112/103/2 74/93/2 113/59/2

f 82/101/2 113/59/2 74/93/2

v -1.14811 1.44 -0.134249
f 114/58/2 113/59/2 82/101/2

f 39/55/2 113/59/2 114/58/2

v -1.14811 0.96 -0.134249
f 39/55/2 115/60/2 113/59/2

v -1.14811 0.926923 -0.134249
f 39/55/2 116/61/2 115/60/2

v -1.14811 0.48 -0.134249
f 39/55/2 117/62/2 116/61/2

f 39/55/2 2/7/2 117/62/2

v -1.14811 0.0330774 -0.134249
f 39/55/2 118/63/2 2/7/2

v -1.18119 1.55662e-015 -0.134249
vt -46.5036 6.22782e-014
f 119/136/2 118/63/2 39/55/2

v -0.554871 0.0330774 -0.134249
vt -21.8453 1.30226
f 119/136/2 120/137/2 118/63/2

v -0.554871 1.17311e-015 -0.134249
vt -21.8453 4.71791e-014
f 120/137/2 119/136/2 121/138/2

v -0.521794 0.0330774 -0.134249
vt -20.5431 1.30226
f 121/138/2 122/139/2 120/137/2

f 121/138/2 14/20/2 122/139/2

f 14/20/2 121/138/2 15/22/2

usemtl Color_D20
vt 20.5431 5.2854
vn -5.79925e-016 -1 -0
vt -2.81292 5.2854
v 0.0714481 0.0330774 0.237042
vt -2.81292 -9.33235
v -0.521794 0.0330774 0.237042
vt 20.5431 -9.33235
f 122/140/19 14/141/19 123/142/19 124/143/19 

usemtl FrontColor
v 0.0714481 0.446923 0.237042
vt -9.33235 17.5954
vt -9.33235 1.30226
f 14/45/12 7/46/12 125/144/12 123/145/12 

usemtl Color_C14
f 14/20/2 8/10/2 7/9/2

usemtl FrontColor
vn 6.08446e-016 1 8.96831e-044
v -0.521794 0.446923 0.237042
f 7/97/20 6/98/20 126/99/20 125/100/20 

f 6/16/4 122/17/4 124/18/4 126/19/4 

usemtl Color_C14
f 120/137/2 122/139/2 6/8/2

f 120/137/2 6/8/2 1/5/2

usemtl FrontColor
v -0.554871 0.0330774 0.237042
f 120/45/12 1/46/12 4/144/12 127/145/12 

usemtl Color_C14
f 127/137/9 126/8/9 4/5/9

f 126/8/9 127/137/9 124/139/9

f 46/63/9 124/139/9 127/137/9

f 46/63/9 13/21/9 124/139/9

f 46/63/9 48/30/9 13/21/9

v 0.697768 0.0330774 0.237042
f 13/21/9 48/30/9 128/23/9

v 0.730845 0.446923 0.237042
f 129/31/9 128/23/9 48/30/9

f 128/23/9 129/31/9 11/11/9

f 129/31/9 51/35/9 11/11/9

f 50/32/9 51/35/9 129/31/9

usemtl FrontColor
f 24/85/13 23/86/13 129/87/13 50/88/13 

f 23/16/4 22/17/4 48/18/4 129/19/4 

usemtl Color_D20
vn -5.70418e-016 -1 -2.18531e-032
f 22/121/21 21/38/21 49/37/21 48/122/21 

usemtl FrontColor
f 50/144/12 49/145/12 21/45/12 24/46/12 

usemtl Color_C14
vt -52.1294 1.30226
vt -52.1294 17.5954
vt -52.9168 17.5954
vt -52.9168 1.30226
f 21/146/11 24/147/11 25/148/11 20/149/11 

f 11/11/9 51/35/9 10/10/9

f 10/10/9 51/35/9 125/9/9

f 125/9/9 51/35/9 126/8/9

f 126/8/9 51/35/9 4/5/9

f 4/5/9 51/35/9 3/7/9

f 99/36/9 3/7/9 51/35/9

v -0.554871 0.48 0.237042
vt -21.8453 18.8976
f 130/150/9 3/7/9 99/36/9

f 45/62/9 3/7/9 130/150/9

usemtl FrontColor
vt 45.2013 5.2854
vn -7.60557e-016 -1 5.05815e-032
v -0.554871 0.48 -0.134249
vt 21.8453 5.2854
vt 21.8453 -9.33235
vt 45.2013 -9.33235
f 117/151/22 131/152/22 130/153/22 45/154/22 

usemtl Color_C14
f 117/62/2 2/7/2 131/150/2

f 131/150/2 2/7/2 5/6/2

v 0.0714481 0.48 -0.134249
vt 2.81292 18.8976
f 131/150/2 5/6/2 132/155/2

v 0.104525 0.48 -0.134249
vt 4.11518 18.8976
f 133/156/2 132/155/2 5/6/2

v 0.0714481 0.926923 -0.134249
f 132/155/2 133/156/2 134/130/2

v 0.104525 0.926923 -0.134249
f 134/130/2 133/156/2 135/129/2

usemtl FrontColor
v 0.104525 0.48 0.237042
f 135/117/4 133/118/4 136/119/4 102/120/4 

vt -4.11518 5.2854
vn -8.36613e-016 -1 1.21521e-016
vt -27.4712 5.2854
v 0.697768 0.48 0.237042
vt -27.4712 -9.33235
vt -4.11518 -9.33235
f 133/157/23 5/158/23 137/159/23 136/160/23 

f 5/47/12 98/48/12 101/123/12 137/124/12 

vn 6.08446e-016 1 -0
f 98/12/24 135/13/24 102/14/24 101/15/24 

usemtl Color_C14
f 92/109/2 135/129/2 98/116/2

f 135/129/2 92/109/2 134/130/2

v -0.521794 0.926923 -0.134249
f 134/130/2 92/109/2 138/131/2

v -0.554871 0.926923 -0.134249
f 138/131/2 92/109/2 139/132/2

f 139/132/2 92/109/2 116/61/2

v 0.0714481 0.96 -0.134249
f 140/133/2 116/61/2 92/109/2

v -0.554871 0.96 -0.134249
vt -21.8453 37.7953
f 141/161/2 116/61/2 140/133/2

f 115/60/2 116/61/2 141/161/2

usemtl FrontColor
vn -7.60557e-016 -1 2.43041e-016
v -0.554871 0.96 0.237042
f 115/151/25 141/152/25 142/153/25 43/154/25 

f 141/49/12 112/50/12 84/134/12 142/135/12 

usemtl Color_C14
v -0.521794 0.96 -0.134249
vt -20.5431 37.7953
f 141/161/2 143/162/2 112/103/2

f 143/162/2 141/161/2 140/133/2

usemtl FrontColor
vn -1.06478e-015 -1 2.43041e-016
v -0.521794 0.96 0.237042
f 143/140/26 140/141/26 107/142/26 144/143/26 

f 140/49/12 110/50/12 86/134/12 107/135/12 

usemtl Color_C14
v 0.104525 0.96 -0.134249
vt 4.11518 37.7953
f 140/133/2 145/163/2 110/105/2

f 145/163/2 140/133/2 92/109/2

usemtl FrontColor
v 0.104525 0.96 0.237042
f 145/157/25 92/158/25 108/159/25 146/160/25 

usemtl Color_C14
f 107/133/9 108/109/9 146/163/9

f 87/106/9 107/133/9 146/163/9

f 107/133/9 87/106/9 86/105/9

usemtl FrontColor
vt -5.2854 55.3907
vt -5.2854 37.7953
vt 9.33235 37.7953
vt 9.33235 55.3907
f 109/164/4 145/165/4 146/166/4 87/167/4 

usemtl Color_C14
f 110/105/2 145/163/2 109/106/2

usemtl FrontColor
f 110/97/16 111/98/16 85/99/16 86/100/16 

f 111/164/4 143/165/4 144/166/4 85/167/4 

usemtl Color_C14
f 112/103/2 143/162/2 111/104/2

f 85/104/9 142/161/9 144/162/9

f 142/161/9 85/104/9 84/103/9

f 142/161/9 107/133/9 144/162/9

f 43/60/9 107/133/9 142/161/9

usemtl FrontColor
f 112/1/16 113/2/16 42/3/16 84/4/16 

f 113/164/4 115/165/4 43/166/4 42/167/4 

f 139/1/10 116/2/10 44/3/10 105/4/10 

f 116/117/4 117/118/4 45/119/4 44/120/4 

f 131/47/12 139/48/12 105/123/12 130/124/12 

usemtl Color_C14
f 131/150/2 138/131/2 139/132/2

v -0.521794 0.48 -0.134249
vt -20.5431 18.8976
f 138/131/2 131/150/2 147/168/2

f 131/150/2 132/155/2 147/168/2

usemtl FrontColor
vn -6.08446e-016 -1 -0
v 0.0714481 0.48 0.237042
v -0.521794 0.48 0.237042
f 147/140/27 132/141/27 148/142/27 149/143/27 

f 132/47/12 134/48/12 103/123/12 148/124/12 

vn 9.12669e-016 1 1.79366e-043
f 134/97/28 138/98/28 104/99/28 103/100/28 

f 138/117/4 147/118/4 149/119/4 104/120/4 

usemtl Color_C14
f 104/131/9 130/150/9 149/168/9

f 130/150/9 104/131/9 105/132/9

f 130/150/9 148/155/9 149/168/9

f 130/150/9 137/6/9 148/155/9

f 130/150/9 99/36/9 137/6/9

f 100/113/9 137/6/9 99/36/9

f 137/6/9 100/113/9 101/116/9

f 136/156/9 148/155/9 137/6/9

f 148/155/9 136/156/9 103/130/9

f 103/130/9 136/156/9 102/129/9

f 123/20/9 10/10/9 125/9/9

f 10/10/9 123/20/9 13/21/9

f 124/139/9 13/21/9 123/20/9

usemtl FrontColor
f 16/45/12 9/46/12 11/144/12 128/145/12 

usemtl Color_D20
vn -5.79925e-016 -1 -8.96831e-044
f 12/157/29 16/158/29 128/159/29 13/160/29 

vn -5.79925e-016 -1 3.85684e-032
f 118/151/30 120/152/30 127/153/30 46/154/30 

usemtl FrontColor
f 2/16/4 118/17/4 46/18/4 3/19/4 

vt -9.33235 -1.43868e-014
vn 1 -3.0937e-016 -0
vt 5.2854 4.68975e-014
f 47/169/31 119/170/31 39/41/31 38/42/31 

usemtl Color_C14
f 39/55/2 114/58/2 64/56/2

usemtl FrontColor
f 64/89/4 114/90/4 41/91/4 40/92/4 

vn -1.52111e-016 -1 2.43041e-016
f 114/151/32 82/152/32 83/153/32 41/154/32 

usemtl Color_C14
f 39/55/2 64/56/2 31/57/2

f 82/101/2 74/93/2 76/96/2

usemtl FrontColor
vn 0 -1 -0
f 76/157/33 74/158/33 75/159/33 77/160/33 

usemtl Color_C14
f 81/102/9 75/93/9 77/96/9

f 81/102/9 73/94/9 75/93/9

f 81/102/9 55/70/9 73/94/9

usemtl FrontColor
f 72/121/33 71/38/33 55/37/33 73/122/33 

usemtl Color_C14
f 57/72/9 75/93/9 73/94/9

f 75/93/9 57/72/9 58/73/9

f 81/102/9 77/96/9 79/95/9

f 59/74/9 79/95/9 77/96/9

f 79/95/9 59/74/9 60/75/9

usemtl FrontColor
f 80/140/33 78/141/33 79/142/33 81/143/33 

usemtl Color_C14
f 82/101/2 78/95/2 80/102/2

f 82/101/2 76/96/2 78/95/2

usemtl FrontColor
f 91/164/4 93/165/4 106/166/4 89/167/4 

f 93/121/18 97/38/18 53/37/18 106/122/18 

f 97/49/12 90/50/12 54/134/12 53/135/12 

usemtl Color_C14
vt -52.1294 37.7953
vt -52.1294 55.3907
vt -52.9168 55.3907
vt -52.9168 37.7953
f 97/171/11 90/172/11 35/173/11 34/174/11 

