# Alias OBJ Model File
# Exported from SketchUp, (c) 2000-2012 Trimble Navigation Limited
# File units = meters

mtllib shelf6.mtl

g Mesh1 Model

usemtl _Color_003_1
v 0.625356 0.0485861 0.253112
vt 24.6203 -9.96505
vn 3.08149e-033 1 1.91374e-017
v 1.09781 0.0485861 0.253112
vt 43.2207 -9.96505
v 1.09781 0.0485861 -0.336301
vt 43.2207 13.2402
v 0.625356 0.0485861 -0.336301
vt 24.6203 13.2402
f 1/1/1 2/2/1 3/3/1 4/4/1 

usemtl Color_E10
v -1.26117 0.0485861 0.253112
vt -49.6524 1.91284
vn 0 -2.80247e-017 1
vt 43.2207 1.91284
vt 24.6203 1.91284
f 5/5/2 2/6/2 1/7/2

v -1.30976 1.12799e-017 0.253112
vt -51.5652 7.23357e-016
f 5/5/2 6/8/2 2/6/2

v -1.30976 0.78875 0.253112
vt -51.5652 31.0531
f 6/8/2 5/5/2 7/9/2

v -1.26117 0.740164 0.253112
vt -49.6524 29.1403
f 7/9/2 5/5/2 8/10/2

usemtl Color_006
vt -9.96505 29.1403
vn 1 0 1.66533e-016
vt -9.96505 1.91284
v -1.26117 0.0485861 -0.336301
vt 13.2402 1.91284
v -1.26117 0.740164 -0.336301
vt 13.2402 29.1403
f 8/11/3 5/12/3 9/13/3 10/14/3 

vt -49.6524 -9.96505
vn 0 1 -0
v -0.157082 0.0485861 0.253112
vt -6.18433 -9.96505
v -0.157082 0.0485861 -0.336301
vt -6.18433 13.2402
vt -49.6524 13.2402
f 5/15/4 11/16/4 12/17/4 9/18/4 

usemtl Color_E10
v -0.0826624 0.0485861 0.253112
vt -3.25443 1.91284
vt -6.18433 1.91284
f 5/5/2 13/19/2 11/20/2

v 0.528184 0.0485861 0.253112
vt 20.7946 1.91284
f 5/5/2 14/21/2 13/19/2

f 5/5/2 1/7/2 14/21/2

v 0.625356 0.249709 0.253112
vt 24.6203 9.83107
f 15/22/2 14/21/2 1/7/2

v 0.528184 0.464493 0.253112
vt 20.7946 18.2871
f 14/21/2 15/22/2 16/23/2

v 0.625356 0.309117 0.253112
vt 24.6203 12.17
f 16/23/2 15/22/2 17/24/2

usemtl Color_006
v 0.625356 0.249709 -0.336301
vt 13.2402 9.83107
vn 1 0 -2.9976e-015
v 0.625356 0.309117 -0.336301
vt 13.2402 12.17
vt -9.96505 12.17
vt -9.96505 9.83107
f 18/25/5 19/26/5 17/27/5 15/28/5 

vt -24.6203 9.83107
vn -3.88578e-016 2.53178e-016 -1
v 0.57677 0.78875 -0.336301
vt -22.7075 31.0531
vt -24.6203 12.17
f 18/29/6 20/30/6 19/31/6

vt -24.6203 1.91284
f 4/32/6 20/30/6 18/29/6

v 0.57677 1.12799e-017 -0.336301
vt -22.7075 -2.90804e-015
f 20/30/6 4/32/6 21/33/6

vt -43.2207 1.91284
f 3/34/6 21/33/6 4/32/6

v 1.14639 0 -0.336301
vt -45.1335 -3.35213e-015
f 3/34/6 22/35/6 21/33/6

v 1.14639 1.4783 -0.336301
vt -45.1335 58.2006
f 22/35/6 3/34/6 23/36/6

v 1.09781 0.249709 -0.336301
vt -43.2207 9.83107
f 23/36/6 3/34/6 24/37/6

usemtl Color_008
vn 1.38778e-015 1.70359e-015 1
vt 43.2207 9.83107
f 3/6/7 24/38/7 18/22/7 4/7/7 

usemtl _Color_003_1
vt 9.96505 1.91284
vn -1 8.33717e-015 1.55431e-015
v 1.09781 0.249709 0.253112
vt 9.96505 9.83107
vt -13.2402 9.83107
vt -13.2402 1.91284
f 2/39/8 25/40/8 24/41/8 3/42/8 

usemtl Color_E10
v 1.14639 1.4783 0.253112
vt 45.1335 58.2006
f 2/6/2 26/43/2 25/38/2

v 1.14639 1.12799e-017 0.253112
vt 45.1335 7.23357e-016
f 2/6/2 27/44/2 26/43/2

f 27/44/2 2/6/2 6/8/2

usemtl Color_006
v -1.30976 1.12799e-017 -0.336301
vt 51.5652 13.2402
vn -1.79964e-018 -1 5.70901e-018
vt -22.7075 13.2402
vt -45.1335 13.2402
vt -45.1335 -9.96505
vt 51.5652 -9.96505
f 28/45/9 21/46/9 22/47/9 27/48/9 6/49/9 

vt 51.5652 -5.91411e-015
vn 0 4.80219e-016 -1
vt 49.6524 1.91284
vt -22.7075 -5.91411e-015
f 28/50/10 9/51/10 21/52/10

v -1.30976 0.78875 -0.336301
vt 51.5652 31.0531
f 9/51/10 28/50/10 29/53/10

vt -13.2402 4.44089e-016
vn -1 0 5.55112e-016
vt 9.96505 4.44089e-016
vt 9.96505 31.0531
vt -13.2402 31.0531
f 28/54/11 6/55/11 7/56/11 29/57/11 

v -1.22142 0.78875 0.164777
vt -48.0874 -6.48729
v -1.22142 0.78875 -0.336301
vt -48.0874 13.2402
vt -51.5652 13.2402
vt -51.5652 -9.96505
v 0.57677 0.78875 0.253112
vt 22.7075 -9.96505
v 0.57677 0.78875 0.164777
vt 22.7075 -6.48729
f 30/58/4 31/59/4 29/60/4 7/61/4 32/62/4 33/63/4 

vn -1 0 -1.66533e-015
vt 6.48729 31.0531
v -1.22142 1.58087 0.164777
vt 6.48729 62.239
v -1.22142 1.58087 -0.336301
vt -13.2402 62.239
f 31/57/12 30/64/12 34/65/12 35/66/12 

usemtl Color_E10
vt -48.0874 31.0531
vn 0 -2.10082e-016 1
v -1.17283 0.837336 0.164777
vt -46.1746 32.966
vt -48.0874 62.239
f 30/67/13 36/68/13 34/69/13

v 0.506697 0.837336 0.164777
vt 19.9487 32.966
f 36/68/13 30/67/13 37/70/13

vt 22.7075 31.0531
f 33/71/13 37/70/13 30/67/13

v 0.57677 1.34781 0.164777
vt 22.7075 53.0634
f 37/70/13 33/71/13 38/72/13

usemtl Color_006
vn -1 8.12024e-016 -5.55112e-016
v 0.57677 1.4783 0.253112
vt 9.96505 58.2006
v 0.57677 1.4783 -0.336301
vt -13.2402 58.2006
v 0.57677 1.34781 -0.336301
vt -13.2402 53.0634
vt 6.48729 53.0634
f 32/56/14 39/73/14 40/74/14 41/75/14 38/76/14 33/64/14 

usemtl Color_E10
v 0.625356 0.812594 0.253112
vt 24.6203 31.9919
vt 22.7075 58.2006
f 32/71/2 42/77/2 39/78/2

v 0.528184 0.740164 0.253112
vt 20.7946 29.1403
f 43/79/2 42/77/2 32/71/2

v 0.625356 0.590357 0.253112
vt 24.6203 23.2424
f 43/79/2 44/80/2 42/77/2

v 0.625356 0.530949 0.253112
vt 24.6203 20.9035
f 43/79/2 45/81/2 44/80/2

f 16/23/2 45/81/2 43/79/2

f 16/23/2 17/24/2 45/81/2

usemtl _Color_003_1
vt -9.96505 20.9035
vn 1 1.68335e-015 -2.33147e-015
v 0.625356 0.530949 -0.336301
vt 13.2402 20.9035
f 45/82/15 17/27/15 19/26/15 46/83/15 

v 1.09781 0.309117 -0.336301
vn 3.82004e-016 1 -1.08468e-030
v 1.09781 0.309117 0.253112
f 47/3/16 19/4/16 17/1/16 48/2/16 

usemtl Color_008
vn 1.9984e-015 1.96565e-017 1
vt 43.2207 12.17
v 1.09781 0.530949 -0.336301
vt 43.2207 20.9035
f 46/81/17 19/24/17 47/84/17 49/85/17 

usemtl Color_006
vt -24.6203 20.9035
f 19/31/6 20/30/6 46/86/6

v 0.625356 0.590357 -0.336301
vt -24.6203 23.2424
f 46/86/6 20/30/6 50/87/6

v 0.625356 0.812594 -0.336301
vt -24.6203 31.9919
f 50/87/6 20/30/6 51/88/6

vt -22.7075 53.0634
f 51/88/6 20/30/6 41/89/6

vn -1.11022e-016 4.21511e-016 -1
v 0.506697 0.837336 -0.336301
vt -19.9487 32.966
f 20/30/18 52/90/18 41/89/18

v -1.17283 0.837336 -0.336301
vt 46.1746 32.966
f 52/90/18 20/30/18 53/91/18

vt 48.0874 31.0531
f 31/92/18 53/91/18 20/30/18

vt 48.0874 62.239
f 53/91/18 31/92/18 35/93/18

v -1.17283 1.20869 -0.336301
vt 46.1746 47.5863
f 53/91/18 35/93/18 54/94/18

v -1.17283 1.26531 -0.336301
vt 46.1746 49.8154
f 54/94/18 35/93/18 55/95/18

v -1.17283 1.53228 -0.336301
vt 46.1746 60.3262
f 55/95/18 35/93/18 56/96/18

v -0.259732 1.53228 -0.336301
vt 10.2257 60.3262
f 56/96/18 35/93/18 57/97/18

v -0.211146 1.58087 -0.336301
vt 8.31284 62.239
f 58/98/18 57/97/18 35/93/18

v -0.211146 1.34781 -0.336301
vt 8.31284 53.0634
f 59/99/18 57/97/18 58/98/18

v -0.259732 1.26531 -0.336301
vt 10.2257 49.8154
f 59/99/18 60/100/18 57/97/18

v -0.16256 1.29922 -0.336301
vt 6.4 51.1506
f 61/101/18 60/100/18 59/99/18

v -0.259732 1.20869 -0.336301
vt 10.2257 47.5863
f 61/101/18 62/102/18 60/100/18

v -0.16256 1.06828 -0.336301
vt 6.4 42.0583
f 63/103/18 62/102/18 61/101/18

v -0.16256 1.00379 -0.336301
vt 6.4 39.5195
f 64/104/18 62/102/18 63/103/18

v -0.16256 0.837336 -0.336301
vt 6.4 32.966
f 65/105/18 62/102/18 64/104/18

v -0.259732 0.837336 -0.336301
vt 10.2257 32.966
f 62/102/18 65/105/18 66/106/18

f 52/90/18 66/106/18 65/105/18

v -0.58114 0.837336 -0.336301
vt 22.8795 32.966
f 52/90/18 67/107/18 66/106/18

v -0.63986 0.837336 -0.336301
vt 25.1913 32.966
f 52/90/18 68/108/18 67/107/18

f 52/90/18 53/91/18 68/108/18

vn -5.55112e-016 0 -1
v -0.63986 1.20869 -0.336301
vt 25.1913 47.5863
f 54/94/19 69/109/19 68/108/19 53/91/19 

vt -46.1746 13.2402
v -1.17283 1.20869 0.0745483
vt -46.1746 -2.93497
v -0.63986 1.20869 0.0745483
vt -25.1913 -2.93497
vt -25.1913 13.2402
f 54/110/4 70/111/4 71/112/4 69/113/4 

vt -2.93497 47.5863
vt 13.2402 47.5863
vt 13.2402 49.8154
v -1.17283 1.26531 0.0745483
vt -2.93497 49.8154
f 70/114/3 54/115/3 55/116/3 72/117/3 

usemtl _Color_003_1
vt 13.2402 60.3262
vn 1 -7.82973e-017 1.77636e-015
v -1.17283 1.53228 0.164777
vt -6.48729 60.3262
vt -6.48729 32.966
vt 13.2402 32.966
f 56/118/20 73/119/20 36/120/20 53/121/20 54/115/20 70/114/20 72/117/20 55/116/20 

v -0.259732 1.53228 0.164777
vt 10.2257 -6.48729
vn 0 -1 -0
vt 46.1746 -6.48729
vt 46.1746 13.2402
vt 10.2257 13.2402
f 74/122/21 73/123/21 56/124/21 57/125/21 

usemtl Color_E10
vt -10.2257 60.3262
v -0.211146 1.58087 0.164777
vt -8.31284 62.239
vt -46.1746 60.3262
f 74/126/13 75/127/13 73/128/13

v -0.211146 1.34781 0.164777
vt -8.31284 53.0634
f 74/126/13 76/129/13 75/127/13

v -0.259732 0.837336 0.164777
vt -10.2257 32.966
f 77/130/13 76/129/13 74/126/13

v -0.16256 1.29922 0.164777
vt -6.4 51.1506
f 77/130/13 78/131/13 76/129/13

v -0.16256 0.837336 0.164777
vt -6.4 32.966
f 78/131/13 77/130/13 79/132/13

f 36/68/13 79/132/13 77/130/13

f 36/68/13 37/70/13 79/132/13

usemtl _Color_003_1
vt -6.4 -6.48729
vt 19.9487 -6.48729
vt 19.9487 13.2402
vt -6.4 13.2402
f 79/133/4 37/134/4 52/135/4 65/136/4 

vt 6.48729 32.966
vn -1 2.35245e-017 -0
v 0.506697 1.29922 0.164777
vt 6.48729 51.1506
v 0.506697 1.29922 -0.336301
vt -13.2402 51.1506
v 0.506697 1.06828 -0.336301
vt -13.2402 42.0583
v 0.506697 1.06828 0.0745483
vt 2.93497 42.0583
v 0.506697 1.00379 0.0745483
vt 2.93497 39.5195
v 0.506697 1.00379 -0.336301
vt -13.2402 39.5195
vt -13.2402 32.966
f 37/137/22 80/138/22 81/139/22 82/140/22 83/141/22 84/142/22 85/143/22 52/144/22 

usemtl Color_E10
vt 19.9487 51.1506
f 37/70/13 38/72/13 80/145/13

f 80/145/13 38/72/13 78/131/13

f 76/129/13 78/131/13 38/72/13

usemtl Color_006
vt 22.7075 13.2402
vt -8.31284 13.2402
vt -8.31284 -6.48729
f 41/146/4 59/147/4 76/148/4 38/63/4 

vt -19.9487 51.1506
f 41/89/18 81/149/18 59/99/18

vt -19.9487 42.0583
f 41/89/18 82/150/18 81/149/18

vt -19.9487 39.5195
f 41/89/18 85/151/18 82/150/18

f 41/89/18 52/90/18 85/151/18

vn 1.66533e-016 0 -1
f 65/105/23 64/104/23 85/151/23 52/90/23 

usemtl _Color_003_1
vt -6.48729 51.1506
vn 1 -1.30692e-017 -3.88578e-016
vt 13.2402 39.5195
v -0.16256 1.00379 0.0745483
vt -2.93497 39.5195
v -0.16256 1.06828 0.0745483
vt -2.93497 42.0583
vt 13.2402 42.0583
vt 13.2402 51.1506
f 78/152/24 79/120/24 65/121/24 64/153/24 86/154/24 87/155/24 63/156/24 61/157/24 

usemtl Color_006
vt -6.4 -2.93497
vt 19.9487 -2.93497
f 86/158/4 84/159/4 85/135/4 64/136/4 

vn -8.88178e-016 -1.69728e-029 -1
f 87/103/25 83/150/25 84/151/25 86/104/25 

vt 6.4 13.2402
vt -19.9487 13.2402
vt -19.9487 -2.93497
vt 6.4 -2.93497
f 63/160/21 82/161/21 83/162/21 87/163/21 

f 82/150/18 85/151/18 63/103/18

f 64/104/18 63/103/18 85/151/18

f 61/101/23 81/149/23 82/150/23 63/103/23 

f 61/101/18 59/99/18 81/149/18

usemtl _Color_003_1
vt -19.9487 -6.48729
vt 6.4 -6.48729
f 80/164/21 78/165/21 61/160/21 81/161/21 

usemtl Color_006
vt -6.48729 62.239
vn 1 0 -5.55112e-016
vt -6.48729 53.0634
vt 13.2402 53.0634
vt 13.2402 62.239
f 75/166/26 76/167/26 59/168/26 58/169/26 

f 34/58/4 75/148/4 58/147/4 35/59/4 

usemtl Color_E10
f 34/69/13 73/128/13 75/127/13

f 34/69/13 36/68/13 73/128/13

usemtl _Color_003_1
v -0.58114 0.837336 0.0745483
vt -22.8795 -2.93497
v -0.63986 0.837336 0.0745483
vt -46.1746 -6.48729
vt -10.2257 -6.48729
vt -10.2257 13.2402
vt -22.8795 13.2402
f 88/170/4 89/112/4 68/113/4 53/110/4 36/171/4 77/172/4 66/173/4 67/174/4 

usemtl Color_006
f 88/170/4 67/174/4 68/113/4 89/112/4 

v -0.58114 1.20869 -0.336301
vt -13.2402 47.5863
vn -1 0 -0
vt 2.93497 32.966
v -0.58114 1.20869 0.0745483
vt 2.93497 47.5863
f 90/175/27 67/144/27 88/176/27 91/177/27 

vn 6.66134e-016 0 -1
vt 22.8795 47.5863
f 66/106/28 67/107/28 90/178/28 62/102/28 

vn -3.88578e-016 4.02136e-016 -1
f 54/94/29 60/100/29 62/102/29 90/178/29 67/107/29 68/108/29 69/109/29 

vn -1.11022e-016 4.36955e-016 -1
f 60/100/30 54/94/30 55/95/30

vn -1.11022e-016 0 -1
f 57/97/31 60/100/31 55/95/31 56/96/31 

usemtl _Color_003_1
v -0.259732 1.26531 0.0745483
vt 2.93497 49.8154
vn -1 -1.4944e-017 3.88578e-016
v -0.259732 1.20869 0.0745483
vt 6.48729 60.3262
vt -13.2402 60.3262
vt -13.2402 49.8154
f 92/179/32 93/177/32 62/175/32 66/144/32 77/137/32 74/180/32 57/181/32 60/182/32 

usemtl Color_006
f 60/182/27 62/175/27 93/177/27 92/179/27 

vt -10.2257 -2.93497
f 90/174/4 91/170/4 93/183/4 62/173/4 

vn 2.77556e-016 1.72116e-015 -1
f 70/94/33 72/95/33 92/100/33 93/102/33 91/178/33 71/109/33 

vt 10.2257 -2.93497
vt 46.1746 -2.93497
f 55/124/21 60/125/21 92/184/21 72/185/21 

vn 1.38778e-015 0 -1
f 88/107/34 89/108/34 71/109/34 91/178/34 

vn 1 0 -0
vt -2.93497 32.966
f 68/121/35 69/115/35 71/114/35 89/186/35 

f 20/30/10 29/53/10 31/92/10

v 0.528184 0.740164 -0.336301
vt -20.7946 29.1403
f 20/30/10 94/187/10 29/53/10

v 0.528184 0.499497 -0.336301
vt -20.7946 19.6652
f 20/30/10 95/188/10 94/187/10

f 21/52/10 95/188/10 20/30/10

vt 6.18433 1.91284
f 95/188/10 21/52/10 12/189/10

f 12/189/10 21/52/10 9/51/10

vn 0 0 -1
vt 49.6524 29.1403
v -0.157082 0.740164 -0.336301
vt 6.18433 29.1403
f 12/189/36 9/51/36 10/190/36 96/191/36 

f 9/51/10 29/53/10 10/190/10

f 10/190/10 29/53/10 96/191/10

v -0.0826624 0.740164 -0.336301
vt 3.25443 29.1403
f 96/191/10 29/53/10 97/192/10

f 97/192/10 29/53/10 94/187/10

v -0.0826624 0.499497 -0.336301
vt 3.25443 19.6652
vn 2.77556e-016 0 -1
f 98/193/37 97/192/37 94/187/37 95/188/37 

f 98/193/10 96/191/10 97/192/10

f 96/191/10 98/193/10 12/189/10

f 95/188/10 12/189/10 98/193/10

usemtl _Color_003_1
vt -20.7946 -12.3155
vn 1.04083e-017 0.998928 -0.0462989
vt 3.25443 -12.3155
v -0.0826624 0.526682 0.25023
vt 3.25443 10.801
v 0.528184 0.526682 0.25023
vt -20.7946 10.801
f 95/194/38 98/195/38 99/196/38 100/197/38 

v -0.0826624 0.0485861 -0.336301
vn 1 1.6891e-016 -0
v -0.0826624 0.24713 -0.334829
vt 13.1822 9.72953
v -0.0826624 0.216705 -0.333419
vt 13.1267 8.53169
v -0.0826624 0.243828 0.251769
vt -9.91216 9.59951
v -0.0826624 0.274253 0.250359
vt -9.85664 10.7973
v -0.0826624 0.306016 0.248886
vt -9.79868 12.0479
v -0.0826624 0.278973 -0.334593
vt 13.1729 10.9832
v -0.0826624 0.437308 -0.333419
vt 13.1267 17.2169
v -0.0826624 0.464493 0.253112
vt -9.96505 18.2871
vt -9.85157 20.7355
vt 13.2402 19.6652
v -0.0826624 0.740164 0.253112
v -0.0826624 0.464493 0.253112
f 101/13/39 102/198/39 103/199/39 104/200/39 105/201/39 106/202/39 107/203/39 108/204/39 109/205/39 99/206/39 98/207/39 97/14/39 110/11/39 111/205/39 13/12/39 

usemtl Color_008
v 0.528184 0.0485861 -0.336301
vt 20.7946 1.81461
vn -1.11022e-016 -0.00741472 0.999973
v 0.528184 0.24713 -0.334829
vt 20.7946 9.63152
v 0.528184 0.278973 -0.334593
vt 20.7946 10.8852
v 0.528184 0.437308 -0.333419
vt 20.7946 17.1191
vt -3.25443 17.1191
vt -3.25443 10.8852
vt -3.25443 9.63152
vt -3.25443 1.81461
f 112/208/40 113/209/40 114/210/40 115/211/40 108/212/40 107/213/40 102/214/40 101/215/40 

usemtl _Color_003_1
vt -13.1267 17.2169
vn -1 5.8922e-017 -0
vt -13.1729 10.9832
v 0.528184 0.306016 0.248886
vt 9.79868 12.0479
v 0.528184 0.274253 0.250359
vt 9.85664 10.7973
v 0.528184 0.243828 0.251769
vt 9.91216 9.59951
v 0.528184 0.216705 -0.333419
vt -13.1267 8.53169
vt -13.1822 9.72953
vt 9.96505 18.2871
vt 9.96505 29.1403
vt -13.2402 29.1403
vt -13.2402 19.6652
vt 9.85157 20.7355
v 0.528184 0.464493 0.253112
f 115/216/41 114/217/41 116/218/41 117/219/41 118/220/41 119/221/41 113/222/41 112/42/41 14/39/41 16/223/41 43/224/41 94/225/41 95/226/41 100/227/41 120/223/41 

v 0.528184 0.278893 -0.336301
vt -20.7946 -12.7176
vn -9.36751e-017 0.998928 -0.0462989
v -0.0826624 0.278893 -0.336301
vt 3.25443 -12.7176
vt 3.25443 -12.6503
vt 3.25443 10.346
vt -20.7946 10.346
vt -20.7946 -12.6503
f 121/228/42 122/229/42 107/230/42 106/231/42 116/232/42 114/233/42 

usemtl Color_006
vt -20.7946 10.3294
vn 2.77556e-016 -0.0462989 -0.998928
vt -20.7946 9.1303
vt 3.25443 9.1303
vt 3.25443 10.3294
vt 3.25443 11.5813
vt -20.7946 11.5813
f 113/234/43 119/235/43 103/236/43 102/237/43 122/238/43 121/239/43 

vn -1 4.89109e-015 -2.77556e-016
f 113/222/44 119/221/44 118/220/44 117/219/44 

usemtl _Color_003_1
vt -3.25443 -12.7176
vn -1.04083e-017 -0.998928 0.0462989
vt 20.7946 -12.7176
vt 20.7946 10.346
vt -3.25443 10.346
f 103/240/45 119/241/45 118/242/45 104/243/45 

vt 20.7946 9.1303
vn -2.77556e-016 0.0462989 0.998928
vt 20.7946 10.3294
vt 20.7946 11.5813
vt -3.25443 11.5813
vt -3.25443 10.3294
vt -3.25443 9.1303
f 118/244/46 117/245/46 116/246/46 106/247/46 105/248/46 104/249/46 

usemtl Color_006
vn -1 -1.68777e-015 -1.66533e-016
f 113/222/47 117/219/47 116/218/47 114/217/47 

vt 13.2402 10.9801
vn 1 1.78246e-015 2.14273e-014
f 121/250/48 114/203/48 113/198/48

vn 1 1.68777e-015 -3.88578e-016
f 102/198/49 107/203/49 106/202/49 105/201/49 

vt -13.2402 10.9801
vn -1 -1.82734e-015 -1.53211e-014
f 122/251/50 102/222/50 107/217/50

vn 1 6.11386e-016 -3.88578e-016
f 103/199/51 102/198/51 105/201/51 104/200/51 

usemtl _Color_003_1
vt -3.25443 13.2402
vt -3.25443 -9.96505
vt 20.7946 -9.96505
vt 20.7946 13.2402
f 101/252/4 13/253/4 14/254/4 112/255/4 

vt -20.7946 -9.96505
vt 3.25443 -9.96505
vt 3.25443 13.2402
vt -20.7946 13.2402
f 43/256/21 110/257/21 97/258/21 94/259/21 

usemtl Color_E10
vt -3.25443 29.1403
f 43/79/2 32/71/2 110/260/2

v -0.157082 0.740164 0.253112
vt -6.18433 29.1403
f 110/260/2 32/71/2 123/261/2

f 123/261/2 32/71/2 8/10/2

f 7/9/2 8/10/2 32/71/2

usemtl Color_006
vt 6.18433 13.2402
vt 6.18433 -9.96505
vt 49.6524 -9.96505
vt 49.6524 13.2402
f 96/262/21 123/263/21 8/264/21 10/265/21 

vn -1 0 -1.66533e-016
f 96/225/52 12/42/52 11/39/52 123/224/52 

usemtl Color_E10
vt -3.25443 18.2871
f 11/20/2 109/266/2 123/261/2

f 109/266/2 11/20/2 13/19/2

f 123/261/2 109/266/2 110/260/2

usemtl _Color_003_1
vt 20.7946 17.8061
vn 0 0.0462989 0.998928
vt 20.7946 20.2571
vt -3.25443 20.2571
vt -3.25443 17.8061
f 16/267/53 100/268/53 99/269/53 109/270/53 

vt -3.25443 -12.3155
vt 20.7946 -12.3155
vt 20.7946 10.801
vt -3.25443 10.801
f 108/271/45 115/272/45 16/273/45 109/274/45 

usemtl Color_006
v 0.625356 0.872002 -0.336301
vt -24.6203 34.3308
f 51/88/6 41/89/6 124/275/6

v 0.625356 1.11321 -0.336301
vt -24.6203 43.8273
f 124/275/6 41/89/6 125/276/6

v 0.625356 1.17262 -0.336301
vt -24.6203 46.1662
f 125/276/6 41/89/6 126/277/6

v 0.625356 1.42971 -0.336301
vt -24.6203 56.2878
f 126/277/6 41/89/6 127/278/6

vt -22.7075 58.2006
f 127/278/6 41/89/6 40/279/6

v 1.09781 1.42971 -0.336301
vt -43.2207 56.2878
f 127/278/6 40/279/6 128/280/6

f 23/36/6 128/280/6 40/279/6

v 1.09781 1.17262 -0.336301
vt -43.2207 46.1662
f 23/36/6 129/281/6 128/280/6

v 1.09781 1.11321 -0.336301
vt -43.2207 43.8273
f 23/36/6 130/282/6 129/281/6

v 1.09781 0.872002 -0.336301
vt -43.2207 34.3308
f 23/36/6 131/283/6 130/282/6

v 1.09781 0.812594 -0.336301
vt -43.2207 31.9919
f 23/36/6 132/284/6 131/283/6

v 1.09781 0.590357 -0.336301
vt -43.2207 23.2424
f 23/36/6 133/285/6 132/284/6

vt -43.2207 20.9035
f 23/36/6 49/286/6 133/285/6

vt -43.2207 12.17
f 23/36/6 47/287/6 49/286/6

f 23/36/6 24/37/6 47/287/6

usemtl Color_C12
vn 1.38778e-015 0 1
f 47/84/54 18/22/54 24/38/54

vn 1.27676e-015 -4.43546e-016 1
f 18/22/55 47/84/55 19/24/55

usemtl _Color_003_1
vt -24.6203 13.2402
vn -3.82004e-016 -1 1.08468e-030
vt -43.2207 13.2402
vt -43.2207 -9.96505
vt -24.6203 -9.96505
f 18/288/56 24/289/56 25/290/56 15/291/56 

usemtl Color_006
vt -13.2402 12.17
vn -1 0 2.9976e-015
vt 9.96505 12.17
f 47/292/57 24/41/57 25/40/57 48/293/57 

usemtl Color_E10
f 25/38/2 26/43/2 48/84/2

v 1.09781 0.530949 0.253112
f 48/84/2 26/43/2 134/85/2

v 1.09781 0.590357 0.253112
vt 43.2207 23.2424
f 134/85/2 26/43/2 135/294/2

v 1.09781 0.812594 0.253112
vt 43.2207 31.9919
f 135/294/2 26/43/2 136/295/2

v 1.09781 0.872002 0.253112
vt 43.2207 34.3308
f 136/295/2 26/43/2 137/296/2

v 1.09781 1.11321 0.253112
vt 43.2207 43.8273
f 137/296/2 26/43/2 138/297/2

v 1.09781 1.17262 0.253112
vt 43.2207 46.1662
f 138/297/2 26/43/2 139/298/2

v 1.09781 1.42971 0.253112
vt 43.2207 56.2878
f 139/298/2 26/43/2 140/299/2

v 0.625356 1.42971 0.253112
vt 24.6203 56.2878
f 140/299/2 26/43/2 141/300/2

f 39/78/2 141/300/2 26/43/2

v 0.625356 1.17262 0.253112
vt 24.6203 46.1662
f 39/78/2 142/301/2 141/300/2

v 0.625356 1.11321 0.253112
vt 24.6203 43.8273
f 39/78/2 143/302/2 142/301/2

v 0.625356 0.872002 0.253112
vt 24.6203 34.3308
f 39/78/2 144/303/2 143/302/2

f 39/78/2 42/77/2 144/303/2

usemtl Color_006
vt -9.96505 34.3308
vn 1 0 -1.27676e-015
vt -9.96505 31.9919
vt 13.2402 31.9919
vt 13.2402 34.3308
f 144/304/58 42/305/58 51/306/58 124/307/58 

usemtl _Color_003_1
vn 1.27676e-015 0 1
f 144/303/59 42/77/59 136/295/59 137/296/59 

f 51/288/21 132/289/21 136/290/21 42/291/21 

usemtl Color_008
vn 1.38778e-015 -4.72439e-017 1
f 51/77/60 50/80/60 133/294/60 132/295/60 

usemtl _Color_003_1
vn 1 3.3286e-016 -1.55431e-015
vt -9.96505 23.2424
vt 13.2402 23.2424
f 42/305/61 44/308/61 50/309/61 51/306/61 

vn 3.82004e-016 1 1.531e-016
f 133/3/62 50/4/62 44/1/62 135/2/62 

usemtl Color_C12
vn 1.27676e-015 4.43546e-016 1
f 46/81/63 133/294/63 50/80/63

f 133/294/54 46/81/54 49/85/54

usemtl _Color_003_1
vn -3.82004e-016 -1 -1.531e-016
f 46/288/64 49/289/64 134/290/64 45/291/64 

usemtl Color_006
vt -13.2402 23.2424
vn -1 6.80373e-017 1.16573e-015
vt -13.2402 20.9035
vt 9.96505 20.9035
vt 9.96505 23.2424
f 133/310/65 49/311/65 134/312/65 135/313/65 

usemtl _Color_003_1
vn -1 -2.3646e-015 1.94289e-015
f 49/311/66 47/292/66 48/293/66 134/312/66 

vn 2.55351e-015 1.02162e-017 1
f 44/80/67 45/81/67 134/85/67 135/294/67 

usemtl Color_006
vn 1 -6.80373e-017 -1.55431e-015
f 46/83/68 50/309/68 44/308/68 45/82/68 

usemtl _Color_003_1
vt -13.2402 31.9919
vn -1 -2.41822e-015 1.16573e-015
vt 9.96505 31.9919
f 132/314/69 133/310/69 135/313/69 136/315/69 

usemtl Color_006
vn -1 0 1.16573e-015
vt 9.96505 34.3308
vt -13.2402 34.3308
f 136/315/70 137/316/70 131/317/70 132/314/70 

usemtl _Color_003_1
vt -13.2402 43.8273
vn -1 3.27048e-015 1.55431e-015
vt 9.96505 43.8273
f 130/318/71 131/317/71 137/316/71 138/319/71 

usemtl Color_008
vn 1.77636e-015 5.7483e-016 1
f 125/302/72 124/303/72 131/296/72 130/297/72 

usemtl _Color_003_1
vt -9.96505 43.8273
vn 1 -2.23506e-015 -1.77636e-015
vt 13.2402 43.8273
f 143/320/73 144/304/73 124/307/73 125/321/73 

f 131/3/4 124/4/4 144/1/4 137/2/4 

usemtl Color_C12
vn 1.77636e-015 0 1
f 51/77/74 131/296/74 124/303/74

vn 1.77636e-015 -4.43546e-016 1
f 131/296/75 51/77/75 132/295/75

usemtl Color_006
vt -9.96505 46.1662
vn 1 -1.36075e-016 -1.9984e-015
vt 13.2402 46.1662
f 142/322/76 143/320/76 125/321/76 126/323/76 

usemtl _Color_003_1
vn 1.77636e-015 1.99485e-016 1
f 142/301/77 143/302/77 138/297/77 139/298/77 

vn -3.82004e-016 -1 -3.06199e-016
f 125/288/78 130/289/78 138/290/78 143/291/78 

usemtl Color_C12
vn 1.16573e-015 -4.43546e-016 1
f 129/298/79 125/302/79 130/297/79

vn 1.16573e-015 0 1
f 125/302/80 129/298/80 126/301/80

usemtl Color_008
vn 8.88178e-016 -1.34163e-015 1
f 127/300/81 126/301/81 129/298/81 128/299/81 

usemtl _Color_003_1
vt -9.96505 56.2878
vn 1 3.11301e-015 -8.88178e-016
vt 13.2402 56.2878
f 141/324/82 142/322/82 126/323/82 127/325/82 

vn 3.82004e-016 1 3.06199e-016
f 129/3/83 126/4/83 142/1/83 139/2/83 

vt -13.2402 56.2878
vn -1 -5.55948e-015 1.27676e-015
vt -13.2402 46.1662
vt 9.96505 46.1662
vt 9.96505 56.2878
f 128/326/84 129/327/84 139/328/84 140/329/84 

usemtl Color_006
vn -1 -5.31944e-017 1.9984e-015
f 129/327/85 130/318/85 138/319/85 139/328/85 

usemtl _Color_003_1
f 140/290/21 141/291/21 127/288/21 128/289/21 

usemtl Color_006
vn 0 1 -1.96574e-017
vt 45.1335 -9.96505
vt 45.1335 13.2402
f 39/62/86 26/330/86 23/331/86 40/146/86 

vt -9.96505 58.2006
vn 1 5.93617e-017 -0
vt -9.96505 -2.23511e-015
vt 13.2402 -2.6792e-015
vt 13.2402 58.2006
f 26/332/87 27/333/87 22/334/87 23/335/87 

usemtl _Color_003_1
vn 2.16493e-015 1.02162e-017 1
f 17/24/88 15/22/88 25/38/88 48/84/88 

vn 1 -4.17363e-015 -1.55431e-015
f 4/13/89 18/25/89 15/28/89 1/12/89 

