# Alias OBJ Model File
# Exported from SketchUp, (c) 2000-2012 Trimble Navigation Limited
# File units = meters

mtllib shelf9.mtl

g Mesh1 Model

usemtl M_204_black
v -0.184812 2.02 -0.542958
vt -2.13763 7.95276
vn -1 9.39989e-017 -9.71445e-017
v -0.184812 0.1 -0.542958
vt -2.13763 0.393701
v -0.184812 0.1 0.217042
vt 0.854495 0.393701
v -0.184812 2.02 0.217042
vt 0.854495 7.95276
f 1/1/1 2/2/1 3/3/1 4/4/1 

v -0.184812 2.02 -0.562958
vt -2.21637 7.95276
v -0.184812 0.1 -0.562958
vt -2.21637 0.393701
f 2/2/1 1/1/1 5/5/1 6/6/1 

vt -0.727607 2.13763
vn 0 1 -0
v 0.0951878 2.02 -0.542958
vt 0.374755 2.13763
v 0.0951878 2.02 -0.562958
vt 0.374755 2.21637
vt -0.727607 2.21637
f 1/7/2 7/8/2 8/9/2 5/10/2 

vt -0.727607 -0.854495
v 0.0951878 2.02 0.217042
vt 0.374755 -0.854495
f 7/8/2 1/7/2 4/11/2 9/12/2 

v -0.184812 2.02 0.237042
vt -0.727607 -0.933235
v 0.0951878 2.02 0.237042
vt 0.374755 -0.933235
f 9/12/2 4/11/2 10/13/2 11/14/2 

v -0.184812 0.1 0.237042
vt 0.933235 0.393701
vt 0.933235 7.95276
f 4/4/1 3/3/1 12/15/1 10/16/1 

vt 0.727607 -0.933235
vn 1.77351e-014 -1 1.72287e-030
vt 0.727607 -0.854495
v -0.174636 0.1 0.217042
vt 0.687543 -0.854495
v -0.174636 0.1 0.237042
vt 0.687543 -0.933235
f 12/17/3 3/18/3 13/19/3 14/20/3 

vt 0.727607 2.13763
vn -3.58673e-016 -1 -1.48419e-017
v -0.174636 0.1 -0.542958
vt 0.687543 2.13763
v 0.0551878 0.1 -0.542958
vt -0.217275 2.13763
v 0.0551878 0.1 0.217042
vt -0.217275 -0.854495
f 2/21/4 15/22/4 16/23/4 17/24/4 13/19/4 3/18/4 

vt 0.727607 2.21637
v -0.174636 0.1 -0.562958
vt 0.687543 2.21637
f 2/21/3 6/25/3 18/26/3 15/22/3 

v 0.0951878 1.3848e-017 -0.562958
vt -0.374755 9.48699e-017
vn -1.80275e-016 -1.82055e-017 -1
v -0.154636 1.3848e-017 -0.562958
vt 0.608803 9.48699e-017
v -0.154636 0.08 -0.562958
vt 0.608803 0.314961
v -0.155317 0.0851764 -0.562958
vt 0.611486 0.33534
v -0.157315 0.09 -0.562958
vt 0.619352 0.354331
v -0.160494 0.0941421 -0.562958
vt 0.631865 0.370638
v -0.164636 0.0973205 -0.562958
vt 0.648173 0.383152
v -0.169459 0.0993185 -0.562958
vt 0.667163 0.391018
vt 0.687543 0.393701
vt 0.727607 0.393701
vt 0.727607 7.95276
vt -0.374755 7.95276
f 19/27/5 20/28/5 21/29/5 22/30/5 23/31/5 24/32/5 25/33/5 26/34/5 18/35/5 6/36/5 5/37/5 8/38/5 

v 0.0951878 1.3848e-017 -0.542958
vt -0.374755 2.13763
vn 0 -1 -0
v 0.0751878 1.3848e-017 -0.542958
vt -0.296015 2.13763
v 0.0551878 1.3848e-017 -0.542958
v -0.154636 1.3848e-017 -0.542958
vt 0.608803 2.13763
vt 0.608803 2.21637
vt -0.374755 2.21637
f 27/39/6 28/40/6 29/23/6 30/41/6 20/42/6 19/43/6 

vt 0.374755 5.45199e-017
vn -9.71445e-017 0 1
v 0.0951878 0.1 -0.542958
vt 0.374755 0.393701
v 0.0751878 0.1 -0.542958
vt 0.296015 0.393701
vt 0.296015 5.45199e-017
f 27/44/7 31/45/7 32/46/7 28/47/7 

vt 2.13763 0.393701
vn 1 0 9.71445e-017
vt 2.13763 5.45199e-017
vt 2.21637 5.45199e-017
vt 2.21637 7.95276
vt 2.13763 7.95276
v 0.0951878 2 -0.542958
vt 2.13763 7.87402
v 0.0951878 1.70667 -0.542958
vt 2.13763 6.71916
v 0.0951878 1.68667 -0.542958
vt 2.13763 6.64042
v 0.0951878 1.39333 -0.542958
vt 2.13763 5.48556
v 0.0951878 1.37333 -0.542958
vt 2.13763 5.40682
v 0.0951878 1.07 -0.542958
vt 2.13763 4.2126
v 0.0951878 1.05 -0.542958
vt 2.13763 4.13386
v 0.0951878 0.756667 -0.542958
vt 2.13763 2.979
v 0.0951878 0.736667 -0.542958
vt 2.13763 2.90026
v 0.0951878 0.443333 -0.542958
vt 2.13763 1.74541
v 0.0951878 0.423333 -0.542958
vt 2.13763 1.66667
v 0.0951878 0.12 -0.542958
vt 2.13763 0.472441
f 31/48/8 27/49/8 19/50/8 8/51/8 7/52/8 33/53/8 34/54/8 35/55/8 36/56/8 37/57/8 38/58/8 39/59/8 40/60/8 41/61/8 42/62/8 43/63/8 44/64/8 

vt -0.854495 7.95276
v 0.0951878 2 0.217042
vt -0.854495 7.87402
f 33/53/8 7/52/8 9/65/8 45/66/8 

v 0.0951878 0 0.217042
vt -0.854495 0
v 0.0951878 0.1 0.217042
vt -0.854495 0.393701
v 0.0951878 0.12 0.217042
vt -0.854495 0.472441
v 0.0951878 0.423333 0.217042
vt -0.854495 1.66667
v 0.0951878 0.443333 0.217042
vt -0.854495 1.74541
v 0.0951878 0.736667 0.217042
vt -0.854495 2.90026
v 0.0951878 0.756667 0.217042
vt -0.854495 2.979
v 0.0951878 1.05 0.217042
vt -0.854495 4.13386
v 0.0951878 1.07 0.217042
vt -0.854495 4.2126
v 0.0951878 1.37333 0.217042
vt -0.854495 5.40682
v 0.0951878 1.39333 0.217042
vt -0.854495 5.48556
v 0.0951878 1.68667 0.217042
vt -0.854495 6.64042
v 0.0951878 1.70667 0.217042
vt -0.854495 6.71916
vt -0.933235 7.95276
v 0.0951878 0 0.237042
vt -0.933235 0
f 46/67/8 47/68/8 48/69/8 49/70/8 50/71/8 51/72/8 52/73/8 53/74/8 54/75/8 55/76/8 56/77/8 57/78/8 58/79/8 45/66/8 9/65/8 11/80/8 59/81/8 

vt -0.374755 0.393701
vn 9.71445e-017 0 -1
vt -0.374755 0
v 0.0751878 0 0.217042
vt -0.296015 0
v 0.0751878 0.1 0.217042
vt -0.296015 0.393701
f 47/82/9 46/83/9 60/84/9 61/85/9 

vt -0.296015 -0.854495
vt -0.374755 -0.854495
vt -0.374755 -0.933235
v -0.154636 0 0.237042
vt 0.608803 -0.933235
v -0.154636 0 0.217042
vt 0.608803 -0.854495
v 0.0551878 0 0.217042
f 60/86/6 46/87/6 59/88/6 62/89/6 63/90/6 64/24/6 

vt -0.608803 1.699e-017
vn -3.74564e-016 -1.82055e-017 1
vt 0.374755 1.699e-017
vt 0.374755 7.95276
vt -0.727607 7.95276
vt -0.727607 0.393701
vt -0.687543 0.393701
v -0.169459 0.0993185 0.237042
vt -0.667163 0.391018
v -0.164636 0.0973205 0.237042
vt -0.648173 0.383152
v -0.160494 0.0941421 0.237042
vt -0.631865 0.370638
v -0.157315 0.09 0.237042
vt -0.619352 0.354331
v -0.155317 0.0851764 0.237042
vt -0.611486 0.33534
v -0.154636 0.08 0.237042
vt -0.608803 0.314961
f 62/91/10 59/92/10 11/93/10 10/94/10 12/95/10 14/96/10 65/97/10 66/98/10 67/99/10 68/100/10 69/101/10 70/102/10 

vt 0.854495 0.733049
vn -0.130526 -0.991445 -1.26799e-017
v -0.169459 0.0993185 0.217042
vt 0.854495 0.712494
vn -0.258819 -0.965926 -2.51429e-017
vt 0.933235 0.712494
vt 0.933235 0.733049
f 13/103/11 71/104/12 65/105/12 14/106/11 

vt -0.217275 0
vt 0.608803 0
v -0.154636 0.08 0.217042
v -0.155317 0.0851764 0.217042
v -0.157315 0.09 0.217042
v -0.160494 0.0941421 0.217042
v -0.164636 0.0973205 0.217042
vt -0.217275 0.393701
f 64/107/9 63/108/9 72/29/9 73/30/9 74/31/9 75/32/9 76/33/9 71/34/9 13/35/9 17/109/9 

vt 0.854495 0.314961
vn -1 1.12799e-015 -9.71445e-017
vt 0.854495 -6.86721e-016
vt 0.933235 -6.86721e-016
vt 0.933235 0.314961
f 72/110/13 63/111/13 62/112/13 70/113/13 

vt 0.854495 0.412286
vn -0.965926 -0.258819 -9.38344e-017
vt 0.854495 0.391731
vn -0.991445 -0.130526 -9.63134e-017
vt 0.933235 0.391731
vt 0.933235 0.412286
f 73/114/14 72/115/15 70/116/15 69/117/14 

vt 0.854495 0.564375
vn -0.866025 -0.5 -8.41296e-017
vt 0.854495 0.543819
vt 0.933235 0.543819
vt 0.933235 0.564375
f 74/118/16 73/119/14 69/120/14 68/121/16 

vt 0.854495 0.678702
vn -0.707107 -0.707107 -6.86915e-017
vt 0.854495 0.658147
vt 0.933235 0.658147
vt 0.933235 0.678702
f 75/122/17 74/123/16 68/124/16 67/125/17 

vt 0.854495 0.747478
vn -0.5 -0.866025 -4.85723e-017
vt 0.854495 0.726923
vt 0.933235 0.726923
vt 0.933235 0.747478
f 76/126/18 75/127/17 67/128/17 66/129/18 

vt 0.854495 0.766015
vt 0.854495 0.745459
vt 0.933235 0.745459
vt 0.933235 0.766015
f 71/130/12 76/131/18 66/132/18 65/133/12 

vn -1 0 -9.71445e-017
vt -2.13763 5.45199e-017
vt 0.854495 0
f 16/2/19 29/134/19 64/135/19 17/3/19 

vt -0.608803 5.45199e-017
vt 0.217275 5.45199e-017
vt 0.217275 0.393701
v -0.169459 0.0993185 -0.542958
v -0.164636 0.0973205 -0.542958
v -0.160494 0.0941421 -0.542958
v -0.157315 0.09 -0.542958
v -0.155317 0.0851764 -0.542958
v -0.154636 0.08 -0.542958
f 30/136/7 29/137/7 16/138/7 15/96/7 77/97/7 78/98/7 79/99/7 80/100/7 81/101/7 82/102/7 

vt -2.13763 0.712494
vt -2.13763 0.733049
vt -2.21637 0.733049
vt -2.21637 0.712494
f 77/139/12 15/140/11 18/141/11 26/142/12 

vt -2.13763 0.745459
vt -2.13763 0.766015
vt -2.21637 0.766015
vt -2.21637 0.745459
f 78/143/18 77/144/12 26/145/12 25/146/18 

vt -2.13763 0.726923
vt -2.13763 0.747478
vt -2.21637 0.747478
vt -2.21637 0.726923
f 79/147/17 78/148/18 25/149/18 24/150/17 

vt -2.13763 0.658147
vt -2.13763 0.678702
vt -2.21637 0.678702
vt -2.21637 0.658147
f 80/151/16 79/152/17 24/153/17 23/154/16 

vt -2.13763 0.543819
vt -2.13763 0.564375
vt -2.21637 0.564375
vt -2.21637 0.543819
f 81/155/14 80/156/16 23/157/16 22/158/14 

vt -2.13763 0.391731
vt -2.13763 0.412286
vt -2.21637 0.412286
vt -2.21637 0.391731
f 82/159/15 81/160/14 22/161/14 21/162/15 

vt -2.13763 -6.32201e-016
vt -2.13763 0.314961
vt -2.21637 0.314961
vt -2.21637 -6.32201e-016
f 30/163/13 82/164/13 21/165/13 20/166/13 

vn 1.77008e-033 -1 -1.82211e-017
f 29/23/20 28/40/20 60/86/20 64/24/20 

f 28/49/8 32/48/8 61/68/8 60/67/8 

vn 1.44181e-033 -1 -1.48419e-017
f 32/40/21 31/39/21 47/87/21 61/86/21 

f 31/48/8 44/64/8 48/69/8 47/68/8 

usemtl Color_D15
vt 3.74755 21.3763
vn 2.60305e-016 1 2.96839e-017
v -0.164812 0.12 -0.542958
vt -6.48867 21.3763
v -0.164812 0.12 0.217042
vt -6.48867 -8.54495
vt 3.74755 -8.54495
f 44/167/22 83/168/22 84/169/22 48/170/22 

usemtl M_204_black
vt 0.374755 0.472441
vn -9.71445e-017 -5.94982e-016 1
vt 0.374755 1.66667
v -0.164812 0.423333 -0.542958
vt -0.648867 1.66667
vt -0.648867 0.472441
f 44/171/23 43/172/23 85/173/23 83/174/23 

vt 0.648867 2.13763
v -0.164812 0.423333 0.217042
vt 0.648867 -0.854495
f 85/175/6 43/39/6 49/87/6 86/176/6 

f 43/63/8 42/62/8 50/71/8 49/70/8 

usemtl Color_D15
v -0.164812 0.443333 -0.542958
v -0.164812 0.443333 0.217042
f 42/167/2 87/168/2 88/169/2 50/170/2 

usemtl M_204_black
vt 0.374755 1.74541
vn -9.71445e-017 6.15265e-016 1
vt 0.374755 2.90026
v -0.164812 0.736667 -0.542958
vt -0.648867 2.90026
vt -0.648867 1.74541
f 42/177/24 41/178/24 89/179/24 87/180/24 

v -0.164812 0.736667 0.217042
f 89/175/6 41/39/6 51/87/6 90/176/6 

f 41/61/8 40/60/8 52/73/8 51/72/8 

usemtl Color_D15
v -0.164812 0.756667 -0.542958
v -0.164812 0.756667 0.217042
f 40/167/2 91/168/2 92/169/2 52/170/2 

usemtl M_204_black
vt 0.374755 2.979
vt 0.374755 4.13386
v -0.164812 1.05 -0.542958
vt -0.648867 4.13386
vt -0.648867 2.979
f 40/181/7 39/182/7 93/183/7 91/184/7 

v -0.164812 1.05 0.217042
f 93/175/6 39/39/6 53/87/6 94/176/6 

f 39/59/8 38/58/8 54/75/8 53/74/8 

usemtl Color_D15
v -0.164812 1.07 -0.542958
v -0.164812 1.07 0.217042
f 38/167/2 95/168/2 96/169/2 54/170/2 

usemtl M_204_black
vt 0.374755 4.2126
vn -9.71445e-017 -1.18996e-015 1
vt 0.374755 5.40682
v -0.164812 1.37333 -0.542958
vt -0.648867 5.40682
vt -0.648867 4.2126
f 38/185/25 37/186/25 97/187/25 95/188/25 

v -0.164812 1.37333 0.217042
f 97/175/6 37/39/6 55/87/6 98/176/6 

f 37/57/8 36/56/8 56/77/8 55/76/8 

usemtl Color_D15
v -0.164812 1.39333 -0.542958
v -0.164812 1.39333 0.217042
f 36/167/2 99/168/2 100/169/2 56/170/2 

usemtl M_204_black
vt 0.374755 5.48556
vn -9.71445e-017 1.23053e-015 1
vt 0.374755 6.64042
v -0.164812 1.68667 -0.542958
vt -0.648867 6.64042
vt -0.648867 5.48556
f 36/189/26 35/190/26 101/191/26 99/192/26 

v -0.164812 1.68667 0.217042
f 101/175/6 35/39/6 57/87/6 102/176/6 

f 35/55/8 34/54/8 58/79/8 57/78/8 

usemtl Color_D15
v -0.164812 1.70667 -0.542958
v -0.164812 1.70667 0.217042
f 34/167/2 103/168/2 104/169/2 58/170/2 

usemtl M_204_black
vt 0.374755 6.71916
vt 0.374755 7.87402
v -0.164812 2 -0.542958
vt -0.648867 7.87402
vt -0.648867 6.71916
f 34/193/7 33/194/7 105/195/7 103/196/7 

v -0.164812 2 0.217042
f 105/175/6 33/39/6 45/87/6 106/176/6 

vt -0.374755 7.87402
vt -0.374755 6.71916
vt 0.648867 6.71916
vt 0.648867 7.87402
f 45/197/9 58/198/9 104/199/9 106/200/9 

vn 1 3.07633e-016 9.71445e-017
f 103/54/27 105/53/27 106/66/27 104/79/27 

vt -0.374755 6.64042
vn 9.71445e-017 1.23053e-015 -1
vt -0.374755 5.48556
vt 0.648867 5.48556
vt 0.648867 6.64042
f 57/201/28 56/202/28 100/203/28 102/204/28 

f 99/56/8 101/55/8 102/78/8 100/77/8 

vt -0.374755 5.40682
vn 9.71445e-017 -1.18996e-015 -1
vt -0.374755 4.2126
vt 0.648867 4.2126
vt 0.648867 5.40682
f 55/205/29 54/206/29 96/207/29 98/208/29 

vn 1 -2.97491e-016 9.71445e-017
f 95/58/30 97/57/30 98/76/30 96/75/30 

vt -0.374755 4.13386
vt -0.374755 2.979
vt 0.648867 2.979
vt 0.648867 4.13386
f 53/209/9 52/210/9 92/211/9 94/212/9 

f 91/60/8 93/59/8 94/74/8 92/73/8 

vt -0.374755 2.90026
vn 9.71445e-017 6.15265e-016 -1
vt -0.374755 1.74541
vt 0.648867 1.74541
vt 0.648867 2.90026
f 51/213/31 50/214/31 88/215/31 90/216/31 

f 87/62/8 89/61/8 90/72/8 88/71/8 

vt -0.374755 1.66667
vn 9.71445e-017 -5.94982e-016 -1
vt -0.374755 0.472441
vt 0.648867 0.472441
vt 0.648867 1.66667
f 49/217/32 48/218/32 84/219/32 86/220/32 

f 83/64/8 85/63/8 86/70/8 84/69/8 

