# Alias OBJ Model File
# Exported from SketchUp, (c) 2000-2012 Trimble Navigation Limited
# File units = meters

mtllib sofa2.mtl

g Mesh1 Model

usemtl Color_C24
v 1.23846 0.693 0.453995
vt 48.7581 -17.8738
vn -3.73725e-015 1 -1.4375e-015
v 1.23846 0.693 -0.546005
vt 48.7581 21.4963
v 1.08846 0.693 -0.546005
vt 42.8526 21.4963
v 1.08846 0.693 -0.496005
vt 42.8526 19.5278
v 1.08846 0.693 -0.296005
vt 42.8526 11.6537
v 1.08846 0.693 0.453995
vt 42.8526 -17.8738
f 1/1/1 2/2/1 3/3/1 4/4/1 5/5/1 6/6/1 

v 1.23846 0.093 -0.546005
vt 21.4963 3.66142
vn 1 1.80478e-015 3.60956e-016
vt 21.4963 27.2835
vt -17.8738 27.2835
v 1.23846 0.093 0.453995
vt -17.8738 3.66142
f 7/7/2 2/8/2 1/9/2 8/10/2 

vt -48.7581 3.66142
vn 1.82984e-030 -2.40637e-015 -1
v 1.08846 0.093 -0.546005
vt -42.8526 3.66142
vt -42.8526 27.2835
vt -48.7581 27.2835
f 7/11/3 9/12/3 3/13/3 2/14/3 

vn -8.75044e-016 -1.37507e-015 -1
v -1.11154 0.093 -0.546005
vt 43.7616 3.66142
v -1.11154 0.693 -0.546005
vt 43.7616 27.2835
v -1.11154 0.993 -0.546005
vt 43.7616 39.0945
v 1.08846 0.993 -0.546005
vt -42.8526 39.0945
f 9/12/4 10/15/4 11/16/4 12/17/4 13/18/4 3/13/4 

v -1.26154 0.693 -0.546005
vt 49.6671 27.2835
vn -7.29619e-031 2.40637e-015 -1
v -1.26154 0.093 -0.546005
vt 49.6671 3.66142
f 14/19/5 11/16/5 10/15/5 15/20/5 

v -1.11154 0.693 0.453995
vt -43.7616 -17.8738
vn 7.42447e-016 1 -3.94919e-016
v -1.11154 0.693 -0.296005
vt -43.7616 11.6537
v -1.11154 0.693 -0.496005
vt -43.7616 19.5278
vt -43.7616 21.4963
vt -49.6671 21.4963
v -1.26154 0.693 0.453995
vt -49.6671 -17.8738
f 16/21/6 17/22/6 18/23/6 11/24/6 14/25/6 19/26/6 

v -1.11154 0.543 0.453995
vt -17.8738 21.378
vn 1 0 -0
v -1.11154 0.543 -0.246005
vt 9.68523 21.378
vt 11.6537 27.2835
f 20/27/7 21/28/7 17/29/7 16/9/7 

usemtl Color_B07
vn 1.23053e-016 1 -6.44564e-016
v -0.378211 0.543 0.453995
vt -14.8902 -17.8738
v -0.378211 0.543 -0.246005
vt -14.8902 9.68523
vt -43.7616 9.68523
f 20/21/8 22/30/8 23/31/8 21/32/8 

v -1.11154 0.393 0.453995
vt -43.7616 15.4724
vn 0 0 1
v -0.378211 0.393 0.453995
vt -14.8902 15.4724
vt -14.8902 21.378
vt -43.7616 21.378
f 24/33/9 25/34/9 22/35/9 20/36/9 

usemtl Color_C24
v 1.08846 0.243 0.453995
vt 42.8526 9.56693
v 1.08846 0.393 0.453995
vt 42.8526 15.4724
v 0.355123 0.393 0.453995
vt 13.9812 15.4724
v -1.11154 0.243 0.453995
vt -43.7616 9.56693
f 26/37/9 27/38/9 28/39/9 25/34/9 24/33/9 29/40/9 

vt 48.7581 3.66142
vt 48.7581 27.2835
vt 42.8526 27.2835
v 1.08846 0.543 0.453995
vt 42.8526 21.378
v 1.08846 0.093 0.453995
vt 42.8526 3.66142
f 8/41/9 1/42/9 6/43/9 30/44/9 27/38/9 26/37/9 31/45/9 

v 1.08846 0.543 -0.246005
vt -9.68523 21.378
vn -1 0 -0
vt 17.8738 21.378
vt 17.8738 27.2835
vt -11.6537 27.2835
f 32/46/10 30/47/10 6/48/10 5/49/10 

usemtl Color_D14
vt 42.8526 9.68523
vn -1.72274e-015 1 -1.54695e-015
v 0.355123 0.543 -0.246005
vt 13.9812 9.68523
v 0.355123 0.543 0.453995
vt 13.9812 -17.8738
f 32/50/11 33/51/11 34/52/11 30/6/11 

v 1.08846 0.993 -0.396005
vt 42.8526 42.0185
vn -1.88876e-016 0.316228 0.948683
v 0.355123 0.993 -0.396005
vt 13.9812 42.0185
vt 13.9812 23.3436
vt 42.8526 23.3436
vt 42.8526 29.5686
f 35/53/12 36/54/12 33/55/12 32/56/12 5/57/12 

v 1.08846 0.993 -0.496005
vn -9.84425e-016 1 1.08287e-014
v 0.355123 0.993 -0.496005
vt 13.9812 19.5278
vt 13.9812 15.5907
vt 42.8526 15.5907
f 37/4/13 38/58/13 36/59/13 35/60/13 

usemtl Color_C24
vn -8.28989e-016 1 -1.26334e-014
v -1.11154 0.993 -0.496005
v -0.378211 0.993 -0.496005
vt -14.8902 19.5278
f 12/24/14 39/23/14 40/61/14 38/58/14 37/4/14 13/3/14 

vt -21.4963 39.0945
vt -21.4963 27.2835
vt -19.5278 27.2835
vt -19.5278 39.0945
f 12/62/10 11/63/10 18/64/10 39/65/10 

usemtl Color_B07
v -1.11154 0.993 -0.396005
vt -15.5907 39.0945
vn -1 1.44382e-015 -5.77529e-015
f 41/66/15 39/65/15 18/64/15 17/49/15 

vt -43.7616 15.5907
vn -4.92212e-016 1 3.60956e-015
v -0.378211 0.993 -0.396005
vt -14.8902 15.5907
f 41/67/16 42/68/16 40/61/16 39/23/16 

vt -14.8902 42.0185
vn 1.38149e-015 0.316228 0.948683
vt -43.7616 42.0185
vt -43.7616 29.5686
vt -43.7616 23.3436
vt -14.8902 23.3436
f 42/69/17 41/70/17 17/71/17 21/72/17 23/73/17 

usemtl Color_D07
vn -2.31821e-016 0.316228 0.948683
f 36/54/18 42/69/18 23/73/18 33/55/18 

vn -9.84425e-016 1 7.21911e-015
f 38/58/19 40/61/19 42/68/19 36/59/19 

vn -4.92212e-016 1 -0
f 33/51/20 23/31/20 22/30/20 34/52/20 

vt 13.9812 21.378
f 25/34/9 28/39/9 34/74/9 22/35/9 

usemtl Color_D14
f 30/44/9 34/74/9 28/39/9 27/38/9 

usemtl Color_C24
vt 21.4963 39.0945
vt 19.5278 39.0945
vt 19.5278 27.2835
f 13/75/7 37/76/7 4/77/7 3/8/7 

usemtl Color_D14
vn 1 7.21911e-016 -2.88765e-015
vt 15.5907 39.0945
f 5/29/21 4/77/21 37/76/21 35/78/21 

usemtl Color_C24
v 1.08846 0.093 0.353995
vt 13.9368 3.66142
vn -1 1.44382e-015 5.77529e-015
vt 17.8738 3.66142
vt 17.8738 9.56693
v 1.08846 0.243 0.403995
vt 15.9053 9.56693
f 43/79/22 31/80/22 26/81/22 44/82/22 

v -1.11154 0.243 0.403995
vt 43.7616 -15.9053
vn 9.63916e-016 -1 9.02389e-016
vt -42.8526 -15.9053
vt -42.8526 -17.8738
vt 43.7616 -17.8738
f 45/83/23 44/84/23 26/85/23 29/86/23 

vt 42.8526 7.88073
vn 2.91723e-016 -0.316228 0.948683
vt 42.8526 14.1057
vt -43.7616 14.1057
v -1.11154 0.093 0.353995
vt -43.7616 7.88073
f 43/87/24 44/88/24 45/89/24 46/90/24 

v -1.11154 0.093 0.453995
vn 1 2.88765e-015 1.15506e-014
vt -13.9368 3.66142
vt -15.9053 9.56693
vt -17.8738 9.56693
f 47/10/25 46/91/25 45/92/25 29/93/25 

vt -49.6671 27.2835
v -1.26154 0.093 0.453995
vt -49.6671 3.66142
vt -43.7616 3.66142
vt -43.7616 27.2835
f 19/94/9 48/95/9 47/96/9 29/40/9 24/33/9 20/36/9 16/97/9 

vn -1 -1.20319e-015 7.21911e-016
vt -21.4963 3.66142
f 19/48/26 14/63/26 15/98/26 48/80/26 

