# Alias OBJ Model File
# Exported from SketchUp, (c) 2000-2012 Trimble Navigation Limited
# File units = meters

mtllib sofa4.mtl

g Mesh1 Model

usemtl Color_B02
v 0.886621 0 -0.510711
vt -34.9063 0
vn 0 0 -1
v -0.996379 0 -0.510711
vt 39.2275 0
v -0.996379 0.711 -0.510711
vt 39.2275 27.9921
v 0.886621 0.711 -0.510711
vt -34.9063 27.9921
f 1/1/1 2/2/1 3/3/1 4/4/1 

vt -34.9063 20.1067
vn 0 -1 -0
v 0.886621 0 0.293289
vt -34.9063 -11.5468
v -0.996379 0 0.293289
vt 39.2275 -11.5468
vt 39.2275 20.1067
f 1/5/2 5/6/2 6/7/2 2/8/2 

usemtl Color_D15
vt -11.5468 0
vn 1 0 -0
vt 20.1067 0
vt 20.1067 27.9921
v 0.886621 0.711 0.293289
vt -11.5468 27.9921
f 5/9/3 1/10/3 4/11/3 7/12/3 

usemtl Color_B02
v -0.996379 0.711 0.293289
vt -39.2275 -11.5468
vn -3.51462e-020 1 9.70258e-017
v -0.876875 0.711 0.293289
vt -34.5227 -11.5468
v -0.796848 0.711 -0.365871
vt -31.372 14.4044
v 0.690152 0.711 -0.365871
vt 27.1713 14.4044
v 0.779124 0.711 0.293289
vt 30.6742 -11.5468
vt 34.9063 -11.5468
vt 34.9063 20.1067
vt -39.2275 20.1067
f 8/13/4 9/14/4 10/15/4 11/16/4 12/17/4 7/18/4 4/19/4 3/20/4 

vt -39.2275 0
vn 0 0 1
vt 34.9063 0
vt 34.9063 27.9921
vt 30.6742 27.9921
v 0.779124 0.456 0.293289
vt 30.6742 17.9528
v -0.876875 0.456 0.293289
vt -34.5227 17.9528
vt -34.5227 27.9921
vt -39.2275 27.9921
f 6/21/5 5/22/5 7/23/5 12/24/5 13/25/5 14/26/5 9/27/5 8/28/5 

usemtl Color_D10
vt 15.5462 27.9921
vn -0.991013 1.95191e-017 0.133765
vt -10.6403 27.9921
v 0.690152 0.456 -0.365871
vt -10.6403 17.9528
vt 15.5462 17.9528
f 12/29/6 11/30/6 15/31/6 13/32/6 

vt 27.1713 27.9921
vt -31.372 27.9921
v -0.796848 0.456 -0.365871
vt -31.372 17.9528
vt 27.1713 17.9528
f 11/33/5 10/34/5 16/35/5 15/36/5 

vt 10.5183 27.9921
vn 0.992711 1.92059e-017 0.120523
vt -15.6234 27.9921
vt -15.6234 17.9528
vt 10.5183 17.9528
f 10/37/7 9/38/7 14/39/7 16/40/7 

usemtl Color_B02
vn 6.63942e-034 1 2.738e-016
f 14/14/8 13/17/8 15/16/8 16/15/8 

usemtl Color_D15
vt -20.1067 0
vn -1 0 -0
vt 11.5468 0
vt 11.5468 27.9921
vt -20.1067 27.9921
f 2/41/9 6/42/9 8/43/9 3/44/9 

