# Alias OBJ Model File
# Exported from SketchUp, (c) 2000-2012 Trimble Navigation Limited
# File units = meters

mtllib table4.mtl

g Mesh1 Model

usemtl Color_A25
v 0.654207 0.73 0.134929
vt -14.4561 32.8616
vn -0.68986 0.219512 -0.68986
v 0.622388 0.53 0.103109
vt -14.4561 24.7907
v 0.608246 0.53 0.117251
vt -13.6687 24.7907
v 0.640065 0.73 0.149071
vt -13.6687 32.8616
f 1/1/1 2/2/1 3/3/1 4/4/1 

vt -21.9686 28.7402
vn 0.707107 -3.46092e-015 -0.707107
v 0.675421 0.73 0.156142
vt -23.1497 28.7402
v 0.675421 0.01 0.156142
vt -23.1497 0.393701
v 0.640065 0.01 0.120787
vt -21.1812 0.393701
vt -20.197 20.8661
f 1/5/2 5/6/2 6/7/2 7/8/2 2/9/2 

usemtl Color_C13
vt -25.7562 -5.31216
vn -3.19043e-015 -1 3.19043e-015
vt -26.5914 -6.14732
v 0.661279 0.73 0.170284
vt -26.0346 -6.7041
vt -25.1994 -5.86894
f 1/10/3 5/11/3 8/12/3 4/13/3 

usemtl Color_C14
vn 3.82529e-019 -1 9.20467e-020
v 0.675421 0.73 -0.308858
vt -26.5914 12.1598
f 1/10/4 9/14/4 5/11/4

v 0.654207 0.73 -0.287645
vt -25.7562 11.3246
f 1/10/4 10/15/4 9/14/4

f 4/13/4 10/15/4 1/10/4

v 0.640065 0.73 -0.301787
vt -25.1994 11.8814
f 10/15/4 4/13/4 11/16/4

v -0.654224 0.73 -0.301787
vt 25.7569 11.8814
f 4/13/4 12/17/4 11/16/4

f 8/12/4 12/17/4 4/13/4

v -0.654224 0.73 0.149071
vt 25.7569 -5.86894
f 8/12/4 13/18/4 12/17/4

v 1.25542 0.73 0.373642
vt -49.426 -14.7103
f 14/19/4 13/18/4 8/12/4

v -0.675437 0.73 0.170284
vt 26.592 -6.7041
f 14/19/4 15/20/4 13/18/4

v -1.26958 0.73 0.373642
vt 49.9834 -14.7103
f 16/21/4 15/20/4 14/19/4

v -0.689579 0.73 0.156142
vt 27.1488 -6.14732
f 15/20/4 16/21/4 17/22/4

v -0.689579 0.73 -0.308858
vt 27.1488 12.1598
f 17/22/4 16/21/4 18/23/4

v -1.26958 0.73 -0.526358
vt 49.9834 20.7228
f 19/24/4 18/23/4 16/21/4

v -0.675437 0.73 -0.323
vt 26.592 12.7165
f 18/23/4 19/24/4 20/25/4

v 1.25542 0.73 -0.526358
vt -49.426 20.7228
f 20/25/4 19/24/4 21/26/4

vt -49.426 28.7402
vn -1.94289e-016 -9.20467e-020 -1
vt 49.9834 28.7402
v -1.26958 0.78 -0.526358
vt 49.9834 30.7087
v 1.25542 0.78 -0.526358
vt -49.426 30.7087
f 21/27/5 19/28/5 22/29/5 23/30/5 

vt -20.7228 28.7402
vn -1 -3.82529e-019 1.94289e-016
vt 14.7103 28.7402
v -1.26958 0.78 0.373642
vt 14.7103 30.7087
vt -20.7228 30.7087
f 19/31/6 16/32/6 24/33/6 22/34/6 

vt -49.9834 28.7402
vn 1.94289e-016 9.20467e-020 1
vt 49.426 28.7402
v 1.25542 0.78 0.373642
vt 49.426 30.7087
vt -49.9834 30.7087
f 16/35/7 14/36/7 25/37/7 24/38/7 

vt -14.7103 28.7402
vn 1 3.82529e-019 -1.94289e-016
vt 20.7228 28.7402
vt 20.7228 30.7087
vt -14.7103 30.7087
f 14/39/8 21/40/8 23/41/8 25/42/8 

f 14/19/4 5/11/4 21/26/4

f 14/19/4 8/12/4 5/11/4

usemtl Color_A25
vt 14.4561 0.393701
vn 0.707107 1.03571e-032 0.707107
vt 14.4561 28.7402
vt 13.6687 28.7402
v 0.661279 0.01 0.170284
vt 13.6687 0.393701
f 6/43/9 5/44/9 8/45/9 26/46/9 

vt 23.1497 28.7402
vn -0.707107 3.4546e-015 0.707107
vt 21.9686 28.7402
vt 20.197 20.8661
v 0.625923 0.01 0.134929
vt 21.1812 0.393701
vt 23.1497 0.393701
f 8/47/10 4/48/10 3/49/10 27/50/10 26/51/10 

vt -14.4561 19.8722
vn -0.706291 -0.0480215 -0.706291
vt -14.4561 -0.623908
vt -13.6687 -0.623908
vt -13.6687 19.8722
f 2/52/11 7/53/11 27/54/11 3/55/11 

vt -25.1994 -4.75538
vn -2.39282e-015 -1 2.39282e-015
vt -24.6426 -5.31216
f 7/56/12 6/11/12 26/12/12 27/57/12 

usemtl Color_C14
f 9/14/4 21/26/4 5/11/4

v 0.661279 0.73 -0.323
vt -26.0346 12.7165
f 28/58/4 21/26/4 9/14/4

f 12/17/4 21/26/4 28/58/4

f 20/25/4 21/26/4 12/17/4

usemtl Color_A25
vt 27.7953 28.7402
vn 0.707107 -7.52626e-016 -0.707107
vt 26.6142 28.7402
v -0.622404 0.53 -0.269967
vt 24.8426 20.8661
v -0.640082 0.01 -0.287645
vt 25.8268 0.393701
v -0.675437 0.01 -0.323
vt 27.7953 0.393701
f 20/59/13 12/60/13 29/61/13 30/62/13 31/63/13 

usemtl Color_C13
v -0.668366 0.73 -0.287645
vt 26.3136 11.3246
vn 0 -1 -0
f 32/64/14 18/23/14 20/25/14 12/17/14 

usemtl Color_A25
vt -26.6142 28.7402
vn -0.707107 7.54897e-016 0.707107
vt -27.7953 28.7402
v -0.689579 0.01 -0.308858
vt -27.7953 0.393701
v -0.654224 0.01 -0.273503
vt -25.8268 0.393701
v -0.636546 0.53 -0.255825
vt -24.8426 20.8661
f 32/65/15 18/66/15 33/67/15 34/68/15 35/69/15 

usemtl Color_C14
f 32/64/4 17/22/4 18/23/4

v -0.668366 0.73 0.134929
vt 26.3136 -5.31216
f 17/22/4 32/64/4 36/70/4

f 36/70/4 32/64/4 13/18/4

f 13/18/4 32/64/4 12/17/4

usemtl Color_A25
vt -10.5988 33.8813
vn 0.68986 0.219512 0.68986
vt -10.5988 25.8105
vt -9.81144 25.8105
vt -9.81144 33.8813
f 32/71/16 35/72/16 29/73/16 12/74/16 

vt -10.5988 19.6491
vn 0.706291 -0.0480215 0.706291
vt -10.5988 -0.846996
vt -9.81144 -0.846996
vt -9.81144 19.6491
f 35/75/17 34/76/17 30/77/17 29/78/17 

vt 25.7569 10.7678
vn -7.97607e-016 -1 7.97607e-016
vt 25.2001 11.3246
f 34/79/18 33/23/18 31/25/18 30/80/18 

vt 10.5988 0.393701
vn -0.707107 0 -0.707107
vt 10.5988 28.7402
vt 9.81144 28.7402
vt 9.81144 0.393701
f 33/81/19 18/82/19 20/83/19 31/84/19 

v -0.636546 0.53 0.103109
vt 14.8503 24.8772
vn 0.68986 0.219512 -0.68986
vt 14.8503 32.9481
vt 14.0629 32.9481
v -0.622404 0.53 0.117251
vt 14.0629 24.8772
f 37/85/20 36/86/20 13/87/20 38/88/20 

vt 23.5439 28.7402
vn -0.707107 -7.41476e-016 -0.707107
vt 22.3628 28.7402
vt 20.5912 20.8661
v -0.654224 0.01 0.120787
vt 21.5754 0.393701
v -0.689579 0.01 0.156142
vt 23.5439 0.393701
f 17/89/21 36/90/21 37/91/21 39/92/21 40/93/21 

usemtl Color_C13
f 17/22/14 36/70/14 13/18/14 15/20/14 

usemtl Color_A25
vt -22.3628 28.7402
vn 0.707107 7.39981e-016 0.707107
vt -23.5439 28.7402
v -0.675437 0.01 0.170284
vt -23.5439 0.393701
v -0.640082 0.01 0.134929
vt -21.5754 0.393701
vt -20.5912 20.8661
f 13/94/22 15/95/22 41/96/22 42/97/22 38/98/22 

vt -14.8503 28.7402
vn -0.707107 0 0.707107
vt -14.8503 0.393701
vt -14.0629 0.393701
vt -14.0629 28.7402
f 17/99/23 40/100/23 41/101/23 15/102/23 

vt 25.7569 -4.75538
vt 25.2001 -5.31216
f 40/22/14 39/103/14 42/104/14 41/20/14 

vt 14.8503 -0.642836
vn 0.706291 -0.0480215 -0.706291
vt 14.8503 19.8533
vt 14.0629 19.8533
vt 14.0629 -0.642836
f 39/105/24 37/106/24 38/107/24 42/108/24 

usemtl Color_C14
f 12/17/4 28/58/4 11/16/4

usemtl Color_A25
vt -26.2201 28.7402
vn -0.707107 -6.13332e-016 -0.707107
vt -27.4012 28.7402
v 0.661279 0.01 -0.323
vt -27.4012 0.393701
v 0.625923 0.01 -0.287645
vt -25.4327 0.393701
v 0.608246 0.53 -0.269967
vt -24.4484 20.8661
f 11/109/25 28/110/25 43/111/25 44/112/25 45/113/25 

usemtl Color_C13
f 9/14/14 10/15/14 11/16/14 28/58/14 

usemtl Color_A25
vt 27.4012 28.7402
vn 0.707107 6.43852e-016 0.707107
vt 26.2201 28.7402
v 0.622388 0.53 -0.255825
vt 24.4484 20.8661
v 0.640065 0.01 -0.273503
vt 25.4327 0.393701
v 0.675421 0.01 -0.308858
vt 27.4012 0.393701
f 9/114/26 10/115/26 46/116/26 47/117/26 48/118/26 

vt 10.2047 25.7239
vn -0.68986 0.219512 0.68986
vt 10.2047 33.7948
vt 9.41728 33.7948
vt 9.41728 25.7239
f 46/119/27 10/120/27 11/121/27 45/122/27 

vt 10.2047 -0.828068
vn -0.706291 -0.0480215 0.706291
vt 10.2047 19.668
vt 9.41728 19.668
vt 9.41728 -0.828068
f 47/123/28 46/124/28 45/125/28 44/126/28 

vn 7.97607e-016 -1 7.97607e-016
vt -25.1994 10.7678
vt -24.6426 11.3246
f 48/14/29 47/127/29 44/128/29 43/58/29 

vt -10.2047 28.7402
vn 0.707107 0 -0.707107
vt -10.2047 0.393701
vt -9.41728 0.393701
vt -9.41728 28.7402
f 9/129/30 48/130/30 43/131/30 28/132/30 

usemtl Color_C14
vt 49.426 -14.7103
vn -3.82529e-019 1 -9.20467e-020
vt 49.426 20.7228
vt -49.9834 20.7228
vt -49.9834 -14.7103
f 25/133/31 23/134/31 22/135/31 24/136/31 

g Mesh2 Model

usemtl Color_A25
vt 25.0609 10.0718
v -0.536546 0.53 -0.155825
vt 21.1239 6.13484
vt 25.0609 -4.05941
f 35/137/14 49/138/14 37/139/14

vt -24.5035 10.0718
f 49/138/14 35/137/14 46/140/14

vt -24.5035 20.8661
vn -5.0892e-015 0 -1
vt 25.0609 20.8661
v -0.636546 0.55 -0.255825
vt 25.0609 21.6535
v 0.622388 0.55 -0.255825
vt -24.5035 21.6535
f 46/141/32 35/142/32 50/143/32 51/144/32 

vt -10.0718 20.8661
vn -1 0 2.51408e-014
vt 4.05941 20.8661
v -0.636546 0.55 0.103109
vt 4.05941 21.6535
vt -10.0718 21.6535
f 35/145/33 37/146/33 52/147/33 50/148/33 

vt -25.0609 20.8661
vn 2.50876e-015 0 1
vt 24.5035 20.8661
v 0.622388 0.55 0.103109
vt 24.5035 21.6535
vt -25.0609 21.6535
f 37/149/34 2/150/34 53/151/34 52/152/34 

v -0.536546 0.53 0.00310901
vt 21.1239 -0.122402
vt -24.5035 -4.05941
f 37/139/14 54/153/14 2/154/14

f 54/153/14 37/139/14 49/138/14

vt -0.122402 20.8661
vn 1 0 -2.2711e-015
vt 6.13484 20.8661
v -0.536546 0.55 -0.155825
vt 6.13484 21.6535
v -0.536546 0.55 0.00310901
vt -0.122402 21.6535
f 54/155/35 49/156/35 55/157/35 56/158/35 

vt -21.1239 20.8661
vn 5.11301e-016 0 1
v 0.522388 0.53 -0.155825
vt 20.5664 20.8661
v 0.522388 0.55 -0.155825
vt 20.5664 21.6535
vt -21.1239 21.6535
f 49/159/36 57/160/36 58/161/36 55/162/36 

vt -20.5664 6.13484
f 49/138/14 46/140/14 57/163/14

v 0.522388 0.53 0.00310901
vt -20.5664 -0.122402
f 57/163/14 46/140/14 59/164/14

f 2/154/14 59/164/14 46/140/14

f 2/154/14 54/153/14 59/164/14

vt -20.5664 20.8661
vn -5.96517e-016 0 -1
vt 21.1239 20.8661
vt 21.1239 21.6535
v 0.522388 0.55 0.00310901
vt -20.5664 21.6535
f 59/165/37 54/166/37 56/167/37 60/168/37 

vt -21.1239 -0.122402
vn 0 1 -0
vt 24.5035 -4.05941
vt 20.5664 -0.122402
f 56/169/38 53/170/38 60/171/38

vt -25.0609 -4.05941
f 56/169/38 52/172/38 53/170/38

vt -21.1239 6.13484
f 52/172/38 56/169/38 55/173/38

vt -25.0609 10.0718
f 55/173/38 50/174/38 52/172/38

vt 24.5035 10.0718
f 50/174/38 55/173/38 51/175/38

vt 20.5664 6.13484
f 51/175/38 55/173/38 58/176/38

f 58/176/38 53/170/38 51/175/38

f 60/171/38 53/170/38 58/176/38

vt -6.13484 20.8661
vn -1 0 -0
vt 0.122402 20.8661
vt 0.122402 21.6535
vt -6.13484 21.6535
f 57/177/39 59/178/39 60/179/39 58/180/39 

vt -4.05941 20.8661
vn 1 0 -8.04506e-015
vt 10.0718 20.8661
vt 10.0718 21.6535
vt -4.05941 21.6535
f 2/181/40 46/182/40 51/183/40 53/184/40 

