# Alias OBJ Model File
# Exported from SketchUp, (c) 2000-2012 Trimble Navigation Limited
# File units = meters

mtllib table3.mtl

g Mesh1 Model

usemtl _Color_003_1
v -0.814658 0.724896 0.352627
vt 13.883 28.5392
vn -1 0 -0
v -0.814658 0.724896 -0.474902
vt -18.6969 28.5392
v -0.814658 0.720515 -0.474902
vt -18.6969 28.3667
v -0.814658 0.720515 0.352627
vt 13.883 28.3667
f 1/1/1 2/2/1 3/3/1 4/4/1 

vt 32.0731 -13.883
vn 0 -1 -0
v -0.851743 0.724896 0.384633
vt 33.5332 -15.143
vt 32.0731 18.6969
f 1/5/2 5/6/2 2/7/2

v -0.846663 0.724896 0.389713
vt 33.3332 -15.343
f 5/6/2 1/5/2 6/8/2

v 0.927272 0.724896 0.352627
vt -36.5068 -13.883
f 7/9/2 6/8/2 1/5/2

v 0.959277 0.724896 0.389713
vt -37.7668 -15.343
f 7/9/2 8/10/2 6/8/2

v 0.964357 0.724896 0.384633
vt -37.9668 -15.143
f 7/9/2 9/11/2 8/10/2

v 0.927272 0.724896 -0.474902
vt -36.5068 18.6969
f 10/12/2 9/11/2 7/9/2

v 0.964357 0.724896 -0.506907
vt -37.9668 19.957
f 9/11/2 10/12/2 11/13/2

v 0.959277 0.724896 -0.511987
vt -37.7668 20.157
f 12/14/2 11/13/2 10/12/2

v 0.963676 0.724896 -0.509447
vt -37.94 20.057
f 13/15/2 11/13/2 12/14/2

v 0.964357 0.733659 -0.506907
vt 9.45062 28.8842
vn 0.965927 1.70749e-017 -0.258815
vt 9.45062 28.5392
vt 9.55415 28.5392
f 14/16/3 11/17/3 13/18/3

usemtl Color_002
vt 19.957 28.5392
vn 1 0 -0
vt 19.957 28.8842
vt -15.143 28.5392
f 11/19/4 14/20/4 9/21/4

v 0.964357 0.733659 0.384633
vt -15.143 28.8842
f 14/20/4 15/22/4 9/21/4

usemtl Color_007
vt 37.9668 -15.143
vn 0 1 -0
vt 37.9668 19.957
v -0.851743 0.733659 -0.506907
vt -33.5332 19.957
f 15/23/5 14/24/5 16/25/5

usemtl _Color_003_1
v -0.846663 0.733659 -0.511987
vt -33.3332 20.157
f 16/25/5 14/24/5 17/26/5

v 0.959277 0.733659 -0.511987
vt 37.7668 20.157
f 18/27/5 17/26/5 14/24/5

usemtl Color_002
vt -37.7668 28.8842
vn 0 0 -1
vt -37.7668 28.5392
vt 33.3332 28.8842
f 18/28/6 12/29/6 17/30/6

usemtl _Color_003_1
vt -31.2628 28.8842
vn 0.258823 -5.69179e-018 -0.965925
v 0.961817 0.733659 -0.511307
vt -31.3663 28.8842
vt -31.2628 28.5392
f 18/31/7 19/32/7 12/33/7

v 0.963676 0.733659 -0.509447
vt 37.94 20.057
vt 37.8668 20.1302
f 20/34/5 19/35/5 18/27/5

usemtl Color_002
vt -12.6449 28.8842
vn 0.707112 -1.55499e-017 -0.707102
v 0.961817 0.724896 -0.511307
vt -12.5414 28.5392
vt -12.5414 28.8842
f 20/36/8 21/37/8 19/38/8

vt -12.6449 28.5392
vn 0.707112 3.10998e-017 -0.707102
f 13/39/9 21/37/9 20/36/9

usemtl _Color_003_1
vt -37.8668 20.1302
f 21/40/2 13/15/2 12/14/2

vt -31.3663 28.5392
f 12/33/7 19/32/7 21/41/7

usemtl Color_002
vn 0.965927 2.27665e-017 -0.258815
vt 9.55415 28.8842
f 14/16/10 13/18/10 20/42/10

usemtl _Color_003_1
f 20/34/5 18/27/5 14/24/5

usemtl Color_002
v -0.846663 0.724896 -0.511987
vt 33.3332 28.5392
f 12/29/6 22/43/6 17/30/6

usemtl _Color_003_1
vt 33.3332 20.157
f 2/7/2 22/44/2 12/14/2

v -0.851743 0.724896 -0.506907
vt 33.5332 19.957
f 2/7/2 23/45/2 22/44/2

f 5/6/2 23/45/2 2/7/2

vt 15.143 28.5392
v -0.851743 0.733659 0.384633
vt 15.143 28.8842
vt -19.957 28.5392
f 5/46/1 24/47/1 23/48/1

vt 5.94821 28.8842
vn -0.965927 -1.13827e-017 0.258814
vt 5.94821 28.5392
v -0.851063 0.724896 0.387173
vt 6.05174 28.5392
f 24/49/11 5/50/11 25/51/11

vt 33.5064 -15.243
f 5/6/2 6/8/2 25/52/2

v -0.849203 0.724896 0.389032
vt 33.4332 -15.3162
f 6/8/2 26/53/2 25/52/2

vt -28.2264 28.5392
vn -0.258815 -1.13833e-017 0.965927
v -0.849203 0.733659 0.389032
vt -28.33 28.8842
vt -28.33 28.5392
f 6/54/12 27/55/12 26/56/12

v -0.846663 0.733659 0.389713
vt -28.2264 28.8842
vn -0.258815 -5.69163e-018 0.965927
f 28/57/13 27/55/13 6/54/13

v -0.851063 0.733659 0.387173
vt -33.5064 -15.243
vt -33.4332 -15.3162
vt -33.3332 -15.343
f 29/58/5 27/59/5 28/60/5

vt -12.9144 28.8842
vn -0.707102 -3.10998e-017 0.707112
vt -12.8109 28.5392
vt -12.8109 28.8842
f 29/61/14 26/62/14 27/63/14

vt -12.9144 28.5392
vn -0.707102 0 0.707112
f 25/64/15 26/62/15 29/61/15

vn -0.965927 0 0.258814
vt 6.05174 28.8842
f 24/49/16 25/51/16 29/65/16

vt -33.5332 -15.143
f 29/58/5 28/60/5 24/66/5

v 0.959277 0.733659 0.389713
vt 37.7668 -15.343
f 28/60/5 30/67/5 24/66/5

usemtl Color_002
vt 37.7668 28.8842
vn 0 0 1
vt -33.3332 28.8842
vt -33.3332 28.5392
f 30/68/17 28/69/17 6/70/17

vt 37.7668 28.5392
f 8/71/17 30/68/17 6/70/17

vt 32.5089 28.8842
vn 0.258818 5.6918e-018 0.965926
vt 32.5089 28.5392
v 0.961817 0.724896 0.389032
vt 32.6124 28.5392
f 30/72/18 8/73/18 31/74/18

usemtl _Color_003_1
vt -37.8668 -15.3162
v 0.963676 0.724896 0.387173
vt -37.94 -15.243
f 31/75/2 8/10/2 32/76/2

f 32/76/2 8/10/2 9/11/2

usemtl Color_002
vt -4.80091 28.5392
vn 0.965928 -1.70741e-017 0.258809
v 0.963676 0.733659 0.387173
vt -4.90444 28.8842
vt -4.90444 28.5392
f 9/77/19 33/78/19 32/79/19

usemtl _Color_003_1
vt -4.80091 28.8842
f 15/80/19 33/78/19 9/77/19

vt 37.94 -15.243
f 33/81/5 15/23/5 30/67/5

f 24/66/5 30/67/5 15/23/5

usemtl Color_007
f 24/66/5 15/23/5 16/25/5

usemtl Color_002
vt -19.957 28.8842
f 24/47/1 16/82/1 23/48/1

usemtl _Color_003_1
vt -10.5979 28.8842
vn -0.965926 -2.27665e-017 -0.258819
v -0.851063 0.733659 -0.509447
vt -10.7015 28.8842
vt -10.5979 28.5392
f 16/83/20 34/84/20 23/85/20

vt -33.5064 20.057
f 34/86/5 16/25/5 17/26/5

v -0.849203 0.733659 -0.511307
vt -33.4332 20.1302
f 35/87/5 34/86/5 17/26/5

usemtl Color_002
vt 9.40665 28.8842
vn -0.707107 1.55498e-017 -0.707107
v -0.851063 0.724896 -0.509447
vt 9.51017 28.5392
vt 9.51017 28.8842
f 35/88/21 36/89/21 34/90/21

usemtl _Color_003_1
v -0.849203 0.724896 -0.511307
vt 9.40665 28.5392
vn -0.707107 -1.55498e-017 -0.707107
f 37/91/22 36/89/22 35/88/22

vt 33.4332 20.1302
vt 33.5064 20.057
f 37/92/2 22/44/2 36/93/2

vt 26.9804 28.8842
vn -0.258819 5.69162e-018 -0.965926
vt 26.9804 28.5392
vt 27.0839 28.5392
f 17/94/23 22/95/23 37/96/23

usemtl Color_002
vn -0.258819 1.70749e-017 -0.965926
vt 27.0839 28.8842
f 17/94/24 37/96/24 35/97/24

usemtl _Color_003_1
f 36/93/2 22/44/2 23/45/2

vn -0.965926 -5.69162e-018 -0.258819
vt -10.7015 28.5392
f 23/85/25 34/84/25 36/98/25

v 0.961817 0.733659 0.389032
vt 37.8668 -15.3162
f 38/99/5 33/81/5 30/67/5

usemtl Color_002
vt 15.9457 28.8842
vn 0.707107 0 0.707107
vt 16.0492 28.5392
vt 16.0492 28.8842
f 38/100/26 32/101/26 33/102/26

vt 15.9457 28.5392
f 31/103/26 32/101/26 38/100/26

vn 0.258818 -5.6918e-018 0.965926
vt 32.6124 28.8842
f 30/72/27 31/74/27 38/104/27

usemtl _Color_003_1
f 2/7/2 12/14/2 10/12/2

vt 32.0731 28.5392
vt -36.5068 28.5392
v 0.927272 0.720515 -0.474902
vt -36.5068 28.3667
vt 32.0731 28.3667
f 2/105/6 10/106/6 39/107/6 3/108/6 

vt 18.6969 28.5392
vt -13.883 28.5392
v 0.927272 0.720515 0.352627
vt -13.883 28.3667
vt 18.6969 28.3667
f 10/109/4 7/110/4 40/111/4 39/112/4 

vt 36.5068 28.5392
vt -32.0731 28.5392
vt -32.0731 28.3667
vt 36.5068 28.3667
f 7/113/17 1/114/17 4/115/17 40/116/17 

f 3/7/2 39/12/2 40/9/2 4/5/2 

g Mesh2 Model

v -0.8506 0 0.31745
vt 33.4882 -12.498
v -0.79218 0 0.35301
vt 31.1882 -13.898
v -0.8506 0 0.38857
vt 33.4882 -15.298
f 41/117/2 42/118/2 43/119/2

v -0.79218 0.680009 0.35301
vt 19.4147 26.772
vn 0.519947 0 -0.854198
vt 19.4147 0
vt 22.1072 0
v -0.8506 0.105156 0.31745
vt 22.1072 4.14
f 44/120/28 42/121/28 41/122/28 45/123/28 

vt -33.8671 26.772
vn 0.519947 0 0.854198
v -0.8506 0.105156 0.38857
vt -36.5597 4.14
vt -36.5597 0
vt -33.8671 0
f 44/124/29 46/125/29 43/126/29 42/127/29 

v -0.8506 0.720319 0.38857
vt -36.5597 28.359
vn 0.519947 4.04903e-018 0.854198
f 47/128/30 46/125/30 44/124/30

vt 15.298 28.359
vt 12.498 4.14
vt 12.498 0
vt 15.298 0
vt 15.298 4.14
f 47/129/1 45/130/1 41/131/1 43/132/1 46/133/1 

v -0.8506 0.720319 0.31745
vt 12.498 28.359
f 48/134/1 45/130/1 47/129/1

vn 0.519947 4.04903e-018 -0.854198
vt 22.1072 28.359
f 45/123/31 48/135/31 44/120/31

v 0.763022 0.720319 0.31745
vt -30.0403 12.9986
vn 6.14451e-018 -0.661544 -0.749906
v 0.963214 0.720319 0.31745
vt -37.9218 12.9986
vt 31.1882 10.8823
vt 33.4882 12.9986
v -0.650409 0.720319 0.31745
vt 25.6066 12.9986
v -0.585956 0.720319 0.31745
vt 23.0691 12.9986
v -0.576979 0.720319 0.31745
vt 22.7157 12.9986
v -0.576427 0.720319 0.31745
vt 22.694 12.9986
v -0.515173 0.720319 0.31745
vt 20.2824 12.9986
v -0.514622 0.720319 0.31745
vt 20.2607 12.9986
v -0.505645 0.720319 0.31745
vt 19.9073 12.9986
v -0.441192 0.720319 0.31745
vt 17.3697 12.9986
v 0.553805 0.720319 0.31745
vt -21.8034 12.9986
v 0.618258 0.720319 0.31745
vt -24.3409 12.9986
v 0.627235 0.720319 0.31745
vt -24.6943 12.9986
v 0.627787 0.720319 0.31745
vt -24.716 12.9986
v 0.689041 0.720319 0.31745
vt -27.1276 12.9986
v 0.689592 0.720319 0.31745
vt -27.1493 12.9986
v 0.698569 0.720319 0.31745
vt -27.5027 12.9986
f 49/136/32 50/137/32 44/138/32 48/139/32 51/140/32 52/141/32 53/142/32 54/143/32 55/144/32 56/145/32 57/146/32 58/147/32 59/148/32 60/149/32 61/150/32 62/151/32 63/152/32 64/153/32 65/154/32 

vt -20.2824 -12.4981
vn 1.53818e-008 1 -1.89201e-006
vt -22.694 -12.4981
v -0.576524 0.720319 0.320765
vt -22.6978 -12.6286
v -0.650438 0.720319 0.321779
vt -25.6078 -12.6685
vt -25.6066 -12.4981
vt -33.4882 -12.4981
v 0.0465583 0.720319 0.352627
vt 1.83301 -13.883
v 0.963214 0.720319 0.38857
vt 37.9218 -15.2981
vt 37.9218 -12.4981
vt 30.0403 -12.4981
v 0.763052 0.720319 0.321779
vt 30.0414 -12.6685
v 0.689138 0.720319 0.320765
vt 27.1314 -12.6286
vt 27.1276 -12.4981
vt 24.716 -12.4981
v 0.62769 0.720319 0.320765
vt 24.7122 -12.6286
v 0.553776 0.720319 0.321779
vt 21.8022 -12.6685
vt 21.8034 -12.4981
vt -17.3697 -12.4981
v -0.441162 0.720319 0.321779
vt -17.3686 -12.6685
v -0.515076 0.720319 0.320765
vt -20.2786 -12.6286
f 55/155/33 54/156/33 66/157/33 67/158/33 51/159/33 48/160/33 68/161/33 69/162/33 50/163/33 49/164/33 70/165/33 71/166/33 63/167/33 62/168/33 72/169/33 73/170/33 59/171/33 58/172/33 74/173/33 75/174/33 

vt -22.7157 -12.498
vt -22.6978 -12.6285
vt -22.694 -12.498
f 53/175/5 66/176/5 54/177/5

vt -23.0691 -12.498
f 52/178/5 66/176/5 53/175/5

vt -25.6066 -12.498
f 52/178/5 51/179/5 67/158/5 66/176/5 

vt -33.4882 -15.298
vn -6.07699e-008 1 1.58353e-006
vt 37.9218 -15.298
vt 1.83301 -13.8829
vt -33.4882 -12.498
f 47/180/34 69/181/34 68/182/34 48/183/34 

v 0.904794 0.680009 0.35301
vt 35.6218 29.2706
vn 0 -0.661544 0.749906
vt 37.9218 31.3869
vt -33.4882 31.3869
f 76/184/35 69/185/35 47/186/35

v 0.963214 0.105156 0.38857
vt 40.3469 4.14
vn -0.519947 -4.04902e-018 0.854199
vt 40.3469 28.359
vt 37.6543 26.772
f 77/187/36 69/188/36 76/189/36

vt -15.298 28.359
vt -15.298 4.14
vt -12.498 28.359
f 69/190/4 77/191/4 50/192/4

v 0.963214 0 0.38857
vt -15.298 0
v 0.963214 0 0.31745
vt -12.498 0
v 0.963214 0.105156 0.31745
vt -12.498 4.14
f 50/192/4 77/191/4 78/193/4 79/194/4 80/195/4 

vn -0.519947 4.63678e-018 0.854199
v 0.904794 0 0.35301
vt 37.6543 3.08336e-017
vt 40.3469 3.08336e-017
f 76/189/37 81/196/37 78/197/37 77/187/37 

vt -23.2019 26.772
vn -0.519947 4.63678e-018 -0.854199
vt -25.8945 4.14
vt -25.8945 1.40926e-016
vt -23.2019 1.40926e-016
f 76/198/38 80/199/38 79/200/38 81/201/38 

vt -25.8945 28.359
vn -0.519947 -4.04902e-018 -0.854199
f 50/202/39 80/199/39 76/198/39

vn 0 -0.661544 -0.749906
vt -35.6218 10.8823
f 50/137/40 76/203/40 44/138/40

vt -31.1882 29.2706
f 44/204/35 76/184/35 47/186/35

vt -35.6218 -13.898
vt -37.9218 -12.498
vt -37.9218 -15.298
f 81/205/2 79/206/2 78/207/2

vt 27.5027 -12.498
vt 27.1314 -12.6285
vt 30.0403 -12.498
f 65/208/5 71/209/5 70/165/5 49/210/5 

vt 27.1493 -12.498
f 65/208/5 64/211/5 71/209/5

vt 27.1276 -12.498
f 64/211/5 63/212/5 71/209/5

vt 24.6943 -12.498
vt 24.7122 -12.6285
vt 24.716 -12.498
f 61/213/5 72/214/5 62/215/5

vt 24.3409 -12.498
f 60/216/5 72/214/5 61/213/5

vt 21.8034 -12.498
f 60/216/5 59/217/5 73/170/5 72/214/5 

vt -19.9073 -12.498
vt -20.2786 -12.6285
vt -17.3697 -12.498
f 57/218/5 75/219/5 74/173/5 58/220/5 

vt -20.2607 -12.498
f 56/221/5 75/219/5 57/218/5

vt -20.2824 -12.498
f 56/221/5 55/222/5 75/219/5

g Mesh3 Model

v -0.79218 0 -0.475284
vt 31.1882 18.712
v -0.8506 0 -0.439724
vt 33.4882 17.312
v -0.8506 0 -0.510844
vt 33.4882 20.112
f 82/223/2 83/224/2 84/225/2

vt -16.9117 -1.49305e-016
vn 0.519947 -4.63679e-018 0.854199
v -0.79218 0.680009 -0.475284
vt -16.9117 26.772
v -0.8506 0.105156 -0.439724
vt -19.6043 4.14
vt -19.6043 -1.49305e-016
f 82/226/41 85/227/41 86/228/41 83/229/41 

vt 36.3701 26.772
vn 0.519947 -4.63679e-018 -0.854199
vt 36.3701 -1.07786e-018
vt 39.0627 -1.07786e-018
v -0.8506 0.105156 -0.510844
vt 39.0627 4.14
f 85/230/42 82/231/42 84/232/42 87/233/42 

vt -17.312 4.14
v -0.8506 0.720319 -0.439724
vt -17.312 28.359
vt -20.112 4.14
vt -20.112 0
vt -17.312 0
f 86/234/1 88/235/1 87/236/1 84/237/1 83/238/1 

vn 0.519947 0 0.854199
vt -19.6043 28.359
f 85/227/43 88/239/43 86/228/43

vt -31.1882 7.69771
vn 0 -0.661544 0.749907
v 0.904794 0.680009 -0.475284
vt 35.6218 7.69771
vt -33.4882 9.81397
f 85/240/44 89/241/44 88/242/44

v 0.963214 0.720319 -0.510844
vt -37.9218 34.5716
vn -1.35397e-018 -0.661544 -0.749907
vt -35.6218 32.4553
vt 31.1882 32.4553
f 90/243/45 89/244/45 85/245/45

vt -40.1573 26.772
vn -0.519946 -4.04902e-018 -0.854199
vt -42.8499 28.359
v 0.963214 0.105156 -0.510844
vt -42.8499 4.14
f 89/246/46 90/247/46 91/248/46

vt 20.112 4.14
vt 20.112 28.359
v 0.963214 0.105156 -0.439724
vt 17.312 4.14
v 0.963214 0 -0.439724
vt 17.312 0
v 0.963214 0 -0.510844
vt 20.112 0
f 91/249/4 90/250/4 92/251/4 93/252/4 94/253/4 

v 0.963214 0.720319 -0.439724
vt 17.312 28.359
f 90/250/4 95/254/4 92/251/4

vt 37.9218 17.3119
vn 6.07699e-008 1 -1.58353e-006
vt 37.9218 20.1119
v -0.8506 0.720319 -0.510844
vt -33.4882 20.1119
v 0.0660562 0.720319 -0.474902
vt 2.60063 18.6969
f 95/255/47 90/256/47 96/257/47 97/258/47 

vt 33.4882 34.5716
vn -1.18516e-018 -0.661544 -0.749907
f 96/259/48 90/243/48 85/245/48

vt 39.0627 28.359
vn 0.519947 -8.09807e-018 -0.854199
f 96/260/49 85/230/49 87/233/49

vt -20.112 28.359
f 88/235/1 96/261/1 87/236/1

v -0.441192 0.720319 -0.439724
vt -17.3697 17.312
vn -1.53819e-008 1 1.89202e-006
v 0.553805 0.720319 -0.439724
vt 21.8034 17.312
v 0.553776 0.720319 -0.444054
vt 21.8022 17.4825
v 0.62769 0.720319 -0.44304
vt 24.7122 17.4426
v 0.627787 0.720319 -0.439724
vt 24.716 17.312
v 0.689041 0.720319 -0.439724
vt 27.1276 17.312
v 0.689138 0.720319 -0.44304
vt 27.1314 17.4426
v 0.763052 0.720319 -0.444054
vt 30.0414 17.4825
v 0.763022 0.720319 -0.439724
vt 30.0403 17.312
vt 37.9218 17.312
vt 2.60064 18.697
vt -33.4882 20.112
vt -33.4882 17.312
v -0.650409 0.720319 -0.439724
vt -25.6066 17.312
v -0.650438 0.720319 -0.444054
vt -25.6078 17.4825
v -0.576524 0.720319 -0.44304
vt -22.6978 17.4426
v -0.576427 0.720319 -0.439724
vt -22.694 17.312
v -0.515173 0.720319 -0.439724
vt -20.2824 17.312
v -0.515076 0.720319 -0.44304
vt -20.2786 17.4426
v -0.441162 0.720319 -0.444054
vt -17.3686 17.4825
f 98/262/50 99/263/50 100/264/50 101/265/50 102/266/50 103/267/50 104/268/50 105/269/50 106/270/50 95/271/50 97/272/50 96/273/50 88/274/50 107/275/50 108/276/50 109/277/50 110/278/50 111/279/50 112/280/50 113/281/50 

vn -6.91257e-018 -0.661544 0.749907
vt 37.9218 9.81397
vt 30.0403 9.81397
v 0.698569 0.720319 -0.439724
vt 27.5027 9.81397
v 0.689592 0.720319 -0.439724
vt 27.1493 9.81397
vt 27.1276 9.81397
vt 24.716 9.81397
v 0.627235 0.720319 -0.439724
vt 24.6943 9.81397
v 0.618258 0.720319 -0.439724
vt 24.3409 9.81397
vt 21.8034 9.81397
vt -17.3697 9.81397
v -0.505645 0.720319 -0.439724
vt -19.9073 9.81397
v -0.514622 0.720319 -0.439724
vt -20.2607 9.81397
vt -20.2824 9.81397
vt -22.694 9.81397
v -0.576978 0.720319 -0.439724
vt -22.7157 9.81397
v -0.585955 0.720319 -0.439724
vt -23.0691 9.81397
vt -25.6066 9.81397
f 89/241/51 95/282/51 106/283/51 114/284/51 115/285/51 103/286/51 102/287/51 116/288/51 117/289/51 99/290/51 98/291/51 118/292/51 119/293/51 111/294/51 110/295/51 120/296/51 121/297/51 107/298/51 88/242/51 

vt 23.3915 28.359
vn -0.519946 -8.09805e-018 0.854199
vt 20.6989 26.772
vt 23.3915 4.14
f 95/299/52 89/300/52 92/301/52

vn -0.519946 0 0.854199
v 0.904794 0 -0.475284
vt 20.6989 0
vt 23.3915 0
f 89/300/53 122/302/53 93/303/53 92/301/53 

vt -40.1573 0
vn -0.519946 0 -0.854199
vt -42.8499 0
f 122/304/54 89/246/54 91/248/54 94/305/54 

vt -37.9218 17.312
vt -35.6218 18.712
vt -37.9218 20.112
f 93/306/2 122/307/2 94/308/2

vt 27.5027 17.312
vt 30.0414 17.4824
vt 27.1314 17.4425
f 114/309/5 106/270/5 105/310/5 104/311/5 

vt 27.1493 17.312
f 115/312/5 114/309/5 104/311/5

f 115/312/5 104/311/5 103/267/5

vt 24.6943 17.312
vt 24.7122 17.4425
f 116/313/5 102/266/5 101/314/5

vt 24.3409 17.312
f 117/315/5 116/313/5 101/314/5

vt 21.8022 17.4824
f 117/315/5 101/314/5 100/316/5 99/263/5 

vt -19.9073 17.312
vt -17.3686 17.4824
vt -20.2786 17.4425
f 118/317/5 98/262/5 113/318/5 112/319/5 

vt -20.2607 17.312
f 119/320/5 118/317/5 112/319/5

f 119/320/5 112/319/5 111/279/5

vt -22.7157 17.312
vt -22.6978 17.4425
f 120/321/5 110/278/5 109/322/5

vt -23.0691 17.312
f 121/323/5 120/321/5 109/322/5

vt -25.6078 17.4824
f 121/323/5 109/322/5 108/324/5 107/275/5 

