# Alias OBJ Model File
# Exported from SketchUp, (c) 2000-2012 Trimble Navigation Limited
# File units = meters

mtllib table11.mtl

g Mesh1 Model

usemtl Color_C23
v 0.353599 0.76 -0.502252
vt -19.7737 29.9213
vn -1 9.7372e-016 -5.73664e-016
v 0.353599 0.76 -0.542252
vt -21.3485 29.9213
v 0.353599 0.68 -0.542252
vt -21.3485 26.7717
v 0.353599 3.60956e-016 -0.542252
vt -21.3485 2.77662e-014
v 0.353599 3.60956e-016 -0.502252
vt -19.7737 2.77662e-014
f 1/1/1 2/2/1 3/3/1 4/4/1 5/5/1 

usemtl Color_D10
v -0.486401 0.76 0.297748
vt 19.1497 -11.7224
vn 0 -1 -0
v -0.486401 0.76 -0.502252
vt 19.1497 19.7737
v -0.446401 0.76 -0.502252
vt 17.5749 19.7737
v -0.446401 0.76 -0.542252
vt 17.5749 21.3485
vt -13.9212 21.3485
vt -13.9212 19.7737
v 0.393599 0.76 -0.502252
vt -15.496 19.7737
v 0.393599 0.76 0.297748
vt -15.496 -11.7224
v 0.353599 0.76 0.297748
vt -13.9212 -11.7224
v 0.353599 0.76 0.337748
vt -13.9212 -13.2972
v -0.446401 0.76 0.337748
vt 17.5749 -13.2972
v -0.446401 0.76 0.297748
vt 17.5749 -11.7224
f 6/6/2 7/7/2 8/8/2 9/9/2 2/10/2 1/11/2 10/12/2 11/13/2 12/14/2 13/15/2 14/16/2 15/17/2 

v -0.486401 0.68 0.297748
vt -11.7224 26.7717
vn 1 1.12799e-015 -1.12799e-016
v -0.486401 0.68 -0.502252
vt 19.7737 26.7717
vt 19.7737 29.9213
vt -11.7224 29.9213
f 16/18/3 17/19/3 7/20/3 6/21/3 

v -0.486401 0.68 0.337748
vt 19.1497 -13.2972
f 16/6/2 18/22/2 17/7/2

usemtl Color_C23
v -0.486401 3.60956e-016 0.337748
vt 13.2972 -3.57784e-015
vn -1 9.2893e-016 -4.51195e-015
vt 13.2972 26.7717
vt 11.7224 26.7717
v -0.486401 3.60956e-016 0.297748
vt 11.7224 -3.57784e-015
f 19/23/4 18/24/4 16/25/4 20/26/4 

v -0.446401 3.60956e-016 0.337748
vt -17.5749 -5.19964e-015
vn -2.25597e-015 1.45975e-015 1
v -0.446401 0.68 0.337748
vt -17.5749 26.7717
vt -19.1497 26.7717
vt -19.1497 -5.19964e-015
f 21/27/5 22/28/5 18/29/5 19/30/5 

v -0.446401 1.80478e-016 0.297748
vt -11.7224 -1.0704e-014
vn 1 -1.01335e-015 1.02939e-015
vt -13.2972 29.9213
vt -13.2972 26.7717
vt -13.2972 -3.59859e-015
f 23/31/6 15/21/6 14/32/6 22/33/6 21/34/6 

vt 19.1497 26.7717
vn -4.58932e-015 -1.23413e-015 -1
vt 19.1497 29.9213
vt 17.5749 29.9213
vt 17.5749 -7.36153e-015
vt 19.1497 -2.56102e-016
f 16/35/7 6/36/7 15/37/7 23/38/7 20/39/7 

usemtl Color_D10
vn 1 1.12799e-015 2.25597e-015
v -0.486401 0.76 0.337748
f 18/33/8 16/18/8 6/21/8 24/32/8 

f 6/6/2 15/17/2 14/16/2 24/22/2 

vn 2.25597e-015 -1.12799e-015 -1
vt 17.5749 26.7717
f 24/36/9 14/37/9 22/40/9 18/35/9 

v 0.353599 0.68 0.337748
vt -13.9212 26.7717
vn -1.12799e-016 -1.12799e-015 -1
vt -13.9212 29.9213
f 25/41/10 22/40/10 14/37/10 13/42/10 

v 0.413599 0.68 0.357748
vt -16.2834 -14.0846
f 26/43/2 22/16/2 25/15/2

f 26/43/2 18/22/2 22/16/2

v -0.506401 0.68 0.357748
vt 19.9371 -14.0846
f 27/44/2 18/22/2 26/43/2

v -0.486401 0.68 -0.542252
vt 19.1497 21.3485
f 18/22/2 27/44/2 28/45/2

v -0.506401 0.68 -0.562252
vt 19.9371 22.1359
f 29/46/2 28/45/2 27/44/2

v 0.413599 0.68 -0.562252
vt -16.2834 22.1359
f 28/45/2 29/46/2 30/47/2

v -0.506401 0.76 -0.562252
vt 19.9371 29.9213
vn 0 0 -1
v 0.413599 0.76 -0.562252
vt -16.2834 29.9213
vt -16.2834 26.7717
vt 19.9371 26.7717
f 31/48/11 32/49/11 30/50/11 29/51/11 

v 0.453599 0.76 -0.602252
vt -17.8582 23.7107
f 31/46/2 33/52/2 32/47/2

v -0.546401 0.76 -0.602252
vt 21.5119 23.7107
f 31/46/2 34/53/2 33/52/2

v -0.546401 0.76 0.397748
vt 21.5119 -15.6594
f 34/53/2 31/46/2 35/54/2

v -0.506401 0.76 0.357748
f 36/44/2 35/54/2 31/46/2

v 0.453599 0.76 0.397748
vt -17.8582 -15.6594
f 35/54/2 36/44/2 37/55/2

v 0.413599 0.76 0.357748
f 37/55/2 36/44/2 38/43/2

vt 16.2834 29.9213
vn 0 0 1
vt -19.9371 29.9213
vt -19.9371 26.7717
vt 16.2834 26.7717
f 38/56/12 36/57/12 27/58/12 26/59/12 

vt 14.0846 29.9213
vn -1 0 -0
vt -22.1359 29.9213
vt -22.1359 26.7717
vt 14.0846 26.7717
f 36/60/13 31/61/13 29/62/13 27/63/13 

vt 22.1359 29.9213
vn 1 0 -0
vt -14.0846 29.9213
vt -14.0846 26.7717
vt 22.1359 26.7717
f 32/64/14 38/65/14 26/66/14 30/67/14 

f 32/47/2 33/52/2 38/43/2

f 37/55/2 38/43/2 33/52/2

v 0.453599 0.8 -0.602252
vt 23.7107 31.4961
v 0.453599 0.8 0.397748
vt -15.6594 31.4961
vt -15.6594 29.9213
vt 23.7107 29.9213
f 39/68/14 40/69/14 37/70/14 33/71/14 

vt 17.8582 -15.6594
vn 0 1 -0
vt 17.8582 23.7107
v -0.546401 0.8 -0.602252
vt -21.5119 23.7107
v -0.546401 0.8 0.397748
vt -21.5119 -15.6594
f 40/72/15 39/73/15 41/74/15 42/75/15 

vt 21.5119 31.4961
vt -17.8582 31.4961
vt -17.8582 29.9213
vt 21.5119 29.9213
f 41/76/11 39/77/11 33/78/11 34/79/11 

vt 15.6594 31.4961
vt -23.7107 31.4961
vt -23.7107 29.9213
vt 15.6594 29.9213
f 42/80/13 41/81/13 34/82/13 35/83/13 

vt 17.8582 31.4961
vt -21.5119 31.4961
vt -21.5119 29.9213
vt 17.8582 29.9213
f 40/84/12 42/85/12 35/86/12 37/87/12 

v 0.393599 0.68 0.337748
vt -15.496 -13.2972
f 26/43/2 43/88/2 30/47/2

f 26/43/2 25/15/2 43/88/2

usemtl Color_C23
vt 15.496 26.7717
vn -2.54471e-030 -1.06163e-015 1
vt 13.9212 26.7717
v 0.353599 9.02389e-017 0.337748
vt 13.9212 1.76694e-014
v 0.393599 0 0.337748
vt 15.496 1.41167e-014
f 43/89/16 25/90/16 44/91/16 45/92/16 

vt 13.2972 29.9213
vn -1 9.7372e-016 5.73664e-016
vt 11.7224 29.9213
v 0.353599 9.02389e-017 0.297748
vt 11.7224 1.71081e-014
vt 13.2972 1.71081e-014
f 13/93/17 12/94/17 46/95/17 44/96/17 25/24/17 

vn 5.73664e-016 9.7372e-016 -1
vt -15.496 29.9213
v 0.393599 0.68 0.297748
vt -15.496 26.7717
v 0.393599 9.02389e-017 0.297748
vt -15.496 1.4967e-014
vt -13.9212 1.4967e-014
f 12/42/18 11/97/18 47/98/18 48/99/18 46/100/18 

usemtl Color_D10
vn -1 2.25597e-015 2.25597e-016
v 0.393599 0.68 -0.502252
vt -19.7737 26.7717
f 11/94/19 10/1/19 49/101/19 47/25/19 

usemtl Color_C23
vt 15.496 29.9213
vn 5.73664e-016 9.7372e-016 1
vt 13.9212 29.9213
vt 13.9212 3.34649e-014
v 0.393599 3.60956e-016 -0.502252
vt 15.496 3.34649e-014
f 10/102/20 1/103/20 5/104/20 50/105/20 49/89/20 

usemtl Color_D10
v 0.393599 0.76 -0.542252
vt -15.496 21.3485
f 2/10/2 51/106/2 10/12/2 1/11/2 

v 0.393599 0.68 -0.542252
f 51/102/12 2/103/12 3/90/12 52/89/12 

vn -1.12799e-016 -1.12799e-015 1
vt -17.5749 29.9213
v -0.446401 0.68 -0.542252
f 2/103/21 9/107/21 53/28/21 3/90/21 

usemtl Color_C23
vt 21.3485 26.7717
vn 1 -1.0926e-015 2.76453e-016
vt 21.3485 29.9213
v -0.446401 3.60956e-016 -0.502252
vt 19.7737 -4.9915e-015
v -0.446401 1.80478e-016 -0.542252
vt 21.3485 -1.20969e-014
f 53/108/22 9/109/22 8/20/22 54/110/22 55/111/22 

usemtl Color_D10
vn 2.25597e-015 -1.12799e-015 1
v -0.486401 0.76 -0.542252
vt -19.1497 29.9213
f 28/29/23 53/28/23 9/107/23 56/112/23 

usemtl Color_C23
v -0.486401 3.60956e-016 -0.542252
vt 19.1497 3.97082e-014
vn -2.25597e-015 -1.19434e-015 -1
vt 17.5749 3.26028e-014
f 57/113/24 28/35/24 53/40/24 55/114/24 

v -0.486401 3.60956e-016 -0.502252
vt -19.7737 -8.66032e-015
vn -1 1.19434e-015 -2.25597e-015
vt -21.3485 -8.66032e-015
f 58/115/25 17/101/25 28/3/25 57/116/25 

vn -5.73664e-016 9.7372e-016 1
vt -19.1497 3.34649e-014
vt -17.5749 3.34649e-014
f 8/107/26 7/112/26 17/29/26 58/117/26 54/118/26 

usemtl Color_D10
f 56/45/2 9/9/2 8/8/2 7/7/2 

f 56/109/14 7/20/14 17/19/14 28/108/14 

f 18/22/2 28/45/2 17/7/2

usemtl Color_C23
vn -2.25597e-015 -1 2.25597e-015
f 54/8/27 58/7/27 57/45/27 55/9/27 

usemtl Color_D10
f 28/45/2 30/47/2 53/9/2

f 53/9/2 30/47/2 3/10/2

f 3/10/2 30/47/2 52/106/2

f 52/106/2 30/47/2 47/13/2

f 47/13/2 30/47/2 43/88/2

usemtl Color_C23
vn 1 -1.06163e-015 -1.78429e-030
vt -13.2972 1.64511e-014
vt -11.7224 2.00038e-014
f 47/18/28 43/33/28 45/119/28 48/120/28 

vn -1.12799e-015 -1 -1.12799e-015
f 44/15/29 46/14/29 48/13/29 45/88/29 

usemtl Color_D10
f 47/13/2 49/12/2 52/106/2

usemtl Color_C23
v 0.393599 1.80478e-016 -0.542252
vt 21.3485 2.76693e-014
vn 1 -1.32704e-015 4.51195e-015
vt 19.7737 3.47747e-014
f 59/121/30 52/108/30 49/19/30 50/122/30 

vt -13.9212 3.68752e-014
vn -2.61057e-030 -1.06163e-015 -1
vt -15.496 2.97697e-014
f 4/123/31 3/41/31 52/98/31 59/124/31 

f 50/12/27 5/11/27 4/10/27 59/106/27 

usemtl Color_D10
vn -1 1.69198e-015 -3.38396e-015
f 52/3/32 49/101/32 10/1/32 51/2/32 

usemtl Color_C23
f 21/16/27 19/22/27 20/6/27 23/17/27 

