# Alias OBJ Model File
# Exported from SketchUp, (c) 2000-2012 Trimble Navigation Limited
# File units = meters

mtllib table6.mtl

g Mesh1 Model

usemtl Color_004
v -0.498189 0.76 -0.434605
vt -19.6138 17.1104
vn 0 1 -0
v 0.541811 0.76 -0.434605
vt 21.3311 17.1104
v 0.541811 0.76 -0.554605
vt 21.3311 21.8348
v -0.498189 0.76 -0.554605
vt -19.6138 21.8348
f 1/1/1 2/2/1 3/3/1 4/4/1 

v -0.498189 0.745 -0.434605
vt -19.6138 29.3307
vn 2.6844e-017 -1.50398e-015 1
v -0.411805 0.745 -0.434605
vt -16.2128 29.3307
v 0.455426 0.745 -0.434605
vt 17.9302 29.3307
v 0.541811 0.745 -0.434605
vt 21.3311 29.3307
vt 21.3311 29.9213
vt -19.6138 29.9213
f 5/5/2 6/6/2 7/7/2 8/8/2 2/9/2 1/10/2 

v -0.498189 0.745 -0.554605
vt 19.6138 21.8348
vn 0 -1 -0
v -0.411805 0.745 -0.554605
vt 16.2128 21.8348
vt 16.2128 17.1104
vt 19.6138 17.1104
f 9/11/3 10/12/3 6/13/3 5/14/3 

v 0.541811 0.745 -0.554605
vt -21.3311 29.3307
vn -2.6844e-017 1.50398e-015 -1
v 0.455426 0.745 -0.554605
vt -17.9302 29.3307
vt 16.2128 29.3307
vt 19.6138 29.3307
vt 19.6138 29.9213
vt -21.3311 29.9213
f 11/15/4 12/16/4 10/17/4 9/18/4 4/19/4 3/20/4 

vt -21.3311 17.1104
vt -17.9302 17.1104
vt -17.9302 21.8348
vt -21.3311 21.8348
f 8/21/3 7/22/3 12/23/3 11/24/3 

usemtl Color_008
v 0.455426 0.745 -0.562605
vt 17.9302 22.1498
vt 17.9302 21.8348
vt 17.9302 17.1104
f 13/25/1 12/26/1 7/27/1

v 0.455426 0.745 0.23101
vt 9.09489 29.3307
vn -1 8.75453e-016 -1.05904e-018
v 0.455426 0.745 0.197395
vt 7.77145 29.3307
v 0.455426 0.745 0.192395
vt 7.5746 29.3307
v 0.455426 0.745 0.0723948
vt 2.85019 29.3307
v 0.455426 0.745 0.0673948
vt 2.65334 29.3307
v 0.455426 0.745 -0.0526052
vt -2.07107 29.3307
v 0.455426 0.745 -0.0576052
vt -2.26792 29.3307
v 0.455426 0.745 -0.177605
vt -6.99233 29.3307
v 0.455426 0.745 -0.182605
vt -7.18918 29.3307
v 0.455426 0.745 -0.302605
vt -11.9136 29.3307
v 0.455426 0.745 -0.307605
vt -12.1104 29.3307
v 0.455426 0.745 -0.427605
vt -16.8348 29.3307
vt -17.1104 29.3307
vt -21.8348 29.3307
vt -22.1498 29.3307
v 0.455426 0.745 -0.59622
vt -23.4732 29.3307
v 0.455426 0.699902 -0.59622
vt -23.4732 27.5552
v 0.455426 0.699902 0.23101
vt 9.09489 27.5552
f 14/28/5 15/29/5 16/30/5 17/31/5 18/32/5 19/33/5 20/34/5 21/35/5 22/36/5 23/37/5 24/38/5 25/39/5 7/40/5 12/41/5 13/42/5 26/43/5 27/44/5 28/45/5 

usemtl Color_004
v -0.411805 0.745 0.197395
vt 16.2128 -7.77145
vt -17.9302 -7.77145
vt -17.9302 -9.09489
v -0.411805 0.745 0.23101
vt 16.2128 -9.09489
f 29/46/3 15/47/3 14/48/3 30/49/3 

v 0.541811 0.745 0.197395
vn 0 0 -1
v -0.498189 0.745 0.197395
v -0.498189 0.76 0.197395
v 0.541811 0.76 0.197395
f 31/15/6 15/16/6 29/17/6 32/18/6 33/19/6 34/20/6 

vt 19.6138 -7.77145
vt -21.3311 -7.77145
v 0.541811 0.745 0.317395
vt -21.3311 -12.4959
v -0.498189 0.745 0.317395
vt 19.6138 -12.4959
f 32/50/3 29/46/3 30/49/3 14/48/3 15/47/3 31/51/3 35/52/3 36/53/3 

usemtl Color_008
v -0.411805 0.745 0.192395
vt -16.2128 -7.5746
vt -16.2128 -9.09489
vt -16.2128 -7.77145
f 37/54/1 30/55/1 29/56/1

v -0.411805 0.745 0.0723948
vt -16.2128 -2.85019
f 30/55/1 37/54/1 38/57/1

usemtl Color_004
v -0.498189 0.745 0.0723948
vt 19.6138 -2.85019
vt 16.2128 -2.85019
vt 16.2128 -7.5746
v -0.498189 0.745 0.192395
vt 19.6138 -7.5746
f 39/58/3 38/59/3 37/60/3 40/61/3 

v 0.541811 0.745 0.0723948
vn -2.0133e-017 -1.12799e-015 -1
v -0.498189 0.76 0.0723948
v 0.541811 0.76 0.0723948
f 41/15/7 17/16/7 38/17/7 39/18/7 42/19/7 43/20/7 

v 0.541811 0.745 0.192395
vt -21.3311 -7.5746
vt -17.9302 -7.5746
vt -17.9302 -2.85019
vt -21.3311 -2.85019
f 44/62/3 16/63/3 17/64/3 41/65/3 

vn 3.3555e-017 1.87998e-015 1
v 0.541811 0.76 0.192395
v -0.498189 0.76 0.192395
f 40/5/8 37/6/8 16/7/8 44/8/8 45/9/8 46/10/8 

f 38/59/3 17/64/3 16/63/3 37/60/3 

usemtl Color_008
vt 17.9302 -2.65334
vt 17.9302 -2.85019
vt 17.9302 -7.5746
f 18/66/1 17/67/1 16/68/1

vt 21.3311 -12.4959
f 16/68/1 35/69/1 18/66/1

vt 17.9302 -7.77145
f 15/70/1 35/69/1 16/68/1

vt 17.9302 -9.09489
f 14/71/1 35/69/1 15/70/1

f 30/55/1 35/69/1 14/71/1

vt -19.6138 -12.4959
f 30/55/1 36/72/1 35/69/1

vt -19.6138 -7.77145
f 36/72/1 30/55/1 32/73/1

vt -19.6138 -7.5746
f 32/73/1 30/55/1 40/74/1

vt -19.6138 -2.85019
f 40/74/1 30/55/1 39/75/1

v -0.498189 0.745 0.0673948
vt -19.6138 -2.65334
f 39/75/1 30/55/1 47/76/1

v -0.498189 0.745 -0.0526052
vt -19.6138 2.07107
f 47/76/1 30/55/1 48/77/1

v -0.498189 0.745 -0.0576052
vt -19.6138 2.26792
f 48/77/1 30/55/1 49/78/1

v -0.498189 0.745 -0.177605
vt -19.6138 6.99233
f 49/78/1 30/55/1 50/79/1

v -0.498189 0.745 -0.182605
vt -19.6138 7.18918
f 50/79/1 30/55/1 51/80/1

v -0.498189 0.745 -0.302605
vt -19.6138 11.9136
f 51/80/1 30/55/1 52/81/1

v -0.498189 0.745 -0.307605
vt -19.6138 12.1104
f 52/81/1 30/55/1 53/82/1

v -0.498189 0.745 -0.427605
vt -19.6138 16.8348
f 53/82/1 30/55/1 54/83/1

f 54/83/1 30/55/1 5/1/1

f 5/1/1 30/55/1 9/4/1

v -0.498189 0.745 -0.562605
vt -19.6138 22.1498
f 9/4/1 30/55/1 55/84/1

v -0.498189 0.745 -0.682605
vt -19.6138 26.8742
f 55/84/1 30/55/1 56/85/1

f 56/85/1 30/55/1 38/57/1

vt -16.2128 21.8348
f 10/86/1 56/85/1 38/57/1

v -0.411805 0.745 -0.59622
vt -16.2128 23.4732
f 57/87/1 56/85/1 10/86/1

v 0.541811 0.745 -0.682605
vt 21.3311 26.8742
f 56/85/1 57/87/1 58/88/1

vt 17.9302 23.4732
f 58/88/1 57/87/1 26/89/1

usemtl Color_004
vt -17.9302 22.1498
v -0.411805 0.745 -0.562605
vt 16.2128 22.1498
vt 16.2128 23.4732
vt -17.9302 23.4732
f 13/90/3 59/91/3 57/92/3 26/93/3 

v 0.541811 0.745 -0.562605
v 0.541811 0.76 -0.562605
v -0.498189 0.76 -0.562605
f 55/5/2 59/6/2 13/7/2 60/8/2 61/9/2 62/10/2 

vt -21.3311 22.1498
vt 19.6138 22.1498
vt 19.6138 26.8742
vt -21.3311 26.8742
f 60/94/3 13/90/3 26/93/3 57/92/3 59/91/3 55/95/3 56/96/3 58/97/3 

usemtl Color_008
f 58/88/1 26/89/1 13/25/1

vt 21.3311 -7.77145
f 58/88/1 13/25/1 31/98/1

f 31/98/1 13/25/1 35/69/1

f 7/27/1 35/69/1 13/25/1

vt 17.9302 12.1104
f 24/99/1 35/69/1 7/27/1

vt 17.9302 7.18918
f 22/100/1 35/69/1 24/99/1

vt 17.9302 2.26792
f 20/101/1 35/69/1 22/100/1

f 18/66/1 35/69/1 20/101/1

vt 17.9302 2.07107
f 20/101/1 19/102/1 18/66/1

usemtl Color_004
v 0.541811 0.745 0.0673948
vt -21.3311 -2.65334
vt -17.9302 -2.65334
vt -17.9302 2.07107
v 0.541811 0.745 -0.0526052
vt -21.3311 2.07107
f 63/103/3 18/104/3 19/105/3 64/106/3 

vn 1.67775e-017 5.63993e-016 1
v -0.411805 0.745 0.0673948
v 0.541811 0.76 0.0673948
v -0.498189 0.76 0.0673948
f 47/5/9 65/6/9 18/7/9 63/8/9 66/9/9 67/10/9 

vt 19.6138 2.07107
v -0.411805 0.745 -0.0526052
vt 16.2128 2.07107
vt 16.2128 -2.65334
vt 19.6138 -2.65334
f 48/107/3 68/108/3 65/109/3 47/110/3 

vn -2.0133e-017 -3.75996e-016 -1
v -0.498189 0.76 -0.0526052
v 0.541811 0.76 -0.0526052
f 64/15/10 19/16/10 68/17/10 48/18/10 69/19/10 70/20/10 

f 68/108/3 19/105/3 18/104/3 65/109/3 

usemtl Color_008
vt -16.2128 -2.65334
vt -16.2128 2.07107
f 65/111/1 68/112/1 38/57/1

vt 23.4732 29.3307
vn 1 7.51097e-016 -2.05612e-017
vt 22.1498 29.3307
vt 21.8348 29.3307
vt 17.1104 29.3307
v -0.411805 0.745 -0.427605
vt 16.8348 29.3307
v -0.411805 0.745 -0.307605
vt 12.1104 29.3307
v -0.411805 0.745 -0.302605
vt 11.9136 29.3307
v -0.411805 0.745 -0.182605
vt 7.18918 29.3307
v -0.411805 0.745 -0.177605
vt 6.99233 29.3307
v -0.411805 0.745 -0.0576052
vt 2.26792 29.3307
vt 2.07107 29.3307
vt -2.65334 29.3307
vt -2.85019 29.3307
vt -7.5746 29.3307
vt -7.77145 29.3307
vt -9.09489 29.3307
v -0.411805 0.699902 0.23101
vt -9.09489 27.5552
v -0.411805 0.699902 -0.59622
vt 23.4732 27.5552
f 57/113/11 59/114/11 10/115/11 6/116/11 71/117/11 72/118/11 73/119/11 74/120/11 75/121/11 76/122/11 68/123/11 65/124/11 38/125/11 37/126/11 29/127/11 30/128/11 77/129/11 78/130/11 

vt -16.2128 22.1498
f 57/87/1 10/86/1 59/131/1

vt -16.2128 17.1104
vt -16.2128 16.8348
f 6/132/1 10/86/1 71/133/1

usemtl Color_004
f 10/12/3 12/23/3 7/22/3 6/13/3 

usemtl Color_008
vt -16.2128 11.9136
f 10/86/1 73/134/1 71/133/1

vt -16.2128 6.99233
f 10/86/1 75/135/1 73/134/1

f 10/86/1 68/112/1 75/135/1

f 10/86/1 38/57/1 68/112/1

vt -16.2128 2.26792
f 76/136/1 75/135/1 68/112/1

usemtl Color_004
vt 19.6138 6.99233
vt 16.2128 6.99233
vt 16.2128 2.26792
vt 19.6138 2.26792
f 50/137/3 75/138/3 76/139/3 49/140/3 

v 0.541811 0.745 -0.177605
vn -2.6844e-017 -4.85761e-046 -1
v -0.498189 0.76 -0.177605
v 0.541811 0.76 -0.177605
f 79/15/12 21/16/12 75/17/12 50/18/12 80/19/12 81/20/12 

v 0.541811 0.745 -0.0576052
vt -21.3311 2.26792
vt -17.9302 2.26792
vt -17.9302 6.99233
vt -21.3311 6.99233
f 82/141/3 20/142/3 21/143/3 79/144/3 

vn 1.3422e-017 5.12735e-032 1
v 0.541811 0.76 -0.0576052
v -0.498189 0.76 -0.0576052
f 49/5/13 76/6/13 20/7/13 82/8/13 83/9/13 84/10/13 

f 75/138/3 21/143/3 20/142/3 76/139/3 

usemtl Color_008
vt 17.9302 6.99233
f 22/100/1 21/145/1 20/101/1

usemtl Color_004
vn 1 0 -0
vt 6.99233 29.9213
vt 2.26792 29.9213
f 82/122/14 79/121/14 81/146/14 83/147/14 

usemtl Color_008
vt 21.3311 2.26792
vt 21.3311 6.99233
f 58/88/1 82/148/1 79/149/1

vt 21.3311 2.07107
f 58/88/1 64/150/1 82/148/1

vt 21.3311 -2.65334
f 58/88/1 63/151/1 64/150/1

vt 21.3311 -2.85019
f 58/88/1 41/152/1 63/151/1

vt 21.3311 -7.5746
f 58/88/1 44/153/1 41/152/1

f 58/88/1 31/98/1 44/153/1

v 0.541811 0.699902 0.243186
vt -9.57423 27.5552
vn 1 9.88041e-016 1.4052e-016
v 0.541811 0.699902 -0.617858
vt 24.3251 27.5552
v 0.541811 0.699902 -0.682605
vt 26.8742 27.5552
vt 26.8742 29.3307
v 0.541811 0.745 -0.427605
v 0.541811 0.745 -0.307605
v 0.541811 0.745 -0.302605
v 0.541811 0.745 -0.182605
vt -12.4959 29.3307
v 0.541811 0.699902 0.317395
vt -12.4959 27.5552
f 85/154/15 86/155/15 87/156/15 58/157/15 60/114/15 11/115/15 8/116/15 88/117/15 89/118/15 90/119/15 91/120/15 79/121/15 82/122/15 64/123/15 63/124/15 41/125/15 44/126/15 31/127/15 35/158/15 92/159/15 

v 0.489256 0.699902 0.243186
vt -19.2621 -9.57423
vt -21.3311 24.3251
vt -21.3311 -9.57423
f 93/160/3 86/161/3 85/162/3

v 0.489256 0.699902 -0.617858
vt -19.2621 24.3251
f 86/161/3 93/160/3 94/163/3

v 0.489256 0.699902 0.317395
vt -19.2621 -12.4959
f 95/164/3 94/163/3 93/160/3

v 0.489256 0.699902 -0.682605
vt -19.2621 26.8742
f 95/164/3 96/165/3 94/163/3

f 95/164/3 28/48/3 96/165/3

f 95/164/3 77/49/3 28/48/3

v -0.44507 0.699902 0.317395
vt 17.5224 -12.4959
f 97/166/3 77/49/3 95/164/3

f 77/49/3 97/166/3 78/92/3

v -0.44507 0.699902 0.263503
vt 17.5224 -10.3741
f 98/167/3 78/92/3 97/166/3

v -0.44507 0.699902 -0.611989
vt 17.5224 24.094
f 99/168/3 78/92/3 98/167/3

f 99/168/3 96/165/3 78/92/3

v -0.44507 0.699902 -0.682605
vt 17.5224 26.8742
f 96/165/3 99/168/3 100/169/3

vt 24.094 27.5552
v -0.44507 -7.73585e-018 -0.611989
vt 24.094 -3.04561e-016
v -0.44507 0 -0.682605
vt 26.8742 0
f 100/156/14 99/170/14 101/171/14 102/172/14 

vt -17.5224 5.90837e-015
vn 0 2.57862e-016 1
vt -17.5224 27.5552
v -0.498189 0.699902 -0.611989
vt -19.6138 27.5552
v -0.498189 -7.73585e-018 -0.611989
vt -19.6138 5.90837e-015
f 101/173/16 99/174/16 103/175/16 104/176/16 

v -0.498189 0.699902 0.263503
vt 19.6138 -10.3741
vt 19.6138 24.094
f 99/168/3 105/177/3 103/178/3

f 105/177/3 99/168/3 98/167/3

vt 17.5224 27.5552
v -0.44507 0 0.263503
vt 17.5224 0
v -0.498189 0 0.263503
vt 19.6138 0
vt 19.6138 27.5552
f 98/179/6 106/180/6 107/181/6 105/182/6 

v -0.44507 0 0.317395
vt -12.4959 0
vt -10.3741 0
vt -10.3741 27.5552
f 108/183/14 106/184/14 98/185/14 97/159/14 

v -0.498189 0 0.317395
f 109/53/3 107/177/3 106/167/3 108/166/3 

vt 12.4959 -3.95128e-017
vn -1 2.01454e-018 -5.04212e-017
v -0.498189 0.699902 0.317395
vt 12.4959 27.5552
vt 10.3741 27.5552
vt 10.3741 -3.95128e-017
f 109/186/17 110/187/17 105/188/17 107/189/17 

vt -19.6138 0
vn 0 0 1
vt -17.5224 0
vt 19.2621 27.5552
v 0.489256 0 0.317395
vt 19.2621 0
v 0.541811 0 0.317395
vt 21.3311 0
vt 21.3311 27.5552
f 109/190/18 108/191/18 97/174/18 95/192/18 111/193/18 112/194/18 92/195/18 35/8/18 36/5/18 110/175/18 

vn -1 0 -0
vt 9.57423 27.5552
v 0.489256 0 0.243186
vt 9.57423 0
vt 12.4959 0
f 95/187/19 93/196/19 113/197/19 111/198/19 

vt -19.2621 0
vt -19.2621 27.5552
vt -21.3311 27.5552
v 0.541811 0 0.243186
vt -21.3311 0
f 113/199/6 93/200/6 85/201/6 114/202/6 

vt -9.57423 0
f 114/203/14 85/154/14 92/159/14 112/183/14 

f 113/160/3 114/162/3 112/52/3 111/164/3 

usemtl Color_004
v 0.541811 0.76 0.317395
v -0.498189 0.76 0.317395
f 36/5/18 35/8/18 115/9/18 116/10/18 

vt -7.77145 29.9213
vt -12.4959 29.9213
f 35/158/14 31/127/14 34/204/14 115/205/14 

f 116/72/1 115/69/1 34/98/1 33/73/1 

vt 12.4959 29.3307
vt 12.4959 29.9213
vt 7.77145 29.9213
f 32/29/19 36/206/19 116/207/19 33/208/19 

usemtl Color_008
vt -26.8742 29.3307
v -0.498189 0.699902 -0.682605
vt -26.8742 27.5552
vt -24.094 27.5552
f 56/209/19 117/210/19 103/211/19 105/188/19 110/187/19 36/206/19 32/29/19 40/30/19 39/31/19 47/32/19 48/33/19 49/34/19 50/35/19 51/36/19 52/37/19 53/38/19 54/39/19 5/40/19 9/41/19 55/42/19 

v 0.541811 0 -0.682605
v 0.489256 0 -0.682605
v -0.498189 0 -0.682605
f 118/202/6 119/199/6 96/200/6 100/179/6 102/180/6 120/181/6 117/182/6 56/18/6 58/15/6 87/201/6 

v 0.541811 0 -0.617858
v 0.489256 0 -0.617858
f 118/97/3 121/161/3 122/163/3 119/165/3 

vt 24.3251 0
f 118/172/14 87/156/14 86/155/14 121/212/14 

f 94/192/18 122/193/18 121/194/18 86/195/18 

vt -26.8742 0
vt -24.3251 0
vt -24.3251 27.5552
f 119/213/19 122/214/19 94/215/19 96/210/19 

f 101/168/3 104/178/3 120/96/3 102/169/3 

vt -24.094 -3.44074e-016
vn -1 2.01454e-018 4.20403e-017
vt -26.8742 -3.95128e-017
f 104/216/20 103/211/20 117/210/20 120/217/20 

usemtl Color_004
v -0.498189 0.76 -0.682605
v 0.541811 0.76 -0.682605
f 58/15/6 56/18/6 123/19/6 124/20/6 

vt -22.1498 29.9213
vt -26.8742 29.9213
f 56/209/19 55/42/19 62/218/19 123/219/19 

vt 21.3311 22.1498
f 62/84/1 61/220/1 124/88/1 123/85/1 

vt 26.8742 29.9213
vt 22.1498 29.9213
f 60/114/14 58/157/14 124/221/14 61/222/14 

usemtl Color_008
f 58/88/1 11/3/1 60/220/1

f 58/88/1 8/2/1 11/3/1

vt 21.3311 16.8348
f 58/88/1 88/223/1 8/2/1

vt 21.3311 12.1104
f 58/88/1 89/224/1 88/223/1

vt 21.3311 11.9136
f 58/88/1 90/225/1 89/224/1

vt 21.3311 7.18918
f 58/88/1 91/226/1 90/225/1

f 58/88/1 79/149/1 91/226/1

usemtl Color_004
v 0.541811 0.76 -0.302605
vt 11.9136 29.9213
v 0.541811 0.76 -0.182605
vt 7.18918 29.9213
f 91/120/14 90/119/14 125/227/14 126/228/14 

vt -21.3311 7.18918
vt -17.9302 7.18918
vt -17.9302 11.9136
vt -21.3311 11.9136
f 91/229/3 22/230/3 23/231/3 90/232/3 

vn 1.3422e-017 7.51991e-016 1
v -0.498189 0.76 -0.182605
f 51/5/21 74/6/21 22/7/21 91/8/21 126/9/21 127/10/21 

vt 19.6138 11.9136
vt 16.2128 11.9136
vt 16.2128 7.18918
vt 19.6138 7.18918
f 52/233/3 73/234/3 74/235/3 51/236/3 

vn -1.3422e-017 7.51991e-016 -1
v -0.498189 0.76 -0.302605
f 90/15/22 23/16/22 73/17/22 52/18/22 128/19/22 125/20/22 

f 73/234/3 23/231/3 22/230/3 74/235/3 

usemtl Color_008
vt 17.9302 11.9136
f 24/99/1 23/237/1 22/100/1

vt -16.2128 7.18918
f 74/238/1 73/134/1 75/135/1

usemtl Color_004
vt -7.18918 29.9213
vt -11.9136 29.9213
f 52/37/19 51/36/19 127/239/19 128/240/19 

f 127/80/1 126/226/1 125/225/1 128/81/1 

v 0.541811 0.76 -0.427605
vt 16.8348 29.9213
v 0.541811 0.76 -0.307605
vt 12.1104 29.9213
f 89/118/14 88/117/14 129/241/14 130/242/14 

vt -21.3311 12.1104
vt -17.9302 12.1104
vt -17.9302 16.8348
vt -21.3311 16.8348
f 89/243/3 24/244/3 25/245/3 88/246/3 

vn 1.3422e-017 -7.51991e-016 1
v -0.498189 0.76 -0.307605
f 53/5/23 72/6/23 24/7/23 89/8/23 130/9/23 131/10/23 

vt 19.6138 16.8348
vt 16.2128 16.8348
vt 16.2128 12.1104
vt 19.6138 12.1104
f 54/247/3 71/248/3 72/249/3 53/250/3 

v -0.498189 0.76 -0.427605
f 88/15/4 25/16/4 71/17/4 54/18/4 132/19/4 129/20/4 

f 71/248/3 25/245/3 24/244/3 72/249/3 

usemtl Color_008
vt 17.9302 16.8348
f 7/27/1 25/251/1 24/99/1

vt -16.2128 12.1104
f 72/252/1 71/133/1 73/134/1

usemtl Color_004
vt -12.1104 29.9213
vt -16.8348 29.9213
f 54/39/19 53/38/19 131/253/19 132/254/19 

f 131/82/1 130/224/1 129/223/1 132/83/1 

vt 21.8348 29.9213
vt 17.1104 29.9213
f 8/116/14 11/115/14 3/255/14 2/256/14 

vt 7.5746 29.9213
vt 2.85019 29.9213
f 39/31/19 40/30/19 46/257/19 42/258/19 

f 46/74/1 45/153/1 43/152/1 42/75/1 

vt -2.85019 29.9213
vt -7.5746 29.9213
f 44/126/14 41/125/14 43/259/14 45/260/14 

vt 2.65334 29.9213
vt -2.07107 29.9213
f 48/33/19 47/32/19 67/261/19 69/262/19 

f 67/76/1 66/151/1 70/150/1 69/77/1 

vt 2.07107 29.9213
vt -2.65334 29.9213
f 63/124/14 64/123/14 70/263/14 66/264/14 

vt -2.26792 29.9213
vt -6.99233 29.9213
f 50/35/19 49/34/19 84/265/19 80/266/19 

f 84/78/1 83/148/1 81/149/1 80/79/1 

vt -17.1104 29.9213
vt -21.8348 29.9213
f 9/41/19 5/40/19 1/267/19 4/268/19 

usemtl Color_008
f 78/92/3 96/165/3 27/93/3

f 27/93/3 96/165/3 28/48/3

vt -16.2128 27.5552
vt 17.9302 27.5552
f 26/7/18 57/6/18 78/269/18 27/270/18 

vt -17.9302 27.5552
vt 16.2128 27.5552
f 30/17/6 14/16/6 28/271/6 77/272/6 

