# Alias OBJ Model File
# Exported from SketchUp, (c) 2000-2012 Trimble Navigation Limited
# File units = meters

mtllib table1.mtl

g Mesh1 Model

usemtl _Color_004_1
v 0.680751 0 0.24436
vt -9.62045 0
vn 1 0 -0
v 0.680751 0.6 0.24436
vt -9.62045 23.622
v 0.680751 0.7 0.24436
vt -9.62045 27.5591
v 0.680751 0.745 0.24436
vt -9.62045 29.3307
v 0.680751 0.745 0.28936
vt -11.3921 29.3307
v 0.680751 0 0.28936
vt -11.3921 0
f 1/1/1 2/2/1 3/3/1 4/4/1 5/5/1 6/6/1 

vt -26.8012 23.622
vn 0 0 -1
vt -26.8012 0
v 0.635751 0 0.24436
vt -25.0296 0
v 0.635751 0.6 0.24436
vt -25.0296 23.622
f 2/7/2 1/8/2 7/9/2 8/10/2 

v 0.635751 5.63993e-018 0.28936
vt -25.0296 -11.3921
vn -6.26659e-017 -1 6.26659e-017
vt -25.0296 -9.62045
vt -26.8012 -9.62045
vt -26.8012 -11.3921
f 9/11/3 7/12/3 1/13/3 6/14/3 

v 0.635751 0.6 0.28936
vt 11.3921 23.622
vn -1 0 -0
vt 9.62045 23.622
vt 9.62045 0
vt 11.3921 2.22045e-016
f 10/15/4 8/16/4 7/17/4 9/18/4 

usemtl FrontColor
v 0.635751 0.6 -0.41064
vt -25.0296 16.1669
vn -4.4599e-017 -1 4.46003e-017
v 0.635751 0.6 -0.36564
vt -25.0296 14.3953
v 0.680751 0.6 -0.36564
vt -26.8012 14.3953
v -0.674249 0.6 0.28936
vt 26.5452 -11.3921
v -0.674249 0.6 0.24436
vt 26.5452 -9.62045
v -0.719249 0.6 0.24436
vt 28.3169 -9.62045
v -0.719249 0.6 -0.36564
vt 28.3169 14.3953
v -0.674249 0.6 -0.36564
vt 26.5452 14.3953
v -0.674249 0.6 -0.41064
vt 26.5452 16.1669
f 11/19/5 12/20/5 13/21/5 2/13/5 8/12/5 10/11/5 14/22/5 15/23/5 16/24/5 17/25/5 18/26/5 19/27/5 

usemtl _Color_004_1
v 0.635751 0 -0.36564
vt -14.3953 0
vt -14.3953 23.622
vt -16.1669 23.622
v 0.635751 5.63993e-018 -0.41064
vt -16.1669 2.22045e-016
f 20/28/4 12/29/4 11/30/4 21/31/4 

v 0.680751 0 -0.36564
vt 26.8012 4.33005e-015
vn 1.93533e-044 3.00796e-016 1
vt 26.8012 23.622
vt 25.0296 23.622
vt 25.0296 4.33005e-015
f 22/32/6 13/33/6 12/34/6 20/35/6 

v 0.680751 0.745 -0.41064
vt 16.1669 29.3307
vt 14.3953 23.622
vt 14.3953 0
v 0.680751 0 -0.41064
vt 16.1669 0
f 23/36/1 4/4/1 3/3/1 2/2/1 13/37/1 22/38/1 24/39/1 

v -0.719249 0.745 -0.41064
vt -28.3169 16.1669
vn 0 1 -0
v -0.719249 0.745 -0.36564
vt -28.3169 14.3953
v -0.719249 0.745 0.28936
vt -28.3169 -11.3921
vt 26.8012 -11.3921
vt 26.8012 -9.62045
vt 26.8012 16.1669
f 25/40/7 26/41/7 27/42/7 5/43/7 4/44/7 23/45/7 

vt 28.3169 16.1669
vn 0 -1 -0
vt 28.3169 -11.3921
v -0.719249 0.745 0.30936
vt 28.3169 -12.1795
v -0.739249 0.745 0.30936
vt 29.1043 -12.1795
v -0.739249 0.745 -0.43064
vt 29.1043 16.9543
v -0.719249 0.745 -0.43064
vt 28.3169 16.9543
f 25/46/8 26/25/8 27/47/8 28/48/8 29/49/8 30/50/8 31/51/8 

v -0.719249 0 -0.36564
vt -14.3953 2.57177e-015
vn -1 -9.08212e-017 2.8268e-015
vt -14.3953 29.3307
vt -16.1669 29.3307
v -0.719249 0 -0.41064
vt -16.1669 2.57177e-015
f 32/52/9 17/29/9 26/53/9 25/54/9 33/55/9 

v -0.674249 0 -0.36564
vt -26.5452 0
vn 0 0 1
vt -26.5452 23.622
vt -28.3169 23.622
vt -28.3169 0
f 34/56/10 18/57/10 17/58/10 32/59/10 

vt 16.1669 23.622
v -0.674249 0 -0.41064
f 19/60/1 18/37/1 34/38/1 35/39/1 

f 34/26/8 32/25/8 33/46/8 35/27/8 

vt 28.3169 29.3307
vn -3.50741e-048 -2.82747e-017 -1
vt 26.5452 4.57115e-016
vt 28.3169 4.57115e-016
f 25/61/11 35/62/11 33/63/11

vt 26.5452 23.622
f 35/62/11 25/61/11 19/64/11

v -0.647287 0.628531 -0.41064
vt 25.4837 24.7453
f 19/64/11 25/61/11 36/65/11

v -0.647287 0.717531 -0.41064
vt 25.4837 28.2492
f 36/65/11 25/61/11 37/66/11

v -0.247287 0.717531 -0.41064
vt 9.7357 28.2492
f 37/66/11 25/61/11 38/67/11

v -0.215926 0.717689 -0.41064
vt 8.50103 28.2555
f 38/67/11 25/61/11 39/68/11

v 0.178074 0.717689 -0.41064
vt -7.01078 28.2555
f 39/68/11 25/61/11 40/69/11

v 0.211 0.719289 -0.41064
vt -8.30709 28.3185
f 40/69/11 25/61/11 41/70/11

v 0.61 0.719289 -0.41064
vt -24.0157 28.3185
f 41/70/11 25/61/11 42/71/11

vt -26.8012 29.3307
f 23/72/11 42/71/11 25/61/11

v 0.61 0.625289 -0.41064
vt -24.0157 24.6177
f 23/72/11 43/73/11 42/71/11

f 23/72/11 11/10/11 43/73/11

vt -25.0296 6.7916e-016
f 23/72/11 21/74/11 11/10/11

vt -26.8012 4.57115e-016
f 21/74/11 23/72/11 24/75/11

vn -6.26659e-017 -1 -6.26659e-017
vt -26.8012 16.1669
f 22/21/12 20/20/12 21/19/12 24/76/12 

f 43/73/11 11/10/11 19/64/11

v 0.211 0.625289 -0.41064
vt -8.30709 24.6177
f 43/73/11 19/64/11 44/77/11

f 19/64/11 36/65/11 44/77/11

v -0.215926 0.627689 -0.41064
vt 8.50103 24.7121
f 44/77/11 36/65/11 45/78/11

v -0.247287 0.628531 -0.41064
vt 9.7357 24.7453
f 46/79/11 45/78/11 36/65/11

f 45/78/11 46/79/11 39/68/11

f 39/68/11 46/79/11 38/67/11

usemtl Color_C14
f 36/65/2 37/66/2 38/67/2 46/79/2 

v 0.178074 0.627689 -0.41064
vt -7.01078 24.7121
f 45/78/2 39/68/2 40/69/2 47/80/2 

usemtl _Color_004_1
f 41/70/11 47/80/11 40/69/11

f 44/77/11 47/80/11 41/70/11

f 47/80/11 44/77/11 45/78/11

usemtl Color_C14
f 43/73/2 44/77/2 41/70/2 42/71/2 

usemtl _Color_004_1
v 0.680751 0.745 -0.43064
vt -26.8012 16.9543
f 23/76/8 25/46/8 31/51/8 48/81/8 

usemtl Color_B19
v -0.739249 0.76 -0.43064
vt 29.1043 29.9213
v 0.700751 0.76 -0.43064
vt -27.5886 29.9213
v 0.700751 0.745 -0.43064
vt -27.5886 29.3307
vt 29.1043 29.3307
f 49/82/2 50/83/2 51/84/2 48/72/2 31/61/2 30/85/2 

vt -29.1043 16.9543
v 0.547412 0.76 -0.0733391
vt 21.5517 2.88737
vt 27.5886 16.9543
f 49/86/7 52/87/7 50/88/7

v 0.546262 0.76 -0.0705623
vt 21.5064 2.77805
f 52/87/7 49/86/7 53/89/7

v 0.54587 0.76 -0.0675825
vt 21.4909 2.66073
f 53/89/7 49/86/7 54/90/7

v 0.546262 0.76 -0.0646027
vt 21.5064 2.54341
f 49/86/7 55/91/7 54/90/7

v 0.700751 0.76 0.30936
vt 27.5886 -12.1795
f 49/86/7 56/92/7 55/91/7

v -0.739249 0.76 0.30936
vt -29.1043 -12.1795
f 56/92/7 49/86/7 57/93/7

vt 12.1795 29.9213
vt -16.9543 29.9213
vt -16.9543 29.3307
vt 12.1795 29.3307
f 57/94/4 49/95/4 30/96/4 29/97/4 

vt 27.5886 29.9213
vt -29.1043 29.9213
vt -29.1043 29.3307
vt -28.3169 29.3307
v 0.700751 0.745 0.30936
vt 27.5886 29.3307
f 56/98/10 57/99/10 29/100/10 28/101/10 58/102/10 

usemtl _Color_004_1
v 0.700751 0.745 0.28936
vt -27.5886 -11.3921
vt -27.5886 -12.1795
f 27/47/8 5/14/8 59/103/8 58/104/8 28/48/8 

v -0.64534 0.72047 0.28936
vt -25.4071 28.3649
vt 26.8012 29.3307
f 27/101/10 60/105/10 5/106/10

v -0.64534 0.62747 0.28936
vt -25.4071 24.7035
f 27/101/10 61/107/10 60/105/10

f 27/101/10 14/57/10 61/107/10

v -0.719249 0 0.28936
f 62/59/10 14/57/10 27/101/10

v -0.674249 0 0.28936
f 14/57/10 62/59/10 63/56/10

v -0.719249 0 0.24436
v -0.674249 0 0.24436
f 62/47/8 64/24/8 65/23/8 63/22/8 

vt 11.3921 29.3307
vn -1 -6.37374e-017 -4.85357e-017
vt 9.62045 1.80484e-015
vt 11.3921 1.80484e-015
f 27/108/13 26/53/13 17/29/13 16/16/13 64/109/13 62/110/13 

vt 26.5452 0
vt 28.3169 0
vt 28.3169 23.622
f 15/64/2 65/111/2 64/112/2 16/113/2 

vt -11.3921 23.622
f 63/6/1 65/1/1 15/2/1 14/114/1 

v 0.210702 0.624773 0.28936
vt 8.29537 24.5974
f 61/107/10 14/57/10 66/115/10

v 0.611702 0.624773 0.28936
vt 24.0828 24.5974
f 66/115/10 14/57/10 67/116/10

f 10/34/10 67/116/10 14/57/10

f 10/34/10 5/106/10 67/116/10

vt 25.0296 2.22045e-016
f 9/117/10 5/106/10 10/34/10

vt 26.8012 0
f 5/106/10 9/117/10 6/118/10

v 0.611702 0.716773 0.28936
vt 24.0828 28.2194
f 67/116/10 5/106/10 68/119/10

v 0.210702 0.716773 0.28936
vt 8.29537 28.2194
f 68/119/10 5/106/10 69/120/10

v 0.182947 0.718085 0.28936
vt 7.20264 28.2711
f 69/120/10 5/106/10 70/121/10

v -0.215053 0.718085 0.28936
vt -8.46665 28.2711
f 70/121/10 5/106/10 71/122/10

v -0.24434 0.72047 0.28936
vt -9.61969 28.3649
f 71/122/10 5/106/10 72/123/10

f 72/123/10 5/106/10 60/105/10

usemtl Color_C14
v -0.24434 0.62747 0.28936
vt -9.61969 24.7035
f 73/124/10 72/123/10 60/105/10 61/107/10 

usemtl _Color_004_1
f 73/124/10 71/122/10 72/123/10

v -0.215053 0.627085 0.28936
vt -8.46665 24.6884
f 71/122/10 73/124/10 74/125/10

f 61/107/10 74/125/10 73/124/10

f 61/107/10 66/115/10 74/125/10

v 0.182947 0.627085 0.28936
vt 7.20264 24.6884
f 74/125/10 66/115/10 75/126/10

f 69/120/10 75/126/10 66/115/10

f 75/126/10 69/120/10 70/121/10

usemtl Color_C14
f 74/125/10 75/126/10 70/121/10 71/122/10 

f 68/119/10 69/120/10 66/115/10 67/116/10 

usemtl _Color_004_1
vt -27.5886 16.9543
f 5/14/8 4/13/8 23/76/8 48/81/8 51/127/8 59/103/8 

usemtl Color_B19
vt 16.9543 29.9213
vt -12.1795 29.9213
vt -12.1795 29.3307
vt 16.9543 29.3307
f 50/128/1 56/129/1 58/130/1 59/5/1 51/131/1 

v 0.60273 0.76 -0.0675825
vt 23.7295 2.66073
f 50/88/7 76/132/7 56/92/7

v 0.602338 0.76 -0.0705623
vt 23.7141 2.77805
f 50/88/7 77/133/7 76/132/7

v 0.601188 0.76 -0.0733391
vt 23.6688 2.88737
f 50/88/7 78/134/7 77/133/7

v 0.599358 0.76 -0.0757236
vt 23.5968 2.98124
f 50/88/7 79/135/7 78/134/7

v 0.596974 0.76 -0.0775532
vt 23.5029 3.05328
f 50/88/7 80/136/7 79/135/7

v 0.594197 0.76 -0.0787034
vt 23.3936 3.09856
f 50/88/7 81/137/7 80/136/7

v 0.591217 0.76 -0.0790957
vt 23.2763 3.114
f 50/88/7 82/138/7 81/137/7

v 0.588237 0.76 -0.0787034
vt 23.159 3.09856
f 50/88/7 83/139/7 82/138/7

v 0.585461 0.76 -0.0775532
vt 23.0496 3.05328
f 50/88/7 84/140/7 83/139/7

v 0.583076 0.76 -0.0757236
vt 22.9558 2.98124
f 50/88/7 85/141/7 84/140/7

v 0.581246 0.76 -0.0733391
vt 22.8837 2.88737
f 50/88/7 86/142/7 85/141/7

v 0.580096 0.76 -0.0705623
vt 22.8384 2.77805
f 50/88/7 87/143/7 86/142/7

v 0.568896 0.76 -0.0675825
vt 22.3975 2.66073
f 50/88/7 88/144/7 87/143/7

v 0.568504 0.76 -0.0705623
vt 22.3821 2.77805
f 50/88/7 89/145/7 88/144/7

v 0.567354 0.76 -0.0733391
vt 22.3368 2.88737
f 50/88/7 90/146/7 89/145/7

v 0.565524 0.76 -0.0757236
vt 22.2647 2.98124
f 50/88/7 91/147/7 90/146/7

v 0.56314 0.76 -0.0775532
vt 22.1709 3.05328
f 50/88/7 92/148/7 91/147/7

v 0.560363 0.76 -0.0787034
vt 22.0615 3.09856
f 50/88/7 93/149/7 92/148/7

v 0.557383 0.76 -0.0790957
vt 21.9442 3.114
f 50/88/7 94/150/7 93/149/7

v 0.554403 0.76 -0.0787034
vt 21.8269 3.09856
f 50/88/7 95/151/7 94/150/7

v 0.551627 0.76 -0.0775532
vt 21.7176 3.05328
f 50/88/7 96/152/7 95/151/7

v 0.549242 0.76 -0.0757236
vt 21.6237 2.98124
f 50/88/7 97/153/7 96/152/7

f 50/88/7 52/87/7 97/153/7

v 0.547412 0.76 -0.0618259
vt 21.5517 2.43409
v 0.549242 0.76 -0.0594414
vt 21.6237 2.34021
v 0.551627 0.76 -0.0576118
vt 21.7176 2.26818
v 0.554403 0.76 -0.0564616
vt 21.8269 2.2229
v 0.557383 0.76 -0.0560693
vt 21.9442 2.20745
v 0.560363 0.76 -0.0564616
vt 22.0615 2.2229
v 0.56314 0.76 -0.0576118
vt 22.1709 2.26818
v 0.565524 0.76 -0.0594414
vt 22.2647 2.34021
v 0.567354 0.76 -0.0618259
vt 22.3368 2.43409
v 0.568504 0.76 -0.0646027
vt 22.3821 2.54341
f 97/153/7 52/87/7 53/89/7 54/90/7 55/91/7 98/154/7 99/155/7 100/156/7 101/157/7 102/158/7 103/159/7 104/160/7 105/161/7 106/162/7 107/163/7 88/144/7 89/145/7 90/146/7 91/147/7 92/148/7 93/149/7 94/150/7 95/151/7 96/152/7 

f 55/91/7 56/92/7 98/154/7

f 98/154/7 56/92/7 99/155/7

f 99/155/7 56/92/7 100/156/7

f 100/156/7 56/92/7 101/157/7

f 101/157/7 56/92/7 102/158/7

f 102/158/7 56/92/7 103/159/7

f 103/159/7 56/92/7 104/160/7

f 104/160/7 56/92/7 105/161/7

f 105/161/7 56/92/7 106/162/7

f 106/162/7 56/92/7 107/163/7

f 107/163/7 56/92/7 88/144/7

v 0.580096 0.76 -0.0646027
vt 22.8384 2.54341
f 88/144/7 56/92/7 108/164/7

v 0.581246 0.76 -0.0618259
vt 22.8837 2.43409
f 108/164/7 56/92/7 109/165/7

v 0.583076 0.76 -0.0594414
vt 22.9558 2.34021
f 109/165/7 56/92/7 110/166/7

v 0.585461 0.76 -0.0576118
vt 23.0496 2.26818
f 110/166/7 56/92/7 111/167/7

v 0.588237 0.76 -0.0564616
vt 23.159 2.2229
f 111/167/7 56/92/7 112/168/7

v 0.591217 0.76 -0.0560693
vt 23.2763 2.20745
f 112/168/7 56/92/7 113/169/7

v 0.594197 0.76 -0.0564616
vt 23.3936 2.2229
f 113/169/7 56/92/7 114/170/7

v 0.596974 0.76 -0.0576118
vt 23.5029 2.26818
f 114/170/7 56/92/7 115/171/7

v 0.599358 0.76 -0.0594414
vt 23.5968 2.34021
f 115/171/7 56/92/7 116/172/7

v 0.601188 0.76 -0.0618259
vt 23.6688 2.43409
f 116/172/7 56/92/7 117/173/7

v 0.602338 0.76 -0.0646027
vt 23.7141 2.54341
f 117/173/7 56/92/7 118/174/7

f 118/174/7 56/92/7 76/132/7

v 0.579704 0.76 -0.0675825
vt 22.823 2.66073
f 85/141/7 86/142/7 87/143/7 119/175/7 108/164/7 109/165/7 110/166/7 111/167/7 112/168/7 113/169/7 114/170/7 115/171/7 116/172/7 117/173/7 118/174/7 76/132/7 77/133/7 78/134/7 79/135/7 80/136/7 81/137/7 82/138/7 83/139/7 84/140/7 

f 87/143/7 88/144/7 119/175/7

f 88/144/7 108/164/7 119/175/7

