# Alias OBJ Model File
# Exported from SketchUp, (c) 2000-2012 Trimble Navigation Limited
# File units = meters

mtllib shelf4.mtl

g Mesh1 Group1 IKEA_Magiker_18Shelf_Unit_with_Legs_WhiteFinish1 ntitled1 Model

usemtl Metal_Panel
v 0.630356 0.06985 -0.391278
vt 0 1
vn 0 1 -7.41898e-015
v 0.630356 0.06985 -0.365878
vt 0 0
v 0.655756 0.06985 -0.365878
vt 1 0
v 0.655756 0.06985 -0.391278
vt 1 1
f 1/1/1 2/2/1 3/3/1 4/4/1 

v 0.630356 3.49676e-016 -0.391278
vt -2.75 1
vn -1 -0 -0
v 0.630356 5.41434e-016 -0.365878
vt -2.75 0
f 5/5/2 6/6/2 2/2/2 1/1/2 

vn 0 -1 7.41898e-015
v 0.655756 3.49676e-016 -0.391278
vt -1 1
v 0.655756 5.41434e-016 -0.365878
vt -1 0
f 6/2/3 5/1/3 7/7/3 8/8/3 

vt 1 2.75
vn 0 -7.41898e-015 -1
vt 0 2.75
f 7/9/4 5/10/4 1/2/4 4/3/4 

vt 2.75 0
vn 1 0 -0
vt 2.75 1
f 8/11/5 7/12/5 4/1/5 3/2/5 

vn 0 7.41898e-015 1
vt -1 2.75
f 6/10/6 8/13/6 3/8/6 2/2/6 

g Mesh2 Group2 IKEA_Magiker_18Shelf_Unit_with_Legs_WhiteFinish1 ntitled1 Model

v -0.247703 0.06985 -0.104178
v -0.247703 0.06985 -0.0787784
v -0.222303 0.06985 -0.0787784
v -0.222303 0.06985 -0.104178
f 9/1/1 10/2/1 11/3/1 12/4/1 

v -0.247703 5.30154e-016 -0.104178
v -0.247703 7.21911e-016 -0.0787784
f 13/5/2 14/6/2 10/2/2 9/1/2 

v -0.222303 5.30154e-016 -0.104178
v -0.222303 7.21911e-016 -0.0787784
f 14/2/3 13/1/3 15/7/3 16/8/3 

f 15/9/4 13/10/4 9/2/4 12/3/4 

f 16/11/5 15/12/5 12/1/5 11/2/5 

f 14/10/6 16/13/6 11/8/6 10/2/6 

g Mesh3 Group3 IKEA_Magiker_18Shelf_Unit_with_Legs_WhiteFinish1 ntitled1 Model

v 0.630356 0.06985 -0.104178
v 0.630356 0.06985 -0.0787784
v 0.655756 0.06985 -0.0787784
v 0.655756 0.06985 -0.104178
f 17/1/1 18/2/1 19/3/1 20/4/1 

v 0.630356 3.49676e-016 -0.104178
v 0.630356 5.41434e-016 -0.0787784
f 21/5/2 22/6/2 18/2/2 17/1/2 

v 0.655756 3.49676e-016 -0.104178
v 0.655756 5.41434e-016 -0.0787784
f 22/2/3 21/1/3 23/7/3 24/8/3 

f 23/9/4 21/10/4 17/2/4 20/3/4 

f 24/11/5 23/12/5 20/1/5 19/2/5 

f 22/10/6 24/13/6 19/8/6 18/2/6 

g Mesh4 Group4 IKEA_Magiker_18Shelf_Unit_with_Legs_WhiteFinish1 ntitled1 Model

v -0.247703 0.06985 -0.391278
v -0.247703 0.06985 -0.365878
v -0.222303 0.06985 -0.365878
v -0.222303 0.06985 -0.391278
f 25/1/1 26/2/1 27/3/1 28/4/1 

v -0.247703 5.30154e-016 -0.391278
v -0.247703 7.21911e-016 -0.365878
f 29/5/2 30/6/2 26/2/2 25/1/2 

v -0.222303 5.30154e-016 -0.391278
v -0.222303 7.21911e-016 -0.365878
f 30/2/3 29/1/3 31/7/3 32/8/3 

f 31/9/4 29/10/4 25/2/4 28/3/4 

f 32/11/5 31/12/5 28/1/5 27/2/5 

f 30/10/6 32/13/6 27/8/6 26/2/6 

g Mesh5 Group5 IKEA_Magiker_18Shelf_Unit_1_1 IKEA_Magiker_18Shelf_Unit_with_Legs_WhiteFinish1 ntitled1 Model

usemtl White_finish
v 0.738306 0.06985 -0.42894
v 0.738306 2.1209 -0.42894
vt 6.02943 0
v 0.738306 2.1209 -0.0288903
vt 6.02943 0.378141
v 0.738306 0.06985 -0.0288903
vt 0 0.378141
f 33/2/5 34/14/5 35/15/5 36/16/5 

v -0.303094 2.1209 -0.42894
vt 0 2.00475
vn 0 -3.59544e-012 -1
vt -2.96056 2.00475
vt -2.96056 0
v -0.303094 0.06985 -0.42894
f 37/17/7 34/18/7 33/19/7 38/2/7 

vn 0 1 -3.59544e-012
v -0.303094 2.1209 -0.0288903
vt -2.96056 0.378141
f 34/19/8 37/2/8 39/16/8 35/20/8 

vt -6.02943 0
vn -1 0 -0
v -0.303094 0.06985 -0.0288903
vt -6.02943 0.378141
f 37/21/9 38/2/9 40/16/9 39/22/9 

vn 0 -1 3.59544e-012
vt 2.96056 0
vt 2.96056 0.378141
f 38/2/10 33/23/10 36/24/10 40/16/10 

v -0.290394 0.0821317 -0.0288903
vt 0.0361044 0.0120045
vn 0 3.59544e-012 1
f 41/25/11 40/2/11 36/23/11

f 40/2/11 41/25/11 39/17/11

v -0.290394 2.10862 -0.0288903
vt 0.0361044 1.99274
f 42/26/11 39/17/11 41/25/11

vt 2.96056 2.00475
f 39/17/11 42/26/11 35/27/11

v 0.725606 2.10862 -0.0288903
vt 2.92445 1.99274
f 35/27/11 42/26/11 43/28/11

vt 2.92445 0.378141
vt 0.0361044 0.378141
v -0.290394 2.10862 -0.42259
vt 0.0361044 0.00600224
v 0.725606 2.10862 -0.42259
vt 2.92445 0.00600224
f 43/29/10 42/30/10 44/31/10 45/32/10 

vt 5.99332 0.378141
v -0.290394 0.0821317 -0.42259
vt 5.99332 0.00600224
f 42/33/5 41/30/5 46/31/5 44/34/5 

vt -0.0361044 0.378141
v 0.725606 0.0821317 -0.0288903
vt -2.92445 0.378141
v 0.725606 0.0821317 -0.42259
vt -2.92445 0.00600224
vt -0.0361044 0.00600224
f 41/35/8 47/36/8 48/37/8 46/38/8 

vt 2.92445 0.0120045
f 41/25/11 36/23/11 47/39/11

f 47/39/11 36/23/11 43/28/11

f 35/27/11 43/28/11 36/23/11

vt -5.99332 0.378141
vt -5.99332 0.00600224
f 47/35/9 43/40/9 45/41/9 48/38/9 

f 44/26/11 46/25/11 48/39/11 45/28/11 

g Mesh6 Group6 IKEA_Magiker_18Shelf_Unit_1_1 IKEA_Magiker_18Shelf_Unit_with_Legs_WhiteFinish1 ntitled1 Model

v 0.725606 1.0922 -0.0288903
vt -2.88835 0
vn 0 -1 -0
v -0.290394 1.0922 -0.0288903
v -0.290394 1.0922 -0.42259
vt 0 0.372139
v 0.725606 1.0922 -0.42259
vt -2.88835 0.372139
f 49/42/12 50/2/12 51/43/12 52/44/12 

vn 0 0 1
vt 2.88835 0
v 0.725606 1.1049 -0.0288903
vt 2.88835 0.0120045
v -0.290394 1.1049 -0.0288903
vt 0 0.0120045
f 50/2/13 49/45/13 53/46/13 54/47/13 

vt 1.11924 0
v 0.725606 1.1049 -0.42259
vt 1.11924 0.0120045
f 49/2/5 52/48/5 55/49/5 53/47/5 

vn 0 0 -1
v -0.290394 1.1049 -0.42259
vt -2.88835 0.0120045
f 52/42/14 51/2/14 56/47/14 55/50/14 

vt -1.11924 0
vt -1.11924 0.0120045
f 51/51/9 50/2/9 54/47/9 56/52/9 

vn 0 1 -0
vt 2.88835 0.372139
f 54/2/15 53/45/15 55/53/15 56/43/15 

g Mesh7 Group7 IKEA_Magiker_18Shelf_Unit_1_1 IKEA_Magiker_18Shelf_Unit_with_Legs_WhiteFinish1 ntitled1 Model

v 0.725606 1.76848 -0.42259
vn 0 -1 -1.02009e-012
v 0.725606 1.76848 -0.0288903
v -0.290394 1.76848 -0.0288903
v -0.290394 1.76848 -0.42259
f 57/44/16 58/42/16 59/2/16 60/43/16 

vt 0.0180522 0
vt 0.0180522 0.372139
v 0.725606 1.77483 -0.42259
v 0.725606 1.77483 -0.0288903
f 58/54/5 57/55/5 61/43/5 62/2/5 

vt 2.88835 0.00600224
vn 0 1.02009e-012 -1
vt 0 0.00600224
v -0.290394 1.77483 -0.42259
f 57/56/17 60/57/17 63/2/17 61/45/17 

vt -0.0180522 0.372139
vt -0.0180522 0
v -0.290394 1.77483 -0.0288903
f 60/58/9 59/59/9 64/2/9 63/43/9 

vn 0 -1.02009e-012 1
vt -2.88835 0.00600224
f 59/57/18 58/60/18 62/42/18 64/2/18 

vn 0 1 1.02009e-012
f 62/45/19 61/53/19 63/43/19 64/2/19 

g Mesh8 Group8 IKEA_Magiker_18Shelf_Unit_1_1 IKEA_Magiker_18Shelf_Unit_with_Legs_WhiteFinish1 ntitled1 Model

v 0.725606 1.43193 -0.42259
v 0.725606 1.43193 -0.0288903
v -0.290394 1.43193 -0.0288903
v -0.290394 1.43193 -0.42259
f 65/44/16 66/42/16 67/2/16 68/43/16 

v 0.725606 1.43828 -0.42259
v 0.725606 1.43828 -0.0288903
f 66/54/5 65/55/5 69/43/5 70/2/5 

v -0.290394 1.43828 -0.42259
f 65/56/17 68/57/17 71/2/17 69/45/17 

v -0.290394 1.43828 -0.0288903
f 68/58/9 67/59/9 72/2/9 71/43/9 

f 67/57/18 66/60/18 70/42/18 72/2/18 

f 70/45/19 69/53/19 71/43/19 72/2/19 

g Mesh9 Group9 IKEA_Magiker_18Shelf_Unit_1_1 IKEA_Magiker_18Shelf_Unit_with_Legs_WhiteFinish1 ntitled1 Model

v 0.725606 0.752475 -0.42259
v 0.725606 0.752475 -0.0288903
v -0.290394 0.752475 -0.0288903
v -0.290394 0.752475 -0.42259
f 73/44/16 74/42/16 75/2/16 76/43/16 

v 0.725606 0.758825 -0.42259
v 0.725606 0.758825 -0.0288903
f 74/54/5 73/55/5 77/43/5 78/2/5 

v -0.290394 0.758825 -0.42259
f 73/56/17 76/57/17 79/2/17 77/45/17 

v -0.290394 0.758825 -0.0288903
f 76/58/9 75/59/9 80/2/9 79/43/9 

f 75/57/18 74/60/18 78/42/18 80/2/18 

f 78/45/19 77/53/19 79/43/19 80/2/19 

g Mesh10 Group10 IKEA_Magiker_18Shelf_Unit_1_1 IKEA_Magiker_18Shelf_Unit_with_Legs_WhiteFinish1 ntitled1 Model

v 0.725606 0.415925 -0.42259
v 0.725606 0.415925 -0.0288903
v -0.290394 0.415925 -0.0288903
v -0.290394 0.415925 -0.42259
f 81/44/16 82/42/16 83/2/16 84/43/16 

v 0.725606 0.422275 -0.42259
v 0.725606 0.422275 -0.0288903
f 82/54/5 81/55/5 85/43/5 86/2/5 

v -0.290394 0.422275 -0.42259
f 81/56/17 84/57/17 87/2/17 85/45/17 

v -0.290394 0.422275 -0.0288903
f 84/58/9 83/59/9 88/2/9 87/43/9 

f 83/57/18 82/60/18 86/42/18 88/2/18 

f 86/45/19 85/53/19 87/43/19 88/2/19 

g Mesh11 Group11 IKEA_Magiker_18Shelf_Unit_1_1 IKEA_Magiker_18Shelf_Unit_with_Legs_WhiteFinish1 ntitled1 Model

v 0.0514642 0.0821317 -0.42259
vt -0.947739 0
vn 1 -6.25689e-028 -4.02151e-013
v 0.0514642 0.415507 -0.42259
v 0.0514642 0.415507 -0.0288903
v 0.0514642 0.0821317 -0.0288903
vt -0.947739 0.372139
f 89/61/20 90/2/20 91/43/20 92/62/20 

vn -4.02151e-013 -2.55546e-013 -1
vt -0.947739 0.00600224
v 0.0451142 0.0821317 -0.42259
v 0.0451142 0.415507 -0.42259
f 90/57/21 89/63/21 93/61/21 94/2/21 

vn 1.02142e-025 -1 2.55546e-013
v 0.0451142 0.0821317 -0.0288903
f 89/54/22 92/55/22 95/43/22 93/2/22 

vt 0.947739 0.00600224
vn 4.02151e-013 2.55546e-013 1
v 0.0451142 0.415507 -0.0288903
vt 0.947739 0
f 92/64/23 91/57/23 96/2/23 95/65/23 

vn -1.02142e-025 1 -2.55546e-013
f 91/58/24 90/59/24 94/2/24 96/43/24 

vn -1 6.25689e-028 4.02151e-013
vt 0.947739 0.372139
f 94/2/25 93/65/25 95/66/25 96/43/25 

g Mesh12 Group12 IKEA_Magiker_18Shelf_Unit_1_1 IKEA_Magiker_18Shelf_Unit_with_Legs_WhiteFinish1 ntitled1 Model

v 0.0514642 0.422275 -0.42259
v 0.0514642 0.75565 -0.42259
v 0.0514642 0.75565 -0.0288903
v 0.0514642 0.422275 -0.0288903
f 97/61/20 98/2/20 99/43/20 100/62/20 

v 0.0451142 0.422275 -0.42259
v 0.0451142 0.75565 -0.42259
f 98/57/21 97/63/21 101/61/21 102/2/21 

v 0.0451142 0.422275 -0.0288903
f 97/54/22 100/55/22 103/43/22 101/2/22 

v 0.0451142 0.75565 -0.0288903
f 100/64/23 99/57/23 104/2/23 103/65/23 

f 99/58/24 98/59/24 102/2/24 104/43/24 

f 102/2/25 101/65/25 103/66/25 104/43/25 

g Mesh13 Group13 IKEA_Magiker_18Shelf_Unit_1_1 IKEA_Magiker_18Shelf_Unit_with_Legs_WhiteFinish1 ntitled1 Model

v 0.390122 0.0821317 -0.42259
v 0.390122 0.415507 -0.42259
v 0.390122 0.415507 -0.0288903
v 0.390122 0.0821317 -0.0288903
f 105/61/20 106/2/20 107/43/20 108/62/20 

v 0.383772 0.0821317 -0.42259
v 0.383772 0.415507 -0.42259
f 106/57/21 105/63/21 109/61/21 110/2/21 

v 0.383772 0.0821317 -0.0288903
f 105/54/22 108/55/22 111/43/22 109/2/22 

v 0.383772 0.415507 -0.0288903
f 108/64/23 107/57/23 112/2/23 111/65/23 

f 107/58/24 106/59/24 110/2/24 112/43/24 

f 110/2/25 109/65/25 111/66/25 112/43/25 

g Mesh14 Group14 IKEA_Magiker_18Shelf_Unit_1_1 IKEA_Magiker_18Shelf_Unit_with_Legs_WhiteFinish1 ntitled1 Model

v 0.390122 0.422275 -0.42259
v 0.390122 0.75565 -0.42259
v 0.390122 0.75565 -0.0288903
v 0.390122 0.422275 -0.0288903
f 113/61/20 114/2/20 115/43/20 116/62/20 

v 0.383772 0.422275 -0.42259
v 0.383772 0.75565 -0.42259
f 114/57/21 113/63/21 117/61/21 118/2/21 

v 0.383772 0.422275 -0.0288903
f 113/54/22 116/55/22 119/43/22 117/2/22 

v 0.383772 0.75565 -0.0288903
f 116/64/23 115/57/23 120/2/23 119/65/23 

f 115/58/24 114/59/24 118/2/24 120/43/24 

f 118/2/25 117/65/25 119/66/25 120/43/25 

g Mesh15 Group15 IKEA_Magiker_18Shelf_Unit_1_1 IKEA_Magiker_18Shelf_Unit_with_Legs_WhiteFinish1 ntitled1 Model

v 0.0514642 0.758825 -0.42259
v 0.0514642 1.0922 -0.42259
v 0.0514642 1.0922 -0.0288903
v 0.0514642 0.758825 -0.0288903
f 121/61/20 122/2/20 123/43/20 124/62/20 

v 0.0451142 0.758825 -0.42259
v 0.0451142 1.0922 -0.42259
f 122/57/21 121/63/21 125/61/21 126/2/21 

v 0.0451142 0.758825 -0.0288903
f 121/54/22 124/55/22 127/43/22 125/2/22 

v 0.0451142 1.0922 -0.0288903
f 124/64/23 123/57/23 128/2/23 127/65/23 

f 123/58/24 122/59/24 126/2/24 128/43/24 

f 126/2/25 125/65/25 127/66/25 128/43/25 

g Mesh16 Group16 IKEA_Magiker_18Shelf_Unit_1_1 IKEA_Magiker_18Shelf_Unit_with_Legs_WhiteFinish1 ntitled1 Model

v 0.0514642 1.1049 -0.42259
v 0.0514642 1.43828 -0.42259
v 0.0514642 1.43828 -0.0288903
v 0.0514642 1.1049 -0.0288903
f 129/61/20 130/2/20 131/43/20 132/62/20 

v 0.0451142 1.1049 -0.42259
v 0.0451142 1.43828 -0.42259
f 130/57/21 129/63/21 133/61/21 134/2/21 

v 0.0451142 1.1049 -0.0288903
f 129/54/22 132/55/22 135/43/22 133/2/22 

v 0.0451142 1.43828 -0.0288903
f 132/64/23 131/57/23 136/2/23 135/65/23 

f 131/58/24 130/59/24 134/2/24 136/43/24 

f 134/2/25 133/65/25 135/66/25 136/43/25 

g Mesh17 Group17 IKEA_Magiker_18Shelf_Unit_1_1 IKEA_Magiker_18Shelf_Unit_with_Legs_WhiteFinish1 ntitled1 Model

v 0.390122 0.758825 -0.42259
v 0.390122 1.0922 -0.42259
v 0.390122 1.0922 -0.0288903
v 0.390122 0.758825 -0.0288903
f 137/61/20 138/2/20 139/43/20 140/62/20 

v 0.383772 0.758825 -0.42259
v 0.383772 1.0922 -0.42259
f 138/57/21 137/63/21 141/61/21 142/2/21 

v 0.383772 0.758825 -0.0288903
f 137/54/22 140/55/22 143/43/22 141/2/22 

v 0.383772 1.0922 -0.0288903
f 140/64/23 139/57/23 144/2/23 143/65/23 

f 139/58/24 138/59/24 142/2/24 144/43/24 

f 142/2/25 141/65/25 143/66/25 144/43/25 

g Mesh18 Group18 IKEA_Magiker_18Shelf_Unit_1_1 IKEA_Magiker_18Shelf_Unit_with_Legs_WhiteFinish1 ntitled1 Model

v 0.390122 1.1049 -0.42259
v 0.390122 1.43828 -0.42259
v 0.390122 1.43828 -0.0288903
v 0.390122 1.1049 -0.0288903
f 145/61/20 146/2/20 147/43/20 148/62/20 

v 0.383772 1.1049 -0.42259
v 0.383772 1.43828 -0.42259
f 146/57/21 145/63/21 149/61/21 150/2/21 

v 0.383772 1.1049 -0.0288903
f 145/54/22 148/55/22 151/43/22 149/2/22 

v 0.383772 1.43828 -0.0288903
f 148/64/23 147/57/23 152/2/23 151/65/23 

f 147/58/24 146/59/24 150/2/24 152/43/24 

f 150/2/25 149/65/25 151/66/25 152/43/25 

g Mesh19 Group19 IKEA_Magiker_18Shelf_Unit_1_1 IKEA_Magiker_18Shelf_Unit_with_Legs_WhiteFinish1 ntitled1 Model

v 0.0514642 1.43828 -0.42259
v 0.0514642 1.77165 -0.42259
v 0.0514642 1.77165 -0.0288903
v 0.0514642 1.43828 -0.0288903
f 153/61/20 154/2/20 155/43/20 156/62/20 

v 0.0451142 1.43828 -0.42259
v 0.0451142 1.77165 -0.42259
f 154/57/21 153/63/21 157/61/21 158/2/21 

v 0.0451142 1.43828 -0.0288903
f 153/54/22 156/55/22 159/43/22 157/2/22 

v 0.0451142 1.77165 -0.0288903
f 156/64/23 155/57/23 160/2/23 159/65/23 

f 155/58/24 154/59/24 158/2/24 160/43/24 

f 158/2/25 157/65/25 159/66/25 160/43/25 

g Mesh20 Group20 IKEA_Magiker_18Shelf_Unit_1_1 IKEA_Magiker_18Shelf_Unit_with_Legs_WhiteFinish1 ntitled1 Model

v 0.390122 1.43828 -0.42259
v 0.390122 1.77165 -0.42259
v 0.390122 1.77165 -0.0288903
v 0.390122 1.43828 -0.0288903
f 161/61/20 162/2/20 163/43/20 164/62/20 

v 0.383772 1.43828 -0.42259
v 0.383772 1.77165 -0.42259
f 162/57/21 161/63/21 165/61/21 166/2/21 

v 0.383772 1.43828 -0.0288903
f 161/54/22 164/55/22 167/43/22 165/2/22 

v 0.383772 1.77165 -0.0288903
f 164/64/23 163/57/23 168/2/23 167/65/23 

f 163/58/24 162/59/24 166/2/24 168/43/24 

f 166/2/25 165/65/25 167/66/25 168/43/25 

g Mesh21 Group21 IKEA_Magiker_18Shelf_Unit_1_1 IKEA_Magiker_18Shelf_Unit_with_Legs_WhiteFinish1 ntitled1 Model

v 0.0515104 1.77483 -0.42259
v 0.0515104 2.1082 -0.42259
v 0.0515104 2.1082 -0.0288903
v 0.0515104 1.77483 -0.0288903
f 169/61/20 170/2/20 171/43/20 172/62/20 

v 0.0451604 1.77483 -0.42259
v 0.0451604 2.1082 -0.42259
f 170/57/21 169/63/21 173/61/21 174/2/21 

v 0.0451604 1.77483 -0.0288903
f 169/54/22 172/55/22 175/43/22 173/2/22 

v 0.0451604 2.1082 -0.0288903
f 172/64/23 171/57/23 176/2/23 175/65/23 

f 171/58/24 170/59/24 174/2/24 176/43/24 

f 174/2/25 173/65/25 175/66/25 176/43/25 

g Mesh22 Group22 IKEA_Magiker_18Shelf_Unit_1_1 IKEA_Magiker_18Shelf_Unit_with_Legs_WhiteFinish1 ntitled1 Model

v 0.390122 1.77483 -0.42259
v 0.390122 2.1082 -0.42259
v 0.390122 2.1082 -0.0288903
v 0.390122 1.77483 -0.0288903
f 177/61/20 178/2/20 179/43/20 180/62/20 

v 0.383772 1.77483 -0.42259
v 0.383772 2.1082 -0.42259
f 178/57/21 177/63/21 181/61/21 182/2/21 

v 0.383772 1.77483 -0.0288903
f 177/54/22 180/55/22 183/43/22 181/2/22 

v 0.383772 2.1082 -0.0288903
f 180/64/23 179/57/23 184/2/23 183/65/23 

f 179/58/24 178/59/24 182/2/24 184/43/24 

f 182/2/25 181/65/25 183/66/25 184/43/25 

