# Alias OBJ Model File
# Exported from SketchUp, (c) 2000-2012 Trimble Navigation Limited
# File units = meters

mtllib shelf1.mtl

g Mesh1 SHELVS1 Model

usemtl FrontColor
v 2.44672 0.926923 -1.99973
vt 40.7739 73.9747
vn 0 1 -6.08446e-016
v 2.44672 0.926923 -1.40649
vt 40.7739 50.6188
v 2.81801 0.926923 -1.40649
vt 55.3916 50.6188
v 2.81801 0.926923 -1.99973
vt 55.3916 73.9747
f 1/1/1 2/2/1 3/3/1 4/4/1 

vt 73.9747 36.493
vn 1 1.88039e-016 1.72618e-016
v 2.44672 0.96 -1.40649
vt 50.6188 37.7953
vt 50.6188 36.493
f 1/5/2 5/6/2 2/7/2

v 2.44672 0.96 -1.99973
vt 73.9747 37.7953
f 5/6/2 1/5/2 6/8/2

v 2.44672 0.48 -1.99973
vt 73.9747 18.8976
vn 1 6.376e-017 -1.06882e-015
v 2.44672 0.48 -2.03281
vt 75.277 18.8976
v 2.44672 0.926923 -2.03281
vt 75.277 36.493
v 2.44672 0.926923 -2.62605
vt 98.633 36.493
v 2.44672 0.926923 -2.64605
vt 99.4204 36.493
v 2.44672 0.96 -2.64605
vt 99.4204 37.7953
v 2.44672 0.96 -2.62605
vt 98.633 37.7953
v 2.44672 0.96 -2.03281
vt 75.277 37.7953
f 7/9/3 8/10/3 9/11/3 10/12/3 11/13/3 12/14/3 13/15/3 14/16/3 6/8/3 1/5/3 

v 2.44672 4.06075e-016 -1.99973
vt 73.9747 2.74186e-014
vn 1 -2.80361e-016 -9.21662e-016
v 2.44672 2.25597e-017 -2.62605
vt 98.633 1.23196e-014
v 2.44672 2.25597e-017 -2.64605
vt 99.4204 1.23196e-014
v 2.44672 0.0330774 -2.64605
vt 99.4204 1.30226
v 2.44672 0.0330774 -2.62605
vt 98.633 1.30226
v 2.44672 0.0330774 -2.03281
vt 75.277 1.30226
v 2.44672 0.446923 -2.03281
vt 75.277 17.5954
v 2.44672 0.446923 -2.62605
vt 98.633 17.5954
v 2.44672 0.446923 -2.64605
vt 99.4204 17.5954
v 2.44672 0.48 -2.64605
vt 99.4204 18.8976
v 2.44672 0.48 -2.62605
vt 98.633 18.8976
v 2.44672 0.446923 -1.99973
vt 73.9747 17.5954
v 2.44672 0.0330774 -1.99973
vt 73.9747 1.30226
f 15/17/4 16/18/4 17/19/4 18/20/4 19/21/4 20/22/4 21/23/4 22/24/4 23/25/4 24/26/4 25/27/4 8/10/4 7/9/4 26/28/4 27/29/4 

v 2.81801 0 -2.62605
vt -55.3916 98.633
vn -6.07603e-017 -1 -0
vt -40.7739 98.633
vt -40.7739 99.4204
v 2.81801 0 -2.64605
vt -55.3916 99.4204
f 28/30/5 16/31/5 17/32/5 29/33/5 

v 2.44672 1.92 -2.64605
vt -40.7739 75.5906
vn 2.31784e-016 6.41642e-017 -1
v 2.81801 1.92 -2.64605
vt -55.3916 75.5906
vt -55.3916 -6.37923e-015
vt -40.7739 -5.49105e-015
vt -40.7739 1.30226
vt -40.7739 17.5954
vt -40.7739 18.8976
vt -40.7739 36.493
vt -40.7739 37.7953
v 2.44672 1.40692 -2.64605
vt -40.7739 55.3907
v 2.44672 1.44 -2.64605
vt -40.7739 56.6929
v 2.44672 1.88692 -2.64605
vt -40.7739 74.2883
f 30/34/6 31/35/6 29/36/6 17/37/6 18/38/6 23/39/6 24/40/6 11/41/6 12/42/6 32/43/6 33/44/6 34/45/6 

vn -2.43041e-015 -1 3.60195e-016
v 2.81801 1.92 -0.120773
vt -55.3916 -2.72274e-014
v 2.44672 1.92 -0.120773
vt -40.7739 -2.72274e-014
f 31/33/7 35/46/7 36/47/7 30/32/7 

vt 4.90938e-014 75.5906
vn 1 -3.05784e-015 8.86304e-016
v 2.81801 1.88692 -0.15385
vt 1.30226 74.2883
vt 99.4204 75.5906
f 35/48/8 37/49/8 31/50/8

v 2.81801 0.0330774 -0.15385
vt 1.30226 1.30226
f 37/49/8 35/48/8 38/51/8

v 2.81801 0 -0.120773
vt 4.90938e-014 1.69379e-013
f 39/52/8 38/51/8 35/48/8

vt 98.633 1.69379e-013
f 38/51/8 39/52/8 28/53/8

v 2.81801 0.0330774 -0.747092
vt 24.6582 1.30226
f 38/51/8 28/53/8 40/54/8

v 2.81801 0.0330774 -0.78017
vt 25.9605 1.30226
f 40/54/8 28/53/8 41/55/8

v 2.81801 0.0330774 -1.37341
vt 49.3165 1.30226
f 41/55/8 28/53/8 42/56/8

v 2.81801 0.0330774 -1.40649
vt 50.6188 1.30226
f 42/56/8 28/53/8 43/57/8

v 2.81801 0.0330774 -1.99973
f 43/57/8 28/53/8 44/29/8

v 2.81801 0.0330774 -2.03281
f 44/29/8 28/53/8 45/22/8

v 2.81801 0.0330774 -2.62605
f 45/22/8 28/53/8 46/21/8

vt 99.4204 1.69379e-013
f 46/21/8 28/53/8 29/58/8

v 2.81801 0.446923 -2.62605
f 46/21/8 29/58/8 47/24/8

v 2.81801 0.48 -2.62605
f 47/24/8 29/58/8 48/27/8

v 2.81801 0.926923 -2.62605
f 48/27/8 29/58/8 49/12/8

v 2.81801 0.96 -2.62605
f 49/12/8 29/58/8 50/15/8

v 2.81801 1.40692 -2.62605
vt 98.633 55.3907
f 50/15/8 29/58/8 51/59/8

v 2.81801 1.44 -2.62605
vt 98.633 56.6929
f 51/59/8 29/58/8 52/60/8

v 2.81801 1.88692 -2.62605
vt 98.633 74.2883
f 52/60/8 29/58/8 53/61/8

f 31/50/8 53/61/8 29/58/8

v 2.81801 1.88692 -2.03281
vt 75.277 74.2883
f 31/50/8 54/62/8 53/61/8

v 2.81801 1.88692 -1.99973
vt 73.9747 74.2883
f 31/50/8 55/63/8 54/62/8

v 2.81801 1.88692 -1.40649
vt 50.6188 74.2883
f 31/50/8 56/64/8 55/63/8

v 2.81801 1.88692 -1.37341
vt 49.3165 74.2883
f 31/50/8 57/65/8 56/64/8

v 2.81801 1.88692 -0.78017
vt 25.9605 74.2883
f 31/50/8 58/66/8 57/65/8

v 2.81801 1.88692 -0.747092
vt 24.6582 74.2883
f 31/50/8 59/67/8 58/66/8

f 31/50/8 37/49/8 59/67/8

v 2.44672 1.88692 -0.747092
vt 40.7739 24.6582
vn -4.04652e-032 1 -6.08446e-016
v 2.44672 1.88692 -0.15385
vt 40.7739 1.30226
vt 55.3916 1.30226
vt 55.3916 24.6582
f 60/68/9 61/69/9 37/70/9 59/71/9 

f 30/50/2 61/49/2 60/67/2

vt 7.0383e-015 75.5906
f 36/72/2 61/49/2 30/50/2

v 2.44672 0.0330774 -0.15385
f 61/49/2 36/72/2 62/51/2

v 2.44672 1.55662e-015 -0.120773
vt 7.0383e-015 5.36172e-014
f 63/73/2 62/51/2 36/72/2

v 2.44672 1.17311e-015 -0.747092
vt 24.6582 3.85182e-014
f 62/51/2 63/73/2 64/74/2

v 2.44672 0.0330774 -0.747092
f 62/51/2 64/74/2 65/54/2

v 2.44672 7.89591e-016 -1.37341
vt 49.3165 2.34192e-014
f 66/75/2 65/54/2 64/74/2

v 2.44672 0.0330774 -0.78017
f 65/54/2 66/75/2 67/55/2

v 2.44672 0.0330774 -1.37341
f 67/55/2 66/75/2 68/56/2

vt 73.9747 8.32014e-015
f 15/76/2 68/56/2 66/75/2

v 2.44672 0.0330774 -1.40649
f 68/56/2 15/76/2 69/57/2

f 69/57/2 15/76/2 27/29/2

vt -40.7739 50.6188
vn -8.96831e-044 -1 5.79925e-016
vt -40.7739 73.9747
vt -55.3916 73.9747
vt -55.3916 50.6188
f 69/77/10 27/78/10 44/79/10 43/80/10 

vn 0 0 -1
v 2.81801 0.446923 -1.99973
vt -55.3916 17.5954
vt -55.3916 1.30226
f 27/38/11 26/39/11 70/81/11 44/82/11 

vn 0 1 -7.60557e-016
v 2.44672 0.446923 -1.40649
v 2.81801 0.446923 -1.40649
f 26/1/12 71/2/12 72/3/12 70/4/12 

v 2.44672 0.48 -1.40649
vt 50.6188 18.8976
vt 50.6188 17.5954
f 26/28/2 73/83/2 71/84/2

f 73/83/2 26/28/2 7/9/2

vn 1.21521e-016 -1 8.36613e-016
v 2.81801 0.48 -1.99973
v 2.81801 0.48 -1.40649
f 73/77/13 7/78/13 74/79/13 75/80/13 

vt -55.3916 36.493
vt -55.3916 18.8976
f 7/40/11 1/41/11 4/85/11 74/86/11 

f 74/9/8 45/22/8 4/5/8

f 70/28/8 45/22/8 74/9/8

f 44/29/8 45/22/8 70/28/8

f 75/83/8 70/28/8 74/9/8

f 70/28/8 75/83/8 72/84/8

f 56/64/8 72/84/8 75/83/8

f 56/64/8 43/57/8 72/84/8

f 56/64/8 57/65/8 43/57/8

v 2.81801 1.44 -1.37341
vt 49.3165 56.6929
f 76/87/8 43/57/8 57/65/8

v 2.81801 1.40692 -1.37341
vt 49.3165 55.3907
f 77/88/8 43/57/8 76/87/8

v 2.81801 0.96 -1.37341
vt 49.3165 37.7953
f 78/89/8 43/57/8 77/88/8

v 2.81801 0.926923 -1.37341
vt 49.3165 36.493
f 79/90/8 43/57/8 78/89/8

v 2.81801 0.48 -1.37341
vt 49.3165 18.8976
f 80/91/8 43/57/8 79/90/8

v 2.81801 0.446923 -1.37341
vt 49.3165 17.5954
f 81/92/8 43/57/8 80/91/8

f 42/56/8 43/57/8 81/92/8

v 2.44672 0.446923 -1.37341
f 68/38/11 82/39/11 81/81/11 42/82/11 

f 68/56/2 69/57/2 82/92/2

v 2.44672 0.48 -1.37341
f 82/92/2 69/57/2 83/91/2

v 2.44672 0.926923 -1.37341
f 83/91/2 69/57/2 84/90/2

v 2.44672 0.96 -1.37341
f 84/90/2 69/57/2 85/89/2

v 2.44672 1.40692 -1.37341
f 85/89/2 69/57/2 86/88/2

v 2.44672 1.44 -1.37341
f 86/88/2 69/57/2 87/87/2

v 2.44672 1.88692 -1.37341
f 87/87/2 69/57/2 88/65/2

v 2.44672 1.88692 -1.40649
f 89/64/2 88/65/2 69/57/2

f 30/50/2 88/65/2 89/64/2

v 2.44672 1.88692 -0.78017
f 30/50/2 90/66/2 88/65/2

f 30/50/2 60/67/2 90/66/2

f 90/66/2 60/67/2 67/55/2

v 2.44672 1.44 -0.747092
vt 24.6582 56.6929
f 91/93/2 67/55/2 60/67/2

v 2.44672 1.40692 -0.747092
vt 24.6582 55.3907
f 92/94/2 67/55/2 91/93/2

v 2.44672 0.96 -0.747092
vt 24.6582 37.7953
f 93/95/2 67/55/2 92/94/2

v 2.44672 0.926923 -0.747092
vt 24.6582 36.493
f 94/96/2 67/55/2 93/95/2

v 2.44672 0.48 -0.747092
vt 24.6582 18.8976
f 95/97/2 67/55/2 94/96/2

v 2.44672 0.446923 -0.747092
vt 24.6582 17.5954
f 96/98/2 67/55/2 95/97/2

f 65/54/2 67/55/2 96/98/2

v 2.81801 0.446923 -0.747092
f 65/38/11 96/39/11 97/81/11 40/82/11 

vn -5.05815e-032 1 -7.60557e-016
v 2.44672 0.446923 -0.15385
v 2.81801 0.446923 -0.15385
f 96/68/14 98/69/14 99/70/14 97/71/14 

v 2.44672 0.48 -0.15385
vt 1.30226 18.8976
vt 1.30226 17.5954
f 96/98/2 100/99/2 98/100/2

f 100/99/2 96/98/2 95/97/2

vn 5.05815e-032 -1 7.60557e-016
vt -40.7739 24.6582
v 2.81801 0.48 -0.747092
vt -55.3916 24.6582
v 2.81801 0.48 -0.15385
f 100/38/15 95/101/15 101/102/15 102/82/15 

v 2.81801 0.926923 -0.747092
f 95/40/11 94/41/11 103/85/11 101/86/11 

v 2.44672 0.926923 -0.15385
v 2.81801 0.926923 -0.15385
f 94/68/9 104/69/9 105/70/9 103/71/9 

v 2.44672 0.96 -0.15385
vt 1.30226 37.7953
vt 1.30226 36.493
f 94/96/2 106/103/2 104/104/2

f 106/103/2 94/96/2 93/95/2

vn 2.43041e-016 -1 7.60557e-016
v 2.81801 0.96 -0.747092
v 2.81801 0.96 -0.15385
f 106/38/16 93/101/16 107/102/16 108/82/16 

v 2.81801 1.40692 -0.747092
vt -55.3916 55.3907
vt -55.3916 37.7953
f 93/42/11 92/43/11 109/105/11 107/106/11 

vn 0 1 -0
v 2.44672 1.40692 -0.15385
v 2.81801 1.40692 -0.15385
f 92/68/17 110/69/17 111/70/17 109/71/17 

v 2.44672 1.44 -0.15385
vt 1.30226 56.6929
vt 1.30226 55.3907
f 92/94/2 112/107/2 110/108/2

f 112/107/2 92/94/2 91/93/2

vn 2.43041e-016 -1 1.52111e-016
v 2.81801 1.44 -0.747092
v 2.81801 1.44 -0.15385
f 112/38/18 91/101/18 113/102/18 114/82/18 

vt -55.3916 74.2883
vt -55.3916 56.6929
f 91/44/11 60/45/11 59/109/11 113/110/11 

f 113/93/8 41/55/8 59/67/8

f 109/94/8 41/55/8 113/93/8

f 107/95/8 41/55/8 109/94/8

f 103/96/8 41/55/8 107/95/8

f 101/97/8 41/55/8 103/96/8

f 97/98/8 41/55/8 101/97/8

f 40/54/8 41/55/8 97/98/8

f 102/99/8 97/98/8 101/97/8

f 97/98/8 102/99/8 99/100/8

f 37/49/8 99/100/8 102/99/8

f 37/49/8 38/51/8 99/100/8

vt 40.7739 17.5954
vn 0 0 1
vt 55.3916 17.5954
f 98/111/19 62/69/19 38/70/19 99/112/19 

f 61/49/2 62/51/2 98/100/2

f 61/49/2 98/100/2 100/99/2

f 61/49/2 100/99/2 104/104/2

vt 40.7739 36.493
vt 40.7739 18.8976
vt 55.3916 18.8976
vt 55.3916 36.493
f 104/113/19 100/114/19 102/115/19 105/116/19 

f 37/49/8 102/99/8 105/104/8

f 37/49/8 105/104/8 108/103/8

f 103/96/8 108/103/8 105/104/8

f 108/103/8 103/96/8 107/95/8

f 37/49/8 108/103/8 111/108/8

vt 40.7739 55.3907
vt 40.7739 37.7953
vt 55.3916 37.7953
vt 55.3916 55.3907
f 110/117/19 106/118/19 108/119/19 111/120/19 

f 61/49/2 106/103/2 110/108/2

f 61/49/2 104/104/2 106/103/2

f 61/49/2 110/108/2 112/107/2

vt 40.7739 74.2883
vt 40.7739 56.6929
vt 55.3916 56.6929
vt 55.3916 74.2883
f 61/121/19 112/122/19 114/123/19 37/124/19 

f 37/49/8 111/108/8 114/107/8

f 109/94/8 114/107/8 111/108/8

f 114/107/8 109/94/8 113/93/8

vn 3.85684e-032 -1 5.79925e-016
f 62/38/20 65/101/20 40/102/20 38/82/20 

f 58/66/8 59/67/8 41/55/8

v 2.81801 0.446923 -0.78017
vt 25.9605 17.5954
f 58/66/8 41/55/8 115/125/8

v 2.44672 0.446923 -0.78017
f 116/111/19 67/69/19 41/70/19 115/112/19 

f 90/66/2 67/55/2 116/125/2

v 2.44672 0.48 -0.78017
vt 25.9605 18.8976
f 90/66/2 116/125/2 117/126/2

f 82/92/2 117/126/2 116/125/2

f 117/126/2 82/92/2 83/91/2

vt -40.7739 25.9605
vn 0 -1 6.08446e-016
vt -40.7739 49.3165
vt -55.3916 49.3165
v 2.81801 0.48 -0.78017
vt -55.3916 25.9605
f 117/127/21 83/128/21 80/129/21 118/130/21 

f 83/40/11 84/41/11 79/85/11 80/86/11 

vt 40.7739 49.3165
vn 1.79366e-043 1 -9.12669e-016
v 2.44672 0.926923 -0.78017
vt 40.7739 25.9605
v 2.81801 0.926923 -0.78017
vt 55.3916 25.9605
vt 55.3916 49.3165
f 84/131/22 119/132/22 120/133/22 79/134/22 

v 2.44672 0.96 -0.78017
vt 25.9605 37.7953
vt 25.9605 36.493
f 84/90/2 121/135/2 119/136/2

f 121/135/2 84/90/2 85/89/2

vn 2.43041e-016 -1 1.06478e-015
v 2.81801 0.96 -0.78017
f 121/127/23 85/128/23 78/129/23 122/130/23 

f 85/42/11 86/43/11 77/105/11 78/106/11 

v 2.44672 1.40692 -0.78017
v 2.81801 1.40692 -0.78017
f 86/131/17 123/132/17 124/133/17 77/134/17 

v 2.44672 1.44 -0.78017
vt 25.9605 56.6929
vt 25.9605 55.3907
f 86/88/2 125/137/2 123/138/2

f 125/137/2 86/88/2 87/87/2

vn 0 -1 -0
v 2.81801 1.44 -0.78017
f 125/127/24 87/128/24 76/129/24 126/130/24 

f 87/44/11 88/45/11 57/109/11 76/110/11 

vn 1.79366e-043 1 -1.21689e-015
f 88/131/25 90/132/25 58/133/25 57/134/25 

f 90/121/19 125/122/19 126/123/19 58/124/19 

f 90/66/2 123/138/2 125/137/2

f 90/66/2 121/135/2 123/138/2

f 90/66/2 119/136/2 121/135/2

f 90/66/2 117/126/2 119/136/2

f 119/113/19 117/114/19 118/115/19 120/116/19 

f 58/66/8 118/126/8 120/136/8

f 58/66/8 115/125/8 118/126/8

f 81/92/8 118/126/8 115/125/8

f 118/126/8 81/92/8 80/91/8

vn 8.96831e-044 1 -6.08446e-016
f 82/131/26 116/132/26 115/133/26 81/134/26 

f 58/66/8 120/136/8 122/135/8

f 79/90/8 122/135/8 120/136/8

f 122/135/8 79/90/8 78/89/8

f 58/66/8 122/135/8 124/138/8

f 123/117/19 121/118/19 122/119/19 124/120/19 

f 58/66/8 124/138/8 126/137/8

f 77/88/8 126/137/8 124/138/8

f 126/137/8 77/88/8 76/87/8

vn 0 -1 5.79925e-016
f 67/127/27 68/128/27 42/129/27 41/130/27 

v 2.44672 1.88692 -1.99973
f 30/50/2 89/64/2 127/63/2

f 127/1/9 89/2/9 56/3/9 55/4/9 

v 2.44672 1.44 -1.40649
v 2.81801 1.44 -1.40649
f 89/121/19 128/122/19 129/123/19 56/124/19 

v 2.44672 1.40692 -1.40649
vt 50.6188 55.3907
vt 50.6188 56.6929
f 89/64/2 130/139/2 128/140/2

f 89/64/2 5/6/2 130/139/2

f 89/64/2 2/7/2 5/6/2

f 89/64/2 73/83/2 2/7/2

f 89/64/2 71/84/2 73/83/2

f 89/64/2 69/57/2 71/84/2

f 71/111/19 69/69/19 43/70/19 72/112/19 

f 2/113/19 73/114/19 75/115/19 3/116/19 

f 56/64/8 75/83/8 3/7/8

v 2.81801 0.96 -1.40649
f 56/64/8 3/7/8 131/6/8

f 4/5/8 131/6/8 3/7/8

v 2.81801 0.96 -1.99973
f 131/6/8 4/5/8 132/8/8

f 4/5/8 45/22/8 132/8/8

v 2.81801 1.40692 -1.99973
vt 73.9747 55.3907
f 132/8/8 45/22/8 133/141/8

f 54/62/8 133/141/8 45/22/8

f 54/62/8 55/63/8 133/141/8

v 2.81801 1.44 -1.99973
vt 73.9747 56.6929
f 134/142/8 133/141/8 55/63/8

f 129/140/8 133/141/8 134/142/8

v 2.81801 1.40692 -1.40649
f 133/141/8 129/140/8 135/139/8

f 56/64/8 135/139/8 129/140/8

f 56/64/8 131/6/8 135/139/8

f 130/117/19 5/118/19 131/119/19 135/120/19 

f 5/77/16 6/78/16 132/79/16 131/80/16 

v 2.44672 1.40692 -1.99973
f 6/42/11 136/43/11 133/105/11 132/106/11 

v 2.44672 1.40692 -2.03281
vt 75.277 55.3907
v 2.44672 1.40692 -2.62605
vt 99.4204 55.3907
vt 99.4204 56.6929
v 2.44672 1.44 -2.62605
v 2.44672 1.44 -2.03281
vt 75.277 56.6929
v 2.44672 1.44 -1.99973
f 6/8/3 14/16/3 137/143/3 138/59/3 32/144/3 33/145/3 139/60/3 140/146/3 141/142/3 136/141/3 

v 2.81801 0.96 -2.03281
v 2.81801 1.40692 -2.03281
f 137/117/19 14/118/19 142/119/19 143/120/19 

vt -40.7739 75.277
vn -2.331e-032 -1 6.08446e-016
vt -55.3916 75.277
f 14/147/28 13/31/28 50/30/28 142/148/28 

f 13/42/11 138/43/11 51/105/11 50/106/11 

vt -98.633 37.7953
vn -1 0 -0
vt -98.633 55.3907
vt -99.4204 55.3907
vt -99.4204 37.7953
f 13/149/29 138/150/29 32/151/29 12/152/29 

vt 40.7739 98.633
vt 40.7739 75.277
vt 55.3916 75.277
vt 55.3916 98.633
f 138/153/17 137/154/17 143/155/17 51/156/17 

v 2.81801 1.44 -2.03281
f 51/59/8 144/146/8 143/143/8

f 144/146/8 51/59/8 52/60/8

f 140/147/24 139/31/24 52/30/24 144/148/24 

v 2.44672 1.88692 -2.62605
f 139/44/11 145/45/11 53/109/11 52/110/11 

vt -98.633 56.6929
vt -98.633 74.2883
vt -99.4204 74.2883
vt -99.4204 56.6929
f 139/157/29 145/158/29 34/159/29 33/160/29 

vt 99.4204 74.2883
f 30/50/2 145/61/2 34/161/2

v 2.44672 1.88692 -2.03281
f 30/50/2 146/62/2 145/61/2

f 30/50/2 127/63/2 146/62/2

f 146/62/2 127/63/2 141/142/2

vn 3.88866e-015 3.23059e-015 -1
f 141/44/30 127/45/30 55/109/30 134/110/30 

f 128/77/24 141/78/24 134/79/24 129/80/24 

f 128/140/2 136/141/2 141/142/2

f 136/141/2 128/140/2 130/139/2

f 136/1/17 130/2/17 135/3/17 133/4/17 

f 146/62/2 141/142/2 140/146/2

f 146/121/19 140/122/19 144/123/19 54/124/19 

f 54/62/8 143/143/8 144/146/8

f 54/62/8 142/16/8 143/143/8

v 2.81801 0.926923 -2.03281
f 54/62/8 147/11/8 142/16/8

v 2.81801 0.48 -2.03281
f 54/62/8 148/10/8 147/11/8

v 2.81801 0.446923 -2.03281
f 54/62/8 149/23/8 148/10/8

f 54/62/8 45/22/8 149/23/8

f 21/111/19 20/69/19 45/70/19 149/112/19 

vn -2.18531e-032 -1 5.70418e-016
f 20/147/31 19/31/31 46/30/31 45/148/31 

f 47/81/11 46/82/11 19/38/11 22/39/11 

vt -98.633 1.30226
vt -98.633 17.5954
vt -99.4204 17.5954
vt -99.4204 1.30226
f 19/162/29 22/163/29 23/164/29 18/165/29 

vn 2.331e-032 1 -6.08446e-016
f 22/153/32 21/154/32 149/155/32 47/156/32 

f 47/24/8 148/10/8 149/23/8

f 148/10/8 47/24/8 48/27/8

f 8/147/28 25/31/28 48/30/28 148/148/28 

f 49/85/11 48/86/11 25/40/11 10/41/11 

vt -98.633 18.8976
vt -98.633 36.493
vt -99.4204 36.493
vt -99.4204 18.8976
f 25/166/29 10/167/29 11/168/29 24/169/29 

f 10/153/32 9/154/32 147/155/32 49/156/32 

f 9/113/19 8/114/19 148/115/19 147/116/19 

f 49/12/8 142/16/8 147/11/8

f 142/16/8 49/12/8 50/15/8

f 145/153/32 146/154/32 54/155/32 53/156/32 

vt -55.3916 0
vn 0 -3.0937e-016 -1
vt -40.7739 6.12843e-014
f 39/170/33 63/171/33 36/34/33 35/35/33 

