# Alias OBJ Model File
# Exported from SketchUp, (c) 2000-2012 Trimble Navigation Limited
# File units = meters

mtllib table5.mtl

g Mesh1 Group1 G_21793_1 Model

usemtl Translucent_Glass_Green_Dark
v -0.368272 0.744222 -0.720546
vt -35.4331 3.55271e-015
vn -1 0 -1.56665e-017
v -0.368272 0.744222 0.179454
vt -1.02641e-017 3.55271e-015
v -0.368272 0.75 0.179454
vt 0 0.227487
v -0.368272 0.75 -0.720546
vt -35.4331 0.227487
f 1/1/1 2/2/1 3/3/1 4/4/1 

vt 1.02458e-031 1.02641e-017
vn -2.88394e-017 -1 -5.01327e-017
vt -5.55112e-016 35.4331
v 1.19624 0.744222 -0.720546
vt -61.5948 35.4331
v 1.19624 0.744222 0.179454
vt -61.5948 8.90536e-032
f 2/5/2 1/6/2 5/7/2 6/8/2 

vt -61.5948 3.55271e-015
vn 0 0 -1
vt -5.55112e-016 3.55271e-015
vt -5.55112e-016 0.227487
v 1.19624 0.75 -0.720546
vt -61.5948 0.227487
f 5/9/3 1/10/3 4/11/3 7/12/3 

vt 5.4199e-016 35.4331
vn 5.76788e-017 1 1.00265e-016
vt -1.31212e-017 2.28091e-017
v 1.19624 0.75 0.179454
vt 61.5948 1.2545e-017
vt 61.5948 35.4331
f 4/13/4 3/14/4 8/15/4 7/16/4 

vt -1.7104e-036 3.55271e-015
vn -1.66639e-019 -4.51195e-017 1
vt 61.5948 -4.6311e-034
vt 61.5948 0.227487
f 2/17/5 6/18/5 8/19/5 3/3/5 

vt 0 0
vn 1 0 -0
vt 35.4331 3.55271e-015
vt 35.4331 0.227487
vt -1.02641e-017 0.227487
f 6/20/6 5/21/6 7/22/6 8/23/6 

g Mesh2 Group2 G_21793_1 Model

usemtl _1
v 1.21327 0 -0.720546
vt -15.5304 0
v 1.19624 0 -0.720546
vt -15.3981 0
v 1.19624 0.744222 -0.720546
vt -15.3981 18.0791
v 1.19624 0.75 -0.720546
vt -15.3981 18.2195
v 1.21327 0.75 -0.720546
vt -15.5304 18.2195
f 9/24/3 10/25/3 11/26/3 12/27/3 13/28/3 

v 1.21327 0 -0.660546
vt -15.5304 22.8351
vn 0 -1 -0
v 1.14896 0 -0.660546
vt -15.031 22.8351
v 1.14896 0 -0.720546
vt -15.031 24.2927
vt -15.3981 24.2927
vt -15.5304 24.2927
f 14/29/7 15/30/7 16/31/7 10/32/7 9/33/7 

vt 15.5304 0
vn 0 0 1
v 1.21327 0.697753 -0.660546
vt 15.5304 16.9503
v 1.15624 0.697753 -0.660546
vt 15.0875 16.9503
v 1.14896 0.697753 -0.660546
vt 15.031 16.9503
vt 15.031 0
f 14/34/8 17/35/8 18/36/8 19/37/8 15/38/8 

vt 6.52277 16.9503
vt 6.52277 0
vt 6.98868 0
vt 6.98868 18.2195
v 1.21327 0.75 0.179454
vt 0 18.2195
v 1.21327 0 0.179454
v 1.21327 0 0.119454
vt 0.465912 0
v 1.21327 0.697753 0.119454
vt 0.465912 16.9503
f 17/39/6 14/40/6 9/41/6 13/42/6 20/43/6 21/20/6 22/44/6 23/45/6 

vt 15.5304 21.8634
vn 0 1 -0
vt 15.3981 21.8634
v 1.19624 0.75 0.179454
vt 15.3981 0
f 13/46/9 12/47/9 24/48/9 20/34/9 

vt 0 18.0791
vn -1 0 -0
vt -6.98868 18.2195
vt -6.98868 18.0791
f 6/49/10 24/43/10 12/50/10 11/51/10 

usemtl _1_1_
vt 1 1
vt 0.735127 1
vt 0.735127 0.992296
v 1.19624 0 0.179454
vt 0.735127 0
vt 1 0
f 20/52/8 24/53/8 6/54/8 25/55/8 21/56/8 

usemtl _1
vt 12.292 0
vt 12.292 18.0791
vt 0.143332 18.0791
v -0.368272 0 0.179454
vt 0.143332 0
v -0.319491 0 0.179454
vt 0.522129 0
v -0.319491 0.697753 0.179454
vt 0.522129 16.9503
v 1.14896 0.697753 0.179454
vt 11.9249 16.9503
v 1.14896 0 0.179454
vt 11.9249 0
f 25/57/8 6/58/8 2/59/8 26/60/8 27/61/8 28/62/8 29/63/8 30/64/8 

v -0.328272 0.744222 0.139454
vt 0.45394 0.971707
vn 5.76788e-017 1 -0
f 31/65/11 2/60/11 6/57/11

vt 0.143332 21.8634
f 2/60/11 31/65/11 1/66/11

v -0.328272 0.744222 -0.680546
vt 0.45394 20.8917
f 32/67/11 1/66/11 31/65/11

vt 12.292 21.8634
f 1/66/11 32/67/11 11/68/11

v 0.401482 0.744222 -0.680546
vt 6.12063 20.8917
f 11/68/11 32/67/11 33/69/11

usemtl _1_2_
vt 0.954241 0.885978
vt 0.655525 0.885978
v -0.328272 0.697753 -0.680546
vt 0.655525 0.830658
v -0.319491 0.697753 -0.680546
vt 0.659119 0.830658
v 0.401482 0.697753 -0.680546
vt 0.954241 0.830658
f 33/70/8 32/71/8 34/72/8 35/73/8 36/74/8 

vt 0.983626 0.885978
vt 0.647969 0.885978
v -0.328272 0.697753 0.139454
vt 0.647969 0.830658
v -0.328272 0.697753 0.119454
vt 0.656156 0.830658
v -0.328272 0.697753 -0.660546
vt 0.97544 0.830658
vt 0.983626 0.830658
f 32/75/6 31/76/6 37/77/6 38/78/6 39/79/6 34/80/6 

vt 0.607666 0.885978
vn -1.68719e-018 -3.48609e-017 -1
v 0.401482 0.744222 0.139454
vt 0.30895 0.885978
v 0.401482 0.697753 0.139454
vt 0.30895 0.830658
v -0.319491 0.697753 0.139454
vt 0.604072 0.830658
vt 0.607666 0.830658
f 31/81/12 40/82/12 41/83/12 42/84/12 37/85/12 

usemtl _1
vt 6.12063 0.971707
f 31/65/11 6/57/11 40/86/11

v 0.432476 0.744222 0.139454
vt 6.3613 0.971707
f 40/86/11 6/57/11 43/87/11

v 1.15624 0.744222 0.139454
vt 11.9814 0.971707
f 43/87/11 6/57/11 44/88/11

v 1.15624 0.744222 -0.680546
vt 11.9814 20.8917
f 44/88/11 6/57/11 45/89/11

f 11/68/11 45/89/11 6/57/11

v 0.432476 0.744222 -0.680546
vt 6.3613 20.8917
f 11/68/11 46/90/11 45/89/11

f 11/68/11 33/69/11 46/90/11

f 40/86/9 43/87/9 46/90/9 33/69/9 

usemtl _1_2_
v 0.432476 0.697753 0.139454
v 0.432476 0.697753 -0.680546
f 46/75/6 43/76/6 47/77/6 48/80/6 

vt 0.296263 0.885978
vn 3.05819e-018 -3.49546e-017 -1
vt 0 0.885978
v 1.15624 0.697753 0.139454
vt 0 0.830658
v 1.14896 0.697753 0.139454
vt 0.00297861 0.830658
vt 0.296263 0.830658
f 43/91/13 44/92/13 49/93/13 50/94/13 47/95/13 

usemtl _1
vt -0.310608 18.0791
vt -6.67807 18.0791
v 1.15624 0.697753 -0.680546
vt -6.67807 16.9503
vt -6.52277 16.9503
v 1.15624 0.697753 0.119454
vt -0.465912 16.9503
vt -0.310608 16.9503
f 44/96/10 45/97/10 51/98/10 18/99/10 52/100/10 49/101/10 

vt 11.9814 18.0791
vt 6.3613 18.0791
vt 6.3613 16.9503
v 1.14896 0.697753 -0.680546
vt 11.9814 16.9503
f 45/102/8 46/103/8 48/104/8 53/63/8 51/105/8 

vt -11.9249 -4.52133e-016
vn -3.17339e-017 -1 2.66741e-017
vt -0.522129 -4.52133e-016
vt -0.522129 0.971707
vt -6.12063 0.971707
vt -6.12063 20.8917
vt -0.522129 20.8917
v -0.319491 0.697753 -0.720546
vt -0.522129 21.8634
v 1.14896 0.697753 -0.720546
vt -11.9249 21.8634
vt -11.9249 20.8917
vt -6.3613 20.8917
vt -6.3613 0.971707
vt -11.9249 0.971707
f 29/106/14 28/107/14 42/108/14 41/109/14 36/110/14 35/111/14 54/112/14 55/113/14 53/114/14 48/115/14 47/116/14 50/117/14 

usemtl _1_2_
v -0.319491 0 0.119454
vt 0.656156 -1.92593e-034
vn 1 1.11692e-017 8.20354e-017
v -0.319491 0.697753 0.119454
vt 0.631595 0.830658
vt 0.631595 -1.92593e-034
f 56/118/15 57/78/15 42/77/15 28/119/15 27/120/15 

usemtl FrontColor
vt -2.64723 -7.95591e-017
vn -1.13604e-016 3.368e-017 -1
v -0.38673 0 0.119454
vt -2.68357e-016 -7.95591e-017
v -0.38673 0.697753 0.119454
vt -2.68357e-016 27.4706
vt -2.30151 27.4706
vt -2.64723 27.4706
f 56/121/16 58/122/16 59/123/16 38/124/16 57/125/16 

usemtl _1
vt 0 1.45756
vt -0.522129 1.45756
vt -0.522129 0
vt -0.143332 0
v -0.38673 0 0.179454
f 58/126/7 56/127/7 27/128/7 26/129/7 60/20/7 

usemtl _1_2_
vt 0.631595 8.94065e-019
vt 0.639151 8.94065e-019
vt 0.639151 0.885978
v -0.368272 0.75 0.179454
vt 0.639151 0.892857
v -0.38673 0.75 0.179454
vt 0.631595 0.892857
f 60/130/8 26/131/8 2/132/8 61/133/8 62/134/8 

vn 1 2.68421e-015 -1.72331e-017
vt 0.631595 0.885978
vt 1 0.885978
v -0.368272 0.75 -0.720546
vt 1 0.892857
f 61/134/17 2/135/17 1/136/17 63/137/17 

usemtl _1
v -0.38673 0.75 -0.720546
vt -0.143332 18.2195
vt -0.143332 18.0791
v -0.368272 0 -0.720546
v -0.38673 0 -0.720546
f 64/43/3 63/138/3 1/139/3 65/129/3 66/20/3 

vt 0 21.8634
f 62/20/9 61/60/9 63/66/9 64/140/9 

vt -6.98868 0
v -0.38673 0 -0.660546
vt -6.52277 0
v -0.38673 0.697753 -0.660546
vt -0.465912 0
f 66/141/10 67/142/10 68/99/10 59/100/10 58/143/10 60/20/10 62/43/10 64/50/10 

v -0.319491 0 -0.720546
vt -0.522129 24.2927
v -0.319491 0 -0.660546
vt -0.522129 22.8351
vt 0 22.8351
vt 0 24.2927
vt -0.143332 24.2927
f 69/144/7 70/145/7 67/146/7 66/147/7 65/148/7 

usemtl _1_3_
vt 0.333333 1
vn 1 1.11692e-017 -8.20354e-017
v -0.319491 0.697753 -0.660546
vt 0 1
f 35/149/18 71/150/18 70/20/18 69/56/18 54/52/18 

usemtl _1_4_
vt 0 -7.10543e-015
vt 1 -7.10543e-015
f 34/150/9 39/151/9 71/152/9 35/52/9 

usemtl _1
vt 0 16.9503
vt 0.45394 16.9503
f 68/153/8 67/20/8 70/61/8 71/62/8 39/154/8 

usemtl _1_2_
vt 0.631595 1
vt 0.607666 1
vt 0.607666 0.0714286
vt 0.631595 0.0714286
f 68/155/7 39/156/7 38/157/7 59/158/7 

usemtl _1
vt -12.292 18.0791
vt -12.292 0
vt -11.9249 0
vt -11.9249 16.9503
vt -0.522129 16.9503
f 69/128/3 65/129/3 1/139/3 11/159/3 10/160/3 16/161/3 55/162/3 54/163/3 

vt -7.29929 0
vt -7.29929 16.9503
vt -7.45459 16.9503
vt -7.7652 16.9503
vt -7.7652 0
f 15/164/10 19/165/10 53/166/10 55/167/10 16/168/10 

usemtl _1_5_
vn 1.86017e-014 1 -6.76792e-015
f 51/52/19 53/150/19 19/151/19 18/152/19 

usemtl _1_2_
vt 0.655525 0.047619
vt 0.659119 0.047619
vt 0.659119 0.0714286
vt 0.655525 0.0714286
f 37/169/9 42/170/9 57/171/9 38/172/9 

usemtl _1
f 40/96/10 33/97/10 36/98/10 41/101/10 

vt 9.8646e-015 16.9503
vn -1 -1.69302e-016 6.56283e-016
v 1.14896 0.697753 0.119454
v 1.14896 0 0.119454
vt -0.465912 -7.9611e-015
vt 9.8646e-015 -7.9611e-015
f 29/173/20 50/101/20 72/100/20 73/174/20 30/175/20 

usemtl _1_1_
vt 0.113148 0.0533333
vn 1.86017e-014 1 6.76792e-015
vt 0.113148 0.08
vt 3.55271e-015 0.08
vt 0 0.0533333
f 49/176/21 52/177/21 72/178/21 50/179/21 

usemtl _1
vt -15.5304 16.9503
vt -15.031 0
vt -15.031 16.9503
vt -15.0875 16.9503
f 23/180/3 22/24/3 73/181/3 72/182/3 52/183/3 

vt -15.031 1.45756
vt -15.5304 1.45756
f 30/181/7 73/184/7 22/185/7 21/24/7 25/25/7 

vn 1.58219e-015 -1 -0
vt -15.0875 1.45756
vt -15.0875 20.4059
vt -15.5304 20.4059
f 23/185/22 52/186/22 18/187/22 17/188/22 

